<?xml version="1.0" encoding="UTF-8" standalone="no"?>
<svg
   xmlns:dc="http://purl.org/dc/elements/1.1/"
   xmlns:cc="http://creativecommons.org/ns#"
   xmlns:rdf="http://www.w3.org/1999/02/22-rdf-syntax-ns#"
   xmlns:svg="http://www.w3.org/2000/svg"
   xmlns="http://www.w3.org/2000/svg"
   version="1.1"
   id="svg4164"
   viewBox="0 0 744.09448819 1052.3622047"
   height="297mm"
   width="210mm">
  <title
     id="title4489">Mariachi Mouse</title>
  <defs
     id="defs4166" />
  <metadata
     id="metadata4169">
    <rdf:RDF>
      <cc:Work
         rdf:about="">
        <dc:format>image/svg+xml</dc:format>
        <dc:type
           rdf:resource="http://purl.org/dc/dcmitype/StillImage" />
        <dc:title>Mariachi Mouse</dc:title>
        <cc:license
           rdf:resource="http://creativecommons.org/licenses/by-sa/3.0/" />
        <dc:date>January 11, 2017</dc:date>
        <dc:creator>
          <cc:Agent>
            <dc:title>Noliah Kyna Caracas</dc:title>
          </cc:Agent>
        </dc:creator>
        <dc:publisher>
          <cc:Agent>
            <dc:title>Noliah Kyna Caracas</dc:title>
          </cc:Agent>
        </dc:publisher>
        <dc:description>A mariachi mouse playing the maracas.</dc:description>
        <dc:contributor>
          <cc:Agent>
            <dc:title>The Creator.</dc:title>
          </cc:Agent>
        </dc:contributor>
      </cc:Work>
      <cc:License
         rdf:about="http://creativecommons.org/licenses/by-sa/3.0/">
        <cc:permits
           rdf:resource="http://creativecommons.org/ns#Reproduction" />
        <cc:permits
           rdf:resource="http://creativecommons.org/ns#Distribution" />
        <cc:requires
           rdf:resource="http://creativecommons.org/ns#Notice" />
        <cc:requires
           rdf:resource="http://creativecommons.org/ns#Attribution" />
        <cc:permits
           rdf:resource="http://creativecommons.org/ns#DerivativeWorks" />
        <cc:requires
           rdf:resource="http://creativecommons.org/ns#ShareAlike" />
      </cc:License>
    </rdf:RDF>
  </metadata>
  <g
     id="layer6">
    <rect
       transform="matrix(0.78804575,0.61561667,-0.64004263,0.7683394,0,0)"
       ry="11.400517"
       y="200.88976"
       x="277.27765"
       height="95.004318"
       width="22.956444"
       id="rect4356"
       style="opacity:1;fill:#803300;fill-opacity:1;stroke:#803300;stroke-width:1.33458555;stroke-opacity:1" />
    <path
       transform="matrix(0.79921126,0.60105022,-0.58687839,0.80967509,0,0)"
       d="m 255.35539,218.37463 a 38.613678,48.855507 0 0 1 -15.48624,-65.47502 38.613678,48.855507 0 0 1 51.40358,-20.99958 38.613678,48.855507 0 0 1 17.70071,64.57036 38.613678,48.855507 0 0 1 -50.64103,23.78127"
       id="path4358"
       style="opacity:1;fill:#d45500;fill-opacity:1;stroke:#d45500;stroke-width:1.13902426;stroke-opacity:1" />
    <rect
       transform="matrix(0.86907394,0.49468221,-0.50381137,0.8638137,0,0)"
       ry="12.104676"
       y="190.80635"
       x="216.60771"
       height="32.232216"
       width="76.686653"
       id="rect4370"
       style="opacity:1;fill:#00ff00;fill-opacity:1;stroke:#00ff00;stroke-width:1.06501448;stroke-opacity:1" />
    <rect
       style="opacity:1;fill:#803300;fill-opacity:1;stroke:#803300;stroke-width:1.33458555;stroke-opacity:1"
       id="rect4473"
       width="22.956444"
       height="95.004318"
       x="844.33881"
       y="-226.89471"
       ry="11.400517"
       transform="matrix(0.54044671,0.84137825,-0.85792328,0.51377782,0,0)" />
    <path
       style="opacity:1;fill:#d45500;fill-opacity:1;stroke:#d45500;stroke-width:1.13902426;stroke-opacity:1"
       id="path4475"
       d="M 847.32741,89.936047 A 38.613678,48.855507 0 0 1 831.84116,24.461027 38.613678,48.855507 0 0 1 883.24474,3.4614467 38.613678,48.855507 0 0 1 900.94546,68.031802 38.613678,48.855507 0 0 1 850.30443,91.813081"
       transform="matrix(0.59502176,0.80370959,0.81406653,-0.58077163,0,0)" />
    <rect
       style="opacity:1;fill:#00ff00;fill-opacity:1;stroke:#00ff00;stroke-width:1.06501448;stroke-opacity:1"
       id="rect4477"
       width="76.686653"
       height="32.232216"
       x="830.67297"
       y="2.2072573"
       ry="12.104676"
       transform="matrix(0.65412957,0.75638252,-0.76323248,0.64612397,0,0)" />
    <path
       d="m 403.94512,639.0445 c -4.59598,-2.08492 -9.13403,-4.56827 -13.05437,-7.77273 -4.05728,-3.83779 -5.55452,-8.87737 -6.58728,-14.19359 -1.19716,-7.21446 -0.99017,-13.54026 0.87053,-20.60818 4.03352,-11.33939 11.32268,-21.00468 18.91241,-30.18434 4.66471,-5.119 9.84401,-9.92582 15.87321,-13.42105 28.16593,-16.32827 43.61066,-30.37577 70.18231,-37.41899 7.5441,-1.58067 15.27294,-1.48351 22.93797,-1.43607 7.29658,-0.15563 14.52624,0.26824 21.6736,1.76599 7.02761,1.77753 14.06813,3.20504 21.28489,4.00617 3.84513,0.12186 7.7833,0.8133 11.6388,0.51856 1.77764,-0.13589 3.51611,-0.59272 5.27697,-0.87177 3.04591,-0.57581 5.62582,-2.12062 8.28269,-3.61124 1.11909,-0.62787 4.48188,-2.50138 3.3688,-1.86291 -53.55978,30.72225 -67.60141,39.84987 -47.16239,26.70546 8.6649,-5.99887 16.23759,-13.36965 23.91448,-20.54388 6.39127,-5.20968 11.69586,-11.44393 16.49829,-18.10304 3.43252,-5.03538 4.83305,-10.97328 6.14846,-16.83083 1.24427,-6.14751 1.35128,-12.44399 1.46271,-18.69257 0.2694,-6.1965 -1.57561,-11.83948 -3.93787,-17.45876 -3.48559,-7.41775 -6.95884,-14.84259 -10.01909,-22.44801 -2.03052,-5.72778 -4.31517,-11.36697 -5.25432,-17.39452 -0.75556,-5.94931 1.68434,-10.8677 4.74344,-15.76315 2.77748,-5.03703 6.7314,-9.19448 10.37583,-13.58671 3.85386,-3.92666 7.32639,-8.16589 11.59122,-11.66394 28.06661,-18.48322 41.65042,-33.7275 68.95545,-33.937 4.11398,0.022 8.22757,0.0848 12.3415,0.11572 4.03456,0.0263 8.06922,0.0288 12.10385,0.031 4.03908,10e-4 8.07815,4e-4 12.11722,6e-5 1.75081,0.0423 5.8104,0.41751 7.22212,1.62524 0.59444,0.50854 0.96022,1.23525 1.44033,1.85288 0,0 -54.99648,33.86622 -54.99648,33.86622 l 0,0 c 0.10161,0.2552 0.51244,0.58576 0.30481,0.76559 -0.10741,0.093 -5.70741,-0.60485 -6.14384,-0.20386 -4.04094,-2e-4 -8.08188,-1e-4 -12.12281,-0.008 -4.04154,-0.01 -8.08304,-0.0265 -12.12446,-0.0595 -4.02422,-0.0253 -8.05848,-0.0981 -12.0725,0.24391 -2.75059,0.33755 -5.40883,0.80377 -7.94372,1.98783 -0.68251,0.31881 -2.64531,1.44205 -1.99393,1.06368 17.64561,-10.24986 35.31856,-20.45258 52.97784,-30.67887 -5.02713,2.33813 -8.7618,5.91505 -12.15292,10.27484 -2.07528,1.77689 -3.45234,3.72826 -5.26412,5.74087 -1.94719,2.16301 -4.34487,3.91922 -5.68966,6.59058 -2.39771,3.81254 -6.06691,7.36245 -6.45668,12.02752 -0.20914,5.50614 2.87195,10.54772 4.23142,15.76215 2.94055,7.58803 6.41517,14.94577 9.94815,22.2732 2.78579,6.36871 5.12889,12.77527 5.23774,19.82849 -0.0724,6.57809 -0.10665,13.18119 -0.92551,19.71812 -1.10359,6.4601 -2.54175,13.01463 -5.21953,19.00816 -4.07019,7.38574 -9.54292,14.20929 -15.88424,19.75758 -7.9797,6.97581 -15.28267,14.71424 -23.60439,21.3099 -21.9045,16.33949 -4.9559,3.92974 -62.88562,37.01981 -3.996,2.28255 -8.57912,3.31345 -13.11304,3.72669 -5.94336,0.40265 -11.90328,-0.15086 -17.79693,-0.94968 -7.19382,-1.11944 -14.22863,-2.91089 -21.39014,-4.18947 -6.99446,-0.84799 -14.00864,-0.99698 -21.05143,-0.85618 -7.32583,0.13058 -14.69859,0.51845 -21.69706,2.91265 -20.79833,7.66918 -46.38199,25.89389 40.43338,-25.07736 1.92456,-1.12995 -3.96432,2.06022 -5.8618,3.23507 -1.9649,1.21659 -3.89034,2.50752 -5.71129,3.93055 -1.76227,1.37717 -3.34533,2.96943 -5.018,4.45414 -7.71047,8.40295 -14.93732,17.45292 -19.72779,27.88222 -0.53323,1.14891 -1.17526,2.25333 -1.59968,3.44672 -1.61939,4.5535 -0.87551,9.51391 -0.60201,14.20356 0.51251,3.74294 0.93851,7.49746 4.16036,9.93362 3.94239,2.63438 8.10265,4.88684 12.45449,6.7766 0,0 -53.90037,35.46453 -53.90037,35.46453 z"
       id="path4503"
       style="opacity:1;fill:#ff8080;fill-opacity:1;stroke:#ff8080;stroke-opacity:1" />
  </g>
  <g
     id="layer5">
    <path
       d="M 58.681103,397.20129 A 30.817066,30.102591 0 0 1 46.321736,356.8585 30.817066,30.102591 0 0 1 87.346252,343.91949 30.817066,30.102591 0 0 1 101.47296,383.70487 30.817066,30.102591 0 0 1 61.057024,398.35784"
       id="path4341"
       style="opacity:1;fill:#ff8080;fill-opacity:1;stroke:#ff8080;stroke-width:0.7970596;stroke-opacity:1" />
    <path
       style="opacity:1;fill:#ff8080;fill-opacity:1;stroke:#ff8080;stroke-width:0.7970596;stroke-opacity:1"
       id="path4461"
       d="m 599.39537,641.48703 a 30.817066,30.102591 0 0 1 -12.35936,-40.34279 30.817066,30.102591 0 0 1 41.02451,-12.93901 30.817066,30.102591 0 0 1 14.12671,39.78538 30.817066,30.102591 0 0 1 -40.41593,14.65297" />
  </g>
  <g
     id="layer3">
    <path
       id="rect4284"
       d="m 340.61572,608.48533 63.55188,-28.65005 129.76744,266.33802 -75.1776,28.74057 z"
       style="opacity:1;fill:#000000;fill-opacity:1;stroke:#000000;stroke-width:0.99653685;stroke-opacity:1" />
    <path
       id="rect4332"
       d="m 26.884361,472.82922 185.604459,0 8.90432,99.78115 -204.925384,-24.62916 z"
       style="opacity:1;fill:#000000;fill-opacity:1;stroke:#000000;stroke-width:0.79748285;stroke-opacity:1"
       transform="matrix(0.91945972,-0.3931842,0.32276672,0.94647855,0,0)" />
    <path
       d="m 162.10406,509.87168 a 39.216198,38.754547 0 0 1 -15.72789,-51.93795 39.216198,38.754547 0 0 1 52.20566,-16.65788 39.216198,38.754547 0 0 1 17.97692,51.22032 39.216198,38.754547 0 0 1 -51.43122,18.86446"
       id="path4334"
       style="opacity:1;fill:#000000;fill-opacity:1;stroke:#000000;stroke-width:0.96603012;stroke-opacity:1" />
    <path
       id="rect4336"
       d="m -536.6532,-248.37718 151.29726,0 2.01133,66.32369 -156.98606,-9.38712 z"
       style="opacity:1;fill:#000000;fill-opacity:1;stroke:#000000;stroke-width:0.67075664;stroke-opacity:1"
       transform="matrix(-0.69604264,-0.71800045,0.87837004,-0.47798125,0,0)" />
    <path
       transform="matrix(0.7811445,0.62435028,-0.62435028,0.7811445,0,0)"
       d="m 290.10278,280.22983 a 11.071428,6.9642859 0 0 1 -4.44026,-9.33337 11.071428,6.9642859 0 0 1 14.73858,-2.99346 11.071428,6.9642859 0 0 1 5.0752,9.20441 11.071428,6.9642859 0 0 1 -14.51994,3.38999"
       id="path4345"
       style="opacity:1;fill:#ffff00;fill-opacity:1;stroke:#ffff00;stroke-opacity:1" />
    <path
       style="opacity:1;fill:#ffff00;fill-opacity:1;stroke:#ffff00;stroke-opacity:1"
       id="path4347"
       d="m 295.35143,267.34781 a 11.071428,6.9642859 0 0 1 -4.44026,-9.33337 11.071428,6.9642859 0 0 1 14.73859,-2.99346 11.071428,6.9642859 0 0 1 5.0752,9.20441 11.071428,6.9642859 0 0 1 -14.51995,3.38999"
       transform="matrix(0.7811445,0.62435028,-0.62435028,0.7811445,0,0)" />
    <path
       transform="matrix(0.7811445,0.62435028,-0.62435028,0.7811445,0,0)"
       d="m 300.87908,254.24282 a 11.071428,6.9642859 0 0 1 -4.44026,-9.33338 11.071428,6.9642859 0 0 1 14.73859,-2.99346 11.071428,6.9642859 0 0 1 5.0752,9.20442 11.071428,6.9642859 0 0 1 -14.51995,3.38999"
       id="path4349"
       style="opacity:1;fill:#ffff00;fill-opacity:1;stroke:#ffff00;stroke-opacity:1" />
    <path
       style="opacity:1;fill:#ffff00;fill-opacity:1;stroke:#ffff00;stroke-opacity:1"
       id="path4351"
       d="m 306.18374,240.85883 a 11.071428,6.9642859 0 0 1 -4.44026,-9.33337 11.071428,6.9642859 0 0 1 14.73858,-2.99346 11.071428,6.9642859 0 0 1 5.07521,9.20441 11.071428,6.9642859 0 0 1 -14.51995,3.38999"
       transform="matrix(0.7811445,0.62435028,-0.62435028,0.7811445,0,0)" />
    <path
       transform="matrix(0.7811445,0.62435028,-0.62435028,0.7811445,0,0)"
       d="m 310.37249,228.36678 a 11.071428,6.9642859 0 0 1 -4.44026,-9.33337 11.071428,6.9642859 0 0 1 14.73859,-2.99346 11.071428,6.9642859 0 0 1 5.0752,9.20441 11.071428,6.9642859 0 0 1 -14.51995,3.38999"
       id="path4353"
       style="opacity:1;fill:#ffff00;fill-opacity:1;stroke:#ffff00;stroke-opacity:1" />
    <path
       transform="matrix(-0.9470288,-0.32114863,-0.39505076,0.91865929,0,0)"
       id="rect4372"
       d="m -781.85392,192.71558 237.19665,1.34683 -5.10863,100.71696 -218.79904,-23.09508 z"
       style="opacity:1;fill:#000000;fill-opacity:1;stroke:#000000;stroke-width:0.88254136;stroke-opacity:1" />
    <path
       id="path4374"
       d="M 644.45898 422.92578 A 39.216198 38.754547 0 0 0 609.23242 443.64844 A 39.216198 38.754547 0 0 0 624.96094 495.58594 L 627.98438 497.07422 A 39.216198 38.754547 0 0 0 679.41602 478.21094 A 39.216198 38.754547 0 0 0 661.43945 426.99023 A 39.216198 38.754547 0 0 0 644.45898 422.92578 z "
       style="opacity:1;fill:#000000;fill-opacity:1;stroke:#000000;stroke-width:0.96603012;stroke-opacity:1" />
    <path
       id="rect4376"
       d="m -645.09412,-803.92798 152.42101,-0.36306 -1.78318,52.19317 -150.63783,12.94611 z"
       style="opacity:1;fill:#000000;fill-opacity:1;stroke:#000000;stroke-width:0.66840607;stroke-opacity:1"
       transform="matrix(0.24484798,-0.96956148,-0.99971512,0.02386785,0,0)" />
    <path
       transform="matrix(-0.7811445,0.62435028,0.62435028,0.7811445,0,0)"
       d="m -92.992728,842.00635 a 11.071428,6.9642859 0 0 1 -4.440261,-9.33337 11.071428,6.9642859 0 0 1 14.738586,-2.99346 11.071428,6.9642859 0 0 1 5.075201,9.20441 11.071428,6.9642859 0 0 1 -14.519945,3.38999"
       id="path4463"
       style="opacity:1;fill:#ffff00;fill-opacity:1;stroke:#ffff00;stroke-opacity:1" />
    <path
       style="opacity:1;fill:#ffff00;fill-opacity:1;stroke:#ffff00;stroke-opacity:1"
       id="path4465"
       d="m -103.59398,850.47968 a 11.071428,6.9642859 0 0 1 -4.44026,-9.33337 11.071428,6.9642859 0 0 1 14.738587,-2.99346 11.071428,6.9642859 0 0 1 5.075202,9.20441 11.071428,6.9642859 0 0 1 -14.519949,3.38999"
       transform="matrix(-0.7811445,0.62435028,0.62435028,0.7811445,0,0)" />
    <path
       transform="matrix(-0.7811445,0.62435028,0.62435028,0.7811445,0,0)"
       d="m -113.1913,859.06501 a 11.071428,6.9642859 0 0 1 -4.44026,-9.33338 11.071428,6.9642859 0 0 1 14.73859,-2.99346 11.071428,6.9642859 0 0 1 5.075198,9.20442 11.071428,6.9642859 0 0 1 -14.519948,3.38999"
       id="path4467"
       style="opacity:1;fill:#ffff00;fill-opacity:1;stroke:#ffff00;stroke-opacity:1" />
    <path
       style="opacity:1;fill:#ffff00;fill-opacity:1;stroke:#ffff00;stroke-opacity:1"
       id="path4469"
       d="m -123.34658,868.09632 a 11.071428,6.9642859 0 0 1 -4.44026,-9.33338 11.071428,6.9642859 0 0 1 14.73859,-2.99346 11.071428,6.9642859 0 0 1 5.0752,9.20442 11.071428,6.9642859 0 0 1 -14.51995,3.38999"
       transform="matrix(-0.7811445,0.62435028,0.62435028,0.7811445,0,0)" />
    <path
       transform="matrix(-0.7811445,0.62435028,0.62435028,0.7811445,0,0)"
       d="m -132.83191,875.67774 a 11.071428,6.9642859 0 0 1 -4.44026,-9.33337 11.071428,6.9642859 0 0 1 14.73859,-2.99347 11.071428,6.9642859 0 0 1 5.0752,9.20442 11.071428,6.9642859 0 0 1 -14.51995,3.38999"
       id="path4471"
       style="opacity:1;fill:#ffff00;fill-opacity:1;stroke:#ffff00;stroke-opacity:1" />
    <path
       id="path3403"
       d="m 475.71584,898.5104 c -19.78565,-11.18613 -20.6869,-43.06924 -10.16767,-63.52158 10.51923,-20.45235 35.10778,-10.25669 55.3466,0.0484 20.23881,10.30504 26.01103,32.46366 16.07901,53.22266 -9.64734,20.16399 -14.26398,13.23215 -47.20842,16.27649"
       style="opacity:1;fill:#000000;fill-opacity:1;stroke:#000000;stroke-width:1.00588381;stroke-opacity:1" />
    <path
       id="rect3405"
       d="m 606.57879,890.04284 -33.26771,55.76605 -111.02643,-65.91993 27.61527,-64.35171 z"
       style="opacity:1;fill:#000000;fill-opacity:1;stroke:#000000;stroke-width:1.00467622;stroke-opacity:1" />
    <path
       id="rect3406"
       d="m 593.60522,533.27448 72.38787,12.41503 4.71818,154.04583 -77.10605,-2.12598 z"
       style="opacity:1;fill:#000000;fill-opacity:1;stroke:#000000;stroke-width:0.94322693;stroke-opacity:1"
       transform="matrix(0.92396582,0.38247505,-0.41081212,0.91172002,0,0)" />
    <path
       d="m 276.60847,913.33936 a 36.870567,37.375645 0 0 1 -14.78716,-50.08998 36.870567,37.375645 0 0 1 49.08311,-16.06518 36.870567,37.375645 0 0 1 16.90166,49.39788 36.870567,37.375645 0 0 1 -48.35497,18.19325"
       id="path3408"
       style="opacity:1;fill:#000000;fill-opacity:1;stroke:#000000;stroke-opacity:1" />
    <path
       id="rect3410"
       d="m -98.600021,927.38208 75.584068,0 0,111.02852 -66.321694,1.2828 z"
       style="opacity:1;fill:#000000;fill-opacity:1;stroke:#000000;stroke-width:0.87568277;stroke-opacity:1"
       transform="matrix(0.98319859,-0.18253913,0.38173552,0.9242716,0,0)" />
  </g>
  <g
     id="layer2">
    <path
       id="path4802"
       d="M 322.47016,756.13837 C 261.99969,698.03595 296.07169,554.54181 287.81532,446.28901 279.37463,335.61968 431.9585,287.08821 454.94967,365.58999 482.45996,459.522 506.17364,568.67304 498.91202,677.21143 491.40401,789.43254 409.6781,813.46576 346.5524,764.61569"
       style="opacity:1;fill:#000000;fill-opacity:1;stroke:#000000;stroke-width:1.12995911;stroke-opacity:1" />
    <path
       id="path4833"
       d="M 321.24968,716.22297 C 296.29622,664.75301 341.00404,543.7912 300.22041,449.46576 264.25415,366.2821 344.498,313.13768 370.02299,360.43851 c 25.525,47.30084 -20.04383,192.78459 6.56466,284.45033 23.35169,80.44617 -25.24622,121.86944 -51.29538,78.82552"
       style="opacity:1;fill:#ffffff;fill-opacity:1;stroke:#ffffff;stroke-width:0.84712183;stroke-opacity:1" />
    <path
       id="rect4837"
       d="m 292.84185,362.45261 8.7536,0 c 14.62019,0 26.39025,14.16892 26.39025,31.76888 0,17.59997 -11.77006,31.76888 -26.39025,31.76888 l -8.7536,0 c -14.62019,0 -18.60926,-13.58349 -18.60926,-31.18345 0,-17.59996 3.98907,-32.35431 18.60926,-32.35431 z"
       style="display:inline;opacity:1;fill:#ffff00;fill-opacity:1;stroke:#000000;stroke-width:0.46296883;stroke-opacity:1" />
    <path
       id="rect4302"
       d="m 290.37656,969.44207 82.5184,6.10832 -0.78177,24.80851 -88.27016,-3.85239 z"
       style="opacity:1;fill:#808080;fill-opacity:1;stroke:#808080;stroke-width:1.0546664;stroke-opacity:1" />
    <rect
       transform="matrix(-0.37694817,0.92623435,-0.93963246,-0.34218539,0,0)"
       style="opacity:1;fill:#808080;fill-opacity:1;stroke:#808080;stroke-width:0.84354717;stroke-opacity:1"
       id="rect4304"
       width="70.60157"
       height="19.869432"
       x="622.15778"
       y="-912.85468" />
    <path
       id="rect4306"
       d="m 291.2144,997.86279 82.31547,-1.0082 0.41023,40.71221 -87.85261,0.8856 z"
       style="opacity:1;fill:#000000;fill-opacity:1;stroke:#000000;stroke-opacity:1" />
    <path
       id="path4308"
       d="m 245.71891,1015.5857 c -13.597,-7.0534 -21.33565,-20.14433 -14.10668,-33.04046 7.22899,-12.89617 26.77456,-20.86827 40.683,-14.37045 13.90843,6.49782 19.7271,22.22548 13.0973,35.40161 -6.62982,13.1761 -23.27678,18.9686 -37.47083,13.0384"
       style="opacity:1;fill:#000000;fill-opacity:1;stroke:#000000;stroke-opacity:1" />
    <path
       id="rect4312"
       d="m 231.20753,997.00309 60.2613,-0.62093 -3.58016,42.55244 -59.15756,-3.9788 z"
       style="opacity:1;fill:#000000;fill-opacity:1;stroke:#000000;stroke-width:1.02410293;stroke-opacity:1" />
    <path
       id="rect4314"
       d="m 593.3315,965.78784 29.42496,-78.24587 35.93709,14.08677 -28.31781,78.85308 z"
       style="opacity:1;fill:#000000;fill-opacity:1;stroke:#000000;stroke-width:0.97573698;stroke-opacity:1" />
    <path
       id="rect4325"
       d="m 593.02845,1004.3505 4.97182,-40.40047 33.36679,15.37279 -16.24892,33.97138 z"
       style="opacity:1;fill:#000000;fill-opacity:1;stroke:#000000;stroke-width:0.76713204;stroke-opacity:1" />
    <path
       id="path4327"
       d="m 604.91131,1004.3886 c -12.22295,6.5201 -29.81825,-4.1482 -35.92295,-16.16598 -6.10471,-12.018 -2.60609,-28.05381 9.35379,-35.09173 11.95989,-7.03794 26.81292,-3.2992 33.43288,8.41559 6.61987,11.71474 2.57904,27.10944 -9.09564,34.65214"
       style="opacity:1;fill:#000000;fill-opacity:1;stroke:#000000;stroke-width:0.90821946;stroke-opacity:1" />
  </g>
  <g
     id="layer4">
    <path
       style="display:inline;opacity:1;fill:#808080;fill-opacity:1;stroke:#808080;stroke-width:0.73883802;stroke-opacity:1"
       d="M 333.0706,187.03919 C 299.99002,171.92481 284.59828,132.646 298.42517,98.626123 312.25208,64.60624 368.27226,48.795491 401.94846,62.444276 c 33.67626,13.648802 32.65866,51.751784 20.28253,86.359664 -12.37613,34.60787 -49.61743,52.5548 -83.82683,40.39693"
       id="path3507" />
    <path
       style="display:inline;opacity:1;fill:#de8787;fill-opacity:1;stroke:#de8787;stroke-width:0.73595315;stroke-opacity:1"
       d="m 315.90329,155.49383 c 0,0 -11.42414,1.25691 -8.88279,-27.64391 2.54127,-28.901136 39.35369,-56.82285 69.89146,-52.997244 30.53779,3.825603 43.60201,37.995564 42.37629,67.061484 -1.22571,29.06594 -14.31683,45.34996 -44.90743,42.7765"
       id="path3509" />
  </g>
  <g
     style="display:inline"
     id="layer1">
    <path
       id="path4732"
       d="M 369.6193,399.7868 C 299.86363,391.77135 248.45646,329.53595 253.90635,259.70053 259.35624,189.8651 338.36718,108.843 408.3576,113.84995 c 69.99045,5.00692 98.00319,91.0959 95.56849,161.14702 -2.4347,70.05114 -54.20036,114.86859 -123.22184,125.58282"
       style="opacity:1;fill:#808080;fill-opacity:1;stroke:#808080;stroke-width:0.92101616;stroke-opacity:1" />
    <path
       id="path4734"
       d="m 477.30647,217.69545 c -43.6778,-18.75329 -64.00021,-67.48883 -45.74394,-109.69929 18.25629,-42.210458 92.22227,-61.82778 136.68653,-44.892932 44.46428,16.934867 43.1207,64.211492 26.77992,107.151502 -16.34074,42.94003 -65.51213,65.20783 -110.68036,50.12285"
       style="opacity:1;fill:#808080;fill-opacity:1;stroke:#808080;stroke-width:0.94566369;stroke-opacity:1" />
    <path
       id="path4740"
       d="m 450.80003,163.38708 c 0,0 -16.33219,-21.68766 -1.15142,-51.05978 15.18083,-29.372433 71.1521,-45.398571 106.26007,-30.411768 35.10804,14.98685 36.47782,55.490538 22.80942,85.508638 -13.66838,30.01809 -44.00342,41.85133 -79.70027,28.1577"
       style="opacity:1;fill:#de8787;fill-opacity:1;stroke:#de8787;stroke-width:0.87409729;stroke-opacity:1" />
    <path
       id="path4758"
       d="m 271.9823,226.1226 35.04585,84.81052 35.04587,84.81048 -96.54342,-44.85635 -61.64135,-34.49157 29.43711,-17.70679 z"
       style="opacity:1;fill:#808080;fill-opacity:1;stroke:#808080;stroke-width:0.75703502;stroke-opacity:1" />
    <path
       transform="matrix(0.92364731,-0.38324358,0.39266658,0.9196809,0,0)"
       d="m 34.698418,382.08276 a 19.163446,21.715605 0 0 1 -7.685614,-29.10275 19.163446,21.715605 0 0 1 25.510901,-9.33403 19.163446,21.715605 0 0 1 8.784626,28.70064 19.163446,21.715605 0 0 1 -25.132458,10.57046"
       id="path4760"
       style="opacity:1;fill:#000000;fill-opacity:1;stroke:#000000;stroke-width:0.85721409;stroke-opacity:1" />
    <path
       d="m 227.48573,309.08273 c 10.8024,-10.26744 23.80299,-17.71163 36.59899,-25.17877 9.40513,-5.24202 19.02828,-10.07483 28.4841,-15.22522 1.60759,-0.8759 3.23887,-1.70716 4.81,-2.64667 0,0 -0.63756,1.10386 -0.63756,1.10386 l 0,0 c -1.57554,0.9301 -3.20394,1.76478 -4.81119,2.63926 -9.45433,5.14529 -19.07754,9.97059 -28.47552,15.21786 -12.79506,7.46688 -25.79141,14.91989 -36.57616,25.20571 0,0 0.60734,-1.11603 0.60734,-1.11603 z"
       id="path4782"
       style="opacity:1;fill:#000000;fill-opacity:1;stroke:#000000;stroke-width:0.90037572;stroke-opacity:1" />
    <path
       d="m 233.7325,312.58803 c 10.47193,-0.61322 20.95299,0.0195 31.40842,0.99323 8.88359,0.78616 17.75537,1.59118 26.6564,2.01917 3.43435,0.23569 6.85603,-0.19733 10.27931,-0.19552 0.29282,0.0407 0.58564,0.0814 0.87846,0.12206 0,0 -0.70998,1.05782 -0.70998,1.05782 l 0,0 c -0.28781,-0.0376 -0.57562,-0.0754 -0.86342,-0.11299 -3.42467,0.0137 -6.84721,0.42038 -10.28254,0.18872 -8.9011,-0.43099 -17.77268,-1.24643 -26.65649,-2.02938 -10.45171,-0.97085 -20.92987,-1.5995 -31.3971,-0.97295 0,0 0.68694,-1.07016 0.68694,-1.07016 z"
       id="path4784"
       style="opacity:1;fill:#000000;fill-opacity:1;stroke:#000000;stroke-width:0.90037572;stroke-opacity:1" />
    <path
       d="m 236.57128,322.51899 c 7.42709,2.04227 14.48261,5.24801 21.59082,8.20657 4.59658,1.82239 8.90165,4.29048 13.392,6.34783 4.4426,2.0531 9.01351,3.78553 13.58316,5.511 1.94771,0.31372 4.82393,2.08766 6.76122,1.47231 0.0973,-0.14792 0.19446,-0.29588 0.29168,-0.44381 0,0 -0.33883,1.23519 -0.33883,1.23519 l 0,0 c -0.12281,0.13952 -0.24573,0.27891 -0.36855,0.41842 -2.06844,0.53191 -4.79051,-1.14419 -6.83649,-1.50593 -4.57183,-1.72802 -9.14496,-3.4629 -13.59118,-5.5148 -4.48962,-2.05548 -8.79136,-4.52689 -13.38608,-6.35025 -7.10362,-2.95894 -14.15596,-6.1631 -21.58155,-8.19606 0,0 0.4838,-1.18047 0.4838,-1.18047 z"
       id="path4786"
       style="opacity:1;fill:#000000;fill-opacity:1;stroke:#000000;stroke-width:0.90037572;stroke-opacity:1" />
    <path
       transform="matrix(0.92364731,-0.38324358,0.39266658,0.9196809,0,0)"
       d="m 252.84139,369.52997 a 22.33202,22.041094 0 0 1 -8.95639,-29.53896 22.33202,22.041094 0 0 1 29.72899,-9.47393 22.33202,22.041094 0 0 1 10.23712,29.13082 22.33202,22.041094 0 0 1 -29.28798,10.7289"
       id="path4796"
       style="opacity:1;fill:#000000;fill-opacity:1;stroke:#000000;stroke-width:0.90039927;stroke-opacity:1" />
    <path
       transform="matrix(0.92364731,-0.38324358,0.39266658,0.9196809,0,0)"
       d="m 265.15023,355.34141 a 9.5708666,7.7792087 0 0 1 -3.83845,-10.42552 9.5708666,7.7792087 0 0 1 12.741,-3.34374 9.5708666,7.7792087 0 0 1 4.38733,10.28147 9.5708666,7.7792087 0 0 1 -12.55199,3.78666"
       id="path4798"
       style="opacity:1;fill:#ffffff;fill-opacity:1;stroke:#ffffff;stroke-width:0.90039927;stroke-opacity:1" />
    <path
       id="path3660"
       d="m 291.16063,978.55452 a 14.470219,9.5113708 86.048083 0 1 -4.9668,-19.17632 14.470219,9.5113708 86.048083 0 1 12.2785,-6.80825 14.470219,9.5113708 86.048083 0 1 5.49577,18.88303 14.470219,9.5113708 86.048083 0 1 -12.04175,7.62173"
       style="opacity:1;fill:#ffff00;fill-opacity:1;stroke:#ffff00;stroke-width:1.04294479;stroke-opacity:1" />
    <path
       transform="matrix(0.99887723,-0.04737391,0.05961274,0.99822158,0,0)"
       style="opacity:1;fill:#ffff00;fill-opacity:1;stroke:#ffff00;stroke-width:1.04298401;stroke-opacity:1"
       id="path3662"
       d="m 246.35796,991.97493 a 9.5126286,14.469392 0 0 1 -3.81509,-19.39154 9.5126286,14.469392 0 0 1 12.66347,-6.21939 9.5126286,14.469392 0 0 1 4.36064,19.12361 9.5126286,14.469392 0 0 1 -12.47562,7.04324" />
    <path
       transform="matrix(0.99887723,-0.04737391,0.05961274,0.99822158,0,0)"
       d="m 259.65969,992.62624 a 9.5126286,14.469392 0 0 1 -3.8151,-19.39155 9.5126286,14.469392 0 0 1 12.66347,-6.21938 9.5126286,14.469392 0 0 1 4.36064,19.12361 9.5126286,14.469392 0 0 1 -12.47561,7.04323"
       id="path3664"
       style="opacity:1;fill:#ffff00;fill-opacity:1;stroke:#ffff00;stroke-width:1.04298401;stroke-opacity:1" />
    <path
       transform="matrix(0.99887723,-0.04737391,0.05961274,0.99822158,0,0)"
       style="opacity:1;fill:#ffff00;fill-opacity:1;stroke:#ffff00;stroke-width:1.04298401;stroke-opacity:1"
       id="path3666"
       d="m 274.63595,994.00777 a 9.5126286,14.469392 0 0 1 -3.8151,-19.39155 9.5126286,14.469392 0 0 1 12.66347,-6.21938 9.5126286,14.469392 0 0 1 4.36064,19.12361 9.5126286,14.469392 0 0 1 -12.47561,7.04323" />
    <path
       transform="matrix(0.99887723,-0.04737391,0.05961274,0.99822158,0,0)"
       d="m 290.12859,993.54726 a 9.5126286,14.469392 0 0 1 -3.81509,-19.39155 9.5126286,14.469392 0 0 1 12.66347,-6.21938 9.5126286,14.469392 0 0 1 4.36064,19.12361 9.5126286,14.469392 0 0 1 -12.47562,7.04323"
       id="path3668"
       style="opacity:1;fill:#ffff00;fill-opacity:1;stroke:#ffff00;stroke-width:1.04298401;stroke-opacity:1" />
    <path
       transform="matrix(0.99887723,-0.04737391,0.05961274,0.99822158,0,0)"
       style="opacity:1;fill:#ffff00;fill-opacity:1;stroke:#ffff00;stroke-width:1.04298401;stroke-opacity:1"
       id="path3670"
       d="m 305.62127,993.54726 a 9.5126286,14.469392 0 0 1 -3.8151,-19.39155 9.5126286,14.469392 0 0 1 12.66347,-6.21938 9.5126286,14.469392 0 0 1 4.36064,19.12361 9.5126286,14.469392 0 0 1 -12.47561,7.04323" />
    <path
       transform="matrix(-0.39403424,0.91909576,-0.90057362,-0.43470353,0,0)"
       d="m 530.84128,-887.1893 a 8.5983858,14.485731 0 0 1 -3.44844,-19.41344 8.5983858,14.485731 0 0 1 11.44641,-6.22641 8.5983858,14.485731 0 0 1 3.94154,19.14521 8.5983858,14.485731 0 0 1 -11.2766,7.05118"
       id="path3672"
       style="opacity:1;fill:#ffff00;fill-opacity:1;stroke:#ffff00;stroke-width:0.99215811;stroke-opacity:1" />
    <path
       transform="matrix(-0.39403424,0.91909576,-0.90057362,-0.43470353,0,0)"
       style="opacity:1;fill:#ffff00;fill-opacity:1;stroke:#ffff00;stroke-width:0.99215811;stroke-opacity:1"
       id="path3674"
       d="m 545.77853,-887.1893 a 8.5983858,14.485731 0 0 1 -3.44843,-19.41344 8.5983858,14.485731 0 0 1 11.4464,-6.22641 8.5983858,14.485731 0 0 1 3.94155,19.14521 8.5983858,14.485731 0 0 1 -11.2766,7.05118" />
    <path
       transform="matrix(-0.39403424,0.91909576,-0.90057362,-0.43470353,0,0)"
       d="m 560.24899,-888.11136 a 8.5983858,14.485731 0 0 1 -3.44843,-19.41344 8.5983858,14.485731 0 0 1 11.4464,-6.22641 8.5983858,14.485731 0 0 1 3.94155,19.14521 8.5983858,14.485731 0 0 1 -11.2766,7.05118"
       id="path3676"
       style="opacity:1;fill:#ffff00;fill-opacity:1;stroke:#ffff00;stroke-width:0.99215811;stroke-opacity:1" />
    <path
       transform="matrix(-0.39403424,0.91909576,-0.90057362,-0.43470353,0,0)"
       style="opacity:1;fill:#ffff00;fill-opacity:1;stroke:#ffff00;stroke-width:0.99215811;stroke-opacity:1"
       id="path3678"
       d="m 574.71951,-887.1893 a 8.5983858,14.485731 0 0 1 -3.44843,-19.41344 8.5983858,14.485731 0 0 1 11.4464,-6.22641 8.5983858,14.485731 0 0 1 3.94155,19.14521 8.5983858,14.485731 0 0 1 -11.2766,7.05118" />
    <path
       transform="matrix(-0.39403424,0.91909576,-0.90057362,-0.43470353,0,0)"
       d="m 590.5903,-887.1893 a 8.5983858,14.485731 0 0 1 -3.44843,-19.41344 8.5983858,14.485731 0 0 1 11.4464,-6.22641 8.5983858,14.485731 0 0 1 3.94155,19.14521 8.5983858,14.485731 0 0 1 -11.27661,7.05118"
       id="path3680"
       style="opacity:1;fill:#ffff00;fill-opacity:1;stroke:#ffff00;stroke-width:0.99215811;stroke-opacity:1" />
    <path
       transform="matrix(-0.39403424,0.91909576,-0.90057362,-0.43470353,0,0)"
       style="opacity:1;fill:#ffff00;fill-opacity:1;stroke:#ffff00;stroke-width:0.82325435;stroke-opacity:1"
       id="path3682"
       d="m 601.23704,-886.65485 a 5.8859377,14.569612 0 0 1 -2.36059,-19.52585 5.8859377,14.569612 0 0 1 7.83552,-6.26247 5.8859377,14.569612 0 0 1 2.69814,19.25607 5.8859377,14.569612 0 0 1 -7.71928,7.09202" />
    <path
       id="rect4839"
       d="m 368.85999,383.45983 18.39252,-0.60526 c 17.82757,-0.58667 21.89432,14.72248 21.89432,32.91885 0,18.19637 -4.65078,32.16672 -22.48763,32.16672 l -10.67952,0 c -17.83684,0 -32.19649,-14.64906 -32.19649,-32.84543 0,-18.19635 7.24923,-31.04819 25.0768,-31.63488 z"
       style="display:inline;opacity:1;fill:#ffff00;fill-opacity:1;stroke:#000000;stroke-width:0.51996088;stroke-opacity:1" />
    <path
       style="opacity:1;fill:#000000;fill-opacity:1;stroke:#000000;stroke-width:0.72009277;stroke-opacity:1"
       id="path3503"
       d="m 182.98803,299.70745 a 17.676834,17.809975 0 0 1 -7.0894,-23.86851 17.676834,17.809975 0 0 1 23.53188,-7.65527 17.676834,17.809975 0 0 1 8.10316,23.53873 17.676834,17.809975 0 0 1 -23.1828,8.66932"
       transform="matrix(0.91955298,-0.39296605,0.38294892,0.92376952,0,0)" />
    <path
       style="opacity:1;fill:#ffffff;fill-opacity:1;stroke:#ffffff;stroke-width:0.72009277;stroke-opacity:1"
       id="path3505"
       d="m 192.051,287.23908 a 7.5757866,6.2858729 0 0 1 -3.03831,-8.42418 7.5757866,6.2858729 0 0 1 10.08509,-2.70186 7.5757866,6.2858729 0 0 1 3.47278,8.30778 7.5757866,6.2858729 0 0 1 -9.93548,3.05976"
       transform="matrix(0.91955298,-0.39296605,0.38294892,0.92376952,0,0)" />
  </g>
  <g
     id="layer7">
    <path
       id="path4835"
       d="m 314.35347,437.4424 c -15.69986,-9.78002 -19.64445,-27.97486 -11.29747,-45.85631 8.347,-17.88147 20.12422,-24.53835 36.18368,-15.52867 16.05945,9.00969 23.16469,32.12332 15.50955,50.39292 -7.65514,18.26959 -27.65003,16.72337 -44.03927,8.50074"
       style="display:inline;opacity:1;fill:#ffff00;fill-opacity:1;stroke:#000000;stroke-width:0.44513479;stroke-opacity:1" />
  </g>
</svg>
