<svg xmlns="http://www.w3.org/2000/svg" xmlns:xlink="http://www.w3.org/1999/xlink" version="1.2" width="210.00mm" height="297.00mm" viewBox="0 0 119.5016 169.0094">
<!-- Page: 1/1 -->
<text transform="translate(21.1461, 2.8453)" font-family="TeX Gyre Schola" font-size="2.2001" text-anchor="start" fill="currentColor">
<tspan>
 </tspan>
</text>
<rect transform="translate(21.1461, 11.3953)" x="8.2050" y="-0.1000" width="2.9700" height="0.2000" ry="0.1000" fill="currentColor"/>
<rect transform="translate(21.1461, 12.3953)" x="8.2050" y="-0.1000" width="2.9700" height="0.2000" ry="0.1000" fill="currentColor"/>
<rect transform="translate(21.1461, 11.3953)" x="12.0795" y="-0.1000" width="2.9700" height="0.2000" ry="0.1000" fill="currentColor"/>
<rect transform="translate(21.1461, 12.3953)" x="12.0795" y="-0.1000" width="2.9700" height="0.2000" ry="0.1000" fill="currentColor"/>
<rect transform="translate(21.1461, 11.3953)" x="15.9541" y="-0.1000" width="2.9700" height="0.2000" ry="0.1000" fill="currentColor"/>
<rect transform="translate(21.1461, 11.3953)" x="19.8286" y="-0.1000" width="2.9700" height="0.2000" ry="0.1000" fill="currentColor"/>
<rect transform="translate(21.1461, 5.3953)" x="66.3231" y="-0.1000" width="2.9700" height="0.2000" ry="0.1000" fill="currentColor"/>
<rect transform="translate(21.1461, 5.3953)" x="70.1976" y="-0.1000" width="2.9700" height="0.2000" ry="0.1000" fill="currentColor"/>
<rect transform="translate(21.1461, 5.3953)" x="74.0722" y="-0.1000" width="2.9700" height="0.2000" ry="0.1000" fill="currentColor"/>
<rect transform="translate(21.1461, 4.3953)" x="74.0722" y="-0.1000" width="2.9700" height="0.2000" ry="0.1000" fill="currentColor"/>
<line transform="translate(21.1461, 10.3953)" stroke-linejoin="round" stroke-linecap="round" stroke-width="0.1000" stroke="currentColor" x1="0.0500" y1="-0.0000" x2="77.1594" y2="-0.0000"/>
<line transform="translate(21.1461, 9.3953)" stroke-linejoin="round" stroke-linecap="round" stroke-width="0.1000" stroke="currentColor" x1="0.0500" y1="-0.0000" x2="77.1594" y2="-0.0000"/>
<line transform="translate(21.1461, 8.3953)" stroke-linejoin="round" stroke-linecap="round" stroke-width="0.1000" stroke="currentColor" x1="0.0500" y1="-0.0000" x2="77.1594" y2="-0.0000"/>
<line transform="translate(21.1461, 7.3953)" stroke-linejoin="round" stroke-linecap="round" stroke-width="0.1000" stroke="currentColor" x1="0.0500" y1="-0.0000" x2="77.1594" y2="-0.0000"/>
<line transform="translate(21.1461, 6.3953)" stroke-linejoin="round" stroke-linecap="round" stroke-width="0.1000" stroke="currentColor" x1="0.0500" y1="-0.0000" x2="77.1594" y2="-0.0000"/>
<path transform="translate(76.3406, 6.8953) scale(0.0040, -0.0040)" d="M215 112c-50 0 -69 -43 -69 -88c0 -77 57 -136 134 -136c50 0 69 43 69 88c0 77 -57 136 -134 136zM495 0c0 -43 -35 -76 -73 -97c-53 -30 -113 -41 -174 -41s-122 11 -175 41c-38 21 -73 54 -73 97s35 76 73 97c53 30 114 41 175 41s121 -11 174 -41
c38 -21 73 -54 73 -97z" fill="currentColor"/>
<path transform="translate(72.4660, 7.3953) scale(0.0040, -0.0040)" d="M215 112c-50 0 -69 -43 -69 -88c0 -77 57 -136 134 -136c50 0 69 43 69 88c0 77 -57 136 -134 136zM495 0c0 -43 -35 -76 -73 -97c-53 -30 -113 -41 -174 -41s-122 11 -175 41c-38 21 -73 54 -73 97s35 76 73 97c53 30 114 41 175 41s121 -11 174 -41
c38 -21 73 -54 73 -97z" fill="currentColor"/>
<path transform="translate(68.5915, 7.8953) scale(0.0040, -0.0040)" d="M215 112c-50 0 -69 -43 -69 -88c0 -77 57 -136 134 -136c50 0 69 43 69 88c0 77 -57 136 -134 136zM495 0c0 -43 -35 -76 -73 -97c-53 -30 -113 -41 -174 -41s-122 11 -175 41c-38 21 -73 54 -73 97s35 76 73 97c53 30 114 41 175 41s121 -11 174 -41
c38 -21 73 -54 73 -97z" fill="currentColor"/>
<path transform="translate(64.7169, 8.3953) scale(0.0040, -0.0040)" d="M215 112c-50 0 -69 -43 -69 -88c0 -77 57 -136 134 -136c50 0 69 43 69 88c0 77 -57 136 -134 136zM495 0c0 -43 -35 -76 -73 -97c-53 -30 -113 -41 -174 -41s-122 11 -175 41c-38 21 -73 54 -73 97s35 76 73 97c53 30 114 41 175 41s121 -11 174 -41
c38 -21 73 -54 73 -97z" fill="currentColor"/>
<path transform="translate(60.8424, 8.8953) scale(0.0040, -0.0040)" d="M215 112c-50 0 -69 -43 -69 -88c0 -77 57 -136 134 -136c50 0 69 43 69 88c0 77 -57 136 -134 136zM495 0c0 -43 -35 -76 -73 -97c-53 -30 -113 -41 -174 -41s-122 11 -175 41c-38 21 -73 54 -73 97s35 76 73 97c53 30 114 41 175 41s121 -11 174 -41
c38 -21 73 -54 73 -97z" fill="currentColor"/>
<path transform="translate(56.9679, 9.3953) scale(0.0040, -0.0040)" d="M215 112c-50 0 -69 -43 -69 -88c0 -77 57 -136 134 -136c50 0 69 43 69 88c0 77 -57 136 -134 136zM495 0c0 -43 -35 -76 -73 -97c-53 -30 -113 -41 -174 -41s-122 11 -175 41c-38 21 -73 54 -73 97s35 76 73 97c53 30 114 41 175 41s121 -11 174 -41
c38 -21 73 -54 73 -97z" fill="currentColor"/>
<path transform="translate(95.7133, 4.3953) scale(0.0040, -0.0040)" d="M215 112c-50 0 -69 -43 -69 -88c0 -77 57 -136 134 -136c50 0 69 43 69 88c0 77 -57 136 -134 136zM495 0c0 -43 -35 -76 -73 -97c-53 -30 -113 -41 -174 -41s-122 11 -175 41c-38 21 -73 54 -73 97s35 76 73 97c53 30 114 41 175 41s121 -11 174 -41
c38 -21 73 -54 73 -97z" fill="currentColor"/>
<path transform="translate(91.8387, 4.8953) scale(0.0040, -0.0040)" d="M215 112c-50 0 -69 -43 -69 -88c0 -77 57 -136 134 -136c50 0 69 43 69 88c0 77 -57 136 -134 136zM495 0c0 -43 -35 -76 -73 -97c-53 -30 -113 -41 -174 -41s-122 11 -175 41c-38 21 -73 54 -73 97s35 76 73 97c53 30 114 41 175 41s121 -11 174 -41
c38 -21 73 -54 73 -97z" fill="currentColor"/>
<path transform="translate(87.9642, 5.3953) scale(0.0040, -0.0040)" d="M215 112c-50 0 -69 -43 -69 -88c0 -77 57 -136 134 -136c50 0 69 43 69 88c0 77 -57 136 -134 136zM495 0c0 -43 -35 -76 -73 -97c-53 -30 -113 -41 -174 -41s-122 11 -175 41c-38 21 -73 54 -73 97s35 76 73 97c53 30 114 41 175 41s121 -11 174 -41
c38 -21 73 -54 73 -97z" fill="currentColor"/>
<path transform="translate(84.0897, 5.8953) scale(0.0040, -0.0040)" d="M215 112c-50 0 -69 -43 -69 -88c0 -77 57 -136 134 -136c50 0 69 43 69 88c0 77 -57 136 -134 136zM495 0c0 -43 -35 -76 -73 -97c-53 -30 -113 -41 -174 -41s-122 11 -175 41c-38 21 -73 54 -73 97s35 76 73 97c53 30 114 41 175 41s121 -11 174 -41
c38 -21 73 -54 73 -97z" fill="currentColor"/>
<path transform="translate(80.2151, 6.3953) scale(0.0040, -0.0040)" d="M215 112c-50 0 -69 -43 -69 -88c0 -77 57 -136 134 -136c50 0 69 43 69 88c0 77 -57 136 -134 136zM495 0c0 -43 -35 -76 -73 -97c-53 -30 -113 -41 -174 -41s-122 11 -175 41c-38 21 -73 54 -73 97s35 76 73 97c53 30 114 41 175 41s121 -11 174 -41
c38 -21 73 -54 73 -97z" fill="currentColor"/>
<path transform="translate(41.4697, 11.3953) scale(0.0040, -0.0040)" d="M215 112c-50 0 -69 -43 -69 -88c0 -77 57 -136 134 -136c50 0 69 43 69 88c0 77 -57 136 -134 136zM495 0c0 -43 -35 -76 -73 -97c-53 -30 -113 -41 -174 -41s-122 11 -175 41c-38 21 -73 54 -73 97s35 76 73 97c53 30 114 41 175 41s121 -11 174 -41
c38 -21 73 -54 73 -97z" fill="currentColor"/>
<path transform="translate(37.5952, 11.8953) scale(0.0040, -0.0040)" d="M215 112c-50 0 -69 -43 -69 -88c0 -77 57 -136 134 -136c50 0 69 43 69 88c0 77 -57 136 -134 136zM495 0c0 -43 -35 -76 -73 -97c-53 -30 -113 -41 -174 -41s-122 11 -175 41c-38 21 -73 54 -73 97s35 76 73 97c53 30 114 41 175 41s121 -11 174 -41
c38 -21 73 -54 73 -97z" fill="currentColor"/>
<path transform="translate(29.8461, 12.8953) scale(0.0040, -0.0040)" d="M215 112c-50 0 -69 -43 -69 -88c0 -77 57 -136 134 -136c50 0 69 43 69 88c0 77 -57 136 -134 136zM495 0c0 -43 -35 -76 -73 -97c-53 -30 -113 -41 -174 -41s-122 11 -175 41c-38 21 -73 54 -73 97s35 76 73 97c53 30 114 41 175 41s121 -11 174 -41
c38 -21 73 -54 73 -97z" fill="currentColor"/>
<path transform="translate(21.9461, 9.3953) scale(0.0040, -0.0040)" d="M376 262c4 0 9 1 13 1c155 0 256 -128 256 -261c0 -76 -33 -154 -107 -210c-22 -17 -47 -28 -73 -36c3 -35 5 -70 5 -105c0 -19 -1 -39 -2 -58c-7 -120 -90 -228 -208 -228c-108 0 -195 88 -195 197c0 58 53 103 112 103c54 0 95 -47 95 -103c0 -52 -43 -95 -95 -95
c-11 0 -21 2 -31 6c26 -39 68 -65 117 -65c96 0 157 92 163 191c1 18 2 37 2 55c0 31 -1 61 -4 92c-29 -5 -58 -8 -89 -8c-188 0 -333 172 -333 374c0 177 131 306 248 441c-19 62 -37 125 -45 190c-6 52 -7 104 -7 156c0 115 55 224 149 292c3 2 7 3 10 3c4 0 7 0 10 -3
c71 -84 133 -245 133 -358c0 -143 -86 -255 -180 -364c21 -68 39 -138 56 -207zM461 -203c68 24 113 95 113 164c0 90 -66 179 -173 190c24 -116 46 -231 60 -354zM74 28c0 -135 129 -247 264 -247c28 0 55 2 82 6c-14 127 -37 245 -63 364c-79 -8 -124 -61 -124 -119
c0 -44 25 -91 81 -123c5 -5 7 -10 7 -15c0 -11 -10 -22 -22 -22c-3 0 -6 1 -9 2c-80 43 -117 115 -117 185c0 88 58 174 160 197c-14 58 -29 117 -46 175c-107 -121 -213 -243 -213 -403zM408 1045c-99 -48 -162 -149 -162 -259c0 -74 18 -133 36 -194
c80 97 146 198 146 324c0 55 -4 79 -20 129z" fill="currentColor"/>
<path transform="translate(33.7206, 12.3953) scale(0.0040, -0.0040)" d="M215 112c-50 0 -69 -43 -69 -88c0 -77 57 -136 134 -136c50 0 69 43 69 88c0 77 -57 136 -134 136zM495 0c0 -43 -35 -76 -73 -97c-53 -30 -113 -41 -174 -41s-122 11 -175 41c-38 21 -73 54 -73 97s35 76 73 97c53 30 114 41 175 41s121 -11 174 -41
c38 -21 73 -54 73 -97z" fill="currentColor"/>
<path transform="translate(26.1461, 8.3953) scale(0.0040, -0.0040)" d="M359 27c-49 0 -75 42 -75 75c0 38 27 77 72 77c4 0 9 0 14 -1c-28 37 -72 59 -120 59c-106 0 -113 -73 -113 -186v-51v-51c0 -113 7 -187 113 -187c80 0 139 70 158 151c2 7 7 10 12 10c6 0 13 -4 13 -12c0 -94 -105 -174 -183 -174c-68 0 -137 21 -184 70
c-49 51 -66 122 -66 193s17 142 66 193c47 49 116 69 184 69c87 0 160 -64 175 -150c1 -5 1 -9 1 -13c0 -40 -30 -72 -67 -72z" fill="currentColor"/>
<path transform="translate(53.0933, 9.8953) scale(0.0040, -0.0040)" d="M215 112c-50 0 -69 -43 -69 -88c0 -77 57 -136 134 -136c50 0 69 43 69 88c0 77 -57 136 -134 136zM495 0c0 -43 -35 -76 -73 -97c-53 -30 -113 -41 -174 -41s-122 11 -175 41c-38 21 -73 54 -73 97s35 76 73 97c53 30 114 41 175 41s121 -11 174 -41
c38 -21 73 -54 73 -97z" fill="currentColor"/>
<path transform="translate(49.2188, 10.3953) scale(0.0040, -0.0040)" d="M215 112c-50 0 -69 -43 -69 -88c0 -77 57 -136 134 -136c50 0 69 43 69 88c0 77 -57 136 -134 136zM495 0c0 -43 -35 -76 -73 -97c-53 -30 -113 -41 -174 -41s-122 11 -175 41c-38 21 -73 54 -73 97s35 76 73 97c53 30 114 41 175 41s121 -11 174 -41
c38 -21 73 -54 73 -97z" fill="currentColor"/>
<path transform="translate(45.3442, 10.8953) scale(0.0040, -0.0040)" d="M215 112c-50 0 -69 -43 -69 -88c0 -77 57 -136 134 -136c50 0 69 43 69 88c0 77 -57 136 -134 136zM495 0c0 -43 -35 -76 -73 -97c-53 -30 -113 -41 -174 -41s-122 11 -175 41c-38 21 -73 54 -73 97s35 76 73 97c53 30 114 41 175 41s121 -11 174 -41
c38 -21 73 -54 73 -97z" fill="currentColor"/>
<a transform="translate(31.4631, 165.1512)" xlink:href="http://lilypond.org/">
<rect x="0.0000" y="-0.4439" width="56.5755" height="2.0486" fill="none" stroke="none" stroke-width="0.0"/>
</a>
<text transform="translate(31.4631, 165.1512)" font-family="TeX Gyre Schola" font-size="2.2001" text-anchor="start" fill="currentColor">
<tspan>
Music engraving by LilyPond 2.18.2—www.lilypond.org</tspan>
</text>
</svg>
