<?xml version="1.0" encoding="UTF-8" standalone="no"?>
<svg
   xmlns:dc="http://purl.org/dc/elements/1.1/"
   xmlns:cc="http://creativecommons.org/ns#"
   xmlns:rdf="http://www.w3.org/1999/02/22-rdf-syntax-ns#"
   xmlns:svg="http://www.w3.org/2000/svg"
   xmlns="http://www.w3.org/2000/svg"
   xmlns:sodipodi="http://sodipodi.sourceforge.net/DTD/sodipodi-0.dtd"
   xmlns:inkscape="http://www.inkscape.org/namespaces/inkscape"
   version="1.1"
   id="svg4164"
   viewBox="0 0 744.09448819 1052.3622047"
   height="297mm"
   width="210mm"
   inkscape:version="0.48.4 r9939"
   sodipodi:docname="2016-01-15-Rodent-DU-edits.svg">
  <sodipodi:namedview
     pagecolor="#ffffff"
     bordercolor="#666666"
     borderopacity="1"
     objecttolerance="10"
     gridtolerance="10"
     guidetolerance="10"
     inkscape:pageopacity="0"
     inkscape:pageshadow="2"
     inkscape:window-width="1278"
     inkscape:window-height="773"
     id="namedview3066"
     showgrid="false"
     inkscape:zoom="0.91603444"
     inkscape:cx="494.72389"
     inkscape:cy="576.24168"
     inkscape:window-x="0"
     inkscape:window-y="1"
     inkscape:window-maximized="1"
     inkscape:current-layer="svg4164"
     inkscape:snap-bbox="true" />
  <title
     id="title4489">Mariachi Mouse</title>
  <defs
     id="defs4166" />
  <metadata
     id="metadata4169">
    <rdf:RDF>
      <cc:Work
         rdf:about="">
        <dc:format>image/svg+xml</dc:format>
        <dc:type
           rdf:resource="http://purl.org/dc/dcmitype/StillImage" />
        <dc:title>Mariachi Mouse</dc:title>
        <cc:license
           rdf:resource="http://creativecommons.org/licenses/by-sa/3.0/" />
        <dc:date>January 11, 2017</dc:date>
        <dc:creator>
          <cc:Agent>
            <dc:title>Noliah Kyna Caracas</dc:title>
          </cc:Agent>
        </dc:creator>
        <dc:publisher>
          <cc:Agent>
            <dc:title>Noliah Kyna Caracas</dc:title>
          </cc:Agent>
        </dc:publisher>
        <dc:description>A mariachi mouse playing the maracas.</dc:description>
        <dc:contributor>
          <cc:Agent>
            <dc:title>The Creator.</dc:title>
          </cc:Agent>
        </dc:contributor>
      </cc:Work>
      <cc:License
         rdf:about="http://creativecommons.org/licenses/by-sa/3.0/">
        <cc:permits
           rdf:resource="http://creativecommons.org/ns#Reproduction" />
        <cc:permits
           rdf:resource="http://creativecommons.org/ns#Distribution" />
        <cc:requires
           rdf:resource="http://creativecommons.org/ns#Notice" />
        <cc:requires
           rdf:resource="http://creativecommons.org/ns#Attribution" />
        <cc:permits
           rdf:resource="http://creativecommons.org/ns#DerivativeWorks" />
        <cc:requires
           rdf:resource="http://creativecommons.org/ns#ShareAlike" />
      </cc:License>
    </rdf:RDF>
  </metadata>
  <path
     inkscape:connector-curvature="0"
     d="m 274.54869,236.60131 a 17.625974,17.860311 4.8620949 0 1 -15.6595,-19.2631 17.625974,17.860311 4.8620949 0 1 18.70724,-16.31894 17.625974,17.860311 4.8620949 0 1 16.46541,18.56009 17.625974,17.860311 4.8620949 0 1 -17.9979,17.11851"
     id="path3503"
     style="fill:#000000;fill-opacity:1;stroke:#000000;stroke-width:0.72007149;stroke-opacity:1" />
  <path
     inkscape:connector-curvature="0"
     d="m 275.02013,216.11852 c -3.74964,-0.10664 -6.59305,-3.2184 -6.01991,-6.58804 0.57314,-3.36965 4.46476,-6.42046 8.2391,-6.459 3.77433,-0.0385 6.7854,2.94181 6.37486,6.30979 -0.41055,3.36799 -3.08079,1.08888 -6.87281,1.27251"
     id="path3505"
     style="fill:#ffffff;fill-opacity:1;stroke:#ffffff;stroke-width:0.72007149;stroke-opacity:1"
     sodipodi:nodetypes="csssc" />
  <g
     id="layer6">
    <path
       style="fill:#ff8080;fill-opacity:1;stroke:#ff8080;stroke-width:1;stroke-opacity:1"
       d="m 485.87237,748.6678 c 26.88753,3.12858 50.18732,-15.62354 64.88521,-36.30906 12.05533,-18.04988 24.21776,-36.40525 32.01122,-56.78564 8.2954,-21.17899 9.762,-45.21387 1.7926,-66.70543 8.27068,-15.97305 -1.42019,-8.05601 7.17161,-26.0702 17.55496,-14.26899 44.04403,-22.17868 64.58816,-9.54815 16.00288,9.70972 25.47992,24.13462 71.71193,58.38269 14.03897,-16.63627 -1.14112,-17.90895 -14.3512,-30.33064 -15.15311,-14.28588 -34.51436,-44.92333 -55.0142,-45.47983 -24.61561,0.0407 -63.54341,-6.70815 -77.83019,12.77033 -31.04874,40.04597 1.41319,57.44972 -10.39035,88.02744 -4.50273,29.6311 -11.15138,31.44108 -22.96023,60.39844 -4.59133,9.61506 5.07583,-8.74204 7.32421,-12.12427 3.37744,-6.06866 13.51868,-22.80577 12.01261,-21.89227 -11.00847,14.14242 -20.11407,49.75359 -39.28915,48.89984 -11.72457,-2.58754 -10.95806,9.97075 -38.74883,5.8312 -21.53275,-6.66576 -20.94723,-3.77849 -20.17813,12.87455 0.97228,9.08108 7.53573,17.76797 17.26473,18.061 z"
       id="path4503"
       inkscape:connector-curvature="0"
       sodipodi:nodetypes="cccccccccccccccccc" />
    <rect
       transform="matrix(0.78804575,0.61561667,-0.64004263,0.7683394,0,0)"
       ry="11.400517"
       y="200.88976"
       x="277.27765"
       height="95.004318"
       width="22.956444"
       id="rect4356"
       style="opacity:1;fill:#803300;fill-opacity:1;stroke:#803300;stroke-width:1.33458555;stroke-opacity:1" />
    <path
       transform="matrix(0.79921126,0.60105022,-0.58687839,0.80967509,0,0)"
       d="m 255.35539,218.37463 a 38.613678,48.855507 0 0 1 -15.48624,-65.47502 38.613678,48.855507 0 0 1 51.40358,-20.99958 38.613678,48.855507 0 0 1 17.70071,64.57036 38.613678,48.855507 0 0 1 -50.64103,23.78127"
       id="path4358"
       style="opacity:1;fill:#d45500;fill-opacity:1;stroke:#d45500;stroke-width:1.13902426;stroke-opacity:1" />
    <path
       transform="matrix(0.86907394,0.49468221,-0.50381137,0.8638137,0,0)"
       style="fill:#00ff00;fill-opacity:1;stroke:#00ff00;stroke-width:1.06501448;stroke-opacity:1"
       d="m 257.35463,214.21249 11.88895,-3.92723 c 10.54895,-3.43991 24.05078,-14.08022 24.05078,-7.37423 l 0,8.02286 c 0,6.70599 -8.42292,15.19029 -28.80447,22.30008 l -16.25014,0.7378 c -29.25952,-0.98569 -31.63204,-16.33189 -31.63204,-23.03788 l 0,-8.02286 c 0,-6.70599 17.89503,15.01565 40.74692,11.30146 z"
       id="rect4370"
       inkscape:connector-curvature="0"
       sodipodi:nodetypes="ccssccssc" />
    <rect
       style="opacity:1;fill:#803300;fill-opacity:1;stroke:#803300;stroke-width:1.33458555;stroke-opacity:1"
       id="rect4473"
       width="22.956444"
       height="95.004318"
       x="844.33881"
       y="-226.89471"
       ry="11.400517"
       transform="matrix(0.54044671,0.84137825,-0.85792328,0.51377782,0,0)" />
    <path
       style="fill:#d45500;fill-opacity:1;stroke:#d45500;stroke-width:1.13902426;stroke-opacity:1"
       id="path4475"
       d="m 830.23276,65.679427 c -2.85846,-12.08539 -3.02977,-30.051544 1.6084,-41.2184 4.63817,-11.166856 12.82853,-19.88873 22.31661,-23.76483603 9.48808,-3.87610597 20.16322,-2.86123627 29.08697,2.76525573 8.92375,5.62649 15.99203,15.7989793 19.25924,27.7173863 3.2672,11.918406 2.69521,25.443723 -1.55852,36.852969 -4.25373,11.409246 -12.13959,20.569351 -21.48692,24.958904 -9.34733,4.389552 -34.9911,-3.616212 -34.9911,-3.616212"
       transform="matrix(0.59502176,0.80370959,0.81406653,-0.58077163,0,0)"
       inkscape:connector-curvature="0"
       sodipodi:nodetypes="cssssssc" />
    <path
       transform="matrix(0.65412957,0.75638252,-0.76323248,0.64612397,0,0)"
       style="fill:#00ff00;fill-opacity:1;stroke:#00ff00;stroke-width:1.06501448;stroke-opacity:1"
       d="m 860.30651,22.23649 15.90296,2.266285 c 9.60862,-4.002212 31.15016,-16.8968321 31.15016,-10.190841 l 0,8.022863 c 0,6.705991 -12.12211,10.148249 -24.44676,17.260331 l -20.61583,1.561267 C 850.19646,39.202806 830.67297,29.040788 830.67297,22.334797 l 0,-8.022863 c 0,-6.7059911 17.79813,11.401955 29.63354,7.924556 z"
       id="rect4477"
       inkscape:connector-curvature="0"
       sodipodi:nodetypes="ccssccssc" />
  </g>
  <g
     id="layer5">
    <path
       d="m 50.493638,389.55966 c -6.962457,-3.76321 -10.684468,-0.98343 -12.965762,-8.42991 -2.281294,-7.44648 4.00054,-11.38659 2.243888,-22.63376 12.434956,-0.33054 10.238281,-5.70458 13.989776,-14.097 13.576453,4.16169 13.362841,-5.58379 20.484768,-2.11699 4.938601,13.83758 19.313001,13.00961 21.920511,20.3532 2.60751,7.3436 2.151015,15.67729 -1.243831,22.70716 -3.394846,7.02987 -9.688448,12.67392 -17.148428,15.37857 -7.459981,2.70465 -6.720204,-0.83664 -13.988381,-4.00058"
       id="path4341"
       style="fill:#ff8080;fill-opacity:1;stroke:#ff8080;stroke-width:0.7970596;stroke-opacity:1"
       inkscape:connector-curvature="0"
       sodipodi:nodetypes="ccccccccc" />
    <path
       style="fill:#ff8080;fill-opacity:1;stroke:#ff8080;stroke-width:0.7970596;stroke-opacity:1"
       id="path4461"
       d="m 590.79626,629.2363 c -2.28129,-7.44647 4.54637,-4.83661 -2.12276,-24.27124 3.70166,-6.88052 10.23828,-12.25455 17.81059,-14.64284 7.57231,-2.38828 16.092,-1.76296 23.21392,1.70383 7.12193,3.46679 12.76303,9.73463 15.37054,17.07822 2.60751,7.34359 1.05936,12.94813 -1.24383,22.70716 -11.58231,-0.0659 -6.88242,11.45851 -17.14842,15.37856 -11.94915,4.56276 -15.99933,2.43835 -23.26751,-0.72559"
       inkscape:connector-curvature="0"
       sodipodi:nodetypes="ccccccsc" />
  </g>
  <g
     id="layer3">
    <path
       style="fill:#000000;fill-opacity:1;stroke:#000000;stroke-width:0.99653685;stroke-opacity:1"
       d="m 397.09375,327.03125 c -34.10937,0.51124 -73.942,21.18659 -94.9375,56.53125 l -124.8125,53.375 0.0937,0.4375 c -24.27656,-7.30199 -48.40998,-47.50719 -66.71875,-68.03125 l -49.1875,32.0625 c 38.155618,26.96583 61.30694,86.31896 100.5625,108.46875 11.79535,5.69708 28.57363,4.91711 38,-0.0312 l 89.0625,-26 c 0.40886,96.14437 -18.12928,207.56129 25.0625,263.09375 L 261.9062,862.9688 c 0.004,-0.13494 0.37807,-3.26779 0.5625,-4.90625 -0.10013,0.78791 -0.28185,2.1139 -0.65625,5.1875 -4.03549,21.04067 -2.51419,8.83573 -1.71875,26.375 3.28721,6.45307 6.84304,14.6179 12,25.8125 l 36.96875,61.84375 64.71875,-13.3125 c 0,0 -35.13887,-54.3212 -35.125,-84.96875 0.0128,-28.3795 20.21527,-70.33161 35.5625,-98.09375 15.4361,6.47593 31.16622,8.95121 46.03125,7.15625 l 38.5,86.84375 c 5.80832,8.47524 7.6084,18.05246 16.96875,23.59375 l 14.03125,6.03125 c 29.85408,9.92159 58.01915,26.11066 83.5625,41.28125 L 606.5937,890.0313 c 0,0 -54.87256,-25.54965 -74.46875,-47.53125 -24.96833,-28.00769 -49.3125,-101.1875 -49.3125,-101.1875 8.58898,-16.74211 14.34984,-38.02785 16.09375,-64.09375 4.82752,-72.15624 -4.05652,-144.57773 -18.625,-212.625 0,0 87.60794,-0.0377 123.87507,20.89588 9.58055,5.52994 19.36055,14.65825 21.14783,25.57489 5.26541,32.16102 -35.0229,91.27923 -35.0229,91.27923 L 644.125,603 661.56048,490.39163 c 4.35063,-6.79554 -1.09122,-32.29401 -1.39163,-39.40618 -0.98338,-24.42934 -15.54352,-32.34072 -35.08953,-39.55623 L 451.84375,357.40625 c -9.8751,-21.21376 -30.90739,-30.73236 -54.75,-30.375 z m 239,558.96875 c -3.76995,0.0538 -8.06673,0.88856 -12.8125,2.625 -6.74501,20.70718 -24.34375,62.25 -24.34375,62.25 -3.22361,10.33396 -1.42202,10.92322 -8.03125,14.8125 -11.95988,7.03792 -28.01096,10.51325 -21.90625,22.53125 5.00785,9.85851 17.74233,18.79495 28.90625,18.09375 20.25629,-0.9523 23.8015,-6.79176 33.46875,-27 l -0.5,-0.21875 c 0,0 16.83109,-43.17905 22.90625,-71.46875 2.63147,-12.25372 -4.22339,-21.81717 -17.6875,-21.625 z"
       transform="translate(-4.9229925e-6,0)"
       id="rect4284"
       inkscape:connector-curvature="0"
       sodipodi:nodetypes="sccccccccccccccccscccccccscscssccccccssccsscccss" />
    <path
       transform="matrix(0.7811445,0.62435028,-0.62435028,0.7811445,0,0)"
       d="m 290.10278,280.22983 a 11.071428,6.9642859 0 0 1 -4.44026,-9.33337 11.071428,6.9642859 0 0 1 14.73858,-2.99346 11.071428,6.9642859 0 0 1 5.0752,9.20441 11.071428,6.9642859 0 0 1 -14.51994,3.38999"
       id="path4345"
       style="opacity:1;fill:#ffff00;fill-opacity:1;stroke:#ffff00;stroke-opacity:1" />
    <path
       style="opacity:1;fill:#ffff00;fill-opacity:1;stroke:#ffff00;stroke-opacity:1"
       id="path4347"
       d="m 295.35143,267.34781 a 11.071428,6.9642859 0 0 1 -4.44026,-9.33337 11.071428,6.9642859 0 0 1 14.73859,-2.99346 11.071428,6.9642859 0 0 1 5.0752,9.20441 11.071428,6.9642859 0 0 1 -14.51995,3.38999"
       transform="matrix(0.7811445,0.62435028,-0.62435028,0.7811445,0,0)" />
    <path
       transform="matrix(0.7811445,0.62435028,-0.62435028,0.7811445,0,0)"
       d="m 300.87908,254.24282 a 11.071428,6.9642859 0 0 1 -4.44026,-9.33338 11.071428,6.9642859 0 0 1 14.73859,-2.99346 11.071428,6.9642859 0 0 1 5.0752,9.20442 11.071428,6.9642859 0 0 1 -14.51995,3.38999"
       id="path4349"
       style="opacity:1;fill:#ffff00;fill-opacity:1;stroke:#ffff00;stroke-opacity:1" />
    <path
       style="opacity:1;fill:#ffff00;fill-opacity:1;stroke:#ffff00;stroke-opacity:1"
       id="path4351"
       d="m 306.18374,240.85883 a 11.071428,6.9642859 0 0 1 -4.44026,-9.33337 11.071428,6.9642859 0 0 1 14.73858,-2.99346 11.071428,6.9642859 0 0 1 5.07521,9.20441 11.071428,6.9642859 0 0 1 -14.51995,3.38999"
       transform="matrix(0.7811445,0.62435028,-0.62435028,0.7811445,0,0)" />
    <path
       transform="matrix(0.7811445,0.62435028,-0.62435028,0.7811445,0,0)"
       d="m 310.37249,228.36678 a 11.071428,6.9642859 0 0 1 -4.44026,-9.33337 11.071428,6.9642859 0 0 1 14.73859,-2.99346 11.071428,6.9642859 0 0 1 5.0752,9.20441 11.071428,6.9642859 0 0 1 -14.51995,3.38999"
       id="path4353"
       style="opacity:1;fill:#ffff00;fill-opacity:1;stroke:#ffff00;stroke-opacity:1" />
    <path
       transform="matrix(-0.7811445,0.62435028,0.62435028,0.7811445,0,0)"
       d="m -92.992728,842.00635 a 11.071428,6.9642859 0 0 1 -4.440261,-9.33337 11.071428,6.9642859 0 0 1 14.738586,-2.99346 11.071428,6.9642859 0 0 1 5.075201,9.20441 11.071428,6.9642859 0 0 1 -14.519945,3.38999"
       id="path4463"
       style="opacity:1;fill:#ffff00;fill-opacity:1;stroke:#ffff00;stroke-opacity:1" />
    <path
       style="opacity:1;fill:#ffff00;fill-opacity:1;stroke:#ffff00;stroke-opacity:1"
       id="path4465"
       d="m -103.59398,850.47968 a 11.071428,6.9642859 0 0 1 -4.44026,-9.33337 11.071428,6.9642859 0 0 1 14.738587,-2.99346 11.071428,6.9642859 0 0 1 5.075202,9.20441 11.071428,6.9642859 0 0 1 -14.519949,3.38999"
       transform="matrix(-0.7811445,0.62435028,0.62435028,0.7811445,0,0)" />
    <path
       transform="matrix(-0.7811445,0.62435028,0.62435028,0.7811445,0,0)"
       d="m -113.1913,859.06501 a 11.071428,6.9642859 0 0 1 -4.44026,-9.33338 11.071428,6.9642859 0 0 1 14.73859,-2.99346 11.071428,6.9642859 0 0 1 5.075198,9.20442 11.071428,6.9642859 0 0 1 -14.519948,3.38999"
       id="path4467"
       style="opacity:1;fill:#ffff00;fill-opacity:1;stroke:#ffff00;stroke-opacity:1" />
    <path
       style="opacity:1;fill:#ffff00;fill-opacity:1;stroke:#ffff00;stroke-opacity:1"
       id="path4469"
       d="m -123.34658,868.09632 a 11.071428,6.9642859 0 0 1 -4.44026,-9.33338 11.071428,6.9642859 0 0 1 14.73859,-2.99346 11.071428,6.9642859 0 0 1 5.0752,9.20442 11.071428,6.9642859 0 0 1 -14.51995,3.38999"
       transform="matrix(-0.7811445,0.62435028,0.62435028,0.7811445,0,0)" />
    <path
       transform="matrix(-0.7811445,0.62435028,0.62435028,0.7811445,0,0)"
       d="m -132.83191,875.67774 a 11.071428,6.9642859 0 0 1 -4.44026,-9.33337 11.071428,6.9642859 0 0 1 14.73859,-2.99347 11.071428,6.9642859 0 0 1 5.0752,9.20442 11.071428,6.9642859 0 0 1 -14.51995,3.38999"
       id="path4471"
       style="opacity:1;fill:#ffff00;fill-opacity:1;stroke:#ffff00;stroke-opacity:1" />
  </g>
  <g
     id="layer2">
    <path
       id="path4833"
       d="M 321.24968,716.22297 C 296.29622,664.75301 341.00404,543.7912 300.22041,449.46576 264.25415,366.2821 344.498,313.13768 370.02299,360.43851 c 25.525,47.30084 -20.04383,192.78459 6.56466,284.45033 23.35169,80.44617 -25.24622,121.86944 -51.29538,78.82552"
       style="opacity:1;fill:#ffffff;fill-opacity:1;stroke:#ffffff;stroke-width:0.84712183;stroke-opacity:1" />
    <path
       id="rect4837"
       d="m 292.84185,362.45261 8.7536,0 c 14.62019,0 26.39025,14.16892 26.39025,31.76888 0,17.59997 -11.77006,31.76888 -26.39025,31.76888 l -8.7536,0 c -14.62019,0 -18.60926,-13.58349 -18.60926,-31.18345 0,-17.59996 3.98907,-32.35431 18.60926,-32.35431 z"
       style="display:inline;opacity:1;fill:#ffff00;fill-opacity:1;stroke:#000000;stroke-width:0.46296883;stroke-opacity:1" />
    <path
       id="rect4302"
       d="m 290.37656,969.44207 82.5184,6.10832 -0.78177,24.80851 -88.27016,-3.85239 z"
       style="opacity:1;fill:#808080;fill-opacity:1;stroke:#808080;stroke-width:1.0546664;stroke-opacity:1" />
    <rect
       transform="matrix(-0.37694817,0.92623435,-0.93963246,-0.34218539,0,0)"
       style="opacity:1;fill:#808080;fill-opacity:1;stroke:#808080;stroke-width:0.84354717;stroke-opacity:1"
       id="rect4304"
       width="70.60157"
       height="19.869432"
       x="622.15778"
       y="-912.85468" />
    <path
       style="fill:#000000;fill-opacity:1;stroke:#000000;stroke-width:1;stroke-opacity:1"
       d="m 261.09375,965.875 c -11.70367,0.10539 -24.04701,6.98412 -29.46875,16.65625 -8.14462,15.88182 -11.83218,38.59985 0.36874,48.07095 12.20091,9.4711 55.88126,8.3353 55.88126,8.3353 27.46492,-1.4283 63.16512,-2.2758 81.14997,-2.4667 17.98486,-0.1908 4.50623,-39.62705 4.50623,-39.62705 l -82.1875,1.03125 0.125,-1.5 c -7.90722,-6.76766 -8.17634,-22.72099 -19.1875,-28.1875 -3.47711,-1.62445 -7.28628,-2.34763 -11.1875,-2.3125 z"
       transform="translate(-4.9229925e-6,0)"
       id="rect4306"
       inkscape:connector-curvature="0"
       sodipodi:nodetypes="cczczccccsc" />
  </g>
  <g
     id="layer4">
    <path
       style="fill:#808080;fill-opacity:1;stroke:#808080;stroke-width:0.73883802;stroke-opacity:1;display:inline"
       d="m 530.6875,57.03125 c -40.41705,0.351598 -82.69332,19.775852 -104.58331,64.06869 -19.70667,4.99301 -16.31412,2.4714 -38.61651,0.44377 0.84251,-21.585452 2.27694,-45.957381 -28.125,-63.472858 -31.48536,-18.139671 -72.2065,32.734155 -86.03341,66.754038 -8.67217,21.33712 7.25405,38.20361 18.72495,56.41878 -8.69393,24.25597 -26.89153,48.87593 -18.42502,80.99793 -4.09448,20.14362 -3.00404,21.42442 -30.21176,39.53359 -10.06544,6.69945 6.0709,32.38526 6.0709,32.38526 L 297.25,361.6819 342.0625,395.75 341,393.1875 c 9.08832,3.21231 18.67901,5.45088 28.625,6.59375 l 11.09375,0.8125 C 449.74023,389.87952 501.5028,345.05114 503.9375,275 c 0.57293,-16.48446 -0.58184,-33.84865 -3.53125,-50.84375 40.23121,5.75254 80.20825,-16.02206 94.625,-53.90625 C 611.37203,127.30999 612.71428,80.028617 568.25,63.09375 557.13394,58.860038 544.15985,56.914051 530.6875,57.03125 z"
       transform="translate(-4.9229925e-6,0)"
       id="path3507"
       inkscape:connector-curvature="0"
       sodipodi:nodetypes="sccssccsccccccscsss" />
    <path
       style="fill:#de8787;fill-opacity:1;stroke:#de8787;stroke-width:0.73595315;stroke-opacity:1;display:inline"
       d="m 308.0949,157.1189 c 0,0 -17.97412,4.5319 -23.0744,-11.26898 -8.91207,-27.60994 16.42879,-66.647808 46.96656,-62.822202 30.53779,3.825603 17.05848,20.695452 19.99721,41.407432 -13.23399,8.87019 -2.30854,3.8668 -24.71167,16.03077"
       id="path3509"
       inkscape:connector-curvature="0"
       sodipodi:nodetypes="csscc" />
  </g>
  <path
     sodipodi:nodetypes="csssc"
     inkscape:connector-curvature="0"
     style="fill:#de8787;fill-opacity:1;stroke:#de8787;stroke-width:0.87409729;stroke-opacity:1"
     d="m 446.43338,134.45804 c 0,0 0.58857,-20.05017 11.94853,-30.86404 23.94796,-22.796755 62.4188,-36.665271 97.52677,-21.678468 35.10804,14.98685 36.47782,55.490538 22.80942,85.508638 -13.66838,30.01809 -51.09922,52.22212 -86.79607,38.52849"
     id="path4740" />
  <path
     inkscape:connector-curvature="0"
     style="fill:#000000;fill-opacity:1;stroke:#000000;stroke-width:0.85719168;stroke-opacity:1"
     id="path4760"
     d="m 249.76328,338.09627 a 21.719593,19.158926 64.822746 0 1 -18.52647,-23.81978 21.719593,19.158926 64.822746 0 1 19.89791,-18.36122 21.719593,19.158926 64.822746 0 1 19.38368,23.02878 21.719593,19.158926 64.822746 0 1 -19.06286,19.3533" />
  <path
     inkscape:connector-curvature="0"
     style="fill:#000000;fill-opacity:1;stroke:#000000;stroke-width:0.90037572;stroke-opacity:1"
     id="path4782"
     d="m 275.88159,303.93666 c 13.50487,-6.30322 28.19701,-9.23107 42.70245,-12.24568 10.58331,-1.98215 21.24332,-3.50703 31.84557,-5.38619 1.80259,-0.31975 3.61345,-0.58963 5.40167,-0.98127 0,0 -0.95524,0.84409 -0.95524,0.84409 l 0,0 c -1.78942,0.38132 -3.59864,0.65536 -5.40045,0.97387 -10.59922,1.8748 -21.2569,3.39253 -31.83509,5.38194 -14.50447,3.01466 -29.1954,5.95222 -42.68937,12.27847 0,0 0.93046,-0.86523 0.93046,-0.86523 z" />
  <path
     inkscape:connector-curvature="0"
     style="fill:#000000;fill-opacity:1;stroke:#000000;stroke-width:0.90037572;stroke-opacity:1"
     id="path4784"
     d="m 279.27588,313.35996 c 10.47193,-0.61322 20.95299,0.0195 31.40842,0.99323 8.88359,0.78616 17.75537,1.59118 26.6564,2.01917 3.43435,0.23569 6.85603,-0.19733 10.27931,-0.19552 0.29282,0.0407 0.58564,0.0814 0.87846,0.12206 0,0 -0.70998,1.05782 -0.70998,1.05782 l 0,0 c -0.28781,-0.0376 -0.57562,-0.0754 -0.86342,-0.11299 -3.42467,0.0137 -6.84721,0.42038 -10.28254,0.18872 -8.9011,-0.43099 -17.77268,-1.24643 -26.65649,-2.02938 -10.45171,-0.97085 -20.92987,-1.5995 -31.3971,-0.97295 0,0 0.68694,-1.07016 0.68694,-1.07016 z" />
  <path
     inkscape:connector-curvature="0"
     style="fill:#000000;fill-opacity:1;stroke:#000000;stroke-width:0.90037572;stroke-opacity:1"
     id="path4786"
     d="m 278.25505,325.60667 c 7.42709,2.04227 14.48261,5.24801 21.59082,8.20657 4.59658,1.82239 8.90165,4.29048 13.392,6.34783 4.4426,2.0531 9.01351,3.78553 13.58316,5.511 1.94771,0.31372 4.82393,2.08766 6.76122,1.47231 0.0973,-0.14792 0.19446,-0.29588 0.29168,-0.44381 0,0 -0.33883,1.23519 -0.33883,1.23519 l 0,0 c -0.12281,0.13952 -0.24573,0.27891 -0.36855,0.41842 -2.06844,0.53191 -4.79051,-1.14419 -6.83649,-1.50593 -4.57183,-1.72802 -9.14496,-3.4629 -13.59118,-5.5148 -4.48962,-2.05548 -8.79136,-4.52689 -13.38608,-6.35025 -7.10362,-2.95894 -14.15596,-6.1631 -21.58155,-8.19606 0,0 0.4838,-1.18047 0.4838,-1.18047 z" />
  <path
     inkscape:connector-curvature="0"
     style="fill:#000000;fill-opacity:1;stroke:#000000;stroke-width:0.90037572;stroke-opacity:1"
     id="path4796"
     d="m 378.63834,242.94982 a 22.001817,22.370717 86.144983 0 1 -19.87151,-23.73394 22.001817,22.370717 86.144983 0 1 23.73901,-20.10644 22.001817,22.370717 86.144983 0 1 20.89419,22.86775 22.001817,22.370717 86.144983 0 1 -22.83889,21.09159" />
  <path
     inkscape:connector-curvature="0"
     style="fill:#ffffff;fill-opacity:1;stroke:#ffffff;stroke-width:0.90037572;stroke-opacity:1"
     id="path4798"
     d="m 384.43599,225.18358 c -2.3791,-0.0657 -4.57603,-0.97246 -5.98606,-2.47072 -1.41003,-1.49825 -2.01672,-3.57051 -1.65306,-5.64637 0.72731,-4.15172 5.66568,-7.9106 10.45521,-7.95808 2.39477,-0.0237 4.64899,0.79449 6.14216,2.22947 1.49317,1.43497 2.20787,3.46995 1.94738,5.54479 -0.52098,4.14967 -4.20308,-1.75821 -9.01506,-1.53197"
     sodipodi:nodetypes="csssssc" />
  <path
     inkscape:connector-curvature="0"
     style="fill:#ffff00;fill-opacity:1;stroke:#ffff00;stroke-width:1.04294479;stroke-opacity:1"
     d="m 291.16063,978.55452 a 14.470219,9.5113708 86.048083 0 1 -4.9668,-19.17632 14.470219,9.5113708 86.048083 0 1 12.2785,-6.80825 14.470219,9.5113708 86.048083 0 1 5.49577,18.88303 14.470219,9.5113708 86.048083 0 1 -12.04175,7.62173"
     id="path3660" />
  <path
     inkscape:connector-curvature="0"
     d="m 305.2157,978.53984 a 14.470219,9.5113705 86.048083 0 1 -4.96679,-19.17632 14.470219,9.5113705 86.048083 0 1 12.2785,-6.80824 14.470219,9.5113705 86.048083 0 1 5.49575,18.88302 14.470219,9.5113705 86.048083 0 1 -12.04174,7.62173"
     id="path3662"
     style="fill:#ffff00;fill-opacity:1;stroke:#ffff00;stroke-width:1.04294479;stroke-opacity:1" />
  <path
     inkscape:connector-curvature="0"
     style="fill:#ffff00;fill-opacity:1;stroke:#ffff00;stroke-width:1.04294479;stroke-opacity:1"
     id="path3664"
     d="m 318.54132,978.55984 a 14.470219,9.5113705 86.048083 0 1 -4.9668,-19.17633 14.470219,9.5113705 86.048083 0 1 12.2785,-6.80824 14.470219,9.5113705 86.048083 0 1 5.49575,18.88302 14.470219,9.5113705 86.048083 0 1 -12.04173,7.62173" />
  <path
     inkscape:connector-curvature="0"
     d="m 333.58312,979.22943 a 14.470219,9.5113705 86.048083 0 1 -4.9668,-19.17633 14.470219,9.5113705 86.048083 0 1 12.2785,-6.80824 14.470219,9.5113705 86.048083 0 1 5.49576,18.88302 14.470219,9.5113705 86.048083 0 1 -12.04174,7.62173"
     id="path3666"
     style="fill:#ffff00;fill-opacity:1;stroke:#ffff00;stroke-width:1.04294479;stroke-opacity:1" />
  <path
     inkscape:connector-curvature="0"
     style="fill:#ffff00;fill-opacity:1;stroke:#ffff00;stroke-width:1.04294479;stroke-opacity:1"
     id="path3668"
     d="m 349.03092,978.03579 a 14.470219,9.5113705 86.048083 0 1 -4.96679,-19.17633 14.470219,9.5113705 86.048083 0 1 12.27849,-6.80824 14.470219,9.5113705 86.048083 0 1 5.49576,18.88302 14.470219,9.5113705 86.048083 0 1 -12.04175,7.62173" />
  <path
     inkscape:connector-curvature="0"
     d="m 364.5062,977.30184 a 14.470219,9.5113705 86.048083 0 1 -4.9668,-19.17633 14.470219,9.5113705 86.048083 0 1 12.2785,-6.80823 14.470219,9.5113705 86.048083 0 1 5.49575,18.88302 14.470219,9.5113705 86.048083 0 1 -12.04173,7.62172"
     id="path3670"
     style="fill:#ffff00;fill-opacity:1;stroke:#ffff00;stroke-width:1.04294479;stroke-opacity:1" />
  <path
     inkscape:connector-curvature="0"
     style="fill:#ffff00;fill-opacity:1;stroke:#ffff00;stroke-width:0.99166262;stroke-opacity:1"
     id="path3672"
     d="m 589.80964,873.55829 a 14.493581,8.5851479 27.153491 0 1 18.84203,5.26964 14.493581,8.5851479 27.153491 0 1 1.09707,13.22699 14.493581,8.5851479 27.153491 0 1 -18.79478,-4.69983 14.493581,8.5851479 27.153491 0 1 -1.90674,-13.42945" />
  <path
     inkscape:connector-curvature="0"
     d="m 583.92385,887.28705 a 14.493581,8.5851479 27.153491 0 1 18.84203,5.26966 14.493581,8.5851479 27.153491 0 1 1.09707,13.22698 14.493581,8.5851479 27.153491 0 1 -18.79478,-4.69983 14.493581,8.5851479 27.153491 0 1 -1.90674,-13.42945"
     id="path3674"
     style="fill:#ffff00;fill-opacity:1;stroke:#ffff00;stroke-width:0.99166262;stroke-opacity:1" />
  <path
     inkscape:connector-curvature="0"
     style="fill:#ffff00;fill-opacity:1;stroke:#ffff00;stroke-width:0.99166262;stroke-opacity:1"
     id="path3676"
     d="m 579.05238,900.98761 a 14.493581,8.5851479 27.153491 0 1 18.84203,5.26966 14.493581,8.5851479 27.153491 0 1 1.09707,13.22698 14.493581,8.5851479 27.153491 0 1 -18.79478,-4.69983 14.493581,8.5851479 27.153491 0 1 -1.90674,-13.42945" />
  <path
     inkscape:connector-curvature="0"
     d="m 572.52011,913.88659 a 14.493581,8.5851479 27.153491 0 1 18.84204,5.26965 14.493581,8.5851479 27.153491 0 1 1.09706,13.22698 14.493581,8.5851479 27.153491 0 1 -18.79477,-4.69983 14.493581,8.5851479 27.153491 0 1 -1.90674,-13.42945"
     id="path3678"
     style="fill:#ffff00;fill-opacity:1;stroke:#ffff00;stroke-width:0.99166262;stroke-opacity:1" />
  <path
     inkscape:connector-curvature="0"
     style="fill:#ffff00;fill-opacity:1;stroke:#ffff00;stroke-width:0.99166262;stroke-opacity:1"
     id="path3680"
     d="m 566.26648,928.47336 a 14.493581,8.5851479 27.153491 0 1 18.84203,5.26965 14.493581,8.5851479 27.153491 0 1 1.09707,13.22698 14.493581,8.5851479 27.153491 0 1 -18.79478,-4.69982 14.493581,8.5851479 27.153491 0 1 -1.90673,-13.42946" />
  <path
     inkscape:connector-curvature="0"
     d="m 561.58999,938.02641 a 14.572446,5.8789167 26.264753 0 1 18.51462,6.31835 14.572446,5.8789167 26.264753 0 1 2.55235,9.92391 14.572446,5.8789167 26.264753 0 1 -18.40467,-5.89084 14.572446,5.8789167 26.264753 0 1 -3.34523,-10.17768"
     id="path3682"
     style="fill:#ffff00;fill-opacity:1;stroke:#ffff00;stroke-width:0.82284319;stroke-opacity:1" />
  <path
     inkscape:connector-curvature="0"
     style="fill:#ffff00;fill-opacity:1;stroke:#000000;stroke-width:0.51996088;stroke-opacity:1;display:inline"
     d="m 368.85999,383.45983 18.39252,-0.60526 c 17.82757,-0.58667 21.89432,14.72248 21.89432,32.91885 0,18.19637 -4.65078,32.16672 -22.48763,32.16672 l -10.67952,0 c -17.83684,0 -32.19649,-14.64906 -32.19649,-32.84543 0,-18.19635 7.24923,-31.04819 25.0768,-31.63488 z"
     id="rect4839" />
  <g
     id="layer7">
    <path
       id="path4835"
       d="m 314.35347,437.4424 c -15.69986,-9.78002 -19.64445,-27.97486 -11.29747,-45.85631 8.347,-17.88147 20.12422,-24.53835 36.18368,-15.52867 16.05945,9.00969 23.16469,32.12332 15.50955,50.39292 -7.65514,18.26959 -27.65003,16.72337 -44.03927,8.50074"
       style="display:inline;opacity:1;fill:#ffff00;fill-opacity:1;stroke:#000000;stroke-width:0.44513479;stroke-opacity:1" />
  </g>
  <path
     style="fill:#b5b5b5;fill-opacity:1;stroke:#939393;stroke-width:0;stroke-linecap:butt;stroke-linejoin:miter;stroke-miterlimit:4;stroke-opacity:0.32142861;stroke-dasharray:none"
     d="m 438.84813,162.65764 c -14.48502,-29.3724 -16.71134,16.44649 -18.55825,27.29155 -4.99373,29.32325 28.35156,56.99508 22.9249,86.2413 -4.75394,25.62068 -56.9682,39.74947 -45.84981,63.3164 4.97811,10.55178 18.97214,8.11366 34.93319,2.18332 15.96106,-5.93034 39.77867,-26.1316 48.03313,-46.94147 6.44575,-16.25004 2.13999,-35.46105 -2.18333,-52.39977 -7.32475,-28.69827 -39.29983,-79.69133 -39.29983,-79.69133 z"
     id="path3118"
     inkscape:connector-curvature="0"
     transform="translate(-4.9229925e-6,0)"
     sodipodi:nodetypes="ssssssss" />
  <path
     style="fill:#ff7900;fill-opacity:1;stroke:#ef6c07;stroke-width:1px;stroke-linecap:butt;stroke-linejoin:miter;stroke-opacity:1"
     d="m 118.99116,270.73218 c -7.94354,-2.45364 -20.205083,1.96858 -22.924903,9.82496 -1.491608,4.30861 2.253873,10.48102 6.549973,12.00828 8.14983,2.89726 21.39547,-1.58216 24.01656,-9.82496 1.43775,-4.52142 -3.10845,-10.60805 -7.64163,-12.00828 z"
     id="path3904"
     inkscape:connector-curvature="0"
     transform="translate(-4.9229925e-6,0)"
     sodipodi:nodetypes="sssss" />
  <path
     sodipodi:nodetypes="sssss"
     inkscape:connector-curvature="0"
     id="path3906"
     d="m 567.66425,634.25564 c -7.94354,-2.45364 -20.20508,1.96858 -22.9249,9.82496 -1.49161,4.30861 2.25387,10.48102 6.54997,12.00828 8.14983,2.89726 21.39547,-1.58216 24.01656,-9.82496 1.43775,-4.52142 -3.10845,-10.60805 -7.64163,-12.00828 z"
     style="fill:#ff7900;fill-opacity:1;stroke:#ef6c07;stroke-width:1px;stroke-linecap:butt;stroke-linejoin:miter;stroke-opacity:1" />
</svg>
