<?xml version="1.0" encoding="UTF-8" standalone="no"?>
<!-- Created with Inkscape (http://www.inkscape.org/) -->

<svg
   xmlns:dc="http://purl.org/dc/elements/1.1/"
   xmlns:cc="http://creativecommons.org/ns#"
   xmlns:rdf="http://www.w3.org/1999/02/22-rdf-syntax-ns#"
   xmlns:svg="http://www.w3.org/2000/svg"
   xmlns="http://www.w3.org/2000/svg"
   xmlns:xlink="http://www.w3.org/1999/xlink"
   xmlns:sodipodi="http://sodipodi.sourceforge.net/DTD/sodipodi-0.dtd"
   xmlns:inkscape="http://www.inkscape.org/namespaces/inkscape"
   width="210mm"
   height="297mm"
   viewBox="0 0 210 297"
   version="1.1"
   id="svg8"
   inkscape:version="0.48.4 r9939"
   sodipodi:docname="5747445573091328_1484549309_drawing2.svg">
  <title
     id="title4022">Mouse playing drum</title>
  <defs
     id="defs2">
    <linearGradient
       id="linearGradient4004">
      <stop
         style="stop-color:#ff2400;stop-opacity:1;"
         offset="0"
         id="stop4006" />
      <stop
         style="stop-color:#ff9955;stop-opacity:1;"
         offset="1"
         id="stop4008" />
    </linearGradient>
    <linearGradient
       id="linearGradient3984">
      <stop
         id="stop3996"
         offset="0"
         style="stop-color:#c94c17;stop-opacity:0.49803922;" />
      <stop
         style="stop-color:#c98517;stop-opacity:0.24705882;"
         offset="0.5"
         id="stop4000" />
      <stop
         style="stop-color:#c9bf17;stop-opacity:0;"
         offset="1"
         id="stop3988" />
    </linearGradient>
    <inkscape:path-effect
       effect="bspline"
       id="path-effect318"
       is_visible="true"
       weight="33.333333"
       steps="2"
       helper_size="0"
       apply_no_weight="true"
       apply_with_weight="true"
       only_selected="false" />
    <radialGradient
       inkscape:collect="always"
       xlink:href="#linearGradient4004"
       id="radialGradient4010"
       cx="156.90356"
       cy="155.89767"
       fx="156.90356"
       fy="155.89767"
       r="24.785343"
       gradientTransform="matrix(0.9986059,-0.05278508,0.02276934,0.43075797,-4.4285339,95.030064)"
       gradientUnits="userSpaceOnUse" />
  </defs>
  <sodipodi:namedview
     id="base"
     pagecolor="#ffffff"
     bordercolor="#666666"
     borderopacity="1.0"
     inkscape:pageopacity="0.0"
     inkscape:pageshadow="2"
     inkscape:zoom="0.49951047"
     inkscape:cx="590.29296"
     inkscape:cy="598.04565"
     inkscape:document-units="mm"
     inkscape:current-layer="layer1"
     showgrid="false"
     showguides="false"
     inkscape:window-width="1278"
     inkscape:window-height="773"
     inkscape:window-x="0"
     inkscape:window-y="1"
     inkscape:window-maximized="1"
     inkscape:snap-smooth-nodes="false"
     inkscape:object-nodes="false" />
  <metadata
     id="metadata5">
    <rdf:RDF>
      <cc:Work
         rdf:about="">
        <dc:format>image/svg+xml</dc:format>
        <dc:type
           rdf:resource="http://purl.org/dc/dcmitype/StillImage" />
        <dc:title>Mouse playing drum</dc:title>
        <cc:license
           rdf:resource="http://creativecommons.org/licenses/by-sa/3.0/" />
        <dc:creator>
          <cc:Agent>
            <dc:title>Hrishi Patel</dc:title>
          </cc:Agent>
        </dc:creator>
        <dc:date>2017-01-15</dc:date>
        <dc:description>Made for GCI 2016-17 for SugarLabs</dc:description>
        <dc:contributor>
          <cc:Agent>
            <dc:title>Devin Ulibarri</dc:title>
          </cc:Agent>
        </dc:contributor>
        <dc:rights>
          <cc:Agent>
            <dc:title>CC-BY-SA</dc:title>
          </cc:Agent>
        </dc:rights>
      </cc:Work>
      <cc:License
         rdf:about="http://creativecommons.org/licenses/by-sa/3.0/">
        <cc:permits
           rdf:resource="http://creativecommons.org/ns#Reproduction" />
        <cc:permits
           rdf:resource="http://creativecommons.org/ns#Distribution" />
        <cc:requires
           rdf:resource="http://creativecommons.org/ns#Notice" />
        <cc:requires
           rdf:resource="http://creativecommons.org/ns#Attribution" />
        <cc:permits
           rdf:resource="http://creativecommons.org/ns#DerivativeWorks" />
        <cc:requires
           rdf:resource="http://creativecommons.org/ns#ShareAlike" />
      </cc:License>
    </rdf:RDF>
  </metadata>
  <g
     inkscape:label="Layer 1"
     inkscape:groupmode="layer"
     id="layer1">
    <path
       style="fill:none;fill-rule:evenodd;stroke:#000000;stroke-width:0.26458332px;stroke-linecap:butt;stroke-linejoin:miter;stroke-opacity:1"
       d="m 105.9285,211.75777 -54.677215,0.23978"
       id="path104"
       inkscape:connector-curvature="0"
       sodipodi:nodetypes="cc" />
    <path
       style="fill:none;fill-rule:evenodd;stroke:#000000;stroke-width:0.26458332px;stroke-linecap:butt;stroke-linejoin:miter;stroke-opacity:1"
       d="m 51.251285,211.99755 c -23.519719,0 -24.054258,0 -24.054258,0 0,0 15.501633,-153.412715 27.79603,-144.32555"
       id="path133"
       inkscape:connector-curvature="0" />
    <path
       style="fill:#000000;fill-rule:evenodd;stroke-width:0.26458332"
       d="M 336.21875 268.1875 C 328.65336 268.7148 322.55494 276.88532 321.90625 287.1875 L 321.84375 287.1875 C 321.84446 287.49355 321.86479 287.79095 321.875 288.09375 C 321.86546 288.39726 321.84375 288.69325 321.84375 289 L 321.90625 289 C 322.59891 299.6279 329.09568 307.96875 337 307.96875 C 344.9222 307.96875 351.39167 299.59136 352.0625 288.9375 L 352.125 288.9375 C 352.12429 288.63145 352.10396 288.33405 352.09375 288.03125 C 352.10329 287.72774 352.125 287.43175 352.125 287.125 L 352.0625 287.125 C 351.36984 276.4971 344.90432 268.1875 337 268.1875 C 336.73849 268.1875 336.47701 268.1695 336.21875 268.1875 z "
       transform="matrix(0.28222223,0,0,0.28222223,-1.3919578e-6,0)"
       id="path167" />
    <path
       style="fill:#000000;fill-rule:evenodd;stroke-width:0.26458332"
       d="M 382.375 269.125 C 374.44634 269.125 367.9431 277.48996 367.28125 288.15625 L 367.21875 288.15625 C 367.21931 288.39894 367.24345 288.63434 367.25 288.875 C 367.23653 289.23518 367.21875 289.60396 367.21875 289.96875 L 367.3125 289.96875 C 368.00527 300.59649 374.47077 308.90625 382.375 308.90625 C 390.3048 308.90625 396.77722 300.54347 397.4375 289.875 L 397.53125 289.875 C 397.53056 289.57966 397.50953 289.29232 397.5 289 C 397.50953 288.69666 397.53125 288.40032 397.53125 288.09375 L 397.4375 288.09375 C 396.75532 277.45125 390.28689 269.125 382.375 269.125 z "
       transform="matrix(0.28222223,0,0,0.28222223,-1.3919578e-6,0)"
       id="path167-6" />
    <path
       style="fill:#000000;fill-rule:evenodd;stroke-width:0.53453904"
       d="m 122.11204,110.43944 -0.53258,-0.12249 1.76938,-6.8859 c 1.50438,-2.96924 9.22683,-6.656416 9.29512,-6.574596 0.44719,0.53587 9.46717,13.805766 9.46717,14.009256 0,0.284 -12.04737,0.017 -19.99909,-0.42627 z"
       id="path238"
       inkscape:connector-curvature="0"
       sodipodi:nodetypes="ccccsc" />
    <path
       style="fill:none;fill-rule:evenodd;stroke:#000000;stroke-width:0.26458332px;stroke-linecap:butt;stroke-linejoin:miter;stroke-opacity:1"
       d="M 53.389441,55.912142 C 38.422348,45.221361 38.422348,45.221361 38.422348,45.221361 49.647667,30.254267 52.854902,30.254267 52.854902,30.254267 l 18.708867,16.570711 z"
       id="path240"
       inkscape:connector-curvature="0" />
    <path
       style="fill:#333333;fill-rule:evenodd;stroke-width:0.53453904"
       d="m 46.681626,50.645849 c -3.674957,-2.62803 -6.892282,-4.985838 -7.149613,-5.239576 -0.899496,-0.886934 11.152947,-14.43923 12.841218,-14.43923 0.640131,0 18.552703,15.509107 18.23687,15.789891 -0.07782,0.06918 -3.990168,2.047594 -8.694113,4.39647 l -8.552625,4.270682 z"
       id="path244"
       inkscape:connector-curvature="0" />
    <path
       id="path248"
       transform="scale(0.26458333,0.26458333)"
       style="fill:#b3b3b3;fill-rule:evenodd;stroke:#000000;stroke-width:2.02030516;stroke-opacity:0.52662725"
       d="m 410.73633,50.005859 c -9.4708,0.104203 -19.4518,1.360956 -24.01367,3.439453 -6.13017,2.793068 -16.57063,23.704603 -56.64649,98.281248 -11.33896,21.10051 -11.58801,29.33342 -14.05078,28.47852 C 311.70085,178.70391 272.6519,143.08178 227.25,107.4707 206.8963,91.506285 182.86989,73.917518 181.19141,73.273438 177.5165,71.86325 151.9486,97.369685 136.48633,117.86328 c -15.46446,20.49655 -22.10834,38.68093 -23.03321,55.04883 -0.76736,13.58047 10.00952,22.96964 17.34376,29.88672 4.07638,3.8447 13.59023,7.15317 30.91992,19.57422 17.32969,12.42106 28.62949,29.32544 32.44531,32.67578 l 4.18359,0.0781 c 0.63951,-0.59414 1.23959,-1.0966 1.71875,-1.34765 l -0.96289,1.36132 -0.75586,-0.0137 c -3.05776,2.84085 -7.50349,8.88753 -9.32617,11.88867 -20.11328,33.11959 -42.32317,160.01586 -69.02539,372.27344 -6.95113,55.25499 -18.26953,159.4961 -18.26953,159.4961 l -0.93359,2.46484 c -2.6646,0.79948 137.68619,73.32967 257.4707,18.85742 l 44.25,-19.54101 0.17773,-176.125 c 1.09973,-96.49769 -1.1298,-146.03149 -0.42144,-154.41165 l 3.06275,-44.73644 c -0.70878,-0.023 8.4567,-8.70614 -0.88034,-10.98348 l -16.38358,0.82855 c 0,0 0.81928,1.10557 -10.86387,0.58151 -7.804,-0.35006 -17.61722,5.47991 -23.80554,4.14709 -2.75168,-0.21959 -10.79707,-1.00314 -12.66857,-1.65057 -13.13712,-4.54469 -26.19318,-9.05311 -45.63299,-33.54644 -3.74104,-7.75892 -7.16807,-13.45407 -9.59392,-17.56063 -7.57472,-9.91614 -9.47373,-13.69336 -7.1582,-13.69336 0.32024,0 5.01363,4.90715 9.53532,12.56199 2.22302,2.90998 4.75773,12.31612 8.01062,16.36015 22.11679,27.49581 34.33711,31.70874 52.60513,35.64324 12.20304,0.97382 15.47982,-1.40863 30.24853,-3.74202 2.17059,-0.34295 11.03947,-0.75743 14.39336,-0.68376 l 4.27055,-0.82244 8.30072,0.49218 c 6.86664,0.22294 13.9621,3.41788 24.99133,3.13402 l 28.07812,0.38476 17.18164,-26.38476 c 10.27083,-11.68086 24.61352,-22.72627 24.53907,-24.54493 -0.0745,-1.81864 -17.00572,-27.85393 -35.17969,-57.85547 -48.13395,-79.45901 -55.10646,-91.64968 -54.02344,-94.45117 0.53643,-1.38754 19.29656,-29.25074 42.86524,-61.0625 l 41.88867,-56.541013 0.55664,-2.128906 c 9.54565,-8.45791 -59.26489,-38.754047 -72.7168,-42.257813 -4.36373,-1.136611 -8.84743,-1.559083 -13.15234,-1.511719 z M 197.16406,113 c 1.74852,0 9.39204,5.07712 16.98438,11.28125 18.85643,15.40867 57.24023,51.25664 57.24023,53.45898 0,0.98568 -14.59642,9.09629 -32.43555,18.02344 -17.83893,8.92716 -33.98777,16.23242 -35.88671,16.23242 -5.64223,0 -58.95703,-36.9544 -58.95703,-40.86523 0,-6.78843 46.85888,-58.13086 53.05468,-58.13086 z m 162.52751,170.49754 c 11.77239,1.17264 16.97314,12.76764 17.58254,20.64436 0.67502,9.51458 -1.43259,15.20172 -6.01044,20.64216 -10.62097,12.62228 -27.32328,4.17094 -29.36753,-13.96553 -1.64049,-14.55435 8.24659,-27.06747 17.79543,-27.32099 z m 63.37246,12.44328 c 6.03684,12.8805 2.18829,27.65527 -8.12067,33.17246 -2.13778,1.1441 -5.08289,2.04246 -6.54492,1.99805 -5.80218,-0.17655 -13.08131,-2.82389 -16.33042,-12.29297 -4.83608,-16.54044 0.0657,-27.10103 11.72129,-33.04382 14.391,-0.90614 15.34347,5.38729 19.27472,10.16628 z"
       inkscape:connector-curvature="0"
       sodipodi:nodetypes="cssssssscsccccccscccccccccscsccscscscccccccsccccsccsssssssccssccscccc" />
    <path
       style="fill:#808080;fill-rule:evenodd;stroke-width:0.50000001;stroke:#ffffff;stroke-opacity:1;stroke-miterlimit:4;stroke-dasharray:none"
       d="m 44.995301,53.345109 -7.957286,-6.496623 1.111616,-2.23132 c 1.350079,-2.709976 12.624525,-16.32282 13.518905,-16.32282 0.778831,0 10.318277,5.030089 16.976016,14.282781 l 4.357719,6.056205 -9.650142,5.566441 c -5.30758,3.061543 -9.81876,5.583434 -10.024844,5.604199 -0.206083,0.02076 -3.955476,-2.885721 -8.331984,-6.458863 z"
       id="path250"
       inkscape:connector-curvature="0"
       sodipodi:nodetypes="scssscscs" />
    <path
       style="fill:none;fill-rule:evenodd;stroke:#000000;stroke-width:0.26458332px;stroke-linecap:butt;stroke-linejoin:miter;stroke-opacity:1"
       d="m 89.149837,47.364889 c 16.036193,-29.93418 16.036193,-29.93418 16.036193,-29.93418 22.98522,9.6217 16.57075,14.43255 16.57075,14.43255 l -15.50166,20.84703 z"
       id="path266"
       inkscape:connector-curvature="0" />
    <path
       style="fill:#808080;fill-rule:evenodd;stroke-width:0.53453903999999997;stroke:#000000;stroke-opacity:0.82840234"
       d="M 27.683065,204.01982 C 22.433944,201.42387 14.100678,189.07359 12.475131,183.6983 10.3171,176.56221 7.8339595,171.97505 7.8765731,159.23703 c 0.042542,-12.71656 0.2613623,-21.38649 4.1348459,-36.8729 3.483808,-13.92847 10.704215,-30.14569 11.581082,-31.906043 1.228518,-2.466309 1.032015,-3.434799 3.929845,-3.459191 1.999804,1.123087 0.510823,5.183639 0.510823,5.183639 L 23.74225,104.14635 c -15.0643014,42.00185 -12.574726,73.94238 2.22279,89.92546 1.593764,1.72146 1.873646,1.93993 2.54539,2.98788 -0.298768,2.12153 -0.393971,3.63058 -0.827365,6.96013 z"
       id="path307"
       inkscape:connector-curvature="0"
       sodipodi:nodetypes="cssssccsccc" />
    <path
       style="fill:#808080;fill-rule:evenodd;stroke-width:2.02030516"
       d=""
       id="path309"
       inkscape:connector-curvature="0"
       transform="scale(0.26458333)" />
    <path
       style="fill:#808080;fill-rule:evenodd;stroke-width:2.02030516"
       d=""
       id="path317"
       inkscape:connector-curvature="0"
       transform="scale(0.26458333)" />
    <path
       style="fill:#808080;fill-rule:evenodd;stroke-width:2.02030516"
       d=""
       id="path323"
       inkscape:connector-curvature="0"
       transform="scale(0.26458333)" />
    <rect
       style="fill:#b3b3b3;fill-rule:evenodd;stroke-width:0.26458332"
       id="rect504"
       width="16.208349"
       height="8.5683632"
       x="90.336304"
       y="203.07292" />
    <rect
       style="fill:#b3b3b3;fill-rule:evenodd;stroke-width:0.26458332"
       id="rect506"
       width="1.3382205"
       height="4.1087022"
       x="94.289757"
       y="210.11452" />
    <rect
       style="fill:#b3b3b3;fill-rule:evenodd;stroke-width:0.22462197"
       id="rect508"
       width="8.2940855"
       height="3.2156284"
       x="93.076607"
       y="210.73877" />
    <path
       style="fill:#b3b3b3;fill-rule:evenodd;stroke-width:0.0949427"
       d="m 102.0778,212.63584 v -0.9975 h 2.02499 c 2.29636,0 2.24765,-0.0555 0.6286,0.71597 -0.55074,0.26242 -1.37311,0.65756 -1.82747,0.87808 l -0.82612,0.40095 z"
       id="path514"
       inkscape:connector-curvature="0" />
    <path
       style="fill:#b3b3b3;fill-rule:evenodd;stroke-width:1.42857146"
       d=""
       id="path532"
       inkscape:connector-curvature="0"
       transform="scale(0.26458333)" />
    <path
       style="fill:#b3b3b3;fill-rule:evenodd;stroke-width:1.42857146"
       d=""
       id="path538"
       inkscape:connector-curvature="0"
       transform="scale(0.26458333)" />
    <path
       style="fill:#b3b3b3;fill-rule:evenodd;stroke-width:0.00558036"
       d=""
       id="path568"
       inkscape:connector-curvature="0"
       transform="scale(0.26458333)" />
    <path
       style="fill:#b3b3b3;fill-rule:evenodd;stroke-width:0.00558036"
       d="m 441.7397,507.53772 c -0.0537,-0.01 -0.10699,-0.0198 -0.11841,-0.022 -0.0198,-0.004 -0.0378,-0.0159 -0.0378,-0.0256 0,-0.002 0.0458,0.005 0.10184,0.0164 0.11493,0.0236 0.14052,0.0303 0.16043,0.0418 0.0122,0.007 0.0125,0.008 0.003,0.008 -0.006,-2e-4 -0.0551,-0.008 -0.10882,-0.0184 z"
       id="path570"
       inkscape:connector-curvature="0"
       transform="scale(0.26458333)" />
    <path
       style="fill:#b3b3b3;fill-rule:evenodd;stroke-width:0.00558036"
       d="m 441.28769,507.49987 c -0.15181,-0.0277 -0.15381,-0.0283 -0.18562,-0.0505 -0.0177,-0.0124 -0.0314,-0.0233 -0.0304,-0.0243 9.8e-4,-9.8e-4 0.0856,0.0132 0.18796,0.0315 0.1024,0.0183 0.18701,0.0333 0.18802,0.0333 10e-4,0 0.002,0.009 0.002,0.0195 0,0.0107 -0.002,0.0193 -0.004,0.019 -0.002,-3e-4 -0.0732,-0.0132 -0.15764,-0.0286 z"
       id="path572"
       inkscape:connector-curvature="0"
       transform="scale(0.26458333)" />
    <path
       style="fill:#b3b3b3;fill-rule:evenodd;stroke-width:0.00558036"
       d="m 441.78087,507.58814 c -0.0894,-0.0166 -0.0978,-0.0192 -0.13114,-0.0412 -0.0199,-0.0131 -0.0312,-0.0235 -0.0256,-0.0235 0.0137,-7e-5 0.22522,0.0376 0.25026,0.0446 0.0183,0.005 0.0267,0.0159 0.0271,0.0349 1.2e-4,0.006 -0.0176,0.004 -0.12058,-0.0148 z"
       id="path574"
       inkscape:connector-curvature="0"
       transform="scale(0.26458333)" />
    <path
       style="fill:#b3b3b3;fill-rule:evenodd;stroke-width:0.00558036"
       d="m 439.58847,506.16915 c -0.0398,-0.004 -0.14965,-0.0184 -0.15028,-0.0199 -3.4e-4,-7.8e-4 -0.004,-0.01 -0.007,-0.0198 -0.006,-0.0163 -0.005,-0.0181 0.003,-0.0158 0.005,10e-4 0.0628,0.012 0.12812,0.0235 0.0748,0.0131 0.118,0.0231 0.11674,0.0269 -0.002,0.006 -0.0505,0.009 -0.0904,0.005 z"
       id="path580"
       inkscape:connector-curvature="0"
       transform="scale(0.26458333)" />
    <path
       style="fill:#b3b3b3;fill-rule:evenodd;stroke-width:0.00390625"
       d=""
       id="path588"
       inkscape:connector-curvature="0"
       transform="scale(0.26458333)" />
    <path
       style="fill:#b3b3b3;fill-rule:evenodd;stroke-width:0.00390625"
       d="m 454.04164,515.23661 c -0.0208,-0.002 -0.0326,-0.007 -0.0788,-0.0316 -0.0579,-0.0312 -0.0611,-0.0344 -0.0654,-0.0655 l -0.002,-0.0176 0.0211,0.0135 c 0.0116,0.007 0.0527,0.0334 0.0914,0.0577 0.081,0.0509 0.0757,0.0472 0.0661,0.0463 -0.004,-3.7e-4 -0.0185,-0.002 -0.032,-0.003 z"
       id="path592"
       inkscape:connector-curvature="0"
       transform="scale(0.26458333)" />
    <path
       style="fill:#b3b3b3;fill-rule:evenodd;stroke-width:0.125"
       d=""
       id="path604"
       inkscape:connector-curvature="0"
       transform="scale(0.26458333)" />
    <path
       style="fill:#b3b3b3;fill-rule:evenodd;stroke-width:0.04419417"
       d=""
       id="path608"
       inkscape:connector-curvature="0"
       transform="scale(0.26458333)" />
    <path
       style="fill:#b3b3b3;fill-rule:evenodd;stroke-width:0.04419417"
       d=""
       id="path610"
       inkscape:connector-curvature="0"
       transform="scale(0.26458333)" />
    <path
       style="fill:#b3b3b3;fill-rule:evenodd;stroke-width:0.04419417"
       d=""
       id="path614"
       inkscape:connector-curvature="0"
       transform="scale(0.26458333)" />
    <path
       style="fill:#b3b3b3;fill-rule:evenodd;stroke-width:0.04419417"
       d=""
       id="path616"
       inkscape:connector-curvature="0"
       transform="scale(0.26458333)" />
    <path
       style="fill:#b3b3b3;fill-rule:evenodd;stroke-width:0.03125"
       d=""
       id="path648"
       inkscape:connector-curvature="0"
       transform="scale(0.26458333)" />
    <path
       style="fill:#b3b3b3;fill-rule:evenodd;stroke-width:0.0625"
       d=""
       id="path658"
       inkscape:connector-curvature="0"
       transform="scale(0.26458333)" />
    <path
       style="fill:#b3b3b3;fill-rule:evenodd;stroke-width:0.0625"
       d="m 352.36178,420.66675 c -0.44688,-0.0454 -1.00938,-0.11056 -1.25,-0.14472 -0.38349,-0.0544 -0.32947,-0.059 0.4375,-0.0368 0.532,0.0154 1.0955,0.0725 1.4375,0.14558 0.6582,0.14068 0.4968,0.14995 -0.625,0.0359 z"
       id="path664"
       inkscape:connector-curvature="0"
       transform="scale(0.26458333)" />
    <path
       id="path672"
       transform="scale(0.26458333)"
       style="fill:#ffffff;fill-rule:evenodd;stroke-width:0.17677669"
       d="m 472.69922,505.05273 c -0.21348,0 -0.11354,1.07724 0.14648,1.58008 0.28964,0.56009 1.34329,1.23353 3.69336,2.35938 -0.0312,-0.0313 -0.0682,-0.0576 -0.084,-0.0977 -0.0265,-0.0642 -0.018,-0.13705 -0.0293,-0.20508 0.048,-0.0386 0.0935,-0.0808 0.14453,-0.11523 0.008,-0.008 0.0219,-8e-4 0.0332,-0.002 0.0643,-0.004 0.12853,-0.009 0.1875,0.0215 -0.0113,-9.8e-4 -0.043,-0.003 -0.0332,-0.002 0.0421,0.005 0.0773,0.0163 0.11328,0.0254 -0.12788,-0.0955 -0.26748,-0.184 -0.41211,-0.25 7.8e-4,-0.002 9.2e-4,-0.004 0.002,-0.006 -0.0141,-0.005 -0.0374,-0.008 -0.0312,-0.0176 0.0222,-0.0387 0.0539,-0.0707 0.082,-0.10547 0.0217,-0.0545 0.0428,-0.10842 0.0664,-0.16211 10e-4,-0.003 0.004,0.004 0.008,0.004 0.0117,0.006 0.0247,0.0103 0.0371,0.0156 0.0117,0.005 0.0233,0.01 0.0352,0.0137 0.23093,0.0812 0.47401,0.10963 0.70899,0.17578 0.22111,0.0552 0.44403,0.10506 0.66601,0.15625 0.0126,0.005 0.0222,0.003 0.0332,0.004 0.1723,0.0243 0.20322,0.0343 0.36718,0.0703 -0.0392,-0.0225 -0.078,-0.0457 -0.11718,-0.0684 -0.0377,-0.0174 -0.0754,-0.034 -0.11329,-0.0508 -0.29022,-0.1285 -0.57969,-0.25762 -0.86523,-0.39648 -0.0631,-0.034 -0.1252,-0.073 -0.18945,-0.10547 -0.048,-0.0227 -0.13446,-0.0119 -0.14844,-0.0644 -0.002,-0.009 0.003,-0.0183 0.002,-0.0274 -0.1095,-0.019 -0.19152,-0.0481 -0.10742,-0.1289 -0.0124,-0.006 -0.0247,-0.0118 -0.0371,-0.0176 -0.0494,-0.003 -0.0994,-0.007 -0.0996,-0.0449 v -0.002 c -0.0124,-0.006 -0.0247,-0.0118 -0.0371,-0.0176 0.0294,-0.0641 0.0501,-0.13541 0.0801,-0.19922 -0.80995,-0.41555 -1.62075,-0.86312 -2.4668,-1.39063 -0.83696,-0.52185 -1.57236,-0.94922 -1.63476,-0.94922 z m 4.65234,3.54883 c 0.0817,0.0691 0.16429,0.13776 0.24805,0.20313 0.10091,0.0786 0.20384,0.15374 0.30664,0.23047 0.27908,0.18814 0.54965,0.38937 0.83203,0.57226 0.008,0.003 0.0157,0.005 0.0234,0.008 0.0138,-0.0411 0.0464,-0.0691 0.0898,-0.082 0.0205,-0.0428 0.0598,-0.0919 0.14844,-0.16015 0.0383,-0.0307 0.0851,0.0173 0.13086,0.0508 0.0163,-0.0764 0.0559,-0.09 0.0977,-0.0879 0.0103,0.002 0.0186,-0.001 0.0312,0.008 0.0405,0.009 0.0717,0.0129 0.14062,0.0352 0.0402,0.0172 0.0791,0.037 0.11914,0.0547 0.1939,0.0602 0.38942,0.11519 0.5918,0.14063 0.11365,0.0222 0.20975,0.0467 0.30664,0.0664 0.005,-0.0118 0.005,-0.0221 0.0137,-0.0351 -0.001,-0.0251 -0.004,-0.0559 -0.002,-0.0723 -0.13478,-0.0645 -0.3186,-0.15285 -0.46875,-0.22461 -0.067,-0.0154 -0.13465,-0.0277 -0.20117,-0.0449 -0.0646,-0.0151 -0.93307,-0.27508 -1.02344,-0.30078 -0.27213,-0.0779 -0.42297,-0.11556 -0.68164,-0.18359 -0.0492,-0.0109 -0.0642,-0.0219 -0.0996,-0.0293 -0.007,-0.002 -0.023,0.005 -0.0254,-0.004 -10e-4,-0.004 -7.9e-4,-0.002 -0.002,-0.006 -0.0221,-0.006 -0.0613,-0.01 -0.0723,-0.0215 -0.005,-10e-4 -0.009,-0.003 -0.0137,-0.004 -0.16332,-0.038 -0.32741,-0.0729 -0.49024,-0.11328 z m -0.33789,0.38672 c 0.0392,0.0291 0.0762,0.0504 0.0996,0.0664 0.0423,0.008 0.0846,0.0156 0.12695,0.0234 -0.002,-9.8e-4 -0.004,-0.003 -0.006,-0.004 -0.059,-0.0227 -0.11361,-0.0505 -0.16993,-0.0781 -0.008,-0.003 -0.0233,-0.0146 -0.0195,-0.008 0.007,0.0121 -0.0197,0.003 -0.0312,0 z m 4.00781,0.20899 c -0.007,0.007 -0.009,0.0136 -0.0156,0.0195 0.0196,0.006 0.005,4.9e-4 0.0273,0.008 0.13766,0.0272 0.30321,0.0581 0.44922,0.082 3.8e-4,-0.001 0.002,-0.002 0.002,-0.004 -0.15448,-0.0348 -0.30869,-0.0701 -0.4629,-0.10546 z m -0.0312,1.64843 c 0.009,0.005 0.0256,0.0137 0.0332,0.0176 0.006,0.003 0.0131,0.005 0.0195,0.008 0.15014,0.0463 0.22074,0.0767 0.45703,0.14844 4.7e-4,-0.017 -0.003,-0.0338 -0.002,-0.0508 -0.0315,-0.0102 -0.0646,-0.0201 -0.0957,-0.0293 -0.0636,-0.01 -0.12858,-0.008 -0.1914,-0.0234 -0.0172,-0.004 -0.12292,-0.0395 -0.22071,-0.0703 z m 2.84766,0.83594 c 0.005,0.0141 0.018,0.0257 0.0195,0.041 0.003,0.0374 -0.0469,0.0495 -0.0918,0.0586 0.0396,0.0162 0.0795,0.0306 0.11915,0.0469 0.062,0.0265 0.12545,0.0502 0.18554,0.0801 0.22413,0.11188 0.053,0.0493 0.16407,0.0879 0.0537,0.0151 0.0957,0.0589 0.15234,0.0606 0.004,1.1e-4 0.0156,-0.008 0.0156,-0.004 -0.008,0.006 -0.0147,0.0124 -0.0234,0.0176 0.067,0.0569 0.15869,0.10209 0.16797,0.18555 v 0.002 c 0.0452,0.0183 0.0903,0.037 0.13476,0.0566 0.0259,0.0114 0.0413,0.0268 0.0644,0.0371 0.0358,0.002 0.0773,0.002 0.10938,0.004 0.18285,0.006 0.25063,0.0129 0.32617,0.0156 -0.0547,-0.0533 -0.10921,-0.10692 -0.16406,-0.16015 -0.30275,-0.13559 -0.922,-0.41942 -1.07031,-0.48438 -0.0482,-0.0211 -0.0661,-0.0261 -0.10938,-0.0449 z m 1.21875,0.0508 c -0.0124,0.0105 -0.0244,0.0213 -0.0371,0.0312 -0.003,0.002 -0.005,0.004 -0.008,0.006 0.0489,0.0482 0.0973,0.0968 0.14648,0.14453 0.0366,0.0164 0.13006,0.0581 0.14453,0.0645 0.17578,0.0767 0.0401,0.0186 0.11524,0.0508 8.7e-4,-0.01 0.005,-0.0156 -0.006,-0.0449 -0.008,-0.0265 -0.0255,-0.0478 -0.0293,-0.0742 -0.006,-0.0312 -0.006,-0.0636 -0.008,-0.0957 -0.0634,-0.016 -0.12645,-0.034 -0.18945,-0.0508 -0.0435,-0.008 -0.0856,-0.022 -0.12891,-0.0312 z m 2.01758,0.11524 c -2.1e-4,0.0248 -0.005,0.0441 -0.008,0.0664 0.0449,0.002 0.0898,0.002 0.13476,0.004 -10e-4,-0.0163 -0.003,-0.0325 -0.004,-0.0488 -0.008,-0.005 -0.017,-0.009 -0.0254,-0.0137 -0.0326,-0.003 -0.0651,-0.006 -0.0977,-0.008 z m 1.55273,0.084 c 0.012,0.008 0.0278,0.0112 0.0391,0.0195 0.0276,0.0204 0.0422,0.0555 0.0664,0.0801 4.3e-4,-0.005 0.004,-0.0102 0.004,-0.0156 10e-4,-0.0353 -0.016,-0.0528 -0.0215,-0.0781 -0.0285,-0.002 -0.0562,-0.004 -0.0879,-0.006 z m 0.74805,0.0605 c -0.008,0.0204 -0.008,0.0421 -0.0156,0.0625 0.0395,-0.0242 0.0653,-0.0398 0.0957,-0.0566 -0.0231,-0.002 -0.0559,-0.003 -0.0801,-0.006 z m -1.20117,0.0801 c -0.0168,-10e-4 -0.0338,0.002 -0.0508,0.002 0.0393,0.0272 0.0777,0.046 0.11914,0.0762 0.038,0.0276 0.0747,0.0579 0.11133,0.0879 0.0484,-0.008 0.0983,-0.01 0.14453,-0.0273 0.003,-0.001 0.005,-0.003 0.008,-0.004 -0.021,-0.0207 -0.0334,-0.05 -0.0586,-0.0664 -0.0503,-0.034 -0.22204,-0.0646 -0.27344,-0.0684 z m -0.60938,0.14843 c 0.002,0.005 0.004,0.009 0.006,0.0137 0.002,7.1e-4 0.004,9e-4 0.006,0.002 l 0.0117,-0.0156 c -0.008,-7.7e-4 -0.0156,7e-5 -0.0234,0 z m 0.0254,0.0156 c -0.005,-3.1e-4 -0.007,0.002 -0.0117,0.002 0.004,0.002 0.008,0.002 0.0117,0.004 v -0.002 c -10e-5,-0.002 7e-5,-0.002 0,-0.004 z m -1.58203,0.0469 c 0.0166,0.008 -0.003,-9.5e-4 0.0156,0.008 0.11109,0.038 0.21608,0.0918 0.32617,0.13281 -0.0389,-0.018 -0.10264,-0.0418 -0.27344,-0.13086 -0.0153,-0.003 -0.0315,-0.006 -0.0469,-0.01 -0.007,4.4e-4 -0.0144,-3.7e-4 -0.0215,0 z m 0.96485,0.0332 c -0.0214,0.002 -0.043,0.003 -0.0645,0.004 0.0309,0.0118 0.0692,0.0254 0.10157,0.0371 0.0202,2e-4 0.0403,-1.8e-4 0.0605,0 -0.0325,-0.0134 -0.065,-0.0276 -0.0976,-0.041 z m 3.50976,0.0117 c -0.0482,10e-4 -0.0964,0.003 -0.14453,0.006 -0.066,0.04 -0.14368,0.0883 -0.14648,0.0898 -0.0433,0.0239 -0.0885,0.0443 -0.13282,0.0664 0.004,2.7e-4 0.008,-2.6e-4 0.0117,0 0.0939,-0.006 0.18727,-0.0108 0.28125,-0.0176 0.0258,-0.0467 0.0817,-0.0958 0.13086,-0.14454 z m 1.41211,0.0645 -0.006,0.006 c 0.0205,-3e-4 0.0403,-9.2e-4 0.0606,-0.002 -0.005,-10e-4 -0.0104,-0.003 -0.0156,-0.004 -0.0132,-10e-6 -0.0255,-1.3e-4 -0.0391,0 z m -0.97851,0.006 c -0.0335,0.0141 -0.0709,0.0223 -0.10157,0.041 0.0604,-0.005 0.12108,-0.009 0.18164,-0.0137 -0.008,-0.003 -0.0625,-0.0211 -0.0801,-0.0273 z m 1.77929,0.93945 c -0.0494,0.0179 -0.10502,0.0413 -0.12304,0.0469 0.0462,4.9e-4 0.0925,0.003 0.13867,0.004 1.1e-4,-0.001 -1.6e-4,-0.003 0,-0.004 -0.005,-0.01 -0.0108,-0.019 -0.0137,-0.0293 -0.002,-0.006 -0.002,-0.0117 -0.002,-0.0176 z m 1.87696,0.44336 c -5.8e-4,2.5e-4 -0.01,0.006 -0.01,0.006 -10e-4,5.2e-4 -0.003,9e-4 -0.004,0.002 0.0129,0.0107 0.0248,0.022 0.0371,0.0332 l 0.2168,-0.002 c 0.0154,-0.004 0.0286,-0.0114 0.0449,-0.0156 -0.054,-0.008 -0.10778,-0.0166 -0.16211,-0.0215 -0.0415,-0.003 -0.082,2.5e-4 -0.12304,-0.002 z m -0.64844,0.14258 c -0.0146,0.006 -0.0281,0.0143 -0.043,0.0195 -0.0726,0.0254 -0.14372,0.029 -0.21484,0.0449 -0.0109,0.004 -0.0248,0.0105 -0.0352,0.0137 0.001,0.0335 0.006,0.0823 0.008,0.10938 0.056,0.007 0.10737,0.0231 0.20703,0.0273 0.005,2.5e-4 0.012,-0.002 0.0176,-0.002 -1.1e-4,-0.009 -0.003,-0.0186 0,-0.0273 0.0178,-0.0549 0.0543,-0.10324 0.082,-0.1543 -0.005,-0.0116 -0.0146,-0.0197 -0.0195,-0.0312 z m -0.60938,0.13867 c -0.005,7.8e-4 -0.0103,0.003 -0.0156,0.004 0.009,0.002 0.0107,2.6e-4 0.0195,0.002 -3e-5,-10e-4 3e-5,-0.005 0,-0.006 -10e-4,2.1e-4 -0.003,-2.1e-4 -0.004,0 z m 0.86914,0.13281 c -1.7e-4,0.003 2.1e-4,0.007 0,0.01 0.009,-0.003 0.0136,-0.007 0.0234,-0.01 -0.008,6.1e-4 -0.0156,-8e-4 -0.0234,0 z m 0.66797,0.20899 c -0.0137,0.002 -0.0273,0.004 -0.041,0.006 -0.016,0.007 -0.0327,0.0128 -0.0488,0.0195 1.8e-4,0.004 0.002,0.0228 0.002,0.0234 0.005,0.0237 5.7e-4,0.0483 0,0.0723 0.0374,-0.0129 0.076,-0.022 0.11328,-0.0352 0.0242,-0.009 0.0481,-0.0183 0.0723,-0.0273 -0.0329,-0.0184 -0.0654,-0.0383 -0.0977,-0.0586 z m -1.88086,0.0156 c 0.0674,0.0135 0.12372,0.0263 0.1836,0.0391 0.0585,-0.005 0.11144,-0.005 0.17578,-0.0156 0.007,-10e-4 0.0143,-0.004 0.0215,-0.006 -5.9e-4,-0.003 -9e-4,-0.008 -0.002,-0.0117 -0.12636,8e-4 -0.25288,0.005 -0.37891,-0.006 z m 1.47461,0.12891 c -0.0115,0.004 -0.0238,0.004 -0.0351,0.008 0.0101,0.0226 0.0188,0.0422 0.0254,0.0664 0.003,-6.2e-4 0.007,-9.2e-4 0.01,-0.002 0.002,-0.0243 -4.5e-4,-0.048 0,-0.0723 z m 3.29297,0.17773 c -0.008,0.0101 -0.0216,0.0149 -0.0273,0.0274 -0.003,0.007 -0.002,0.017 -0.004,0.0254 0.0192,-0.008 0.0401,-0.0175 0.0586,-0.0254 -0.009,-0.009 -0.0224,-0.0149 -0.0273,-0.0274 z m -0.51953,0.0625 c -0.0185,0.005 -0.037,0.009 -0.0547,0.0137 -0.0184,0.0184 -0.0379,0.0326 -0.0566,0.0508 0.006,-0.003 0.0131,-0.005 0.0195,-0.008 0.0323,-0.0157 0.0618,-0.0367 0.0918,-0.0566 z m 1.23828,0.0254 c -0.0165,0.0112 -0.0339,0.0208 -0.0508,0.0312 0.004,0.009 0.009,0.0194 0.0156,0.0293 0.003,-0.002 0.005,-0.004 0.008,-0.006 -0.005,3e-5 0.0268,-0.0271 0.0488,-0.0469 -0.007,-0.003 -0.0143,-0.005 -0.0215,-0.008 z m -3.35937,0.16602 c 0.008,0.002 0.0156,0.005 0.0234,0.006 0.003,-4.5e-4 0.005,4.4e-4 0.008,0 v -0.002 c -0.0105,-10e-4 -0.0208,-0.003 -0.0312,-0.004 z m 3.33593,0.26367 c -0.0377,0.0249 -0.0739,0.0525 -0.11328,0.0742 -0.0276,0.0152 -0.0592,0.0279 -0.0898,0.041 6.6e-4,0.007 0.002,0.0149 0.002,0.0215 0.0613,-0.035 0.12266,-0.0702 0.18164,-0.10938 0.007,-0.009 0.0128,-0.0184 0.0195,-0.0273 z m 0.97657,0.11719 c -0.007,0.001 -0.013,0.003 -0.0195,0.004 -0.0227,0.003 -0.0433,0.005 -0.0645,0.006 0.0285,10e-4 0.059,0.003 0.0859,0.004 -7.5e-4,-0.004 -7e-4,-0.008 -0.002,-0.0117 z m 1.0332,0.57617 c -0.0146,10e-4 -0.0283,0.003 -0.043,0.004 -0.005,0.002 -0.009,0.006 -0.0137,0.008 0.009,0.003 0.018,0.005 0.0273,0.008 0.0108,-0.006 0.0184,-0.0111 0.0293,-0.0176 z" />
    <path
       style="fill:#ffffff;fill-rule:evenodd;stroke-width:0.015625"
       d=""
       id="path676"
       inkscape:connector-curvature="0"
       transform="scale(0.26458333)" />
    <path
       id="path678"
       transform="scale(0.26458333)"
       style="fill:#ffffff;fill-rule:evenodd;stroke-width:0.015625"
       d="m 472.49805,504.89844 c -0.0225,0.0139 -0.009,0.40218 0.0254,0.70898 0.0867,0.773 0.22001,1.11109 0.58594,1.49024 0.30907,0.32028 0.57976,0.50467 1.63281,1.10742 0.35235,0.20167 0.75667,0.43658 0.89843,0.52148 0.092,0.0551 0.53193,0.25163 0.9043,0.41992 0.007,-0.0276 0.0167,-0.0663 0.0293,-0.11328 -0.008,-0.009 -0.0158,-0.0168 -0.0234,-0.0254 -0.22911,-0.11035 -0.54428,-0.2495 -0.76953,-0.36133 -1.39652,-0.69331 -2.14868,-1.15158 -2.58984,-1.57617 -0.25746,-0.24779 -0.35608,-0.3996 -0.45508,-0.69726 -0.14169,-0.42602 -0.20279,-1.0701 -0.11719,-1.24219 0.0502,-0.1011 0.0647,-0.10168 0.24219,-0.01 0.17086,0.0892 0.61726,0.34968 1.02734,0.59961 0.14033,0.0856 0.25772,0.15244 0.26172,0.14844 0.004,-0.004 -0.13409,-0.0989 -0.30859,-0.20898 -0.7143,-0.45052 -1.30565,-0.78532 -1.34375,-0.76172 z" />
    <path
       id="path682"
       transform="scale(0.26458333)"
       style="fill:#ffffff;fill-rule:evenodd;stroke-width:0.00390625"
       d="m 471.7207,507.08398 c -0.007,-0.002 -0.006,0.003 -0.006,0.0469 v 0.0488 l 0.53321,0.22851 c 0.99049,0.42343 2.70898,1.16555 4.30273,1.85547 -0.0194,-0.0136 -0.0243,-0.0399 -0.0137,-0.0879 -0.45755,-0.1988 -0.99898,-0.4343 -1.36133,-0.5918 -2.36655,-1.02861 -3.44908,-1.498 -3.45508,-1.5 z" />
    <path
       style="fill:#ffffff;fill-rule:evenodd;stroke-width:0.00390625"
       d=""
       id="path684"
       inkscape:connector-curvature="0"
       transform="scale(0.26458333)" />
    <path
       style="fill:#ffffff;fill-rule:evenodd;stroke-width:0.00390625"
       d=""
       id="path686"
       inkscape:connector-curvature="0"
       transform="scale(0.26458333)" />
    <path
       style="fill:#ffffff;fill-rule:evenodd;stroke-width:0.00390625"
       d=""
       id="path688"
       inkscape:connector-curvature="0"
       transform="scale(0.26458333)" />
    <path
       style="fill:#ffffff;fill-rule:evenodd;stroke-width:0.00390625"
       d="m 476.36585,509.09629 c 0.003,-0.001 0.006,-9.9e-4 0.007,3e-4 10e-4,0.001 -0.001,0.002 -0.005,0.002 -0.005,-1.9e-4 -0.005,-10e-4 -0.002,-0.002 z"
       id="path690"
       inkscape:connector-curvature="0"
       transform="scale(0.26458333)" />
    <path
       style="fill:#ffffff;fill-rule:evenodd;stroke-width:0.00390625"
       d=""
       id="path692"
       inkscape:connector-curvature="0"
       transform="scale(0.26458333)" />
    <path
       style="fill:#ffffff;fill-rule:evenodd;stroke-width:0.00390625"
       d=""
       id="path694"
       inkscape:connector-curvature="0"
       transform="scale(0.26458333)" />
    <path
       style="fill:#ffffff;fill-rule:evenodd;stroke-width:0.00390625"
       d=""
       id="path696"
       inkscape:connector-curvature="0"
       transform="scale(0.26458333)" />
    <path
       id="path698"
       transform="scale(0.26458333)"
       style="fill:#ffffff;fill-rule:evenodd;stroke-width:0.00390625"
       d="m 471.7207,507.08398 c -0.007,-0.002 -0.006,0.003 -0.006,0.0469 v 0.0488 l 0.60352,0.25781 c 1.03898,0.44457 2.66552,1.14773 4.23242,1.82617 -0.0194,-0.0136 -0.0243,-0.0399 -0.0137,-0.0879 -2.6394,-1.14708 -4.81031,-2.09027 -4.81641,-2.0918 z" />
    <path
       id="path700"
       transform="scale(0.26458333)"
       style="fill:#ffffff;fill-rule:evenodd;stroke-width:0.00390625"
       d="m 471.7207,507.08398 c -0.007,-0.002 -0.006,0.003 -0.006,0.0469 v 0.0488 l 0.57813,0.24804 c 1.08902,0.46615 2.68504,1.15521 4.25781,1.83594 -0.0194,-0.0136 -0.0243,-0.0399 -0.0137,-0.0879 -1.31105,-0.56989 -2.59393,-1.12783 -3.12695,-1.35937 -0.38564,-0.16752 -0.92178,-0.40045 -1.19141,-0.51758 -0.26963,-0.11718 -0.49405,-0.21385 -0.49805,-0.21485 z" />
    <path
       id="path702"
       transform="scale(0.26458333)"
       style="fill:#ffffff;fill-rule:evenodd;stroke-width:0.00390625"
       d="m 475.74219,508.78711 c -7e-4,8e-4 0.0403,0.027 0.0898,0.0566 l 0.0899,0.0527 0.61718,0.26954 c 10e-4,-0.004 0.005,-0.0147 0.006,-0.0195 -0.29381,-0.12864 -0.63928,-0.27887 -0.71094,-0.31445 -0.0493,-0.0245 -0.0911,-0.0456 -0.0918,-0.0449 z" />
    <path
       style="fill:#ffffff;fill-rule:evenodd;stroke-width:0.00390625"
       d=""
       id="path704"
       inkscape:connector-curvature="0"
       transform="scale(0.26458333)" />
    <path
       style="fill:#ffffff;fill-rule:evenodd;stroke-width:0.00390625"
       d=""
       id="path706"
       inkscape:connector-curvature="0"
       transform="scale(0.26458333)" />
    <path
       style="fill:#ffffff;fill-rule:evenodd;stroke-width:0.00390625"
       d=""
       id="path708"
       inkscape:connector-curvature="0"
       transform="scale(0.26458333)" />
    <path
       id="path710"
       transform="scale(0.26458333)"
       style="fill:#ffffff;fill-rule:evenodd;stroke-width:0.00390625"
       d="m 472.70312,506.4707 c 0,0.007 0.0383,0.0967 0.0664,0.1543 0.051,0.10453 0.10519,0.19316 0.17969,0.28906 0.11837,0.15232 0.3068,0.33714 0.48047,0.47266 0.2371,0.18502 0.53069,0.36721 1.32617,0.82422 0.42212,0.24252 0.63558,0.36531 0.89062,0.51562 0.0451,0.0266 0.13824,0.0771 0.20704,0.11133 0.0688,0.0341 0.12309,0.0624 0.12109,0.0625 -0.002,10e-5 -0.0448,-0.0202 -0.0957,-0.0449 -0.0508,-0.0248 -0.0931,-0.0458 -0.0937,-0.0449 -9e-4,8e-4 0.029,0.0205 0.0664,0.043 0.0652,0.0392 0.0907,0.0519 0.64063,0.29101 0.0264,0.0115 0.024,0.009 0.0488,0.0195 4.9e-4,-0.002 0.001,-0.008 0.002,-0.01 -0.13361,-0.0609 -0.34435,-0.15538 -0.39453,-0.17969 0.0696,0.0318 0.25114,0.10995 0.39648,0.17383 0.007,-0.0282 0.0162,-0.0683 0.0293,-0.11719 -0.002,-0.002 -0.004,-0.004 -0.006,-0.006 -0.19474,-0.0939 -0.49808,-0.23629 -0.49609,-0.23828 9.3e-4,-9e-4 0.0487,0.0204 0.10742,0.0488 0.10533,0.051 0.26074,0.11925 0.37109,0.17187 -0.034,-0.0378 -0.0776,-0.0672 -0.0957,-0.11328 -0.0265,-0.0642 -0.018,-0.13705 -0.0293,-0.20508 0.048,-0.0386 0.0935,-0.0808 0.14453,-0.11523 0.008,-0.008 0.0219,-9e-4 0.0332,-0.002 0.0643,-0.004 0.12853,-0.009 0.1875,0.0215 -0.0113,-9.8e-4 -0.043,-0.003 -0.0332,-0.002 0.0421,0.005 0.0773,0.0163 0.11328,0.0254 -0.12788,-0.0955 -0.26748,-0.184 -0.41211,-0.25 7.8e-4,-0.002 0.001,-0.004 0.002,-0.006 -0.0141,-0.005 -0.0374,-0.008 -0.0312,-0.0176 0.0222,-0.0387 0.0539,-0.0707 0.082,-0.10547 0.0217,-0.0545 0.0428,-0.10842 0.0664,-0.16211 0.001,-0.003 0.004,0.004 0.008,0.004 0.0117,0.006 0.0247,0.0103 0.0371,0.0156 0.0117,0.005 0.0233,0.01 0.0352,0.0137 0.23093,0.0812 0.47401,0.10963 0.70899,0.17578 0.22111,0.0552 0.44403,0.10506 0.66601,0.15625 0.0126,0.005 0.0222,0.003 0.0332,0.004 0.1723,0.0243 0.20322,0.0343 0.36718,0.0703 -0.0392,-0.0225 -0.078,-0.0457 -0.11718,-0.0684 -0.0377,-0.0174 -0.0754,-0.034 -0.11329,-0.0508 -0.29024,-0.1285 -0.57969,-0.25762 -0.86523,-0.39648 -0.0631,-0.034 -0.1252,-0.073 -0.18945,-0.10547 -0.048,-0.0227 -0.13446,-0.0119 -0.14844,-0.0644 -0.002,-0.009 0.003,-0.0183 0.002,-0.0274 -0.1095,-0.019 -0.19152,-0.0481 -0.10742,-0.1289 -0.0124,-0.006 -0.0247,-0.0118 -0.0371,-0.0176 -0.0494,-0.003 -0.0994,-0.007 -0.0996,-0.0449 v -0.002 c -0.0124,-0.006 -0.0247,-0.0118 -0.0371,-0.0176 0.0431,-0.0941 0.0488,-0.21706 0.12891,-0.28321 0.042,-0.034 0.10447,0.0341 0.15625,0.0488 0.0344,0.0104 0.069,0.0212 0.10352,0.0312 l 0.002,-0.002 c 0.004,-0.005 0.0216,0.008 0.0293,0.008 -0.0178,-0.0384 0.004,-0.0983 0.0762,-0.27734 0.004,-0.0151 0.0301,-8.3e-4 0.043,0 0.0518,0.003 0.22077,0.0178 0.24609,0.0254 0.0722,0.0113 0.14303,0.0314 0.21484,0.0488 0.0964,0.0227 0.44278,0.10673 0.53711,0.13281 0.12208,0.034 0.27911,0.0866 0.40039,0.1289 0.003,10e-4 0.006,0.003 0.01,0.004 v -0.14062 -0.84571 h -1.76953 -1.76758 l 0.0254,0.0156 c 0.0138,0.009 0.0861,0.0536 0.16016,0.0996 0.17113,0.106 0.18122,0.11503 0.0469,0.0371 -0.0397,-0.023 -0.11441,-0.0674 -0.16601,-0.0977 l -0.0937,-0.0547 h -1.16407 c -0.63969,0 -1.16211,8.8e-4 -1.16211,0.002 0,0.004 0.024,0.0613 0.043,0.10351 0.0566,0.12537 0.14155,0.24905 0.25977,0.37891 0.0109,0.0119 0.003,0.006 -0.0156,-0.0137 -0.12053,-0.12343 -0.21519,-0.26911 -0.27929,-0.42969 l -0.0156,-0.0391 -0.0332,-0.002 c -0.0184,-4.3e-4 -0.0332,-9.3e-4 -0.0332,0 z m 1.09571,1.06836 c 0.21018,0.14073 0.45603,0.2904 0.74805,0.45508 0.0931,0.0525 0.32298,0.17995 0.39648,0.21875 0.0134,0.007 0.0254,0.0136 0.0254,0.0156 0,0.004 6.6e-4,0.005 -0.0176,-0.006 -0.009,-0.005 -0.0578,-0.0311 -0.10937,-0.0586 -0.2104,-0.11208 -0.50134,-0.27758 -0.68164,-0.38672 -0.1352,-0.0818 -0.24656,-0.1604 -0.36133,-0.23828 z m 1.22265,0.7168 c 10e-4,-10e-4 0.0487,0.0241 0.10743,0.0547 0.0587,0.0306 0.13467,0.0686 0.16797,0.0859 0.0325,0.0169 0.0584,0.0318 0.0605,0.0332 9e-4,0.001 9e-4,0.003 0,0.004 -10e-4,0.001 -0.0677,-0.0344 -0.26367,-0.13671 -0.0414,-0.0217 -0.0733,-0.04 -0.0723,-0.041 z m 0.61524,0.31836 c 0.002,-0.002 0.2539,0.122 0.2539,0.125 0,0.003 0.0106,0.008 -0.1289,-0.0606 -0.0697,-0.0343 -0.126,-0.0634 -0.125,-0.0644 z m 1.71484,0.0273 c 0.0817,0.0691 0.16429,0.13776 0.24805,0.20313 0.10091,0.0786 0.20384,0.15374 0.30664,0.23047 0.25498,0.17189 0.5035,0.35366 0.75977,0.52343 6.3e-4,-0.1306 0.002,-0.18946 0.002,-0.42187 v -0.19141 c -0.22516,-0.0635 -0.38047,-0.10478 -0.61328,-0.16601 -0.0492,-0.0109 -0.0642,-0.0219 -0.0996,-0.0293 -0.007,-0.002 -0.023,0.005 -0.0254,-0.004 -0.001,-0.004 -8.7e-4,-0.002 -0.002,-0.006 -0.0221,-0.006 -0.0613,-0.01 -0.0723,-0.0215 -0.005,-0.001 -0.009,-0.003 -0.0137,-0.004 -0.16332,-0.038 -0.32741,-0.0729 -0.49024,-0.11328 z m -0.33789,0.38672 c 0.0392,0.0291 0.0762,0.0504 0.0996,0.0664 0.0423,0.008 0.0846,0.0156 0.12695,0.0234 -0.002,-0.001 -0.004,-0.003 -0.006,-0.004 -0.059,-0.0227 -0.11361,-0.0505 -0.16993,-0.0781 -0.008,-0.003 -0.0233,-0.015 -0.0195,-0.008 0.007,0.0121 -0.0197,0.003 -0.0312,0 z" />
    <path
       id="path712"
       transform="scale(0.26458333)"
       style="fill:#ffffff;fill-rule:evenodd;stroke-width:0.00390625"
       d="m 472.70312,506.4707 c 0,0.007 0.0383,0.0967 0.0664,0.1543 0.051,0.10453 0.10519,0.19316 0.17969,0.28906 0.11837,0.15232 0.3068,0.33714 0.48047,0.47266 0.2371,0.18502 0.53069,0.36721 1.32617,0.82422 0.42212,0.24252 0.63558,0.36531 0.89062,0.51562 0.0451,0.0266 0.13824,0.0771 0.20704,0.11133 0.0688,0.0341 0.12309,0.0624 0.12109,0.0625 -0.002,10e-5 -0.0448,-0.0202 -0.0957,-0.0449 -0.0508,-0.0248 -0.0931,-0.0458 -0.0937,-0.0449 -9e-4,8e-4 0.029,0.0205 0.0664,0.043 0.0652,0.0392 0.0907,0.0519 0.64063,0.29101 0.0264,0.0115 0.024,0.009 0.0488,0.0195 4.9e-4,-0.002 0.001,-0.008 0.002,-0.01 -0.13361,-0.0609 -0.34435,-0.15538 -0.39453,-0.17969 0.0696,0.0318 0.25114,0.10995 0.39648,0.17383 0.007,-0.0282 0.0162,-0.0683 0.0293,-0.11719 -0.002,-0.002 -0.004,-0.004 -0.006,-0.006 -0.19474,-0.0939 -0.49808,-0.23629 -0.49609,-0.23828 9.3e-4,-9e-4 0.0487,0.0204 0.10742,0.0488 0.10533,0.051 0.26074,0.11925 0.37109,0.17187 -0.034,-0.0378 -0.0776,-0.0672 -0.0957,-0.11328 -0.0265,-0.0642 -0.018,-0.13705 -0.0293,-0.20508 0.048,-0.0386 0.0935,-0.0808 0.14453,-0.11523 0.008,-0.008 0.0219,-9e-4 0.0332,-0.002 0.0643,-0.004 0.12853,-0.009 0.1875,0.0215 -0.0113,-9.8e-4 -0.043,-0.003 -0.0332,-0.002 0.0421,0.005 0.0773,0.0163 0.11328,0.0254 -0.12788,-0.0955 -0.26748,-0.184 -0.41211,-0.25 7.8e-4,-0.002 0.001,-0.004 0.002,-0.006 -0.0141,-0.005 -0.0374,-0.008 -0.0312,-0.0176 0.0222,-0.0387 0.0539,-0.0707 0.082,-0.10547 0.0217,-0.0545 0.0428,-0.10842 0.0664,-0.16211 0.001,-0.003 0.004,0.004 0.008,0.004 0.0117,0.006 0.0247,0.0103 0.0371,0.0156 0.0117,0.005 0.0233,0.01 0.0352,0.0137 0.23093,0.0812 0.47401,0.10963 0.70899,0.17578 0.22111,0.0552 0.44403,0.10506 0.66601,0.15625 0.0126,0.005 0.0222,0.003 0.0332,0.004 0.1723,0.0243 0.20322,0.0343 0.36718,0.0703 -0.0392,-0.0225 -0.078,-0.0457 -0.11718,-0.0684 -0.0377,-0.0174 -0.0754,-0.034 -0.11329,-0.0508 -0.29024,-0.1285 -0.57969,-0.25762 -0.86523,-0.39648 -0.0631,-0.034 -0.1252,-0.073 -0.18945,-0.10547 -0.048,-0.0227 -0.13446,-0.0119 -0.14844,-0.0644 -0.002,-0.009 0.003,-0.0183 0.002,-0.0274 -0.1095,-0.019 -0.19152,-0.0481 -0.10742,-0.1289 -0.0124,-0.006 -0.0247,-0.0118 -0.0371,-0.0176 -0.0494,-0.003 -0.0994,-0.007 -0.0996,-0.0449 v -0.002 c -0.0124,-0.006 -0.0247,-0.0118 -0.0371,-0.0176 0.0431,-0.0941 0.0488,-0.21706 0.12891,-0.28321 0.042,-0.034 0.10447,0.0341 0.15625,0.0488 0.0344,0.0104 0.069,0.0212 0.10352,0.0312 l 0.002,-0.002 c 0.004,-0.005 0.0216,0.008 0.0293,0.008 -0.0178,-0.0384 0.004,-0.0983 0.0762,-0.27734 0.004,-0.0151 0.0301,-8.3e-4 0.043,0 0.0518,0.003 0.22077,0.0178 0.24609,0.0254 0.0722,0.0113 0.14303,0.0314 0.21484,0.0488 0.0964,0.0227 0.44278,0.10673 0.53711,0.13281 0.12208,0.034 0.27911,0.0866 0.40039,0.1289 0.003,10e-4 0.006,0.003 0.01,0.004 v -0.14062 -0.84571 h -1.76953 -1.76758 l 0.0254,0.0156 c 0.0138,0.009 0.0861,0.0536 0.16016,0.0996 0.17113,0.106 0.18122,0.11503 0.0469,0.0371 -0.0397,-0.023 -0.11441,-0.0674 -0.16601,-0.0977 l -0.0937,-0.0547 h -1.16407 c -0.63969,0 -1.16211,8.8e-4 -1.16211,0.002 0,0.004 0.024,0.0613 0.043,0.10351 0.0566,0.12537 0.14155,0.24905 0.25977,0.37891 0.0109,0.0119 0.003,0.006 -0.0156,-0.0137 -0.12053,-0.12343 -0.21519,-0.26911 -0.27929,-0.42969 l -0.0156,-0.0391 -0.0332,-0.002 c -0.0184,-4.3e-4 -0.0332,-9.3e-4 -0.0332,0 z m 1.09571,1.06836 c 0.21018,0.14073 0.45603,0.2904 0.74805,0.45508 0.0931,0.0525 0.32298,0.17995 0.39648,0.21875 0.0134,0.007 0.0254,0.0136 0.0254,0.0156 0,0.004 6.6e-4,0.005 -0.0176,-0.006 -0.009,-0.005 -0.0578,-0.0311 -0.10937,-0.0586 -0.2104,-0.11208 -0.50134,-0.27758 -0.68164,-0.38672 -0.1352,-0.0818 -0.24656,-0.1604 -0.36133,-0.23828 z m 1.22265,0.7168 c 10e-4,-10e-4 0.0487,0.0241 0.10743,0.0547 0.0587,0.0306 0.13467,0.0686 0.16797,0.0859 0.0325,0.0169 0.0584,0.0318 0.0605,0.0332 9e-4,0.001 9e-4,0.003 0,0.004 -10e-4,0.001 -0.0677,-0.0344 -0.26367,-0.13671 -0.0414,-0.0217 -0.0733,-0.04 -0.0723,-0.041 z m 0.61524,0.31836 c 0.002,-0.002 0.2539,0.122 0.2539,0.125 0,0.003 0.0106,0.008 -0.1289,-0.0606 -0.0697,-0.0343 -0.126,-0.0634 -0.125,-0.0644 z m 1.71484,0.0273 c 0.0817,0.0691 0.16429,0.13776 0.24805,0.20313 0.10091,0.0786 0.20384,0.15374 0.30664,0.23047 0.25498,0.17189 0.5035,0.35366 0.75977,0.52343 6.3e-4,-0.1306 0.002,-0.18946 0.002,-0.42187 v -0.19141 c -0.22516,-0.0635 -0.38047,-0.10478 -0.61328,-0.16601 -0.0492,-0.0109 -0.0642,-0.0219 -0.0996,-0.0293 -0.007,-0.002 -0.023,0.005 -0.0254,-0.004 -0.001,-0.004 -8.7e-4,-0.002 -0.002,-0.006 -0.0221,-0.006 -0.0613,-0.01 -0.0723,-0.0215 -0.005,-0.001 -0.009,-0.003 -0.0137,-0.004 -0.16332,-0.038 -0.32741,-0.0729 -0.49024,-0.11328 z m -0.33789,0.38672 c 0.0392,0.0291 0.0762,0.0504 0.0996,0.0664 0.0423,0.008 0.0846,0.0156 0.12695,0.0234 -0.002,-0.001 -0.004,-0.003 -0.006,-0.004 -0.059,-0.0227 -0.11361,-0.0505 -0.16993,-0.0781 -0.008,-0.003 -0.0233,-0.015 -0.0195,-0.008 0.007,0.0121 -0.0197,0.003 -0.0312,0 z" />
    <path
       id="path716"
       transform="scale(0.26458333)"
       style="fill:#ffffff;fill-rule:evenodd;stroke-width:0.02209709"
       d="m 501.81445,516.19531 c -0.0132,0.005 -0.0263,0.0109 -0.0391,0.0176 0.0189,9.6e-4 0.0259,0.001 0.0449,0.002 -0.007,-0.004 -0.003,-0.0136 -0.006,-0.0195 z" />
    <path
       style="fill:#ffffff;fill-rule:evenodd;stroke-width:0.015625"
       d=""
       id="path726"
       inkscape:connector-curvature="0"
       transform="scale(0.26458333)" />
    <path
       style="fill:#808080;fill-rule:evenodd;stroke-width:0.08838835"
       d="m 403.86951,494.15483 c 0,-0.21877 0.0172,-0.30826 0.0383,-0.19888 0.0211,0.10938 0.0211,0.28837 0,0.39775 -0.0211,0.10938 -0.0383,0.0199 -0.0383,-0.19887 z"
       id="path769"
       inkscape:connector-curvature="0"
       transform="scale(0.26458333)" />
    <path
       style="fill:#ffffff;fill-rule:evenodd;stroke-width:0.00390625"
       d=""
       id="path781"
       inkscape:connector-curvature="0"
       transform="scale(0.26458333)" />
    <path
       id="path783"
       transform="scale(0.26458333)"
       style="fill:#ffffff;fill-rule:evenodd;stroke-width:0.00390625"
       d="m 496.03906,512.4082 c 0.12819,0.073 0.23828,0.16527 0.33985,0.26953 0.005,10e-4 0.009,0.003 0.0137,0.004 0.16441,0.0378 0.58783,0.1303 0.7539,0.17188 0.11339,0.0302 0.22489,0.0627 0.3379,0.0918 0.11368,0.0302 0.23082,0.0492 0.34374,0.082 0.33109,0.096 0.53921,0.19036 0.86719,0.32227 0.26501,0.11855 0.48258,0.22974 0.70703,0.33789 v -0.42773 -0.85157 z m -1.4414,0.0977 c -0.1155,0.0112 -0.23065,0.0257 -0.34571,0.041 0.002,8.4e-4 0.0239,0.009 0.0273,0.01 0.0352,-0.002 0.0703,-0.003 0.10547,-0.006 0.10965,-0.007 0.22769,-0.0109 0.34375,-0.0156 -0.0584,-0.0129 -0.0801,-0.0182 -0.13086,-0.0293 z m 0.66015,0.31445 c -0.0424,-0.002 -0.0844,0.002 -0.12695,0.002 0.0789,0.0238 0.15814,0.0463 0.23633,0.0723 0.14013,0.0464 0.36658,0.13313 0.58593,0.21485 0.0195,0.004 0.0391,0.008 0.0586,0.0117 -0.0586,-0.0508 -0.11628,-0.10656 -0.15039,-0.14453 -0.0419,-0.0227 -0.082,-0.0517 -0.12695,-0.0684 -0.15364,-0.0565 -0.31348,-0.0807 -0.47657,-0.0879 z m 1.41407,0.24414 c 0.0207,0.0417 0.0378,0.0854 0.0547,0.12891 0.10994,-0.0277 0.2205,-0.0382 0.3125,-0.0449 -0.0857,-0.021 -0.22118,-0.0513 -0.36718,-0.084 z m -3.97657,0.27344 c -0.0494,0.0179 -0.10502,0.0413 -0.12304,0.0469 0.0462,4.9e-4 0.0925,0.003 0.13867,0.004 1.1e-4,-0.001 -1.6e-4,-0.003 0,-0.004 -0.005,-0.01 -0.0108,-0.019 -0.0137,-0.0293 -0.002,-0.006 -0.002,-0.0117 -0.002,-0.0176 z m 5.20899,0.32617 c 0.007,0.026 0.0233,0.0629 0.0176,0.0742 0.10563,0.0226 0.2068,0.0461 0.35937,0.0742 0.0333,-0.0344 0.0728,-0.0593 0.11523,-0.10352 2.7e-4,-0.005 -8.5e-4,-0.0104 0,-0.0156 -0.037,-0.008 -0.11522,-0.0205 -0.16406,-0.0254 -0.10812,-0.003 -0.2185,-0.003 -0.32812,-0.004 z m -3.33203,0.11719 c -5.8e-4,2.5e-4 -0.01,0.006 -0.01,0.006 -0.001,5.2e-4 -0.003,0.001 -0.004,0.002 0.0129,0.0107 0.0248,0.022 0.0371,0.0332 l 0.2168,-0.002 c 0.0154,-0.004 0.0286,-0.0114 0.0449,-0.0156 -0.054,-0.008 -0.10778,-0.0166 -0.16211,-0.0215 -0.0415,-0.003 -0.082,1.5e-4 -0.12304,-0.002 z m 4.10742,0.008 c -0.0106,0.0295 -0.0232,0.0586 -0.0352,0.0879 0.0847,0.015 0.18367,0.0328 0.21094,0.0371 1.6e-4,-0.005 0.002,-0.0102 0.002,-0.0156 0.005,0.004 0.0516,0.0385 -0.0605,-0.0527 l -0.002,-0.002 c -0.0254,-0.0195 -0.0716,-0.0362 -0.11523,-0.0547 z m -4.75586,0.13477 c -0.0146,0.006 -0.0281,0.0143 -0.043,0.0195 -0.0726,0.0254 -0.14372,0.029 -0.21484,0.0449 -0.0109,0.004 -0.0248,0.0105 -0.0352,0.0137 0.001,0.0335 0.006,0.0823 0.008,0.10938 0.056,0.007 0.10737,0.0231 0.20703,0.0273 0.005,2.5e-4 0.0119,-0.003 0.0176,-0.004 3e-5,-0.009 -0.003,-0.0173 0,-0.0254 0.0178,-0.0549 0.0543,-0.10324 0.082,-0.1543 -0.005,-0.0116 -0.0146,-0.0197 -0.0195,-0.0312 -5.5e-4,2.2e-4 -0.001,-2.3e-4 -0.002,0 z m 5.25586,0 c 0.004,0.0112 0.008,0.0222 0.0117,0.0332 -2.3e-4,10e-4 2.2e-4,0.003 0,0.004 0.0379,0.006 0.0146,0.001 0.0996,0.0156 -0.0362,-0.0179 -0.0754,-0.0351 -0.11133,-0.0527 z m -5.86524,0.13867 c -0.005,7.8e-4 -0.0103,0.003 -0.0156,0.004 0.009,0.002 0.0107,3.6e-4 0.0195,0.002 -3e-5,-0.001 3e-5,-0.005 0,-0.006 -0.001,2.1e-4 -0.003,-2.1e-4 -0.004,0 z m 0.86914,0.13281 c -1.7e-4,0.003 2.1e-4,0.007 0,0.01 0.009,-0.003 0.0136,-0.007 0.0234,-0.01 -0.008,6.1e-4 -0.0156,-8e-4 -0.0234,0 z m 0.67188,0.20899 c -0.015,0.002 -0.0299,0.004 -0.0449,0.006 -0.016,0.007 -0.0327,0.0128 -0.0488,0.0195 1.8e-4,0.004 0.002,0.0228 0.002,0.0234 0.005,0.0237 5.7e-4,0.0483 0,0.0723 0.0374,-0.0129 0.076,-0.022 0.11328,-0.0352 0.0248,-0.009 0.0495,-0.0181 0.0742,-0.0273 -0.0324,-0.018 -0.0639,-0.0387 -0.0957,-0.0586 z m -1.88477,0.0156 c 0.0674,0.0135 0.12372,0.0263 0.1836,0.0391 0.0585,-0.005 0.11144,-0.005 0.17578,-0.0156 0.007,-0.001 0.0143,-0.004 0.0215,-0.006 -5.9e-4,-0.003 -0.001,-0.008 -0.002,-0.0117 -0.12636,8e-4 -0.25288,0.005 -0.37891,-0.006 z m 1.47461,0.12891 c -0.0115,0.004 -0.0236,0.004 -0.0351,0.008 0.0101,0.0226 0.0188,0.0422 0.0254,0.0664 0.003,-6.2e-4 0.007,-0.001 0.01,-0.002 0.002,-0.0243 -4.5e-4,-0.048 0,-0.0723 z m 3.29297,0.17773 c -0.008,0.0101 -0.0216,0.0149 -0.0273,0.0274 -0.003,0.007 -0.002,0.017 -0.004,0.0254 0.0192,-0.008 0.0401,-0.0175 0.0586,-0.0254 -0.009,-0.009 -0.0224,-0.0151 -0.0273,-0.0274 z m -0.51953,0.0625 c -0.0185,0.005 -0.037,0.009 -0.0547,0.0137 -0.0184,0.0184 -0.0379,0.0326 -0.0566,0.0508 0.006,-0.003 0.0131,-0.005 0.0195,-0.008 0.0323,-0.0157 0.0618,-0.0367 0.0918,-0.0566 z m 1.22852,0.0312 c -0.0134,0.009 -0.0274,0.0169 -0.041,0.0254 0.004,0.009 0.009,0.0194 0.0156,0.0293 0.003,-0.002 0.005,-0.004 0.008,-0.006 -0.004,3e-5 0.0253,-0.0253 0.043,-0.041 -0.008,-0.003 -0.0171,-0.005 -0.0254,-0.008 z m -3.34961,0.16016 c 0.008,0.002 0.0156,0.005 0.0234,0.006 0.003,-4.5e-4 0.005,4.4e-4 0.008,0 -7e-5,-6.3e-4 6e-5,-0.001 0,-0.002 -0.0105,-0.001 -0.0208,-0.003 -0.0312,-0.004 z m 3.33593,0.26367 c -0.0377,0.0249 -0.0739,0.0525 -0.11328,0.0742 -0.0276,0.0152 -0.0592,0.0279 -0.0898,0.041 6.6e-4,0.007 0.002,0.0149 0.002,0.0215 0.0613,-0.035 0.12266,-0.0702 0.18164,-0.10938 0.007,-0.009 0.0128,-0.0184 0.0195,-0.0273 z m 0.9668,0.11914 c -0.003,6.3e-4 -0.006,8.5e-4 -0.01,0.002 -0.0227,0.003 -0.0433,0.003 -0.0645,0.004 0.0247,10e-4 0.0502,0.003 0.0742,0.004 2e-5,-0.004 -2e-5,-0.005 0,-0.01 z" />
    <path
       style="fill:#ffffff;fill-rule:evenodd;stroke-width:0.00390625"
       d=""
       id="path785"
       inkscape:connector-curvature="0"
       transform="scale(0.26458333)" />
    <path
       style="fill:none;stroke:#000000;stroke-width:0.19048432px;stroke-linecap:butt;stroke-linejoin:miter;stroke-opacity:1"
       d="M 118.353,85.183087 C 133.38286,60.819518 133.38286,60.819518 133.38286,60.819518"
       id="path1865"
       inkscape:connector-curvature="0" />
    <path
       style="fill:none;stroke:#000000;stroke-width:0.20577992px;stroke-linecap:butt;stroke-linejoin:miter;stroke-opacity:1"
       d="M 121.3836,89.497775 C 146.85865,70.741176 146.85865,70.741176 146.85865,70.741176"
       id="path1867"
       inkscape:connector-curvature="0" />
    <path
       style="fill:none;fill-rule:evenodd;stroke:#000000;stroke-width:0.19048432px;stroke-linecap:butt;stroke-linejoin:miter;stroke-opacity:1"
       d="M 102.16295,120.15983 C 117.19281,95.79624 117.19281,95.79624 117.19281,95.79624"
       id="path1865-7"
       inkscape:connector-curvature="0" />
    <path
       style="fill:none;fill-rule:evenodd;stroke:#000000;stroke-width:0.20577992px;stroke-linecap:butt;stroke-linejoin:miter;stroke-opacity:1"
       d="M 88.542722,113.49451 C 114.01779,94.737906 114.01779,94.737906 114.01779,94.737906"
       id="path1867-0"
       inkscape:connector-curvature="0" />
    <path
       style="fill:none;fill-rule:evenodd;stroke:#000000;stroke-width:0.25160778px;stroke-linecap:butt;stroke-linejoin:miter;stroke-opacity:1"
       d="M 76.315403,112.43044 C 110.35067,91.441984 110.35067,91.441984 110.35067,91.441984"
       id="path1867-6"
       inkscape:connector-curvature="0" />
    <path
       id="rect1909"
       style="fill:#ff6600;fill-rule:evenodd;stroke:#41c917;stroke-width:0.26458332;stroke-opacity:1"
       d="m 147.38997,115.71593 -15.29416,26.48985 c 0.0437,0.0252 0.0823,0.0543 0.11524,0.10491 0.006,0.005 0.005,0.004 0.0119,0.01 5.3e-4,5.3e-4 5.3e-4,6e-5 0.001,5.3e-4 0.0226,0.009 0.0458,0.0172 0.0677,0.0279 0.006,0.003 0.016,0.0124 0.0233,0.0171 0.0428,-0.024 0.0842,-0.0402 0.11731,-0.0367 0.0572,0.006 0.088,0.0621 0.0708,0.17984 0.0535,0.008 0.1077,0.0132 0.15865,0.0305 0.0563,0.0191 0.1036,0.0578 0.15658,0.0847 0.003,0.0358 0.009,0.0487 0.0134,0.062 0.01,0.001 0.0289,0.002 0.0346,0.003 l 5.3e-4,0 c 0.0138,-0.0185 0.0277,-0.0432 0.0393,-0.0377 0.11533,0.0546 0.12713,0.0616 0.17363,0.0951 l 15.21612,-26.69863 c -0.39885,-0.0492 -0.57303,-0.15689 -0.90589,-0.33228 z m -14.52366,26.97354 c 0.0108,0.004 -0.0101,0.007 -0.032,0.009 0.009,0.018 0.0205,0.007 0.032,-0.009 z m -1.31775,0.46457 -1.8464,3.19826 0.97203,0.5612 1.89394,-3.28093 c -0.0269,-0.006 -0.0543,-0.01 -0.0801,-0.0196 -0.0685,-0.0261 -0.17524,-0.0861 -0.2496,-0.12713 -0.0268,-0.0135 -0.0532,-0.0275 -0.0801,-0.0408 -0.0241,-0.0119 -0.0486,-0.0233 -0.0729,-0.0351 -0.008,-2e-5 -0.0152,4e-5 -0.0227,0 -0.14661,-0.002 -0.31899,0.025 -0.43098,-0.11421 -0.0382,-0.0475 -0.0644,-0.0949 -0.0832,-0.14159 z"
       inkscape:connector-curvature="0"
       sodipodi:nodetypes="cccccccccccccccccccccccccccccccccc" />
    <path
       style="fill:#b3b3b3;fill-rule:evenodd;stroke-width:0.04419417"
       d="m 282.35908,362.1155 c -2.08709,-2.78269 -3.29451,-4.54231 -4.07818,-5.94324 -0.73275,-1.30991 -0.96338,-2.11014 -0.70341,-2.44064 0.0996,-0.12662 0.3965,-0.28501 0.53741,-0.2867 0.12894,-0.002 0.44598,0.28735 0.57451,0.52351 0.0649,0.11918 0.11794,0.23344 0.11794,0.25392 0,0.0205 -0.16904,-0.13093 -0.37565,-0.33646 l -0.37565,-0.3737 v 0.71865 c 0,0.68919 0.005,0.7281 0.11674,0.9492 0.3093,0.61082 1.09048,1.74403 2.58092,3.74399 0.83854,1.12521 1.05197,1.44284 1.29175,1.92244 0.15798,0.31599 0.52906,1.0294 0.82462,1.58535 0.29556,0.55595 0.53057,1.01763 0.52224,1.02596 -0.008,0.008 -0.47328,-0.5957 -1.03324,-1.34228 z"
       id="path547"
       inkscape:connector-curvature="0"
       transform="scale(0.26458333)" />
    <path
       style="fill:#666666;fill-rule:evenodd;stroke-width:0.0625"
       d="m 288.44561,369.86473 c -1.8065,-2.24587 -3.13186,-3.91871 -4.24963,-5.36375 -0.6331,-0.81848 -0.81435,-1.11207 -1.42763,-2.3125 -0.38635,-0.75625 -0.73063,-1.41084 -0.76507,-1.45463 -0.0344,-0.0438 -0.0491,-0.0932 -0.0326,-0.10966 0.0165,-0.0165 0.51778,0.59589 1.11392,1.36089 0.59615,0.76499 2.08431,2.63866 3.30702,4.1637 1.22271,1.52504 2.27013,2.83364 2.3276,2.90801 0.15104,0.19546 1.44255,2.79298 1.40658,2.82895 -0.0166,0.0166 -0.77272,-0.89282 -1.68018,-2.02101 z"
       id="path551"
       inkscape:connector-curvature="0"
       transform="scale(0.26458333)" />
    <path
       style="fill:#666666;fill-rule:evenodd;stroke-width:0.0625"
       d=""
       id="path553"
       inkscape:connector-curvature="0"
       transform="scale(0.26458333)" />
    <path
       style="fill:#666666;fill-rule:evenodd;stroke-width:0.0625"
       d=""
       id="path555"
       inkscape:connector-curvature="0"
       transform="scale(0.26458333)" />
    <path
       style="fill:#666666;fill-rule:evenodd;stroke-width:0.0625"
       d="m 282.63888,359.66977 c -0.46562,-0.60846 -1.13066,-1.49044 -1.47786,-1.95995 -0.61894,-0.83698 -0.62889,-0.85582 -0.50919,-0.96415 0.0744,-0.0673 0.14412,-0.0879 0.17848,-0.0526 0.18401,0.18891 2.71733,4.0208 2.68175,4.05639 -0.0146,0.0146 -0.40756,-0.47124 -0.87318,-1.0797 z"
       id="path557"
       inkscape:connector-curvature="0"
       transform="scale(0.26458333)" />
    <path
       style="fill:#666666;fill-rule:evenodd;stroke-width:0.0625"
       d="m 286.06622,365.64536 c -4.28873,-5.37184 -6.64491,-8.49737 -7.62903,-10.12012 l -0.32812,-0.54106 v -0.66184 -0.66185 l 0.97291,0.96799 c 0.5351,0.5324 1.12893,1.18777 1.31963,1.45638 l 0.34671,0.48838 -0.13971,0.14872 -0.13972,0.14872 0.42449,0.58165 c 0.56317,0.77168 2.03893,2.71613 2.74206,3.61289 0.61016,0.77821 1.29457,1.83759 2.84142,4.39819 0.54639,0.90446 1.18254,1.91761 1.41368,2.25145 0.23114,0.33383 0.40677,0.62045 0.3903,0.63693 -0.0165,0.0165 -1.01306,-1.20142 -2.21462,-2.70643 z"
       id="path559"
       inkscape:connector-curvature="0"
       transform="scale(0.26458333)" />
    <path
       style="fill:#666666;fill-rule:evenodd;stroke-width:0.0625"
       d="m 279.29657,357.87404 c 0,-0.0364 0.0281,-0.0488 0.0625,-0.0276 0.0801,0.0495 0.0801,0.0937 0,0.0937 -0.0344,0 -0.0625,-0.0298 -0.0625,-0.0662 z"
       id="path561"
       inkscape:connector-curvature="0"
       transform="scale(0.26458333)" />
    <path
       style="fill:#666666;fill-rule:evenodd;stroke-width:0.01104854"
       d="m 283.27123,363.30435 c -0.33839,-0.42901 -1.32034,-1.73565 -1.94046,-2.58208 -0.70484,-0.96207 -1.24442,-1.72438 -1.75393,-2.47791 l -0.19629,-0.2903 0.0257,-0.0217 0.0257,-0.0217 -0.0413,-0.0388 c -0.0227,-0.0213 -0.0512,-0.0388 -0.0632,-0.0388 -0.0256,0 -0.0656,-0.0576 -0.33471,-0.48196 -0.42554,-0.67096 -0.74174,-1.22095 -1.00601,-1.74985 -0.25537,-0.51107 -0.39259,-0.85665 -0.46724,-1.17667 -0.0268,-0.11503 -0.031,-0.15598 -0.0315,-0.30936 -4.6e-4,-0.14499 0.003,-0.18829 0.0204,-0.24081 0.0451,-0.13757 0.15664,-0.2451 0.35632,-0.34359 0.13797,-0.0681 0.23165,-0.0921 0.29033,-0.0745 0.11485,0.0344 0.36276,0.25862 0.47814,0.43243 0.0684,0.10305 0.17071,0.30579 0.15981,0.31669 -0.0108,0.0108 -0.1323,-0.10063 -0.44612,-0.40929 l -0.29073,-0.28594 0.004,0.67817 c 0.002,0.37299 0.007,0.69557 0.0109,0.71684 0.0159,0.0867 0.0223,0.10818 0.054,0.18116 0.0396,0.0913 0.13932,0.27643 0.23857,0.44308 0.39085,0.65627 1.04009,1.58046 2.37891,3.38638 0.87606,1.1817 1.02419,1.40162 1.28746,1.91139 0.0675,0.13065 0.20611,0.39913 0.30809,0.59663 0.10199,0.19749 0.3282,0.63004 0.5027,0.96122 0.32512,0.61705 0.5343,1.02694 0.52753,1.03371 -0.002,0.002 -0.0458,-0.0494 -0.0971,-0.11444 z"
       id="path563"
       inkscape:connector-curvature="0"
       transform="scale(0.26458333)" />
    <path
       style="fill:#666666;fill-rule:evenodd;stroke-width:0.01104854"
       d="m 283.27,363.29889 c -0.47045,-0.59019 -2.11343,-2.80466 -2.82155,-3.80301 -0.44355,-0.62534 -1.05509,-1.51729 -1.05509,-1.53889 0,-0.006 0.007,-0.0169 0.0166,-0.0245 0.009,-0.008 0.0164,-0.0194 0.0162,-0.0262 -1.9e-4,-0.007 -0.005,-0.004 -0.0116,0.007 -0.017,0.0292 -0.0809,0.0257 -0.10064,-0.006 -0.021,-0.0332 -0.0131,-0.0634 0.0167,-0.0642 l 0.024,-7e-4 -0.0238,-0.01 c -0.0309,-0.0125 -0.0876,-0.0929 -0.28825,-0.40886 -0.87802,-1.38266 -1.40219,-2.42615 -1.52872,-3.04327 -0.019,-0.0928 -0.0221,-0.14201 -0.019,-0.29891 0.004,-0.17503 0.006,-0.19197 0.0325,-0.24859 0.0552,-0.11695 0.15662,-0.20622 0.33685,-0.29655 0.16087,-0.0806 0.25509,-0.0982 0.32801,-0.0611 0.11963,0.0608 0.34625,0.27635 0.44074,0.41925 0.0615,0.093 0.15533,0.27818 0.14963,0.29527 -0.005,0.0155 -0.0511,-0.0265 -0.42492,-0.38833 l -0.30081,-0.29114 0.004,0.69994 c 0.004,0.77904 10e-4,0.74626 0.0827,0.92002 0.0935,0.19902 0.30781,0.55859 0.56013,0.94001 0.42081,0.63609 0.91821,1.33142 2.01543,2.81737 0.98976,1.34042 1.02617,1.39602 1.44909,2.21271 0.13446,0.25965 0.40729,0.78283 0.60629,1.16262 0.37306,0.712 0.57865,1.1154 0.57188,1.12216 -0.002,0.002 -0.0364,-0.0369 -0.0762,-0.0868 z"
       id="path565"
       inkscape:connector-curvature="0"
       transform="scale(0.26458333)" />
    <path
       style="fill:#333333;fill-rule:evenodd;stroke-width:0.25;stroke:#000000;stroke-opacity:1;stroke-miterlimit:4;stroke-dasharray:none;stroke-dashoffset:0"
       d="m 76.691225,225.44269 c -8.256055,-2.19018 5.079696,3.77143 -3.400027,3.40338 -0.886381,-0.39398 -15.999321,-7.24574 -15.950574,-7.27355 0.03036,-0.0352 2.31614,0.0857 6.72819,-1.53892 1.909172,-0.70298 3.693123,-0.77423 5.532668,-1.44119 l 3.29642,-0.65654 c 2.296102,0.0345 3.160287,0.006 4.725255,0.54277 3.462247,1.18767 3.853618,1.23377 4.916903,1.80203 l 3.029037,1.61882 c 0,0 2.324813,1.75014 1.489799,2.886 -2.993034,0.0717 -2.704049,-0.50554 -6.933106,-2.16529 -2.133295,-0.0998 -2.405167,0.62673 -1.083268,1.4978 2.712486,1.46503 5.885468,5.11417 -2.351297,1.32469 z"
       id="path609"
       inkscape:connector-curvature="0"
       sodipodi:nodetypes="cccsccssccccc" />
    <path
       style="fill:#333333;fill-rule:evenodd;stroke-width:0.08838835"
       d=""
       id="path615"
       inkscape:connector-curvature="0"
       transform="scale(0.26458333)" />
    <path
       style="fill:#333333;fill-rule:evenodd;stroke-width:0.00390625"
       d=""
       id="path621"
       inkscape:connector-curvature="0"
       transform="scale(0.26458333)" />
    <path
       style="fill:#333333;fill-rule:evenodd;stroke-width:0.00390625"
       d=""
       id="path623"
       inkscape:connector-curvature="0"
       transform="scale(0.26458333)" />
    <path
       style="fill:#333333;fill-rule:evenodd;stroke-width:0.00390625"
       d=""
       id="path625"
       inkscape:connector-curvature="0"
       transform="scale(0.26458333)" />
    <path
       style="fill:#333333;fill-rule:evenodd;stroke-width:0.01169304"
       d="m 127.3488,230.62022 c -0.16546,-0.11256 -0.2639,-0.24781 -0.24677,-0.33908 0.0252,-0.13441 0.26963,-0.25556 0.63849,-0.3165 0.14465,-0.0239 0.32797,-0.0364 0.30353,-0.0206 -0.0221,0.0142 -0.17046,0.0401 -0.40257,0.0702 -0.19316,0.0251 -0.20423,0.0307 -0.22801,0.11633 -0.0156,0.0561 -0.0153,0.27733 5.3e-4,0.41873 0.007,0.0615 0.0108,0.11334 0.009,0.11522 -0.002,0.002 -0.0353,-0.0181 -0.0739,-0.0443 z"
       id="path661"
       inkscape:connector-curvature="0" />
    <path
       style="fill:#808080;fill-rule:evenodd;stroke-width:1.88976384000000008;stroke:#ffffff;stroke-opacity:1;stroke-miterlimit:4;stroke-dasharray:none"
       d="m 368.39114,189.53207 c -17.25625,-5.40078 -32.08062,-10.15406 -32.24084,-10.21174 -0.17432,-0.0628 12.69353,-23.84238 30.56596,-57.2015 16.4277,-30.6625 30.25098,-56.858314 30.36042,-56.968984 0.38456,-0.388859 15.65279,6.444132 25.48755,11.410109 16.23078,8.195591 27.18581,15.452353 34.18047,22.636581 5.29788,5.441464 7.34042,10.731734 7.11133,15.229834 -0.11767,2.31054 -1.14706,4.28198 -2.33843,5.39961 -0.32299,0.30299 -12.98198,17.9673 -29.06948,39.62398 -16.0875,21.65669 -30.58788,40.36917 -30.65663,40.36796 -0.0687,-10e-4 -16.1441,-4.88507 -33.40035,-10.28585 z"
       id="path667"
       inkscape:connector-curvature="0"
       transform="scale(0.26458333)"
       sodipodi:nodetypes="scscssccscs" />
    <path
       style="fill:#333333;fill-rule:evenodd;stroke:#000000;stroke-width:0.25;stroke-miterlimit:4;stroke-opacity:1;stroke-dasharray:none"
       d="m 106.77041,134.57051 c 0.22528,1.84896 0.004,3.02176 0.15214,5.12245 3.38956,0.20974 6.59662,1.78551 9.13735,3.96085 2.18613,1.84115 4.43065,3.73644 7.1854,4.65699 1.86553,0.69075 3.79564,1.21438 5.75665,1.54925 0.98332,-0.81566 -0.96321,-1.29178 -1.45428,-1.82169 -1.1799,-0.84446 -2.44014,-1.59481 -3.51107,-2.57921 1.81295,0.15161 3.54021,0.83004 5.32412,1.174 3.47938,1.56111 2.8974,-1.26539 0.75038,-1.81364 -1.52143,-0.98195 -3.10172,-1.88829 -4.5311,-3.00278 1.12426,-0.0364 2.16011,0.59298 3.24537,0.83723 1.26835,0.39907 2.53415,0.80621 3.80135,1.20889 0.94343,0.18597 1.00561,-1.12271 0.24157,-1.44158 -1.0981,-0.80903 -2.18852,-1.64582 -3.18727,-2.56244 -1.03062,-0.54988 -2.21546,-0.73032 -3.27676,-1.22314 -2.96734,-0.96876 -6.14403,-1.20477 -12.435,-2.4527 -4.10756,0.26637 -6.44321,-1.45041 -7.19885,-1.61248 z"
       id="path3944"
       inkscape:connector-curvature="0"
       sodipodi:nodetypes="ccccccccccccccccc" />
    <path
       style="fill:#333333;fill-rule:evenodd;stroke:#000000;stroke-width:0.25;stroke-miterlimit:4;stroke-opacity:1;stroke-dasharray:none"
       d="m 113.91526,134.06625 c -0.86746,-0.44208 -0.40056,-2.321 0.83397,-1.33249 1.14277,0.64488 2.26314,1.45698 3.39599,2.05387 1.57025,-0.58575 0.0264,-1.55298 -0.3829,-2.34777 -1.2993,-1.82487 -3.2445,-3.1849 -5.37955,-3.85794 -0.9429,-0.4099 -1.31024,-0.40188 -2.25261,-0.72351 -0.59697,-0.36017 -2.07748,-0.17428 -2.75849,-0.29955 -0.25421,-0.0134 -0.20925,0.27044 -0.46295,0.25204 -0.3529,1.12814 0.20152,4.75654 -0.30531,5.77771 0.74338,1.10512 3.38781,2.1673 5.76935,1.84602 2.77166,-0.0317 2.86021,-1.20225 1.5425,-1.36838 z"
       id="path192"
       inkscape:connector-curvature="0"
       sodipodi:nodetypes="ccccccccccc" />
    <path
       inkscape:connector-curvature="0"
       id="rect1909-7"
       style="fill:#ff6600;fill-rule:evenodd;stroke:#41c917;stroke-width:0.21541464;stroke-opacity:1"
       d="m 132.8435,116.54374 -18.75555,19.15167 1.03071,0.35083 18.89583,-19.29479 c -0.42292,-0.0307 -0.81803,-0.0981 -1.17099,-0.20771 z"
       sodipodi:nodetypes="ccccc" />
    <path
       style="fill:#333333;fill-rule:evenodd;stroke-width:0.0078125"
       d="m 500.70261,540.26183 c -0.10074,-0.0356 -0.10258,-0.0367 -0.16061,-0.0946 -0.0898,-0.0896 -0.11904,-0.10936 -0.16216,-0.10942 -0.0199,-3e-5 -0.0679,0.009 -0.10658,0.0198 l -0.0703,0.0198 -0.043,-0.0147 -0.043,-0.0147 0.0727,-0.0366 c 0.04,-0.0201 0.10501,-0.0478 0.14453,-0.0615 0.0631,-0.0218 0.0819,-0.0249 0.15387,-0.0248 0.0734,5e-5 0.0871,0.002 0.13074,0.0223 0.0564,0.0257 0.10802,0.0766 0.1383,0.13638 0.0204,0.0403 0.0543,0.16547 0.0498,0.18415 -0.002,0.007 -0.031,-1.3e-4 -0.1043,-0.026 z"
       id="path247"
       inkscape:connector-curvature="0"
       transform="scale(0.26458333)" />
    <path
       style="fill:#333333;fill-rule:evenodd;stroke-width:0.0078125"
       d="m 500.3213,540.13622 c -0.11193,-0.0358 -0.1149,-0.0373 -0.084,-0.0422 0.0176,-0.003 0.032,-0.009 0.032,-0.0133 0,-0.005 0.004,-0.006 0.008,-0.003 0.004,0.003 0.0121,0.002 0.0174,-10e-4 0.0129,-0.008 0.0341,-0.0109 0.0763,-0.0104 0.0438,4.8e-4 0.0636,0.006 0.0759,0.0224 0.0149,0.0195 0.0113,0.0886 -0.004,0.0859 -0.003,-4.7e-4 -0.0572,-0.0175 -0.12105,-0.0379 z"
       id="path255"
       inkscape:connector-curvature="0"
       transform="scale(0.26458333)" />
    <circle
       style="fill:#ffffff;fill-rule:evenodd;stroke-width:0.26458332"
       id="path232"
       cx="95.698608"
       cy="82.815575"
       r="2.0579753" />
    <circle
       style="fill:#ffffff;fill-rule:evenodd;stroke-width:0.26458332"
       id="path232-6"
       cx="108.94981"
       cy="82.441399"
       r="2.0579753" />
    <path
       style="fill:#999999;fill-rule:evenodd;stroke-width:0.5"
       d="m 403.80744,484.93579 c 0,-0.9625 0.1029,-1.35625 0.22867,-0.875 0.12576,0.48125 0.12576,1.26875 0,1.75 -0.12577,0.48125 -0.22867,0.0875 -0.22867,-0.875 z"
       id="path256"
       inkscape:connector-curvature="0"
       transform="scale(0.26458333)" />
    <path
       style="fill:#ffffff;fill-rule:evenodd;stroke-width:0.01104854"
       d="m 431.80013,506.72313 c -0.0468,-0.0176 -0.088,-0.0445 -0.16487,-0.1077 -0.0583,-0.048 -0.11037,-0.13548 -0.18973,-0.31898 -0.19761,-0.45689 -0.19237,-0.67565 0.0135,-0.56492 0.17432,0.0938 0.39355,0.34082 0.50949,0.57417 0.0531,0.10696 0.0667,0.15605 0.0668,0.24179 5e-5,0.0517 -0.006,0.076 -0.0248,0.10437 -0.047,0.0697 -0.13508,0.0995 -0.21036,0.0713 z"
       id="path290"
       inkscape:connector-curvature="0"
       transform="scale(0.26458333)" />
    <path
       style="fill:#ffffff;fill-rule:evenodd;stroke-width:0.02209709"
       d=""
       id="path292"
       inkscape:connector-curvature="0"
       transform="scale(0.26458333)" />
    <path
       id="path294"
       transform="scale(0.26458333)"
       style="fill:#ffffff;fill-rule:evenodd;stroke-width:0.02209709"
       d="m 414.63672,482.06641 -0.12695,0.14257 c -0.07,0.078 -0.12033,0.1473 -0.11133,0.1543 0.023,0.0196 0.57794,0.17283 0.75,0.20703 0.082,0.0163 0.15967,0.0305 0.17187,0.0312 0.0266,0.002 0.0343,0.008 -0.36328,-0.29297 z" />
    <path
       id="path298"
       transform="scale(0.26458333)"
       style="fill:#ffffff;fill-rule:evenodd;stroke-width:0.02209709"
       d="m 414.5332,481.91992 c -0.0384,0 -0.0368,0.006 0.0176,0.0527 0.0633,0.0543 0.0957,0.0563 0.0957,0.004 0,-0.0328 -0.0471,-0.0566 -0.11328,-0.0566 z" />
    <path
       style="fill:#ffffff;fill-rule:evenodd;stroke-width:0.00390625"
       d=""
       id="path300"
       inkscape:connector-curvature="0"
       transform="scale(0.26458333)" />
    <path
       id="path302"
       transform="scale(0.26458333)"
       style="fill:#ffffff;fill-rule:evenodd"
       d="m 414.44922,481.90625 0.0879,0.0684 c 0.0489,0.0371 0.0909,0.0664 0.0918,0.0664 9e-4,0 0.008,-0.01 0.0137,-0.0234 0.006,-0.012 0.002,-0.0196 0.004,-0.0293 -10e-4,0.008 -0.006,0.0175 -0.01,0.0215 -0.008,0.008 -0.011,0.009 -0.0273,0.004 -0.0243,-0.007 -0.10352,-0.0731 -0.10352,-0.0859 0,-0.008 0.0152,-0.01 0.0566,-0.006 0.0586,0.005 0.091,0.0307 0.084,0.0664 0.005,-0.0315 -0.005,-0.056 -0.0449,-0.0684 -0.0287,-0.009 -0.10221,-0.0157 -0.13281,-0.0137 z" />
    <path
       id="path304"
       transform="scale(0.26458333)"
       style="fill:#ffffff;fill-rule:evenodd;stroke-width:0.00390625"
       d="m 414.62695,482.05273 c -0.01,0.0177 -0.0491,0.0652 -0.1289,0.15625 -0.0487,0.0555 -0.10008,0.11301 -0.11328,0.12891 l -0.0234,0.0293 0.0547,0.0176 c 0.0304,0.009 0.11113,0.0313 0.17773,0.0508 0.24965,0.0731 0.41932,0.11828 0.54102,0.14257 0.0771,0.0156 0.15601,0.0264 0.16601,0.0234 0,0 -0.002,-0.002 -0.002,-0.002 -0.0212,-0.001 -0.18192,-0.0333 -0.26172,-0.0527 -0.26921,-0.0656 -0.63563,-0.1703 -0.64063,-0.1836 -0.005,-0.0142 0.0461,-0.0805 0.15625,-0.20312 0.0415,-0.0462 0.0771,-0.0869 0.0801,-0.0899 0.004,-0.005 0.0524,0.0295 0.30469,0.22071 0.30144,0.22854 0.38953,0.29568 0.39453,0.30468 0.001,0.003 -9.1e-4,0.006 -0.004,0.008 h 0.002 c -0.004,0.002 0.002,0.004 0.0156,0.004 0.0116,0 0.0196,-0.002 0.0176,-0.004 -0.002,-0.002 -0.15771,-0.1192 -0.3457,-0.26172 -0.18799,-0.14252 -0.35274,-0.26735 -0.36524,-0.27735 -0.0193,-0.0155 -0.0224,-0.0167 -0.0254,-0.0117 z" />
    <path
       style="fill:#ffffff;fill-rule:evenodd;stroke-width:0.00390625"
       d="m 414.63005,481.94305 c -0.007,-0.006 -0.0115,-0.0113 -0.009,-0.0113 0.006,0 0.0271,0.0182 0.0245,0.0208 -0.001,0.001 -0.008,-0.003 -0.0155,-0.009 z"
       id="path306"
       inkscape:connector-curvature="0"
       transform="scale(0.26458333)" />
    <path
       style="fill:#ffffff;fill-rule:evenodd;stroke-width:0.17677669"
       d=""
       id="path308"
       inkscape:connector-curvature="0"
       transform="scale(0.26458333)" />
    <path
       style="fill:#ffffff;fill-rule:evenodd;stroke-width:0.04419417"
       d=""
       id="path312"
       inkscape:connector-curvature="0"
       transform="scale(0.26458333)" />
    <path
       style="fill:#ffffff;fill-rule:evenodd;stroke-width:0.04419417"
       d="m 502.41607,554.91064 c -0.58663,-0.26052 -2.1826,-1.23976 -2.78163,-1.70673 -0.40574,-0.3163 -0.45345,-0.38051 -0.45345,-0.61033 v -0.15957 l 0.3425,0.25864 c 0.18838,0.14225 0.91924,0.66959 1.62414,1.17186 1.62966,1.16121 1.74876,1.25944 1.26844,1.04613 z"
       id="path314"
       inkscape:connector-curvature="0"
       transform="scale(0.26458333)" />
    <path
       style="fill:#333333;fill-rule:evenodd;stroke-width:0.01104854"
       d="m 493.77822,554.36123 c -0.0242,-0.006 -0.0948,-0.0346 -0.15687,-0.0642 -0.20268,-0.0968 -0.39487,-0.23885 -0.62093,-0.4589 -0.17379,-0.16916 -0.25108,-0.25866 -0.46764,-0.5416 -0.28433,-0.37146 -0.32223,-0.45037 -0.18239,-0.37979 0.0736,0.0371 0.24383,0.15734 0.95249,0.67245 0.36461,0.26503 0.72502,0.52647 0.80092,0.58098 0.0759,0.0545 0.13957,0.10725 0.14148,0.11719 0.0101,0.0527 -0.32875,0.10628 -0.46706,0.0739 z"
       id="path334"
       inkscape:connector-curvature="0"
       transform="scale(0.26458333)" />
    <path
       style="fill:#333333;fill-rule:evenodd;stroke-width:0.00390625"
       d="m 492.2753,552.93973 c -0.009,-0.017 -0.0131,-0.0307 -0.0116,-0.0346 0.002,-0.005 0.004,-0.002 0.007,0.009 0.003,0.009 0.009,0.0233 0.0135,0.0326 0.005,0.009 0.008,0.0179 0.007,0.019 -10e-4,10e-4 -0.008,-0.0107 -0.0161,-0.0262 z"
       id="path336"
       inkscape:connector-curvature="0"
       transform="scale(0.26458333)" />
    <path
       style="fill:#333333;fill-rule:evenodd;stroke-width:0.00390625"
       d="m 493.80259,554.36408 c -0.0386,-0.006 -0.10289,-0.0316 -0.19525,-0.0766 -0.189,-0.0922 -0.35839,-0.21629 -0.57456,-0.4209 -0.16078,-0.15218 -0.25674,-0.2595 -0.42352,-0.47367 -0.2238,-0.28738 -0.33952,-0.45487 -0.33522,-0.48518 0.003,-0.023 0.0601,-0.003 0.14189,0.0497 0.11041,0.0713 0.24732,0.16945 1.14063,0.81771 0.22343,0.16215 0.44394,0.32214 0.49,0.35552 0.14397,0.10434 0.19554,0.14694 0.19554,0.16149 0,0.0224 -0.0888,0.0509 -0.21093,0.0675 -0.0626,0.009 -0.18872,0.011 -0.22858,0.004 z"
       id="path338"
       inkscape:connector-curvature="0"
       transform="scale(0.26458333)" />
    <path
       style="fill:#333333;fill-rule:evenodd;stroke-width:0.00390625"
       d="m 492.30656,552.89678 c -0.004,-0.002 -0.0127,-0.003 -0.0188,-0.004 -0.006,-1.6e-4 -0.01,-0.002 -0.009,-0.004 0.004,-0.006 0.0181,-0.004 0.0332,0.004 0.0136,0.007 0.009,0.0104 -0.006,0.004 z"
       id="path340"
       inkscape:connector-curvature="0"
       transform="scale(0.26458333)" />
    <path
       style="fill:#333333;fill-rule:evenodd;stroke-width:0.00390625"
       d="m 493.78141,555.20079 c -0.0569,-0.0331 -0.0982,-0.0592 -0.0918,-0.0579 0.0156,0.003 0.14567,0.0201 0.19727,0.0261 0.0226,0.003 0.0423,0.006 0.0438,0.007 0.002,0.002 -0.0385,0.0793 -0.0441,0.0836 -9.2e-4,7.2e-4 -0.0483,-0.0258 -0.1052,-0.0589 z"
       id="path342"
       inkscape:connector-curvature="0"
       transform="scale(0.26458333)" />
    <path
       style="fill:#ffffff;fill-rule:evenodd;stroke-width:0.01104854"
       d="m 414.06128,482.9371 c -0.0668,-0.0262 -0.14548,-0.0601 -0.17474,-0.0755 -0.0293,-0.0154 -0.0911,-0.043 -0.13737,-0.0614 -0.0463,-0.0184 -0.0969,-0.0424 -0.11252,-0.0533 -0.0156,-0.0109 -0.0706,-0.0337 -0.12227,-0.0506 -0.0516,-0.0169 -0.13038,-0.0499 -0.17495,-0.0734 -0.0446,-0.0234 -0.0868,-0.0427 -0.0939,-0.0427 -0.007,-7e-5 -0.0825,-0.034 -0.16755,-0.0755 -0.0851,-0.0414 -0.21185,-0.094 -0.28174,-0.11684 -0.0699,-0.0228 -0.16932,-0.0633 -0.22097,-0.0899 -0.0516,-0.0266 -0.15233,-0.0771 -0.22373,-0.11222 -0.0714,-0.0351 -0.12982,-0.0669 -0.12982,-0.0707 0,-0.004 0.0311,-0.01 0.0691,-0.0139 0.038,-0.004 0.12126,-0.0174 0.18507,-0.0299 0.27105,-0.0533 0.68444,-0.0159 1.17667,0.1067 0.18836,0.0469 0.67343,0.184 0.68374,0.19326 0.005,0.005 -0.005,0.0279 -0.0243,0.0518 -0.0521,0.0658 -0.12051,0.19947 -0.1396,0.27283 -0.0213,0.0818 -0.0217,0.14918 -10e-4,0.22728 0.009,0.0332 0.0148,0.0606 0.0138,0.0609 -0.001,2.8e-4 -0.0565,-0.0209 -0.12339,-0.0471 z"
       id="path446"
       inkscape:connector-curvature="0"
       transform="scale(0.26458333)" />
    <path
       style="fill:#ffffff;fill-rule:evenodd;stroke-width:0.00390625"
       d="m 502.78485,555.07889 c -0.1919,-0.0376 -0.95256,-0.43348 -1.73633,-0.90377 -0.86571,-0.51945 -1.53019,-0.98797 -1.77649,-1.25258 -0.11034,-0.11854 -0.14628,-0.19153 -0.1219,-0.24756 0.004,-0.009 0.0116,-0.0345 0.0174,-0.0576 l 0.0106,-0.042 0.003,0.0596 c 0.006,0.13434 0.0335,0.19707 0.13112,0.29739 0.15196,0.15609 0.51646,0.43022 0.96322,0.72441 0.78797,0.51887 1.70501,1.05804 2.11719,1.24479 0.29676,0.13446 0.34375,0.13263 0.173,-0.007 -0.15944,-0.13015 -0.38872,-0.29735 -1.33511,-0.97368 -1.14714,-0.81979 -1.4799,-1.06064 -1.87003,-1.35352 -0.17351,-0.13027 -0.1796,-0.13528 -0.18221,-0.14994 -0.001,-0.008 -0.002,-0.0161 -6.7e-4,-0.0172 10e-4,-10e-4 0.0174,0.0128 0.0363,0.0309 0.0466,0.0448 0.12965,0.11077 0.29204,0.23204 0.25512,0.19053 0.4475,0.3278 1.5,1.0703 0.966,0.68147 1.42328,1.01519 1.65625,1.20872 0.0806,0.067 0.15779,0.14238 0.1437,0.14041 -0.002,-2.3e-4 -0.011,-0.002 -0.0206,-0.004 z"
       id="path448"
       inkscape:connector-curvature="0"
       transform="scale(0.26458333)" />
    <ellipse
       sodipodi:ry="6.3499999"
       sodipodi:rx="26.19375"
       sodipodi:cy="156.03831"
       sodipodi:cx="160.33751"
       d="m 186.53126,156.03831 c 0,3.50701 -11.72734,6.35 -26.19375,6.35 -14.46641,0 -26.19375,-2.84299 -26.19375,-6.35 0,-3.507 11.72734,-6.35 26.19375,-6.35 14.46641,0 26.19375,2.843 26.19375,6.35 z"
       style="fill:#d45500;fill-rule:evenodd;stroke-width:0.26458332"
       id="path189"
       cx="160.33751"
       cy="156.03831"
       rx="26.19375"
       ry="6.3499999"
       transform="matrix(0.92058904,-0.39053274,0.39053274,0.92058904,-51.832848,75.441691)" />
    <path
       style="fill:#d45500;fill-rule:evenodd;stroke-width:0.19612035"
       id="path228"
       sodipodi:type="arc"
       sodipodi:cx="160.1768"
       sodipodi:cy="181.5071"
       sodipodi:rx="26.033007"
       sodipodi:ry="5.2228851"
       sodipodi:start="0"
       sodipodi:end="3.1310324"
       d="m 186.20981,181.5071 a 26.033007,5.2228851 0 0 1 -52.06456,0.0551 l 26.03155,-0.0551 z"
       transform="matrix(0.9358513,-0.35239516,0.35239516,0.9358513,-47.858339,68.311617)" />
    <path
       style="fill:url(#radialGradient4010);fill-opacity:1;fill-rule:evenodd;stroke:#171fc9;stroke-width:0.25;stroke-opacity:1;stroke-miterlimit:4;stroke-dasharray:none"
       d="m 154.41199,161.37314 c -8.72095,3.21902 -16.73798,4.77362 -20.45968,3.96735 -2.34312,-0.50761 -2.98642,-1.77291 -1.87741,-3.69265 1.75225,-3.03328 7.24513,-6.97629 15.45914,-11.09721 2.34711,-1.17753 9.82524,-4.24968 12.37347,-5.08325 7.24293,-2.36925 12.88519,-3.44945 16.51376,-3.16156 3.66988,0.29116 4.59389,1.88265 2.65055,4.56515 -3.09396,4.27076 -13.46558,10.37019 -24.65984,14.50215 z"
       id="path263"
       inkscape:connector-curvature="0" />
    <path
       style="fill:#ff9955;fill-rule:evenodd;stroke-width:0.05934813"
       d="m 163.7714,185.0472 c -4.97964,1.86411 -9.37234,3.28811 -13.25872,4.2981 -5.18398,1.34722 -8.70543,1.68412 -9.48383,0.90734 l -0.13679,-0.13637 6.73353,-2.69276 c 3.70343,-1.48105 14.59255,-5.80351 24.198,-9.6055 l 17.43886,-6.88849 0.026,0.15214 c 0.003,1.59383 -5.27414,5.0568 -13.74575,9.01949 -3.50967,1.64169 -8.12816,3.5823 -11.77141,4.94614 z"
       id="path265"
       inkscape:connector-curvature="0"
       sodipodi:nodetypes="cccccsccccc" />
    <path
       style="fill:#800000;fill-rule:evenodd;stroke-width:0.25;stroke:#c91d17;stroke-opacity:1;stroke-miterlimit:4;stroke-dasharray:none"
       d="m 136.06385,179.46021 c -3.78657,-10.82604 -4.22231,-11.96381 -4.19374,-12.02387 0.0391,-0.0821 0.37754,-0.19358 0.45606,-0.15639 0.0392,0.0187 1.00677,2.72085 4.28675,11.97229 l 4.04673,11.32671 -0.32825,0.11638 -0.29869,0.11226 z"
       id="path390"
       inkscape:connector-curvature="0"
       sodipodi:nodetypes="scsscccs" />
    <path
       style="fill:#800000;fill-rule:evenodd;stroke-width:0.25;stroke:#c91d17;stroke-opacity:1;stroke-miterlimit:4;stroke-dasharray:none"
       d="m 185.73884,159.76723 c -3.96221,-10.763 -4.31386,-12.50593 -4.10714,-11.80981 0.0381,-0.0826 0.20781,-0.68639 0.36609,-0.62616 0,0 0.96658,2.98456 4.35756,12.19589 l 4.19662,11.39984 -0.59603,0.16017 v 0 z"
       id="path390-5"
       inkscape:connector-curvature="0"
       sodipodi:nodetypes="cccscccc" />
    <path
       style="fill:#ffd42a;fill-rule:evenodd;stroke-width:0.25;stroke:#000000;stroke-opacity:1;stroke-miterlimit:4;stroke-dasharray:none"
       d="m 136.83775,179.31465 -3.91592,-11.04513 1.00808,0.23268 c 0.67918,0.15677 3.49499,1.38245 8.63062,3.75675 4.19241,1.93824 7.6369,3.5645 7.65442,3.61392 0.0175,0.0494 -2.05316,3.25019 -4.6015,7.11283 -2.54835,3.86265 -4.68431,7.10197 -4.74658,7.19852 -0.0904,0.14015 -0.90311,-2.05243 -4.02912,-10.86957 z"
       id="path425"
       inkscape:connector-curvature="0" />
    <path
       style="fill:#ffd42a;fill-rule:evenodd;stroke-width:0.25;stroke:#000000;stroke-opacity:1;stroke-miterlimit:4;stroke-dasharray:none"
       d="m 181.44379,167.93529 c -4.20582,-1.96372 -7.66713,-3.57895 -7.69179,-3.58943 -0.10858,-0.0461 7.19922,-13.63329 7.55336,-14.04383 0.21712,-0.25169 0.46244,-0.54043 0.54515,-0.64164 0.13398,-0.16393 0.53017,0.98657 3.6269,10.53205 1.9121,5.89383 3.50731,10.85043 3.54492,11.01465 0.0568,0.24761 -1.23668,-0.31077 -7.57853,-3.2718 z"
       id="path427"
       inkscape:connector-curvature="0" />
    <path
       style="fill:#44aa00;fill-rule:evenodd;stroke-width:0.25;stroke:#000000;stroke-opacity:1;stroke-miterlimit:4;stroke-dasharray:none"
       d="m 146.28308,183.16353 c 2.5875,-3.92808 4.75843,-7.16107 4.8243,-7.18443 0.0659,-0.0233 3.07851,1.3245 6.69477,2.99523 l 6.57503,3.03768 -6.43622,2.36697 c -3.53992,1.30182 -8.6696,3.16791 -11.39933,4.14674 l -4.96308,1.77986 z"
       id="path429"
       inkscape:connector-curvature="0" />
    <path
       style="fill:#44aa00;fill-rule:evenodd;stroke-width:0.25;stroke:#000000;stroke-opacity:1;stroke-miterlimit:4;stroke-dasharray:none"
       d="m 165.45832,181.02053 c 0.0895,-0.17707 1.78315,-3.55668 3.76374,-7.51023 1.98059,-3.95354 3.64,-7.20206 3.68759,-7.21893 0.0722,-0.0256 9.87409,4.23471 14.33946,6.23249 l 1.29104,0.5776 -11.62226,4.12053 c -11.38544,4.03656 -11.6189,4.11403 -11.45957,3.79854 z"
       id="path431"
       inkscape:connector-curvature="0" />
    <path
       style="fill:#536c5d;fill-rule:evenodd;stroke-width:0.25;stroke:#000000;stroke-opacity:1;stroke-miterlimit:4;stroke-dasharray:none"
       d="m 150.53794,175.00069 c -7.73976,-3.58728 -14.05985,-6.54842 -14.04466,-6.58032 0.0152,-0.0319 0.37405,-0.0502 0.79743,-0.0406 2.35125,0.0531 7.22305,-0.67757 11.52017,-1.72785 10.8053,-2.64051 23.09195,-8.43469 30.94516,-15.94755 -1.85853,6.30398 -3.96898,8.49655 -7.43934,15.42703 -3.47037,6.93048 -6.62401,13.2288 -7.00811,13.99625 l -0.69834,1.39538 z"
       id="path435"
       inkscape:connector-curvature="0"
       sodipodi:nodetypes="sccccsccs" />
    <path
       style="fill:#ffffff;fill-rule:evenodd;stroke-width:0.00390625"
       d="m 127.94993,156.9677 c -0.007,-7e-4 -0.0227,-0.008 -0.0313,-0.014 l -0.005,-0.004 0.009,-0.003 c 0.0175,-0.005 0.0341,-0.004 0.0409,0.003 0.008,0.008 2.1e-4,0.0186 -0.014,0.0171 z"
       id="path450"
       inkscape:connector-curvature="0" />
    <path
       style="fill:#ffffff;fill-rule:evenodd;stroke-width:0.00390625"
       d=""
       id="path468"
       inkscape:connector-curvature="0"
       transform="scale(0.26458333)" />
    <path
       style="fill:#ffffff;fill-rule:evenodd;stroke-width:0.00390625"
       d=""
       id="path470"
       inkscape:connector-curvature="0"
       transform="scale(0.26458333)" />
    <path
       style="fill:#ffffff;fill-rule:evenodd;stroke-width:0.00390625"
       d=""
       id="path472"
       inkscape:connector-curvature="0"
       transform="scale(0.26458333)" />
    <path
       style="fill:#ffffff;fill-rule:evenodd;stroke-width:0.00390625"
       d=""
       id="path474"
       inkscape:connector-curvature="0"
       transform="scale(0.26458333)" />
    <path
       style="fill:#ffffff;fill-rule:evenodd;stroke-width:0.00390625"
       d=""
       id="path476"
       inkscape:connector-curvature="0"
       transform="scale(0.26458333)" />
    <path
       style="fill:#ffffff;fill-rule:evenodd;stroke-width:0.00390625"
       d=""
       id="path478"
       inkscape:connector-curvature="0"
       transform="scale(0.26458333)" />
    <path
       style="fill:#ffffff;fill-rule:evenodd;stroke-width:0.00390625"
       d=""
       id="path480"
       inkscape:connector-curvature="0"
       transform="scale(0.26458333)" />
    <path
       style="fill:#ffffff;fill-rule:evenodd;stroke-width:0.00390625"
       d=""
       id="path486"
       inkscape:connector-curvature="0"
       transform="scale(0.26458333)" />
    <path
       style="fill:#333333;fill-rule:evenodd;stroke:#000000;stroke-width:0.25;stroke-miterlimit:4;stroke-opacity:1;stroke-dasharray:none"
       d="m 106.89162,218.95326 c -3.92593,-1.80136 2.41548,3.1019 -1.6168,2.79919 -0.42148,-0.32403 -7.608021,-5.95941 -7.584841,-5.98229 0.0221,-1.56735 1.134009,-4.21073 1.970688,-5.78264 3.273083,-1.80274 4.343893,-0.3535 6.052153,0.29944 1.51517,1.02119 2.04629,1.359 3.01014,2.56367 1.17566,1.25711 1.82766,2.38479 3.23611,3.45584 1.28145,1.75282 2.03454,4.61997 -2.44462,1.26208 -1.20422,-0.90274 -1.62415,-0.80172 -0.75235,0.37021 -0.41829,0.056 3.44319,2.98377 -1.87048,1.0145 z"
       id="path609-7"
       inkscape:connector-curvature="0"
       sodipodi:nodetypes="cccccccscc" />
    <path
       sodipodi:type="star"
       style="fill:#ff7900;fill-opacity:1;stroke:#0023ff;stroke-width:0.88582677;stroke-miterlimit:4;stroke-opacity:1;stroke-dasharray:none;stroke-dashoffset:0"
       id="path4012"
       sodipodi:sides="5"
       sodipodi:cx="507.49689"
       sodipodi:cy="472.79474"
       sodipodi:r1="57.762707"
       sodipodi:r2="28.881353"
       sodipodi:arg1="0.15660188"
       sodipodi:arg2="0.78492041"
       inkscape:flatsided="false"
       inkscape:rounded="0"
       inkscape:randomized="0"
       d="m 564.55275,481.80356 -36.62391,11.40362 -11.36862,36.63479 -22.1629,-31.3075 -38.35485,0.50857 22.92649,-30.75271 -12.33598,-36.32047 36.33224,12.30126 30.7308,-22.95585 -0.47193,38.35532 z"
       transform="matrix(0.13246852,0,0,0.13246852,92.24012,81.954615)"
       inkscape:transform-center-x="-1.314587"
       inkscape:transform-center-y="1.3066821" />
    <path
       inkscape:transform-center-y="0.89911804"
       inkscape:transform-center-x="-0.90457246"
       transform="matrix(0.09115095,0,0,0.09115095,118.97436,86.63159)"
       d="m 564.55275,481.80356 -36.62391,11.40362 -11.36862,36.63479 -22.1629,-31.3075 -38.35485,0.50857 22.92649,-30.75271 -12.33598,-36.32047 36.33224,12.30126 30.7308,-22.95585 -0.47193,38.35532 z"
       inkscape:randomized="0"
       inkscape:rounded="0"
       inkscape:flatsided="false"
       sodipodi:arg2="0.78492041"
       sodipodi:arg1="0.15660188"
       sodipodi:r2="28.881353"
       sodipodi:r1="57.762707"
       sodipodi:cy="472.79474"
       sodipodi:cx="507.49689"
       sodipodi:sides="5"
       id="path4014"
       style="fill:#ff7900;fill-opacity:1;stroke:#0023ff;stroke-width:0.88582677;stroke-miterlimit:4;stroke-opacity:1;stroke-dasharray:none;stroke-dashoffset:0"
       sodipodi:type="star" />
    <path
       sodipodi:type="star"
       style="fill:#ff7900;fill-opacity:1;stroke:#0023ff;stroke-width:0.88582677;stroke-miterlimit:4;stroke-opacity:1;stroke-dasharray:none;stroke-dashoffset:0"
       id="path4016"
       sodipodi:sides="5"
       sodipodi:cx="507.49689"
       sodipodi:cy="472.79474"
       sodipodi:r1="57.762707"
       sodipodi:r2="28.881353"
       sodipodi:arg1="0.15660188"
       sodipodi:arg2="0.78492041"
       inkscape:flatsided="false"
       inkscape:rounded="0"
       inkscape:randomized="0"
       d="m 564.55275,481.80356 -36.62391,11.40362 -11.36862,36.63479 -22.1629,-31.3075 -38.35485,0.50857 22.92649,-30.75271 -12.33598,-36.32047 36.33224,12.30126 30.7308,-22.95585 -0.47193,38.35532 z"
       transform="matrix(0.05499808,0,0,0.05499808,118.49566,115.97228)"
       inkscape:transform-center-x="-0.54578729"
       inkscape:transform-center-y="0.54252263" />
    <path
       inkscape:transform-center-y="0.69534797"
       inkscape:transform-center-x="-0.6995636"
       transform="matrix(0.07049217,0,0,0.07049217,128.66899,83.178853)"
       d="m 564.55275,481.80356 -36.62391,11.40362 -11.36862,36.63479 -22.1629,-31.3075 -38.35485,0.50857 22.92649,-30.75271 -12.33598,-36.32047 36.33224,12.30126 30.7308,-22.95585 -0.47193,38.35532 z"
       inkscape:randomized="0"
       inkscape:rounded="0"
       inkscape:flatsided="false"
       sodipodi:arg2="0.78492041"
       sodipodi:arg1="0.15660188"
       sodipodi:r2="28.881353"
       sodipodi:r1="57.762707"
       sodipodi:cy="472.79474"
       sodipodi:cx="507.49689"
       sodipodi:sides="5"
       id="path4018"
       style="fill:#ff7900;fill-opacity:1;stroke:#0023ff;stroke-width:0.88582677;stroke-miterlimit:4;stroke-opacity:1;stroke-dasharray:none;stroke-dashoffset:0"
       sodipodi:type="star" />
  </g>
</svg>
