<?xml version="1.0" ?><!-- Created with Inkscape (http://www.inkscape.org/) --><!DOCTYPE svg  PUBLIC '-//W3C//DTD SVG 1.1//EN'  'http://www.w3.org/Graphics/SVG/1.1/DTD/svg11.dtd' [
	<!ENTITY stroke_color "#666666">
	<!ENTITY fill_color "#ffffff">
]><svg height="55" id="svg4502" inkscape:output_extension="org.inkscape.output.svg.inkscape" inkscape:version="0.91 r13725" sodipodi:docname="Maths Logo.svg" sodipodi:version="0.32" version="1.0" width="55" xmlns="http://www.w3.org/2000/svg" xmlns:cc="http://creativecommons.org/ns#" xmlns:dc="http://purl.org/dc/elements/1.1/" xmlns:inkscape="http://www.inkscape.org/namespaces/inkscape" xmlns:rdf="http://www.w3.org/1999/02/22-rdf-syntax-ns#" xmlns:sodipodi="http://sodipodi.sourceforge.net/DTD/sodipodi-0.dtd" xmlns:svg="http://www.w3.org/2000/svg">
  <defs id="defs4504"/>
  <sodipodi:namedview bordercolor="#666666" borderopacity="1.0" gridtolerance="10000" guidetolerance="10" height="55px" id="base" inkscape:current-layer="layer4" inkscape:cx="46.072252" inkscape:cy="30.783769" inkscape:document-units="px" inkscape:pageopacity="0.0" inkscape:pageshadow="2" inkscape:snap-page="true" inkscape:window-height="705" inkscape:window-maximized="1" inkscape:window-width="1366" inkscape:window-x="-8" inkscape:window-y="-8" inkscape:zoom="7.919596" objecttolerance="10" pagecolor="#ffffff" showgrid="false" width="55px">
    <inkscape:grid color="#3f3fff" empcolor="#3f3fff" empopacity="0.38" empspacing="5" id="GridFromPre046Settings" opacity="0.15" originx="0px" originy="0px" spacingx="15px" spacingy="15px" type="xygrid"/>
  </sodipodi:namedview>
  <metadata id="metadata4507">
    <rdf:RDF>
      <cc:Work rdf:about="">
        <dc:format>image/svg+xml</dc:format>
        <dc:type rdf:resource="http://purl.org/dc/dcmitype/StillImage"/>
        <dc:title/>
      </cc:Work>
    </rdf:RDF>
  </metadata>
  
  
  <g id="layer4" inkscape:groupmode="layer" inkscape:label="icon" style="display:inline">
    <circle d="M 45.204325 27.725882 A 15.657364 15.657364 0 1 1  13.889597,27.725882 A 15.657364 15.657364 0 1 1  45.204325 27.725882 z" id="path2165" sodipodi:cx="29.546961" sodipodi:cy="27.725882" sodipodi:rx="15.657364" sodipodi:ry="15.657364" sodipodi:type="arc" style="opacity:1;fill:#ffffff;fill-opacity:1;stroke:#666666;stroke-width:2.43559003;stroke-linecap:round;stroke-linejoin:round;stroke-miterlimit:4;stroke-dasharray:none;stroke-opacity:1" transform="matrix(1.4370235,0,0,1.4370235,-14.959677,-12.342744)"/>
    <rect height="17.488266" id="rect3472" ry="0" style="fill:#ff00ff" width="6.6291261" x="15.935286" y="16.308275"/>
    <rect height="5.5558391" id="rect3480" style="fill:#00ffff" width="17.480061" x="21.780643" y="16.009779"/>
    <rect height="13.005713" id="rect3486" style="fill:#ffff00" width="6.0609155" x="33.162807" y="20.686222"/>
    <rect height="5.0507627" id="rect3488" style="fill:#00ff00" width="12.374369" x="22.560694" y="28.756611"/>
    <text id="text3522" sodipodi:linespacing="0%" style="font-style:normal;font-weight:normal;font-size:5px;line-height:0%;font-family:sans-serif;letter-spacing:0px;word-spacing:0px;fill:&fill_color;;fill-opacity:1;stroke:none;stroke-width:1px;stroke-linecap:butt;stroke-linejoin:miter;stroke-opacity:1" x="22.097088" xml:space="preserve" y="37.890541"><tspan id="tspan3524" sodipodi:role="line" x="22.097088" y="37.890541"/></text>
    <path d="m 11.482093,22.017353 c -0.03043,0.530334 -0.06261,1.060298 -0.08306,1.5912 -0.02374,0.617344 -0.03053,1.234404 5.55e-4,1.851424 0.02851,0.404281 0.05005,0.808793 0.09002,1.212107 0.03465,0.31913 0.05769,0.639079 0.07151,0.959726 0.01166,0.121157 -0.0044,0.268115 0.05637,0.3796 0,0 -1.161551,0.653392 -1.161551,0.653392 l 0,0 c -0.05262,-0.13626 -0.06227,-0.288402 -0.06312,-0.432904 -0.0071,-0.319349 -0.0236,-0.638527 -0.05818,-0.956201 -0.04428,-0.408117 -0.0587,-0.817365 -0.07593,-1.227494 -0.02844,-0.620914 -0.02052,-1.241748 -0.0014,-1.862974 0.01689,-0.522245 0.05617,-1.045135 0.04635,-1.567415 0,0 1.17847,-0.600461 1.17847,-0.600461 z" id="path3384" inkscape:connector-curvature="0" style="fill:#ff00ff"/>
    <path d="m 8.9805479,24.928992 c 0.339398,-0.09136 0.688722,-0.133801 1.0341451,-0.197234 0.302393,-0.05529 0.607159,-0.09455 0.913946,-0.113275 0.237684,-0.01053 0.475739,-0.0068 0.713576,-0.0054 0.281294,0.0014 0.562599,0.0012 0.843895,3.55e-4 0.204793,0.01004 0.414123,-0.02356 0.616225,0.01532 0.152733,0.04074 0.309421,0.05663 0.466694,0.06558 0.17344,0.0074 0.347091,0.007 0.520653,0.0071 0.02314,-4.24e-4 0.04629,-8.49e-4 0.06943,-0.0013 0,0 -1.072851,0.779376 -1.072851,0.779376 l 0,0 c -0.02208,-4.51e-4 -0.04416,-9.02e-4 -0.06624,-0.0014 -0.175764,-7.66e-4 -0.351738,-0.0012 -0.527127,-0.01413 -0.158635,-0.0144 -0.314586,-0.04208 -0.471,-0.07154 -0.199463,-0.01166 -0.399711,-0.0014 -0.599402,-0.0065 -0.280538,-0.0014 -0.561085,-0.0025 -0.841626,-0.0019 -0.237524,0.0012 -0.475264,0.0011 -0.7124531,0.01538 -0.299623,0.02148 -0.597462,0.0607 -0.892918,0.115243 -0.350968,0.05911 -0.7039556,0.112266 -1.0421672,0.227774 0,0 1.0472202,-0.813581 1.0472202,-0.813581 z" id="path3386" inkscape:connector-curvature="0" style="fill:#ff00ff"/>
    <path d="m 24.901242,12.629741 c 0.343787,-0.04514 0.682574,-0.120126 1.026745,-0.166774 0.421207,-0.04882 0.84507,-0.06639 1.26867,-0.07748 0.359234,-0.01705 0.716291,0.02862 1.073896,0.05535 0.241815,0.0185 0.484222,0.02554 0.726658,0.02803 0.218048,-0.0057 0.43173,0.04125 0.648604,0.06191 0.244522,0.0217 0.490039,0.02613 0.735364,0.02818 0.117333,0.03238 0.287688,0.0032 0.374294,0.10196 0,0 -1.137187,0.701588 -1.137187,0.701588 l 0,0 c 0.0025,0.0044 0.01253,0.01257 0.0075,0.01316 -0.0745,0.0087 -0.230588,-0.07181 -0.311591,-0.04401 -0.246449,-0.0055 -0.493067,-0.01343 -0.738354,-0.03958 -0.215694,-0.02231 -0.430662,-0.05514 -0.648153,-0.04923 -0.240469,-0.0066 -0.480635,-0.02026 -0.720185,-0.04268 -0.354316,-0.03079 -0.709068,-0.06397 -1.065174,-0.04489 -0.41818,0.0086 -0.836958,0.02608 -1.25161,0.08444 -0.351012,0.05454 -0.697133,0.135678 -1.049666,0.18062 0,0 1.060174,-0.790589 1.060174,-0.790589 z" id="path3392" inkscape:connector-curvature="0" style="fill:#00ffff"/>
    <path d="m 41.683227,21.85613 c 0.311607,0.468953 0.679422,0.89501 0.994221,1.361687 0.435842,0.708981 0.800716,1.457437 1.180859,2.196818 0.347812,0.657377 0.676389,1.323537 0.995626,1.995142 0.20859,0.423078 0.391665,0.856969 0.579458,1.289099 0.07945,0.152083 0.101275,0.327309 0.187965,0.475433 0.03121,0.04409 0.04906,0.09474 0.06822,0.144624 0,0 -1.171382,0.637444 -1.171382,0.637444 l 0,0 c -0.0065,-0.04505 -0.01646,-0.08204 -0.04601,-0.119562 -0.08716,-0.156422 -0.115482,-0.332938 -0.183767,-0.49754 -0.168215,-0.439544 -0.332157,-0.880149 -0.540611,-1.303399 -0.311489,-0.674163 -0.645428,-1.336426 -0.984183,-1.997224 -0.368332,-0.73905 -0.738841,-1.479016 -1.179124,-2.178572 -0.320531,-0.460947 -0.683444,-0.88998 -1.03943,-1.323694 0,0 1.138157,-0.680256 1.138157,-0.680256 z" id="path3402" inkscape:connector-curvature="0" style="fill:#ffff00"/>
    <path d="m 45.613952,21.791077 c -0.528529,0.486384 -0.898896,1.109536 -1.25891,1.723354 -0.401644,0.6993 -0.787412,1.40752 -1.156873,2.124316 -0.26822,0.541787 -0.529004,1.087009 -0.782048,1.636024 -0.170379,0.384324 -0.352001,0.764297 -0.484101,1.163952 -0.07136,0.182061 -0.126567,0.367393 -0.170352,0.557584 -0.04651,0.146997 -0.10305,0.292287 -0.169379,0.431592 -0.029,0.06378 -0.01744,0.03386 -0.03629,0.08913 0,0 -1.232019,0.509611 -1.232019,0.509611 l 0,0 c 0.04881,-0.0097 0.02506,0.0024 0.06248,-0.05 0.06391,-0.136099 0.127274,-0.271659 0.178226,-0.413453 0.06952,-0.18484 0.07844,-0.393126 0.183176,-0.567653 0.132963,-0.408355 0.323265,-0.7934 0.495273,-1.186202 0.260715,-0.552911 0.526814,-1.102985 0.799909,-1.649912 0.373681,-0.719222 0.762231,-1.430794 1.164511,-2.134429 0.349761,-0.608737 0.707396,-1.219263 1.186174,-1.737979 0,0 1.220217,-0.49594 1.220217,-0.49594 z" id="path3404" inkscape:connector-curvature="0" style="fill:#ffff00"/>
    <path d="m 29.792347,39.726494 c -0.570884,0.02769 -1.141448,0.07269 -1.712421,0.09585 -0.645311,0.01583 -1.29041,0.02766 -1.935318,0.02273 -0.543145,0.01911 -1.086097,0.05428 -1.629296,0.06594 -0.301936,0.0041 -0.60354,-0.0035 -0.904529,-0.02152 -0.15676,0.01146 -0.297878,-0.05851 -0.446007,-0.101145 0,0 1.000646,-0.731226 1.000646,-0.731226 l 0,0 c 0.140946,0.04587 0.280297,0.08713 0.429092,0.08287 0.292328,0.02019 0.585213,0.03341 0.878672,0.03078 0.540275,-0.006 1.080292,-0.04845 1.620457,-0.05563 0.639584,0.0088 1.27981,-0.0069 1.919826,-0.01784 0.586883,-0.02873 1.173466,-0.07814 1.759716,-0.134244 0,0 -0.980844,0.763485 -0.980844,0.763485 z" id="path3416" inkscape:connector-curvature="0" style="fill:#00ff00"/>
    <circle cx="26.919643" cy="36.830357" id="path3424" r="0.66964287" style="fill:#00ff00"/>
    <ellipse cx="26.830357" cy="41.830353" id="path3426" rx="0.66964287" ry="0.58035713" style="fill:#00ff00"/>
  </g>
</svg>