<?xml version="1.0" encoding="utf-8"?>
<!-- Generator: Adobe Illustrator 18.1.1, SVG Export Plug-In . SVG Version: 6.00 Build 0)  -->
<!DOCTYPE svg PUBLIC "-//W3C//DTD SVG 1.1//EN" "http://www.w3.org/Graphics/SVG/1.1/DTD/svg11.dtd">
<svg version="1.1" id="Layer_1" xmlns="http://www.w3.org/2000/svg" xmlns:xlink="http://www.w3.org/1999/xlink" x="0px" y="0px"
	 viewBox="0 0 55 55" enable-background="new 0 0 55 55" xml:space="preserve">
<rect x="1.5" y="2.5" fill="#FFFFFF" stroke="#666666" stroke-miterlimit="10" width="17" height="17"/>
<rect x="18.5" y="2.5" fill="#FFFFFF" stroke="#666666" stroke-miterlimit="10" width="18" height="17"/>
<rect x="36.5" y="2.5" fill="#FFFFFF" stroke="#666666" stroke-miterlimit="10" width="16" height="17"/>
<rect x="1.5" y="19.5" fill="#FFFFFF" stroke="#666666" stroke-miterlimit="10" width="17" height="18"/>
<rect x="18.5" y="19.5" fill="#FFFFFF" stroke="#666666" stroke-miterlimit="10" width="18" height="18"/>
<rect x="36.5" y="19.5" fill="#FFFFFF" stroke="#666666" stroke-miterlimit="10" width="16" height="18"/>
<rect x="1.5" y="37.5" fill="#FFFFFF" stroke="#666666" stroke-miterlimit="10" width="17" height="16"/>
<rect x="18.5" y="37.5" fill="#FFFFFF" stroke="#666666" stroke-miterlimit="10" width="18" height="16"/>
<rect x="36.5" y="37.5" fill="#FFFFFF" stroke="#666666" stroke-miterlimit="10" width="16" height="16"/>
<path fill="#666666" d="M30.7,32.9L30.7,32.9c-0.3,0.3-1,0.3-1.3,0L23.6,27c-0.3-0.3-0.3-1,0-1.3l0,0c0.3-0.3,1-0.3,1.3,0l5.9,5.9
	C31.2,32,31.2,32.5,30.7,32.9z"/>
<path fill="#666666" d="M23.6,32.9L23.6,32.9c-0.3-0.3-0.3-1,0-1.3l5.9-5.9c0.3-0.3,1-0.3,1.3,0l0,0c0.3,0.3,0.3,1,0,1.3l-5.9,5.9
	C24.5,33.2,24,33.2,23.6,32.9z"/>
<circle fill="#666666" cx="27.3" cy="13.6" r="2.7"/>
</svg>
