<?xml version="1.0" encoding="UTF-8" standalone="no"?>
<!-- Created with Inkscape (http://www.inkscape.org/) -->

<svg
   xmlns:osb="http://www.openswatchbook.org/uri/2009/osb"
   xmlns:dc="http://purl.org/dc/elements/1.1/"
   xmlns:cc="http://creativecommons.org/ns#"
   xmlns:rdf="http://www.w3.org/1999/02/22-rdf-syntax-ns#"
   xmlns:svg="http://www.w3.org/2000/svg"
   xmlns="http://www.w3.org/2000/svg"
   xmlns:sodipodi="http://sodipodi.sourceforge.net/DTD/sodipodi-0.dtd"
   xmlns:inkscape="http://www.inkscape.org/namespaces/inkscape"
   width="210mm"
   height="297mm"
   viewBox="0 0 210 297"
   version="1.1"
   id="svg8"
   inkscape:version="0.92.0 r15299"
   sodipodi:docname="GCI RODENT.svg">
  <defs
     id="defs2">
    <inkscape:path-effect
       effect="spiro"
       id="path-effect1430"
       is_visible="true" />
    <inkscape:path-effect
       effect="spiro"
       id="path-effect1426"
       is_visible="true" />
    <inkscape:path-effect
       effect="spiro"
       id="path-effect1422"
       is_visible="true" />
    <inkscape:path-effect
       effect="spiro"
       id="path-effect1300"
       is_visible="true" />
    <inkscape:path-effect
       effect="spiro"
       id="path-effect1296"
       is_visible="true" />
    <inkscape:path-effect
       effect="spiro"
       id="path-effect1292"
       is_visible="true" />
    <inkscape:path-effect
       effect="spiro"
       id="path-effect1288"
       is_visible="true" />
    <inkscape:path-effect
       effect="spiro"
       id="path-effect1215"
       is_visible="true" />
    <inkscape:path-effect
       effect="spiro"
       id="path-effect1197"
       is_visible="true" />
    <inkscape:path-effect
       effect="spiro"
       id="path-effect1193"
       is_visible="true" />
    <inkscape:path-effect
       effect="spiro"
       id="path-effect1189"
       is_visible="true" />
    <inkscape:path-effect
       effect="spiro"
       id="path-effect1181"
       is_visible="true" />
    <inkscape:path-effect
       effect="spiro"
       id="path-effect1177"
       is_visible="true" />
    <inkscape:path-effect
       effect="spiro"
       id="path-effect1173"
       is_visible="true" />
    <inkscape:path-effect
       effect="spiro"
       id="path-effect1169"
       is_visible="true" />
    <inkscape:path-effect
       effect="spiro"
       id="path-effect1148"
       is_visible="true" />
    <inkscape:path-effect
       effect="spiro"
       id="path-effect1084"
       is_visible="true" />
    <linearGradient
       id="linearGradient1016"
       osb:paint="solid">
      <stop
         style="stop-color:#07071f;stop-opacity:0.54901963;"
         offset="0"
         id="stop1014" />
    </linearGradient>
    <inkscape:path-effect
       effect="spiro"
       id="path-effect199"
       is_visible="true" />
    <inkscape:path-effect
       effect="spiro"
       id="path-effect159"
       is_visible="true" />
    <inkscape:path-effect
       effect="spiro"
       id="path-effect155"
       is_visible="true" />
    <inkscape:path-effect
       effect="spiro"
       id="path-effect151"
       is_visible="true" />
    <inkscape:path-effect
       effect="spiro"
       id="path-effect147"
       is_visible="true" />
    <inkscape:path-effect
       effect="spiro"
       id="path-effect143"
       is_visible="true" />
    <inkscape:path-effect
       effect="spiro"
       id="path-effect121"
       is_visible="true" />
    <inkscape:path-effect
       effect="spiro"
       id="path-effect97"
       is_visible="true" />
    <inkscape:path-effect
       effect="spiro"
       id="path-effect93"
       is_visible="true" />
    <inkscape:path-effect
       effect="spiro"
       id="path-effect89"
       is_visible="true" />
    <inkscape:path-effect
       effect="spiro"
       id="path-effect85"
       is_visible="true" />
    <inkscape:path-effect
       effect="spiro"
       id="path-effect38"
       is_visible="true" />
    <inkscape:path-effect
       effect="spiro"
       id="path-effect50"
       is_visible="true" />
    <inkscape:path-effect
       effect="spiro"
       id="path-effect73"
       is_visible="true" />
    <inkscape:path-effect
       effect="spiro"
       id="path-effect175"
       is_visible="true" />
    <inkscape:path-effect
       effect="spiro"
       id="path-effect1096"
       is_visible="true" />
    <inkscape:path-effect
       effect="spiro"
       id="path-effect1136"
       is_visible="true" />
    <inkscape:path-effect
       effect="spiro"
       id="path-effect1337"
       is_visible="true" />
    <inkscape:path-effect
       effect="spiro"
       id="path-effect1337-6"
       is_visible="true" />
    <inkscape:path-effect
       effect="spiro"
       id="path-effect1337-2"
       is_visible="true" />
    <inkscape:path-effect
       effect="spiro"
       id="path-effect1337-3"
       is_visible="true" />
  </defs>
  <sodipodi:namedview
     id="base"
     pagecolor="#ffffff"
     bordercolor="#666666"
     borderopacity="1.0"
     inkscape:pageopacity="0.0"
     inkscape:pageshadow="2"
     inkscape:zoom="0.35"
     inkscape:cx="485.68798"
     inkscape:cy="441.19962"
     inkscape:document-units="mm"
     inkscape:current-layer="layer5"
     showgrid="false"
     inkscape:window-width="1366"
     inkscape:window-height="706"
     inkscape:window-x="-8"
     inkscape:window-y="-8"
     inkscape:window-maximized="1"
     showguides="false" />
  <metadata
     id="metadata5">
    <rdf:RDF>
      <cc:Work
         rdf:about="">
        <dc:format>image/svg+xml</dc:format>
        <dc:type
           rdf:resource="http://purl.org/dc/dcmitype/StillImage" />
        <dc:title></dc:title>
      </cc:Work>
    </rdf:RDF>
  </metadata>
  <g
     inkscape:groupmode="layer"
     id="layer6"
     inkscape:label="Layer 4">
    <path
       style="fill:#ffeeaa;stroke:#000000;stroke-width:0.26458332px;stroke-linecap:butt;stroke-linejoin:miter;stroke-opacity:1;fill-opacity:0.65258217"
       d="m -0.75595238,226.31845 c 28.23359938,4.59714 57.23080638,4.46883 85.42261838,-0.37798 14.418174,-2.47881 28.705384,-6.21195 41.975104,-12.37171 13.26973,-6.15976 25.52735,-14.82862 34.75406,-26.18186 8.62725,-10.61561 14.50061,-23.62399 15.77025,-37.24415 1.26963,-13.62016 -2.24707,-27.8033 -10.52353,-38.69462 -4.86827,-6.40635 -11.36674,-11.646057 -18.85899,-14.579897 -7.49226,-2.93384 -15.98105,-3.48072 -23.65331,-1.056317 -7.67226,2.424403 -14.42632,7.903544 -17.9543,15.135054 -1.76398,3.61576 -2.72277,7.62937 -2.71931,11.65247 0.003,4.0231 0.97488,8.0495 2.86291,11.60206 2.32695,4.37845 6.01837,7.97891 10.33199,10.42394 4.31363,2.44502 9.23027,3.75552 14.18024,4.04428 9.89992,0.57753 19.68165,-2.87113 28.24409,-7.87379 11.87763,-6.93957 22.1948,-17.40446 26.44352,-30.48819 2.12437,-6.54187 2.66956,-13.63703 1.21794,-20.360252 -1.45161,-6.723222 -4.94333,-13.045223 -10.10027,-17.596581 -5.63999,-4.977681 -13.01124,-7.672495 -20.45339,-8.76847 -7.44215,-1.095975 -15.01802,-0.694082 -22.51826,-0.116841 -7.50023,0.57724 -15.0189,1.327999 -22.53035,0.921823 C 103.62362,63.981244 96.037366,62.35627 89.580356,58.497022 82.088045,54.018992 76.436344,46.557154 74.15551,38.131878 71.874676,29.706602 72.990385,20.412736 77.200549,12.766691 81.410713,5.1206459 88.667933,-0.7915021 97.007244,-3.3689778 c 8.339306,-2.5774757 17.666826,-1.7912628 25.457036,2.1457634"
       id="path1420"
       inkscape:connector-curvature="0"
       inkscape:path-effect="#path-effect1422"
       inkscape:original-d="M -0.75595238,226.31845 C 27.592525,226.19219 56.192724,226.0662 84.666666,225.94047 c 28.473944,-0.12572 51.153044,-25.70264 76.729164,-38.55357 25.57613,-12.85092 3.49808,-50.62611 5.24672,-75.93877 1.74864,-25.312662 -40.21507,15.16865 -60.323,22.75337 -20.107932,7.58472 35.17114,4.39602 52.75632,6.59443 17.58517,2.19841 11.70772,-45.63028 17.56119,-68.445023 C 182.49052,49.536164 118.59952,63.114718 89.580356,58.497022 60.56119,53.879326 111.50324,18.683267 122.46428,-1.2232144" />
    <path
       style="fill:#ff9955;stroke:#000000;stroke-width:0.26458332px;stroke-linecap:butt;stroke-linejoin:miter;stroke-opacity:1;fill-opacity:0.59154928"
       d="m 10.583333,236.90178 c 50.068588,-15.88793 105.739377,-13.43186 154.214287,6.80357 1.25242,0.52281 2.50099,1.05734 3.77976,1.51191 8.55983,3.04278 18.54395,2.1998 26.16416,-2.74607 3.8101,-2.47294 6.99731,-5.91532 9.09876,-9.94226 2.10144,-4.02694 3.1036,-8.63248 2.78524,-13.16358 -0.31837,-4.53111 -1.96666,-8.97187 -4.74536,-12.56507 -2.77871,-3.5932 -6.68516,-6.31602 -11.0411,-7.60366 -4.35595,-1.28765 -9.14115,-1.12031 -13.36828,0.5421 -4.22714,1.6624 -7.86165,4.8221 -10.02735,8.81485 -1.88307,3.47168 -2.6365,7.43088 -4.07996,11.10714 -0.72173,1.83814 -1.62751,3.62277 -2.88231,5.1476 -1.2548,1.52483 -2.87881,2.78394 -4.75499,3.40002 -2.60423,0.85515 -5.58544,0.3765 -7.85616,-1.1588 -2.27072,-1.53529 -3.8104,-4.07139 -4.23908,-6.7787 -0.40566,-2.56194 0.14954,-5.22386 1.30751,-7.54489 1.15797,-2.32104 2.89442,-4.31877 4.85896,-6.01249 3.92908,-3.38744 8.72558,-5.58073 13.04115,-8.45966 2.15779,-1.43946 4.21205,-3.06627 5.90118,-5.03476 1.68912,-1.96849 3.00613,-4.2974 3.55334,-6.83288 0.5472,-2.53548 0.28357,-5.28433 -0.97664,-7.55148 -0.63011,-1.13357 -1.50187,-2.13635 -2.55757,-2.88968 -1.0557,-0.75334 -2.29573,-1.25365 -3.58329,-1.40928 -1.66614,-0.20139 -3.38797,0.18331 -4.84162,1.02204 -1.45365,0.83874 -2.63796,2.1203 -3.4153,3.60768 -0.77734,1.48739 -1.15233,3.1743 -1.14128,4.85253 0.0111,1.67822 0.40297,3.34641 1.08273,4.88085 1.11527,2.51754 3.00903,4.67184 5.32159,6.16647 2.31256,1.49463 5.0324,2.33352 7.78205,2.47951 5.49928,0.29198 10.96071,-2.22644 14.75535,-6.21743 3.79465,-3.991 5.99696,-9.33435 6.73052,-14.7923 0.73355,-5.45796 0.0663,-11.03475 -1.32761,-16.36244 -1.86793,-7.13917 -5.04446,-14.01087 -5.59432,-21.36985 -0.27493,-3.67948 0.14072,-7.46527 1.66009,-10.82767 1.51937,-3.3624 4.21409,-6.26914 7.64718,-7.62122 3.22679,-1.27083 6.99848,-1.0775 10.07842,0.5166 3.07994,1.59409 5.41568,4.56182 6.24137,7.93011"
       id="path1424"
       inkscape:connector-curvature="0"
       inkscape:path-effect="#path-effect1426"
       inkscape:original-d="m 10.583333,236.90178 c 51.405025,2.39359 102.809787,4.53545 154.214287,6.80357 51.40449,2.26813 2.5201,1.00768 3.77976,1.51191 1.25965,0.50423 -0.75569,-24.44272 -1.13393,-36.66369 -0.37824,-12.22097 -7.81124,13.10291 -11.71726,19.65476 -3.90602,6.55185 -8.06323,-5.29193 -12.09524,-7.9375 -4.03201,-2.64557 14.36336,-30.49034 21.54464,-45.73512 7.18129,-15.24477 -5.54338,9.57513 -8.31547,14.3631 -2.77209,4.78796 22.17487,-19.15106 33.2619,-28.72619 11.08704,-9.57514 2.47556,-26.54609 3.71295,-39.81874 1.23738,-13.27265 10.88012,5.63088 16.31979,8.44671" />
    <path
       style="fill:#ff5599;fill-opacity:0.62441311;stroke:#000000;stroke-width:0.26499999;stroke-linecap:butt;stroke-linejoin:miter;stroke-miterlimit:4;stroke-dasharray:none;stroke-opacity:1"
       d="m 81.146305,128.70999 c -20.080146,5.51202 -42.675786,0.87702 -58.964284,-12.09524 -3.354083,-2.67121 -6.464797,-5.68698 -8.944837,-9.18479 C 10.757145,103.93216 8.9193084,99.932733 8.2379107,95.69942 7.5565131,91.466107 8.074952,86.993882 10.029251,83.177345 c 1.954299,-3.816538 5.39699,-6.917845 9.506937,-8.139967 3.458733,-1.028479 7.246326,-0.705396 10.617071,0.582502 3.370745,1.287899 6.340388,3.500208 8.806621,6.134274 4.932466,5.26813 7.831899,12.059841 10.956968,18.564946 3.125069,6.5051 6.759904,13.08806 12.612734,17.31024 2.926414,2.11109 6.379896,3.56269 9.978177,3.83283 3.598282,0.27014 7.335008,-0.70058 10.150452,-2.95754 1.844283,-1.47845 3.258366,-3.47176 4.118686,-5.67335 0.86032,-2.2016 1.172747,-4.60549 0.983482,-6.96163 -0.37853,-4.71226 -2.752882,-9.130219 -6.064007,-12.504412 C 78.385248,89.991045 74.185135,87.594023 69.792179,85.847409 65.399223,84.100796 60.790205,82.971268 56.199878,81.840948 40.740718,78.034291 24.73934,73.882694 12.444444,63.767765 6.2969954,58.710301 1.2363021,52.172726 -1.3468168,44.643014 -3.9299358,37.113302 -3.8897595,28.565813 -0.49655064,21.364758 3.2034787,13.512569 10.797121,7.7018249 19.270703,5.8188782 27.744285,3.9359314 36.92538,5.9023595 44.104639,10.781429 50.811863,15.3397 55.793005,22.388688 57.806708,30.24424 c 2.013703,7.855551 1.03219,16.448061 -2.74076,23.626468 -3.307141,6.29216 -8.58418,11.360344 -14.364217,15.497932 -5.780037,4.137588 -12.106587,7.436125 -18.26415,10.987588 -6.157563,3.551462 -12.222378,7.413872 -17.2127937,12.47591 -4.99041537,5.062037 -8.877116,11.453572 -9.8790759,18.490942 -1.011915,7.10729 1.0082136,14.45128 4.7937161,20.55107 3.7855025,6.0998 9.243144,11.03068 15.2390225,14.97871 15.39995,10.14022 34.791491,13.98648 52.918592,10.61148 18.127102,-3.37501 34.799928,-13.90692 45.733198,-28.75435 5.81932,-7.90267 10.00569,-16.85952 14.77545,-25.43659 4.76976,-8.577072 10.30771,-16.989104 18.10847,-22.944352 9.44689,-7.211937 22.03427,-10.270581 33.67073,-7.852222 11.63647,2.418359 22.06736,10.37571 27.16386,21.112631 2.54824,5.368461 3.78828,11.358283 3.5338,17.295383 -0.25448,5.9371 -2.00762,11.80975 -5.08984,16.89048 -3.08223,5.08073 -7.49091,9.35573 -12.68707,12.23912 -5.19615,2.88339 -11.16923,4.36332 -17.10933,4.19258 -6.70605,-0.19276 -13.28151,-2.47548 -18.9053,-6.13351 -5.6238,-3.65803 -10.31595,-8.65644 -13.97863,-14.27721 -6.17576,-9.47738 -9.45655,-20.8141 -9.29679,-32.124942 0.15977,-11.310845 3.75944,-22.55038 10.20043,-31.849546 6.44098,-9.299166 15.69739,-16.620611 26.22997,-20.746826 10.53257,-4.126216 22.29899,-5.040629 33.34258,-2.591178"
       id="path1428"
       inkscape:connector-curvature="0"
       inkscape:path-effect="#path-effect1430"
       inkscape:original-d="M 81.146305,128.70999 C 61.491809,124.67798 41.837046,120.64623 22.182021,116.61475 2.5269944,112.58327 20.418397,88.896238 19.536188,75.037378 18.653979,61.178518 61.617801,104.01528 82.658211,118.50463 103.69862,132.99398 65.019586,94.061918 56.199878,81.840948 47.38017,69.619988 18.402524,41.523228 -0.49655064,21.364758 -19.395624,1.2062987 29.237842,14.308938 44.104639,10.781429 c 14.8668,-3.5275103 7.307805,28.725919 10.961309,43.089279 3.653507,14.36336 -39.813226,38.30133 -59.7202366,57.452372 -19.9070104,19.15106 13.3554232,23.68625 20.0327386,35.52978 6.677314,11.84351 65.76812,-12.09552 98.65179,-18.14287 32.88366,-6.04736 21.92288,-32.254222 32.88392,-48.380942 10.96105,-16.12672 19.65503,42.585042 29.48215,63.877972 9.82711,21.2929 -21.92236,-13.60742 -32.88393,-20.41072 -10.96157,-6.80331 40.31772,-58.208592 60.47619,-87.312492" />
  </g>
  <g
     inkscape:groupmode="layer"
     id="layer5"
     inkscape:label="Layer 3"
     style="display:inline">
    <path
       style="fill:#800000;stroke:none;stroke-width:0.03357143;stroke-miterlimit:4;stroke-dasharray:none;stroke-opacity:0.54901961"
       d="m 92.946237,198.76394 c 0.03003,-0.0962 0.248663,-0.71981 0.485857,-1.38569 2.15166,-6.04037 1.853359,-12.43572 -0.861097,-18.46126 -0.586716,-1.3024 -1.693828,-3.19792 -2.519995,-4.31459 -0.301524,-0.40754 -0.526703,-0.76251 -0.500393,-0.78882 0.0263,-0.0263 0.763005,0.29154 1.637104,0.70633 4.375523,2.07635 8.7679,3.18748 14.865687,3.76052 1.8997,0.17853 6.46164,0.19654 8.69345,0.0343 6.64428,-0.48292 12.92715,-2.37884 16.62293,-5.01613 0.28143,-0.20082 0.52817,-0.34865 0.54831,-0.32851 0.0201,0.0201 -0.15131,0.47732 -0.38101,1.01596 -1.26779,2.97288 -2.17744,6.58931 -2.5281,10.05077 -0.0632,0.62366 -0.11243,2.09068 -0.10945,3.26005 0.009,3.4107 0.37596,6.02288 1.31305,9.33971 0.18118,0.64129 0.31047,1.18493 0.28731,1.20809 -0.0231,0.0231 -0.37726,-0.11082 -0.7869,-0.29772 -2.11924,-0.96698 -4.78947,-1.55663 -7.04912,-1.55663 -1.88752,0 -4.44497,0.48353 -6.16101,1.16485 l -0.80918,0.32127 0.0699,-0.38871 c 0.11615,-0.64565 0.078,-3.64006 -0.0561,-4.4047 -0.45645,-2.60251 -1.40603,-4.86912 -2.88783,-6.89317 -0.39499,-0.53954 -0.61564,-0.76085 -0.75855,-0.76085 -0.12734,0 -0.38097,0.20384 -0.68891,0.55368 -2.3097,2.62395 -3.32985,6.01486 -2.81843,9.36819 0.0753,0.49373 0.19896,1.10138 0.27482,1.35034 0.1268,0.41618 0.12524,0.44893 -0.0193,0.40658 -2.84864,-0.83442 -6.31167,-0.97764 -9.261447,-0.38303 -2.046883,0.41261 -4.479269,1.32796 -6.146525,2.31304 -0.423061,0.24996 -0.500362,0.27138 -0.455041,0.1261 z"
       id="path1201"
       inkscape:connector-curvature="0" />
    <path
       style="fill:none;stroke:#000000;stroke-width:0.26458332px;stroke-linecap:butt;stroke-linejoin:miter;stroke-opacity:1"
       d="m 166.64255,111.44813 1.46998,7.81763"
       id="path1249"
       inkscape:connector-curvature="0" />
    <path
       style="fill:none;stroke:#000000;stroke-width:0.26458332px;stroke-linecap:butt;stroke-linejoin:miter;stroke-opacity:1"
       d="m 179.80557,101.89324 -0.60135,9.02035"
       id="path1251"
       inkscape:connector-curvature="0" />
    <path
       style="fill:none;stroke:#000000;stroke-width:0.26458332px;stroke-linecap:butt;stroke-linejoin:miter;stroke-opacity:1"
       d="m 192.36724,87.327054 0.60136,6.748555"
       id="path1253"
       inkscape:connector-curvature="0" />
    <ellipse
       style="fill:#241f1c;stroke:none;stroke-width:0.094;stroke-miterlimit:4;stroke-dasharray:none;stroke-opacity:0.54901961"
       id="path1255"
       cx="88.9478"
       cy="185.62711"
       rx="2.271791"
       ry="1.4699824"
       transform="rotate(-28.484298)"
       inkscape:transform-center-x="-1.3363476"
       inkscape:transform-center-y="0.93544335" />
    <ellipse
       style="display:inline;fill:#241f1c;stroke:none;stroke-width:0.094;stroke-miterlimit:4;stroke-dasharray:none;stroke-opacity:0.54901961"
       id="path1255-3"
       cx="102.72198"
       cy="183.21843"
       rx="2.271791"
       ry="1.4699824"
       transform="rotate(-28.484299)"
       inkscape:transform-center-x="-1.3363476"
       inkscape:transform-center-y="0.93544335" />
    <ellipse
       style="display:inline;fill:#241f1c;stroke:none;stroke-width:0.094;stroke-miterlimit:4;stroke-dasharray:none;stroke-opacity:0.54901961"
       id="path1255-5"
       cx="122.60558"
       cy="175.15439"
       rx="2.271791"
       ry="1.4699824"
       transform="rotate(-28.484299)"
       inkscape:transform-center-x="-1.3363476"
       inkscape:transform-center-y="0.93544335" />
    <path
       style="fill:none;stroke:#000000;stroke-width:0.26458332px;stroke-linecap:butt;stroke-linejoin:miter;stroke-opacity:1"
       d="m 166.64255,111.44813 c 0.82573,0.21585 1.52543,0.86372 1.80407,1.67043 0.1181,0.34192 0.16393,0.70861 0.13363,1.06908"
       id="path1286"
       inkscape:connector-curvature="0"
       inkscape:path-effect="#path-effect1288"
       inkscape:original-d="m 166.64255,111.44813 c 0.60162,0.55654 1.20298,1.11336 1.80407,1.67043 0.60109,0.55708 0.0893,0.71246 0.13363,1.06908" />
    <path
       style="fill:none;stroke:#000000;stroke-width:0.26458332px;stroke-linecap:butt;stroke-linejoin:miter;stroke-opacity:1"
       d="m 179.80557,101.89324 c 0.39094,-0.0455 0.79547,0.0341 1.14008,0.22419 0.34461,0.19013 0.62763,0.48992 0.79763,0.84489 0.18742,0.39135 0.23546,0.84774 0.13363,1.26953"
       id="path1290"
       inkscape:connector-curvature="0"
       inkscape:path-effect="#path-effect1292"
       inkscape:original-d="m 179.80557,101.89324 c 0.60162,0.35609 1.29207,0.71246 1.93771,1.06908 0.64564,0.35663 0.0893,0.84609 0.13363,1.26953" />
    <path
       style="fill:none;stroke:#000000;stroke-width:0.26458332px;stroke-linecap:butt;stroke-linejoin:miter;stroke-opacity:1"
       d="m 192.36724,87.327054 c 0.38881,0.05469 0.76055,0.225493 1.05531,0.484883 0.29477,0.25939 0.51145,0.606394 0.61513,0.985099 0.0952,0.347835 0.0952,0.721243 0,1.069078"
       id="path1294"
       inkscape:connector-curvature="0"
       inkscape:path-effect="#path-effect1296"
       inkscape:original-d="m 192.36724,87.327054 c 0.55707,0.48973 1.11389,0.979723 1.67044,1.469982 0.55654,0.49026 2.6e-4,0.712454 0,1.069078" />
    <path
       style="fill:#87decd;stroke:#000000;stroke-width:0.42699999;stroke-linecap:butt;stroke-linejoin:miter;stroke-opacity:1;stroke-miterlimit:4;stroke-dasharray:none;fill-opacity:1"
       d="m 161.70323,89.019188 c 0.46856,-0.360365 1.0366,-0.589997 1.62397,-0.65649 0.58736,-0.06649 1.19236,0.03034 1.72962,0.276843 0.53726,0.2465 1.00525,0.641959 1.33793,1.13057 0.33267,0.488611 0.52908,1.068979 0.56151,1.659201 0.0476,0.866637 -0.26354,1.74108 -0.81966,2.407456 -0.55612,0.666376 -1.34727,1.124618 -2.19457,1.312824 -0.84729,0.188206 -1.74617,0.111301 -2.56309,-0.181922 -0.81691,-0.293223 -1.55194,-0.798324 -2.14772,-1.429496 -0.77692,-0.823077 -1.32052,-1.86548 -1.54282,-2.975272 -0.2223,-1.109793 -0.12153,-2.283453 0.29419,-3.336179 0.41572,-1.052726 1.14587,-1.980193 2.07618,-2.62484 0.93032,-0.644647 2.05762,-1.00287 3.18946,-1.005485 1.09376,-0.0025 2.18255,0.325217 3.10765,0.908741 0.9251,0.583525 1.6858,1.418668 2.20445,2.38164 1.03729,1.925943 1.06316,4.31939 0.24994,6.350131 -0.85538,2.136021 -2.6239,3.895041 -4.77601,4.709104 -2.1521,0.814064 -4.65605,0.661317 -6.67831,-0.436298 -2.02225,-1.097615 -3.52025,-3.128179 -3.9412,-5.390273 -0.42095,-2.262094 0.25445,-4.709118 1.79945,-6.414183 0.91704,-1.012052 2.09457,-1.748666 3.28655,-2.415307 1.19198,-0.666641 2.42132,-1.281025 3.51148,-2.103679 1.75424,-1.323778 3.08929,-3.151737 4.02401,-5.140718 0.93472,-1.988982 1.48453,-4.139817 1.84701,-6.307387 0.28747,-1.719038 0.45256,-3.528643 -0.14004,-5.167714 -0.29631,-0.819535 -0.7854,-1.57932 -1.46139,-2.129297 -0.67598,-0.549976 -1.54511,-0.878674 -2.41558,-0.837167 -0.9722,0.04636 -1.89288,0.553331 -2.53525,1.284555 -0.64236,0.731224 -1.01995,1.670667 -1.17277,2.6319 -0.18602,1.170113 -0.0527,2.371474 0.21474,3.525708 0.26742,1.154234 0.66678,2.272869 1.02126,3.403407 2.86427,9.135041 2.76674,18.926141 2.00853,28.469629 -0.0906,1.14052 -0.20275,2.32176 -0.77251,3.31392 -0.234,0.40748 -0.54316,0.77438 -0.9201,1.05494 -0.37693,0.28056 -0.82268,0.47294 -1.28896,0.53105 -0.46628,0.0581 -0.95229,-0.0213 -1.36507,-0.24584 -0.41278,-0.22452 -0.74779,-0.59657 -0.90639,-1.03888 -0.15153,-0.42259 -0.13883,-0.89685 0.008,-1.32122 0.14646,-0.42438 0.42205,-0.79905 0.76487,-1.08891 0.29567,-0.24999 0.64513,-0.44068 1.02224,-0.52842 0.37712,-0.0877 0.78213,-0.0694 1.14078,0.0765 0.31916,0.12983 0.59851,0.36179 0.77127,0.6599 0.17277,0.29811 0.23489,0.66173 0.15572,0.99707 -0.0502,0.21254 -0.15608,0.41219 -0.3068,0.57022 -0.15072,0.15804 -0.34618,0.27368 -0.55824,0.32586 -0.21206,0.0522 -0.44005,0.0402 -0.64409,-0.0377 -0.20403,-0.0779 -0.3829,-0.22175 -0.49937,-0.40649 -0.0989,-0.1568 -0.15232,-0.34185 -0.15232,-0.52721 0,-0.18537 0.0535,-0.37042 0.15232,-0.52722"
       id="path1298"
       inkscape:connector-curvature="0"
       inkscape:path-effect="#path-effect1300"
       inkscape:original-d="m 161.70323,89.019188 c 1.64844,0.903373 3.50245,1.606328 5.25303,2.410124 1.75058,0.803797 -5.1496,1.40549 -7.72504,2.108862 -2.57545,0.703376 2.67845,-6.628269 4.01701,-9.941776 1.33859,-3.313502 3.70847,6.426587 5.56204,9.640512 1.85357,3.213921 -9.06362,-5.02152 -13.59607,-7.53165 -4.53246,-2.510127 4.53245,-3.013078 6.79803,-4.518986 2.26558,-1.505908 3.91445,-7.632491 5.87102,-11.448105 1.95658,-3.815613 -2.67757,-5.423207 -4.01701,-8.134178 -1.33943,-2.710971 -2.47157,2.610548 -3.70802,3.916455 -1.23643,1.305909 0.82443,4.618989 1.236,6.929115 0.41157,2.310127 1.33945,18.979329 2.00853,28.469629 0.66907,9.4903 -0.51458,2.20886 -0.77251,3.31392 -0.25794,1.10507 -2.9866,0.20043 -4.48052,0.30127 -1.49395,0.10091 0.51542,-1.60717 0.7725,-2.41013 0.25708,-0.80295 1.44244,-0.30169 2.16302,-0.4519 0.72055,-0.15016 0.61843,1.10422 0.92699,1.65697 0.30857,0.55274 -1.33856,0.30084 -2.0085,0.4519 -0.66994,0.15112 4.2e-4,-0.70338 0,-1.05443" />
    <path
       style="display:inline;fill:none;stroke:#000000;stroke-width:0.26458332px;stroke-linecap:butt;stroke-linejoin:miter;stroke-opacity:1"
       d="m 147.66641,105.22342 1.46998,7.81763"
       id="path1249-5"
       inkscape:connector-curvature="0" />
    <ellipse
       style="display:inline;fill:#241f1c;stroke:none;stroke-width:0.094;stroke-miterlimit:4;stroke-dasharray:none;stroke-opacity:0.54901961"
       id="path1255-1"
       cx="75.237442"
       cy="171.10583"
       rx="2.271791"
       ry="1.4699824"
       transform="rotate(-28.484299)"
       inkscape:transform-center-x="-1.3363476"
       inkscape:transform-center-y="0.93544335" />
    <path
       style="display:inline;fill:none;stroke:#000000;stroke-width:0.26458332px;stroke-linecap:butt;stroke-linejoin:miter;stroke-opacity:1"
       d="m 147.66641,105.22342 c 0.82573,0.21585 1.52543,0.86372 1.80407,1.67043 0.1181,0.34192 0.16393,0.70861 0.13363,1.06908"
       id="path1286-0"
       inkscape:connector-curvature="0"
       inkscape:path-effect="#path-effect1337"
       inkscape:original-d="m 147.66641,105.22342 c 0.60162,0.55654 1.20298,1.11336 1.80407,1.67043 0.60109,0.55708 0.0893,0.71246 0.13363,1.06908" />
    <path
       style="display:inline;fill:none;stroke:#000000;stroke-width:0.26458332px;stroke-linecap:butt;stroke-linejoin:miter;stroke-opacity:1"
       d="m 176.63706,72.350907 1.46998,7.81763"
       id="path1249-6"
       inkscape:connector-curvature="0" />
    <ellipse
       style="display:inline;fill:#241f1c;stroke:none;stroke-width:0.094;stroke-miterlimit:4;stroke-dasharray:none;stroke-opacity:0.54901961"
       id="path1255-6"
       cx="116.37861"
       cy="156.02924"
       rx="2.271791"
       ry="1.4699824"
       transform="rotate(-28.484299)"
       inkscape:transform-center-x="-1.3363476"
       inkscape:transform-center-y="0.93544335" />
    <path
       style="display:inline;fill:none;stroke:#000000;stroke-width:0.26458332px;stroke-linecap:butt;stroke-linejoin:miter;stroke-opacity:1"
       d="m 176.63706,72.350907 c 0.82573,0.21585 1.52543,0.863724 1.80407,1.67043 0.1181,0.34192 0.16393,0.70861 0.13363,1.06908"
       id="path1286-4"
       inkscape:connector-curvature="0"
       inkscape:path-effect="#path-effect1337-6"
       inkscape:original-d="m 176.63706,72.350907 c 0.60162,0.55654 1.20298,1.11336 1.80407,1.67043 0.60109,0.55708 0.0893,0.71246 0.13363,1.06908" />
    <path
       style="display:inline;fill:none;stroke:#000000;stroke-width:0.26458332px;stroke-linecap:butt;stroke-linejoin:miter;stroke-opacity:1"
       d="m 193.83497,120.35388 1.46998,7.81763"
       id="path1249-1"
       inkscape:connector-curvature="0" />
    <ellipse
       style="display:inline;fill:#241f1c;stroke:none;stroke-width:0.094;stroke-miterlimit:4;stroke-dasharray:none;stroke-opacity:0.54901961"
       id="path1255-11"
       cx="108.6012"
       cy="206.42334"
       rx="2.271791"
       ry="1.4699824"
       transform="rotate(-28.484299)"
       inkscape:transform-center-x="-1.3363476"
       inkscape:transform-center-y="0.93544335" />
    <path
       style="display:inline;fill:none;stroke:#000000;stroke-width:0.26458332px;stroke-linecap:butt;stroke-linejoin:miter;stroke-opacity:1"
       d="m 193.83497,120.35388 c 0.82573,0.21585 1.52543,0.86372 1.80407,1.67043 0.1181,0.34192 0.16393,0.70861 0.13363,1.06908"
       id="path1286-44"
       inkscape:connector-curvature="0"
       inkscape:path-effect="#path-effect1337-2"
       inkscape:original-d="m 193.83497,120.35388 c 0.60162,0.55654 1.20298,1.11336 1.80407,1.67043 0.60109,0.55708 0.0893,0.71246 0.13363,1.06908" />
    <path
       style="display:inline;fill:none;stroke:#000000;stroke-width:0.26458332px;stroke-linecap:butt;stroke-linejoin:miter;stroke-opacity:1"
       d="m 180.22783,126.2125 1.46998,7.81763"
       id="path1249-8"
       inkscape:connector-curvature="0" />
    <ellipse
       style="display:inline;fill:#241f1c;stroke:none;stroke-width:0.094;stroke-miterlimit:4;stroke-dasharray:none;stroke-opacity:0.54901961"
       id="path1255-38"
       cx="93.847153"
       cy="205.08328"
       rx="2.271791"
       ry="1.4699824"
       transform="rotate(-28.484299)"
       inkscape:transform-center-x="-1.3363476"
       inkscape:transform-center-y="0.93544335" />
    <path
       style="display:inline;fill:none;stroke:#000000;stroke-width:0.26458332px;stroke-linecap:butt;stroke-linejoin:miter;stroke-opacity:1"
       d="m 180.22783,126.2125 c 0.82573,0.21585 1.52543,0.86372 1.80407,1.67043 0.1181,0.34192 0.16393,0.70861 0.13363,1.06908"
       id="path1286-8"
       inkscape:connector-curvature="0"
       inkscape:path-effect="#path-effect1337-3"
       inkscape:original-d="m 180.22783,126.2125 c 0.60162,0.55654 1.20298,1.11336 1.80407,1.67043 0.60109,0.55708 0.0893,0.71246 0.13363,1.06908" />
  </g>
  <g
     inkscape:groupmode="layer"
     id="layer2"
     inkscape:label="Layer 2"
     style="display:inline">
    <path
       style="fill:#93a7ac;stroke:none;stroke-width:0.094;stroke-miterlimit:4;stroke-dasharray:none;stroke-opacity:0.54901961"
       d="m 108.24732,178.03086 c -4.16772,-0.28311 -6.28077,-0.57003 -9.385914,-1.27448 -5.048223,-1.14527 -9.33029,-3.0785 -12.256042,-5.53326 -3.292552,-2.76251 -4.87703,-6.3617 -4.532214,-10.29506 0.206875,-2.35984 0.518554,-3.30792 2.948577,-8.96914 4.099322,-9.55018 5.628796,-12.81275 7.699108,-16.42319 0.75194,-1.31132 1.882743,-3.08983 1.96456,-3.08983 0.02794,0 0.677669,0.31964 1.443829,0.71032 5.157926,2.63008 9.899736,3.44311 16.332486,2.80035 1.14855,-0.11476 2.33917,-0.24975 2.64583,-0.29996 0.68809,-0.11269 0.78383,-0.1131 0.60917,-0.003 -0.11565,0.0732 -0.0965,0.15889 0.12116,0.54189 0.1422,0.25025 0.48836,0.90604 0.76924,1.45731 l 0.5107,1.00233 -0.7736,0.10645 c -1.6592,0.22829 -3.55707,0.32096 -5.45106,0.26618 -2.88585,-0.0835 -4.89019,-0.35206 -7.58621,-1.01657 -0.82234,-0.20269 -1.51419,-0.36852 -1.53744,-0.36852 -0.0233,0 -0.0423,0.0604 -0.0423,0.13414 0,0.20476 1.35013,0.59634 3.41864,0.99153 2.80697,0.53627 5.68403,0.72133 8.53809,0.56707 4.60688,-0.249 9.15383,-1.38209 13.24939,-3.3493 l 1.44087,-0.69209 0.36648,0.63098 c 0.20157,0.34704 0.34512,1.04632 0.48234,1.31918 0.13722,0.27285 0.0102,0.44179 -0.005,0.42092 -0.3085,-0.43431 -1.35703,-0.61379 -1.67399,-1.24148 -0.31695,-0.62769 1.01671,-1.17083 1.03434,-1.18658 0.0176,-0.0157 -0.71963,0.3142 -0.43379,0.14113 0.28584,-0.17308 1.51945,-0.83268 1.53677,-0.87371 0.0173,-0.041 2.38453,-1.56963 2.4532,-1.56963 0.13798,0 -0.36315,0.29355 -0.11138,0.0415 0.0872,-0.0873 0.518,-0.39501 0.518,-0.39501 0.0663,0.0129 0.79949,-0.56804 1.42676,-1.08907 0.79306,-0.65874 2.84654,-2.55916 4.47806,-4.24685 0.1774,-0.18351 0.32254,-0.35885 0.32254,-0.38966 0,-0.0308 0.17009,-0.24209 0.37798,-0.46952 0.20788,-0.22742 0.37797,-0.44006 0.37797,-0.47253 0,-0.0325 0.14788,-0.22048 0.32862,-0.41781 l 0.32862,-0.35877 0.4982,0.26601 c 1.11255,0.59402 2.9273,1.69155 2.9667,1.79421 0.0573,0.14919 -1.83389,3.42159 -2.86327,4.70362 -1.67127,2.08143 -4.3427,4.27034 -6.48142,6.01963 -1.02785,0.84068 -3.36557,2.24066 -3.34366,2.15688 -0.14915,0.0626 -0.98897,0.64716 -1.25528,0.11445 -0.2663,-0.53271 -0.3534,-0.96857 -0.37731,-0.96857 -0.0239,0 0.77754,-0.77063 1.0358,-0.24252 0.25825,0.5281 0.46955,1.01207 0.46955,1.07548 0,0.14918 -2.45501,1.40301 -3.94355,2.01405 -3.18632,1.30798 -6.68403,2.16313 -10.12366,2.47513 -1.6139,0.14639 -5.78629,0.0654 -7.28845,-0.14143 -2.41028,-0.3319 -4.61548,-0.8511 -6.88604,-1.62125 -0.85092,-0.28863 -1.60569,-0.54725 -1.67727,-0.57471 -0.078,-0.0299 -0.13014,0.0123 -0.13014,0.10527 0,0.19263 0.41292,0.37304 2.16289,0.94497 3.86618,1.26356 8.11526,1.86765 12.05847,1.71437 1.51489,-0.0589 3.01012,-0.18284 3.54705,-0.29402 0.20884,-0.0433 0.25625,-0.004 0.3677,0.30779 0.0704,0.1966 0.15168,0.42123 0.18067,0.49919 0.0292,0.0786 -0.0839,0.0271 -0.25389,-0.11563 -0.79346,-0.66606 -1.94778,-0.49532 -2.48068,0.36693 -0.25504,0.41266 -0.22323,1.2757 0.0612,1.6601 0.44342,0.59932 1.45779,0.84141 2.11074,0.50375 0.40168,-0.20771 0.76047,-0.7168 0.84554,-1.19973 0.0716,-0.40664 0.0811,-0.38665 0.69844,1.47766 1.20824,3.6487 1.90554,7.11117 2.29786,11.41016 0.0421,0.46076 0.0955,0.63783 0.19242,0.63783 0.16497,0 0.17367,-0.43743 0.036,-1.809 -0.42956,-4.27946 -1.5296,-8.85435 -3.06546,-12.7488 -0.27121,-0.68771 -0.37438,-1.05596 -0.30155,-1.07637 0.0609,-0.0171 0.77337,-0.16227 1.58331,-0.32268 2.98187,-0.59054 5.86761,-1.61149 8.90421,-3.15022 0.71796,-0.36382 1.32098,-0.6459 1.34003,-0.62685 0.0679,0.0679 1.11561,2.51273 1.67394,3.90617 0.88538,2.20967 1.75734,4.64539 2.85845,7.98475 1.61894,4.90979 1.95461,6.46813 1.95529,9.07734 5.3e-4,1.73011 -0.17306,2.90437 -0.64038,4.33395 -2.20536,6.74648 -10.05323,11.08048 -21.91087,12.10033 -1.18916,0.10228 -5.86352,0.19574 -6.75633,0.13509 z m 12.099,-23.14457 c 0.3295,-0.17039 0.6577,-0.76566 0.6577,-1.19288 0,-0.69698 -0.60277,-1.4046 -1.19546,-1.40341 -0.34606,5.3e-4 -0.79861,0.37552 -0.99822,0.82675 -0.1743,0.39404 -0.18356,0.49226 -0.0822,0.87155 0.23237,0.86944 0.92746,1.25517 1.61818,0.89799 z"
       id="path207"
       inkscape:connector-curvature="0"
       sodipodi:nodetypes="csssssssscccccsssssssscsssccccscsccsssccssssccscscccccssccscccccsccsssccccsscsscccsccsc" />
    <path
       style="fill:#93a7ac;stroke:none;stroke-width:0.02243016;stroke-miterlimit:4;stroke-dasharray:none;stroke-opacity:0.54901961"
       d=""
       id="path1024"
       inkscape:connector-curvature="0"
       transform="scale(0.26458333)" />
    <path
       style="fill:#93a7ac;stroke:none;stroke-width:0.02243016;stroke-miterlimit:4;stroke-dasharray:none;stroke-opacity:0.54901961"
       d=""
       id="path1026"
       inkscape:connector-curvature="0"
       transform="scale(0.26458333)" />
    <path
       style="fill:#93a7ac;stroke:none;stroke-width:0.02243016;stroke-miterlimit:4;stroke-dasharray:none;stroke-opacity:0.54901961"
       d="m 472.13269,521.01965 c -0.0487,-0.0781 -0.29554,-0.49719 -0.54844,-0.93124 -0.2529,-0.43405 -0.49886,-0.84978 -0.54659,-0.92384 -0.0819,-0.12711 -0.0668,-0.14592 0.26927,-0.3356 0.36946,-0.20851 0.55367,-0.2099 0.27919,-0.002 l -0.15689,0.11878 0.14853,0.42933 c 0.0817,0.23613 0.28767,0.72473 0.45773,1.08577 0.17005,0.36104 0.30919,0.66646 0.30919,0.6787 0,0.077 -0.13777,-8.5e-4 -0.21199,-0.1198 z"
       id="path1028"
       inkscape:connector-curvature="0"
       transform="scale(0.26458333)" />
    <path
       style="fill:#93a7ac;stroke:none;stroke-width:0.02243016;stroke-miterlimit:4;stroke-dasharray:none;stroke-opacity:0.54901961"
       d="m 472.31052,521.3469 c -0.0229,-0.037 -0.0265,-0.0825 -0.008,-0.10102 0.0452,-0.0452 0.16836,0.0345 0.16836,0.10895 0,0.0807 -0.10899,0.0753 -0.16043,-0.008 z"
       id="path1030"
       inkscape:connector-curvature="0"
       transform="scale(0.26458333)" />
    <path
       style="fill:#93a7ac;stroke:none;stroke-width:0.02243016;stroke-miterlimit:4;stroke-dasharray:none;stroke-opacity:0.54901961"
       d=""
       id="path1034"
       inkscape:connector-curvature="0"
       transform="scale(0.26458333)" />
    <path
       style="fill:#ffeeaa;stroke:none;stroke-width:0.04747717;stroke-miterlimit:4;stroke-dasharray:none;stroke-opacity:0.54901961"
       d="m 157.0552,140.88011 c -1.31303,-2.12573 -1.97219,-3.1082 -2.99533,-4.46455 -4.67247,-6.19417 -10.88775,-11.09018 -18.03465,-14.20656 l -0.95687,-0.41724 -0.59927,1.02496 c 0.54149,-0.84021 1.72635,-3.92176 1.72728,-4.17009 2.6e-4,-0.0919 0.56353,-2.30521 0.56353,-2.30521 0.0219,-0.026 1.44548,0.79831 2.05464,1.22276 6.74928,4.70281 14.78695,7.97682 23.04983,9.38898 2.43477,0.41611 5.92751,0.79734 7.30512,0.79734 0.92966,0 0.87947,0.12977 -0.18183,0.47012 -1.01948,0.32694 -2.94301,1.30563 -4.14064,2.10675 -1.2897,0.86271 -3.64472,3.21748 -4.50625,4.50577 -1.14164,1.70713 -2.04606,3.70634 -2.52401,5.57925 -0.13599,0.53287 -0.29331,0.96885 -0.34961,0.96885 -0.0563,0 -0.24165,-0.22551 -0.4119,-0.50113 z"
       id="path1042"
       inkscape:connector-curvature="0"
       sodipodi:nodetypes="csscccscssccccscc" />
    <path
       style="fill:#93a7ac;stroke:none;stroke-width:0.02510434;stroke-miterlimit:4;stroke-dasharray:none;stroke-opacity:0.54901961"
       d="m 117.30383,138.45865 c -0.0433,-0.0437 0.2462,0.39875 0,0 -0.39305,-0.63661 -0.96111,-1.542 -0.86863,-1.63305 0.058,-0.057 0.5787,-0.27183 1.15724,-0.47735 2.35932,-0.83809 5.14809,-2.13991 7.13963,-3.33281 1.64253,-0.98385 1.92063,-1.08873 2.10377,-0.79344 0.0496,0.0801 0.16776,0.20171 0.2624,0.27018 0.26768,0.19368 1.74417,1.74352 2.06356,1.98656 0.0545,0.0837 0.0335,-0.0301 0,0 0.33952,0.50142 -11.00131,4.78759 -11.742,4.05727 -0.0137,-0.0134 -0.0727,-0.0337 -0.11598,-0.0773 z"
       id="path1080"
       inkscape:connector-curvature="0"
       sodipodi:nodetypes="ccsccccccscc" />
  </g>
  <g
     inkscape:label="Layer 1"
     inkscape:groupmode="layer"
     id="layer1"
     style="display:inline">
    <ellipse
       id="path10"
       cx="104.6994"
       cy="111.98066"
       rx="26.458332"
       ry="26.269344"
       style="fill:#d7e3f4;stroke-width:0.26458332" />
    <ellipse
       style="fill:#003380;stroke-width:0.26458332"
       id="path14"
       cx="65.828201"
       cy="107.20727"
       rx="13.76438"
       ry="14.566189" />
    <ellipse
       style="fill:#003380;stroke-width:0.26458332"
       id="path14-9"
       cx="93.624245"
       cy="79.277611"
       rx="13.764381"
       ry="14.56619" />
    <path
       style="fill:#afdde9;stroke-width:0.3102836"
       d="m 136.65464,111.68404 c 1.32648,14.5159 -13.6114,26.39287 -30.40191,26.39287 -16.790515,0 -30.401915,-11.81649 -30.401912,-26.39287 -3e-6,-14.576376 13.965825,-29.824546 30.401912,-26.392866 15.69799,3.27758 29.3565,14.952736 30.40191,26.392866 z"
       id="path31"
       inkscape:connector-curvature="0"
       sodipodi:nodetypes="sssss" />
    <path
       style="fill:none;stroke:#000000;stroke-width:0.29438552px;stroke-linecap:butt;stroke-linejoin:miter;stroke-opacity:1"
       d="m 104.30625,111.61821 c -1.15397,2.41478 -2.91398,4.53705 -5.073566,6.11787 -1.146084,0.83893 -2.402475,1.52699 -3.726587,2.04084"
       id="path36"
       inkscape:connector-curvature="0"
       inkscape:path-effect="#path-effect38"
       inkscape:original-d="m 104.30625,111.61821 c -1.69093,2.03895 -3.38212,4.07825 -5.073566,6.11787 -1.691445,2.03963 -1.905051,1.98382 -3.726587,2.04084"
       sodipodi:nodetypes="ccc" />
    <path
       style="fill:none;stroke:#000000;stroke-width:0.26458332px;stroke-linecap:butt;stroke-linejoin:miter;stroke-opacity:1"
       d="m 119.04041,95.418424 c -0.48166,2.514388 -1.82007,4.856596 -3.74178,6.548096 -0.95055,0.83668 -2.03863,1.51673 -3.20723,2.00453"
       id="path36-6"
       inkscape:connector-curvature="0"
       inkscape:path-effect="#path-effect50"
       inkscape:original-d="m 119.04041,95.418424 c -1.73699,1.60335 -2.00426,4.944216 -3.74178,6.548096 -1.73751,1.60388 -1.33608,1.95969 -3.20723,2.00453"
       sodipodi:nodetypes="ccc" />
    <path
       style="fill:#53676c;stroke-width:0.26458332"
       d="m 130.10144,111.45591 c 0,1.43919 -0.0719,5.01548 -2.43368,5.01548 -2.36174,0 -4.32356,0.72319 -4.32355,-0.716 0,-1.43918 1.35526,-1.74694 2.62266,-3.7398 0.99157,-1.55915 4.13456,-1.99886 4.13457,-0.55968 z"
       id="path60"
       inkscape:connector-curvature="0"
       sodipodi:nodetypes="cscsc" />
    <path
       style="fill:none;stroke:#000000;stroke-width:0.26458332px;stroke-linecap:butt;stroke-linejoin:miter;stroke-opacity:1"
       d="m 129.83927,104.80185 c 0.26739,-3.46161 1.64285,-6.829133 3.87541,-9.488066 1.56493,-1.863802 3.54111,-3.38041 5.74629,-4.40995"
       id="path83"
       inkscape:connector-curvature="0"
       inkscape:path-effect="#path-effect85"
       inkscape:original-d="m 129.83927,104.80185 c 1.29207,-3.2075 2.58387,-6.325636 3.87541,-9.488066 1.29153,-3.16243 3.83112,-2.94023 5.74629,-4.40995" />
    <path
       style="fill:none;stroke:#000000;stroke-width:0.26458332px;stroke-linecap:butt;stroke-linejoin:miter;stroke-opacity:1"
       d="m 129.83927,104.80185 c 1.6911,-2.52423 3.7724,-4.78651 6.1472,-6.681736 2.30163,-1.836829 4.87821,-3.32853 7.61718,-4.40995"
       id="path87"
       inkscape:connector-curvature="0"
       inkscape:path-effect="#path-effect89"
       inkscape:original-d="m 129.83927,104.80185 c 2.04933,-2.22751 4.0984,-4.45476 6.1472,-6.681736 2.0488,-2.22698 5.07838,-2.94023 7.61718,-4.40995" />
    <path
       style="fill:none;stroke:#000000;stroke-width:0.26458332px;stroke-linecap:butt;stroke-linejoin:miter;stroke-opacity:1"
       d="m 118.88122,120.83802 c -4.19257,1.01513 -8.17457,2.8917 -11.62623,5.47902 -3.32752,2.49427 -6.15989,5.64642 -8.285354,9.2208"
       id="path91"
       inkscape:connector-curvature="0"
       inkscape:path-effect="#path-effect93"
       inkscape:original-d="m 118.88122,120.83802 c -3.87515,1.82608 -7.75055,3.65242 -11.62623,5.47902 -3.87567,1.82661 -5.52331,6.14694 -8.285354,9.2208" />
    <path
       style="fill:none;stroke:#000000;stroke-width:0.26458332px;stroke-linecap:butt;stroke-linejoin:miter;stroke-opacity:1"
       d="m 118.88122,120.83802 c -3.49778,1.26133 -6.63415,3.50828 -8.95353,6.41447 -1.63837,2.05289 -2.87155,4.42789 -3.60814,6.94901"
       id="path95"
       inkscape:connector-curvature="0"
       inkscape:path-effect="#path-effect97"
       inkscape:original-d="m 118.88122,120.83802 c -2.89516,2.0488 -5.96876,4.27605 -8.95353,6.41447 -2.98478,2.13842 -2.40516,4.63241 -3.60814,6.94901" />
    <path
       style="fill:#93a7ac;stroke:none;stroke-width:0.02098425;stroke-miterlimit:4;stroke-dasharray:none;stroke-opacity:0.54901961"
       d="m 132.78064,143.7442 c -0.10178,-0.13816 -0.18056,-0.27217 -0.17496,-0.29779 0.006,-0.0257 -0.0231,-0.12177 -0.0638,-0.21365 -0.0747,-0.1687 -0.0825,-0.20289 -0.0969,-0.42156 -0.005,-0.0672 -0.0328,-0.10116 -0.0637,-0.0767 -0.0306,0.0243 -0.0514,0.003 -0.046,-0.0462 0.0213,-0.19821 -0.006,-0.32981 -0.0583,-0.28792 -0.0306,0.0242 -0.0503,0.003 -0.044,-0.0462 0.007,-0.0496 -9.6e-4,-0.13533 -0.0176,-0.19044 -0.0161,-0.0552 -0.0472,-0.16037 -0.069,-0.23389 -0.0217,-0.0736 -0.0438,-0.14865 -0.0487,-0.16703 -0.005,-0.0184 -0.0246,-0.086 -0.0437,-0.15036 l -0.0693,-0.23385 c -0.0189,-0.0643 -0.0396,-0.13944 -0.0456,-0.16705 -0.007,-0.0275 -0.0157,-0.0577 -0.0215,-0.0668 -0.006,-0.0101 -0.021,-0.0905 -0.0339,-0.18087 -0.013,-0.0902 -0.0523,-0.18754 -0.0875,-0.21613 -0.0351,-0.0285 -0.048,-0.0524 -0.0285,-0.0531 0.0195,-3.8e-4 0.0149,-0.0926 -0.01,-0.20463 -0.0401,-0.17908 -0.0302,-0.21256 0.0819,-0.27799 0.0702,-0.0409 0.12759,-0.10146 0.12759,-0.1345 0,-0.0332 0.0208,-0.0437 0.046,-0.0236 0.0253,0.0201 0.1073,-0.0253 0.18224,-0.10065 0.0749,-0.0753 0.15988,-0.11821 0.18888,-0.0954 0.029,0.0229 0.0527,0.0101 0.0527,-0.0292 0,-0.0388 0.0361,-0.0707 0.0805,-0.0707 0.0443,0 0.16756,-0.0568 0.2741,-0.12644 0.10653,-0.0696 0.21138,-0.12955 0.23297,-0.13336 0.0593,-0.0102 0.45401,-0.24149 1.28251,-0.75076 0.4111,-0.25268 0.7694,-0.45943 0.79622,-0.45943 0.0268,0 0.0488,-0.035 0.0488,-0.0779 0,-0.0428 0.0157,-0.0578 0.0349,-0.0333 0.0192,0.0247 0.0285,0.004 0.11747,-0.0472 0.089,-0.0516 0.22353,-0.18957 0.39582,-0.30907 0.40236,-0.27903 1.66534,-1.33535 1.68812,-1.41192 0.01,-0.0322 0.0399,-0.0583 0.0675,-0.0583 0.0275,0 0.0784,-0.0301 0.11312,-0.0669 0.0346,-0.0367 0.21481,-0.20675 0.40029,-0.37766 0.18549,-0.1709 0.49092,-0.47446 0.67874,-0.67455 0.45893,-0.48891 0.52124,-0.55134 0.5503,-0.55134 0.0743,0 2.19518,-2.67 2.68888,-3.38503 0.37596,-0.54452 0.64883,-0.96563 0.70133,-1.08228 0.0267,-0.0596 0.0934,-0.16871 0.14831,-0.24266 0.0549,-0.074 0.27909,-0.45013 0.49846,-0.83601 0.21938,-0.38588 0.42284,-0.73814 0.45212,-0.78279 0.0293,-0.0447 0.0826,-0.12616 0.11852,-0.18095 0.0359,-0.0549 0.0652,-0.12389 0.0652,-0.15329 0,-0.0294 0.0493,-0.0929 0.10952,-0.14113 0.0603,-0.0481 0.0963,-0.1045 0.0802,-0.12517 -0.0437,-0.0558 0.18782,-0.26725 0.2911,-0.26599 0.0491,7.5e-4 0.10112,0.0412 0.11584,0.0902 0.0146,0.0489 0.0519,0.0891 0.0827,0.0891 0.0308,0 0.0845,0.031 0.11911,0.069 0.0346,0.0378 0.21577,0.21048 0.40243,0.38336 0.18665,0.17288 0.36286,0.34651 0.39158,0.38583 0.0288,0.0393 0.14619,0.15947 0.26104,0.267 0.46344,0.43388 1.00098,1.11565 0.91117,1.15563 -0.0277,0.0128 -0.0371,0.0499 -0.0208,0.0836 0.0163,0.0337 -9.5e-4,0.0616 -0.0388,0.0621 -0.0496,7.3e-4 -0.0469,0.0188 0.01,0.0657 0.0669,0.0553 0.065,0.0648 -0.0131,0.0657 -0.0502,3.8e-4 -0.0914,0.0324 -0.0914,0.0706 0,0.0384 -0.0461,0.13308 -0.10267,0.21056 -0.0565,0.0775 -0.0918,0.16334 -0.0785,0.19068 0.0132,0.0273 -0.0144,0.0686 -0.0614,0.0916 -0.0471,0.023 -0.0729,0.0581 -0.0574,0.078 0.0155,0.0198 -0.0282,0.11371 -0.0969,0.20864 -0.0688,0.095 -0.12505,0.21018 -0.12505,0.256 0,0.0459 -0.0352,0.10064 -0.0783,0.12176 -0.0431,0.021 -0.0783,0.0846 -0.0783,0.14072 0,0.0563 -0.0236,0.10241 -0.0523,0.10241 -0.0288,0 -0.0522,0.0462 -0.0522,0.10242 0,0.0563 -0.0352,0.11964 -0.0783,0.14072 -0.0431,0.021 -0.0783,0.0771 -0.0783,0.12444 0,0.0473 -0.0352,0.1033 -0.0783,0.12446 -0.0431,0.021 -0.0783,0.0777 -0.0783,0.12587 0,0.0481 -0.0411,0.13464 -0.0914,0.19216 -0.11505,0.13181 -0.24369,0.3711 -0.21642,0.40262 0.0114,0.0128 -0.0792,0.14406 -0.20117,0.29098 -0.12199,0.14691 -0.22185,0.3047 -0.2219,0.35063 -5e-5,0.046 -0.0185,0.0836 -0.0408,0.0836 -0.0224,0 -0.21336,0.26924 -0.42432,0.59832 -0.41165,0.64212 -1.9508,2.62667 -2.38041,3.06927 -0.14357,0.1479 -0.31051,0.33037 -0.37097,0.40546 -0.0604,0.0751 -0.13626,0.13663 -0.16848,0.13663 -0.0322,0 -0.0971,0.0751 -0.14408,0.16703 -0.0471,0.0919 -0.11787,0.16705 -0.15739,0.16705 -0.0396,0 -0.10123,0.0602 -0.13709,0.13365 -0.0359,0.0736 -0.0946,0.13363 -0.13052,0.13363 -0.0359,0 -0.0947,0.0602 -0.13052,0.13366 -0.0359,0.0736 -0.0956,0.13364 -0.13262,0.13364 -0.0371,0 -0.081,0.0452 -0.0974,0.10034 -0.0165,0.0552 -0.0616,0.10034 -0.10024,0.10034 -0.0386,0 -0.0889,0.0389 -0.11189,0.0864 -0.023,0.0476 -0.24146,0.28058 -0.48554,0.51784 -0.24408,0.23725 -0.46104,0.46144 -0.48214,0.49817 -0.0212,0.0367 -0.0387,0.0423 -0.0392,0.0128 -2.9e-4,-0.0299 -0.069,0.007 -0.15243,0.0836 -0.0834,0.076 -0.17739,0.13818 -0.20885,0.13818 -0.0315,0 -0.0573,0.0301 -0.0573,0.067 0,0.0367 -0.0352,0.0668 -0.0783,0.0668 -0.0431,0 -0.0783,0.0319 -0.0783,0.0707 0,0.0388 -0.0199,0.0551 -0.0444,0.0358 -0.0243,-0.0193 -0.0938,0.024 -0.15444,0.0964 -0.0606,0.0722 -0.13462,0.13139 -0.16454,0.13139 -0.0299,0 -0.0544,0.0301 -0.0544,0.0668 0,0.0367 -0.0224,0.0668 -0.0499,0.0668 -0.0472,0 -0.37631,0.25768 -0.5058,0.39594 -0.0329,0.035 -0.0739,0.0454 -0.0914,0.0232 -0.0175,-0.0223 -0.0317,-0.009 -0.0317,0.0323 0,0.04 -0.0822,0.10747 -0.18274,0.14996 -0.10045,0.0424 -0.18273,0.10136 -0.18273,0.13069 0,0.0294 -0.0725,0.0919 -0.16109,0.13887 -0.0887,0.0469 -0.18844,0.11823 -0.22189,0.15846 -0.0786,0.0944 -1.0886,0.72023 -1.15724,0.7171 -0.0288,-0.001 -0.14618,0.0681 -0.26105,0.15425 -0.11486,0.0861 -0.22058,0.15732 -0.23493,0.15814 -0.1239,0.007 -0.30685,0.10538 -0.28409,0.15243 0.0157,0.0324 -0.008,0.0411 -0.0526,0.0191 -0.0446,-0.0219 -0.081,-0.0128 -0.081,0.0199 0,0.0328 -0.0507,0.0646 -0.11278,0.0706 -0.0619,0.005 -0.13214,0.0499 -0.15582,0.0977 -0.0237,0.0478 -0.0435,0.0632 -0.0439,0.0344 -5.9e-4,-0.0288 -0.0537,-0.015 -0.11827,0.0309 -0.0647,0.0458 -0.1351,0.077 -0.15663,0.0692 -0.0216,-0.009 -0.0392,0.0158 -0.0392,0.0527 0,0.0367 -0.0178,0.0632 -0.0392,0.0591 -0.10531,-0.0214 -0.22119,0.016 -0.28343,0.0915 -0.0379,0.046 -0.0925,0.0844 -0.12121,0.0855 -0.15091,0.005 -0.38863,0.11696 -0.3632,0.16965 0.0162,0.0334 -0.01,0.0416 -0.0571,0.0183 -0.0484,-0.0237 -0.10553,-0.003 -0.12994,0.0479 -0.0333,0.0691 -0.0875,0.0309 -0.22876,-0.16083 z"
       id="path1156"
       inkscape:connector-curvature="0"
       sodipodi:nodetypes="ccccccccccccccccccccssccsscccssssccscscsccccccscsccscccccscccscccscssssssscsccccscccscscscscscscccssssccssscsscscccccccscccccscccccccc" />
    <ellipse
       style="fill:#c8ab37;stroke:none;stroke-width:0.094;stroke-miterlimit:4;stroke-dasharray:none;stroke-opacity:0.54901961"
       id="path1203"
       cx="139.09525"
       cy="120.15439"
       rx="1.1339285"
       ry="0.8976934" />
    <ellipse
       style="fill:#c8ab37;stroke:none;stroke-width:0.094;stroke-miterlimit:4;stroke-dasharray:none;stroke-opacity:0.54901961"
       id="path1205"
       cx="143.96167"
       cy="123.17819"
       rx="1.0866816"
       ry="0.8976934" />
    <ellipse
       style="fill:#c8ab37;stroke:none;stroke-width:0.094;stroke-miterlimit:4;stroke-dasharray:none;stroke-opacity:0.54901961"
       id="path1207"
       cx="148.73364"
       cy="125.63505"
       rx="1.1339285"
       ry="0.80319941" />
    <ellipse
       style="fill:#c8ab37;stroke:none;stroke-width:0.094;stroke-miterlimit:4;stroke-dasharray:none;stroke-opacity:0.54901961"
       id="path1209"
       cx="153.17485"
       cy="127.85565"
       rx="1.2284226"
       ry="0.94494045" />
    <ellipse
       style="fill:#c8ab37;stroke:none;stroke-width:0.094;stroke-miterlimit:4;stroke-dasharray:none;stroke-opacity:0.54901961"
       id="path1211"
       cx="158.08853"
       cy="129.84003"
       rx="1.4174107"
       ry="1.0394346" />
    <path
       style="fill:#504416;stroke:none;stroke-width:0.03357143;stroke-miterlimit:4;stroke-dasharray:none;stroke-opacity:0.54901961"
       d="m 159.07587,140.79593 c 0.44675,-1.61214 1.36879,-3.59967 2.36178,-5.09101 0.65057,-0.97706 3.20344,-3.63255 4.15229,-4.3192 0.68214,-0.49363 2.36499,-1.46146 3.18034,-1.82905 0.61919,-0.27915 1.54713,-0.65119 1.62445,-0.65129 0.0206,-3e-5 0.0122,0.60589 -0.0188,1.34649 -0.12701,3.03864 -1.31241,5.75927 -3.4226,7.85526 -1.77219,1.76026 -3.93051,2.83658 -6.47075,3.22687 -0.49373,0.0759 -1.05444,0.13818 -1.24602,0.13848 l -0.34833,5.3e-4 z"
       id="path1217"
       inkscape:connector-curvature="0" />
    <path
       style="fill:#165044;stroke:none;stroke-width:0.094;stroke-miterlimit:4;stroke-dasharray:none;stroke-opacity:0.54901961"
       d="m 110.27456,201.24918 c -10e-6,2.59895 -3.75216,4.70582 -8.38068,4.70582 -4.628514,0 -8.380667,-2.10687 -8.380674,-4.70582 -3e-6,-2.59896 5.358552,-4.94206 9.987074,-4.94207 4.62852,0 6.77428,2.34311 6.77428,4.94207 z"
       id="path1221"
       inkscape:connector-curvature="0"
       sodipodi:nodetypes="cscsc" />
    <path
       style="fill:#165044;stroke:none;stroke-width:0.094;stroke-miterlimit:4;stroke-dasharray:none;stroke-opacity:0.54901961"
       d="m 130.87425,201.18303 c 0,2.55719 -3.55374,4.63021 -7.9375,4.63021 -4.38376,0 -7.9375,-2.07302 -7.9375,-4.63021 0,-2.55719 3.88447,-4.77195 8.26823,-4.77195 4.38376,0 7.60677,2.21476 7.60677,4.77195 z"
       id="path1223"
       inkscape:connector-curvature="0"
       sodipodi:nodetypes="cscsc" />
  </g>
</svg>
