<?xml version="1.0" encoding="UTF-8" standalone="no"?>
<!-- Created with Inkscape (http://www.inkscape.org/) -->

<svg
   xmlns:dc="http://purl.org/dc/elements/1.1/"
   xmlns:cc="http://creativecommons.org/ns#"
   xmlns:rdf="http://www.w3.org/1999/02/22-rdf-syntax-ns#"
   xmlns:svg="http://www.w3.org/2000/svg"
   xmlns="http://www.w3.org/2000/svg"
   xmlns:sodipodi="http://sodipodi.sourceforge.net/DTD/sodipodi-0.dtd"
   xmlns:inkscape="http://www.inkscape.org/namespaces/inkscape"
   width="210mm"
   height="297mm"
   viewBox="0 0 744.09448819 1052.3622047"
   id="svg2"
   version="1.1"
   inkscape:version="0.91 r13725"
   sodipodi:docname="mouseflute.svg">
  <defs
     id="defs4">
    <inkscape:perspective
       sodipodi:type="inkscape:persp3d"
       inkscape:vp_x="0 : 526.1811 : 1"
       inkscape:vp_y="0 : 1000 : 0"
       inkscape:vp_z="744.09449 : 526.1811 : 1"
       inkscape:persp3d-origin="372.04724 : 350.7874 : 1"
       id="perspective3521" />
  </defs>
  <sodipodi:namedview
     id="base"
     pagecolor="#ffffff"
     bordercolor="#666666"
     borderopacity="1.0"
     inkscape:pageopacity="0.0"
     inkscape:pageshadow="2"
     inkscape:zoom="0.49497475"
     inkscape:cx="375"
     inkscape:cy="520"
     inkscape:document-units="px"
     inkscape:current-layer="layer1"
     showgrid="false"
     inkscape:window-width="1440"
     inkscape:window-height="772"
     inkscape:window-x="0"
     inkscape:window-y="1"
     inkscape:window-maximized="1" />
  <metadata
     id="metadata7">
    <rdf:RDF>
      <cc:Work
         rdf:about="">
        <dc:format>image/svg+xml</dc:format>
        <dc:type
           rdf:resource="http://purl.org/dc/dcmitype/StillImage" />
        <dc:title />
      </cc:Work>
    </rdf:RDF>
  </metadata>
  <g
     inkscape:label="Layer 1"
     inkscape:groupmode="layer"
     id="layer1">
    <ellipse
       style="fill:#ffccaa"
       id="path3426"
       cx="161.6091"
       cy="145.44704"
       rx="126.43729"
       ry="96.754173" />
    <ellipse
       style="fill:#ffccaa"
       id="path3428"
       cx="459.24728"
       cy="131.27516"
       rx="112.46846"
       ry="95.887596" />
    <ellipse
       style="fill:#ffccaa"
       id="path3432"
       cx="317.18796"
       cy="300.80875"
       rx="183.84776"
       ry="169.70563" />
    <ellipse
       style="fill:#ff9955"
       id="path3438"
       cx="460.62955"
       cy="143.22488"
       rx="82.832512"
       ry="62.629459" />
    <ellipse
       style="fill:#ff9955"
       id="path3438-0"
       cx="159.60406"
       cy="158.3772"
       rx="85.862968"
       ry="59.599003" />
    <ellipse
       style="fill:#ffffff"
       id="path3463"
       cx="387.89859"
       cy="264.44318"
       rx="50.507626"
       ry="70.710678" />
    <ellipse
       ry="70.710678"
       rx="50.507626"
       cy="272.52444"
       cx="230.31479"
       id="ellipse3465"
       style="fill:#ffffff" />
    <ellipse
       style="fill:#000000"
       id="path3467"
       cx="230.31479"
       cy="277.5752"
       rx="26.263966"
       ry="35.355339" />
    <ellipse
       style="fill:#000000"
       id="path3469"
       cx="389.91888"
       cy="273.53461"
       rx="28.284271"
       ry="37.375645" />
    <rect
       style="fill:#f9f9f9"
       id="rect3471"
       width="42.426407"
       height="64.649765"
       x="266.68027"
       y="371.51938" />
    <rect
       y="371.51941"
       x="319.20819"
       height="64.649765"
       width="42.426407"
       id="rect3473"
       style="fill:#f9f9f9" />
    <rect
       style="fill:#ff0000"
       id="rect3475"
       width="224.25386"
       height="16.162441"
       x="200.01021"
       y="357.37726" />
    <path
       style="fill:none;fill-rule:evenodd;stroke:#000000;stroke-width:1px;stroke-linecap:butt;stroke-linejoin:miter;stroke-opacity:1"
       d="m 440.42651,371.51939 c 12.7704,-0.47171 25.62592,0.67157 38.3858,0 7.42805,-0.39095 15.00711,-0.21624 22.22335,-2.02031 6.43454,-1.60863 12.00117,-5.67727 18.18275,-8.08122 7.80039,-3.03348 26.46735,-8.18291 34.34518,-12.12183 3.0117,-1.50584 5.13778,-4.42567 8.08122,-6.06091 6.5111,-3.61728 10.99739,-2.91616 16.16245,-8.08122 4.64294,-4.64295 -0.52374,-4.04061 4.04061,-4.04061"
       id="path3477"
       inkscape:connector-curvature="0" />
    <path
       style="fill:none;fill-rule:evenodd;stroke:#000000;stroke-width:1px;stroke-linecap:butt;stroke-linejoin:miter;stroke-opacity:1"
       d="m 426.28437,393.74275 c 15.48901,0 30.97802,0 46.46702,0 4.71405,0 9.44198,0.36155 14.14214,0 7.15515,-0.5504 13.37087,-2.33257 20.20305,-4.04061 2.69374,-0.67344 5.38748,-1.34687 8.08122,-2.02031 2.0203,-1.34687 3.75741,-3.27278 6.06091,-4.04061 1.91663,-0.63888 4.10093,0.49 6.06092,0 9.98598,-2.4965 -4.22794,-2.02031 4.04061,-2.02031"
       id="path3479"
       inkscape:connector-curvature="0" />
    <path
       style="fill:none;fill-rule:evenodd;stroke:#000000;stroke-width:1px;stroke-linecap:butt;stroke-linejoin:miter;stroke-opacity:1"
       d="m 165.66502,361.41786 c -13.4687,0 -26.9374,0 -40.4061,0 -5.38748,0 -10.84827,0.8857 -16.16245,0 -2.97071,-0.49512 -5.38748,-2.69374 -8.08122,-4.04061 -2.693736,-1.34687 -5.49871,-2.4911 -8.081216,-4.04061 -4.164165,-2.4985 -8.08122,-5.38748 -12.12183,-8.08122 -2.020306,-1.34687 -3.889153,-2.95473 -6.060916,-4.04061 -0.602338,-0.30117 -1.544114,0.47619 -2.020305,0 -2.69374,-2.69374 3.367175,-2.0203 -2.020305,-2.0203"
       id="path3481"
       inkscape:connector-curvature="0" />
    <path
       style="fill:none;fill-rule:evenodd;stroke:#000000;stroke-width:1px;stroke-linecap:butt;stroke-linejoin:miter;stroke-opacity:1"
       d="m 189.90868,389.70214 c -12.12183,0 -24.24366,0 -36.36549,0 -3.36718,0 -6.78017,0.55356 -10.10153,0 -4.83597,-0.806 -9.42809,-2.69374 -14.14213,-4.04061 -4.71405,-1.34687 -9.52508,-2.39166 -14.14214,-4.04062 -18.348938,-6.55319 -10.5187,-5.25935 -28.284271,-14.14213 -4.587274,-2.29364 -9.473113,-3.93863 -14.142136,-6.06092 -2.741744,-1.24624 -5.466338,-2.54639 -8.08122,-4.04061 -2.108185,-1.20467 -3.806477,-3.13883 -6.060915,-4.04061 -1.250538,-0.50021 -2.919947,0.74711 -4.040611,0 -6.964423,-4.64295 1.561932,-4.04061 -4.04061,-4.04061"
       id="path3483"
       inkscape:connector-curvature="0" />
    <ellipse
       style="fill:#ffccaa"
       id="path3487"
       cx="337.39096"
       cy="637.18951"
       rx="161.6244"
       ry="201.02037" />
    <ellipse
       style="fill:#ff9955"
       id="path3489"
       cx="335.37067"
       cy="644.26062"
       rx="94.954346"
       ry="143.44167" />
    <ellipse
       style="fill:#ff9955"
       id="path3491"
       cx="216.17264"
       cy="824.06775"
       rx="50.507626"
       ry="32.324883" />
    <ellipse
       ry="32.324883"
       rx="50.507626"
       cy="824.06775"
       cx="458.60925"
       id="ellipse3493"
       style="fill:#ff9955" />
    <ellipse
       style="fill:#ff9955"
       id="path3495"
       cx="132.32999"
       cy="657.39258"
       rx="51.51778"
       ry="29.294424" />
    <path
       style="fill:none;fill-rule:evenodd;stroke:#000000;stroke-width:1px;stroke-linecap:butt;stroke-linejoin:miter;stroke-opacity:1"
       d="m 82.832509,648.30119 c 8.08122,0 16.16244,0 24.243661,0 2.0203,0 4.2539,0.9035 6.06092,0 0.60233,-0.30117 0,-1.34687 0,-2.02031"
       id="path3545"
       inkscape:connector-curvature="0" />
    <path
       style="fill:none;fill-rule:evenodd;stroke:#000000;stroke-width:1px;stroke-linecap:butt;stroke-linejoin:miter;stroke-opacity:1"
       d="m 84.852814,666.48393 c 2.69374,0 5.439791,0.52829 8.08122,0 0.933886,-0.18677 1.16847,-1.59438 2.020305,-2.0203 0.602339,-0.30117 1.34687,0 2.020305,0 0.673435,0 1.34687,0 2.020305,0 3.367171,0 6.734351,0 10.101521,0 1.34687,0 2.69374,0 4.04062,0 0.67343,0 2.0203,-0.67344 2.0203,0 0,0.67343 -1.34687,0 -2.0203,0"
       id="path3547"
       inkscape:connector-curvature="0" />
    <path
       style="fill:none;fill-rule:evenodd;stroke:#000000;stroke-width:1px;stroke-linecap:butt;stroke-linejoin:miter;stroke-opacity:1"
       d="m 167.68532,822.04742 c 6.11688,-4.11526 6.76339,-4.04061 12.12183,-4.04061 0.67344,0 1.54412,0.47619 2.02031,0 2.69374,-2.69374 -3.36718,-2.0203 2.0203,-2.0203 0.48998,0 5.99595,0.065 6.06092,0 0.47619,-0.47619 -0.60234,-1.71914 0,-2.02031 1.20468,-0.60233 2.69374,0 4.04061,0 0.67343,0 2.0203,-0.67343 2.0203,0 0,0.67344 -1.34687,0 -2.0203,0"
       id="path3569"
       inkscape:connector-curvature="0" />
    <path
       style="fill:none;fill-rule:evenodd;stroke:#000000;stroke-width:1px;stroke-linecap:butt;stroke-linejoin:miter;stroke-opacity:1"
       d="m 179.80715,840.23017 c 9.00517,-2.25129 6.11784,-0.0569 10.10153,-4.04061 0.67343,-0.67343 1.16847,-1.59439 2.0203,-2.0203 0.60234,-0.30117 1.41797,0.30116 2.02031,0 0.85183,-0.42592 1.16847,-1.59439 2.0203,-2.02031 0.60234,-0.30117 1.34687,0 2.02031,0 1.34687,0 2.76286,0.42592 4.04061,0 0.90351,-0.30117 1.34687,-2.69374 2.0203,-2.02031 0.67344,0.67344 -2.69374,2.69374 -2.0203,2.02031 2.0203,-2.02031 4.04061,-4.04061 6.06091,-6.06092"
       id="path3571"
       inkscape:connector-curvature="0" />
    <path
       style="fill:none;fill-rule:evenodd;stroke:#000000;stroke-width:1px;stroke-linecap:butt;stroke-linejoin:miter;stroke-opacity:1"
       d="m 476.792,832.14895 c 2.69374,-0.67344 5.3585,-1.47576 8.08122,-2.02031 1.32072,-0.26414 2.69374,0 4.04061,0 0.67344,0 2.02031,-0.67343 2.02031,0 0,0.67344 -2.69374,0 -2.02031,0 3.36718,0 6.73435,0 10.10153,0"
       id="path3573"
       inkscape:connector-curvature="0" />
    <path
       style="fill:none;fill-rule:evenodd;stroke:#000000;stroke-width:1px;stroke-linecap:butt;stroke-linejoin:miter;stroke-opacity:1"
       d="m 460.62956,809.92559 c 10.10153,0 20.20305,0 30.30458,0 2.0203,0 4.04061,0 6.06091,0 0.67344,0 2.02031,-0.67343 2.02031,0 0,2.97269 -6.70051,-4.6802 0,2.02031"
       id="path3575"
       inkscape:connector-curvature="0" />
    <path
       style="fill:#ff9955"
       id="path3605"
       d="m 557.07877,446.76092 c 9.39707,-8.15304 22.27777,-13.84729 32.54069,-19.00302 1.3085,-0.65734 4.74066,0.37178 5.83104,0.85807 1.01264,0.45162 1.90259,1.1392 2.85389,1.70881 5.71234,4.06931 9.86512,9.5018 12.78667,15.81102 3.03179,8.73198 3.56277,18.0628 4.01282,27.2233 0.52928,7.55085 0.11273,12.6133 -4.52609,18.70772 -11.61503,12.09933 -27.0304,19.78347 -42.09349,26.82891 -7.27328,3.32719 -15.29703,4.03317 -23.17345,4.56371 -6.40913,-0.0302 -13.29748,1.32844 -19.37722,-1.42205 -1.03574,-0.46858 -1.93797,-1.18893 -2.90695,-1.78339 -5.40491,-4.28949 -9.20473,-9.76499 -11.20316,-16.32313 -1.66084,-8.64058 -1.67648,-17.50603 -1.80344,-26.27662 -0.39695,-7.25852 0.83084,-14.38706 3.46195,-21.13211 3.41368,-7.42421 8.80909,-13.67828 14.08882,-19.82887 5.19485,-5.15423 10.42025,-10.04094 14.22124,-16.34359 2.96738,-5.92726 5.41045,-12.04291 8.76323,-17.77604 3.38459,-5.11804 6.29099,-10.48978 8.22176,-16.318 2.22418,-11.54567 2.04367,-23.44006 2.01006,-35.15788 -0.11212,-9.82493 -0.0418,-19.65055 -0.10574,-29.4756 0.12614,-9.78307 -0.68434,-19.49012 -3.05354,-28.98542 -2.06825,-6.84593 -3.95015,-11.5938 -10.89765,-14.21181 -2.83372,-0.60358 -5.78866,-1.39195 -8.71543,-0.87612 -5.86307,1.03332 -41.35667,22.47927 16.49768,-9.95306 -8.06392,5.97892 -11.01396,15.68379 -13.47755,24.97712 -2.61022,12.17042 -2.81198,24.70157 -2.69583,37.09791 0.47331,16.66378 3.26156,33.10603 6.86954,49.34318 2.93458,12.30189 7.91308,23.95022 11.98177,35.8902 3.4963,9.27921 6.27859,18.79796 9.62398,28.12946 3.35908,6.22958 6.56311,12.49873 9.33259,19.02696 2.2932,4.87109 4.22207,9.89759 6.01984,14.96861 1.43894,4.76191 2.72539,9.56992 4.03492,14.36992 1.48167,5.28685 2.40509,10.71397 3.42599,16.10552 0.96041,5.54798 1.91873,11.07912 2.50687,16.68139 0.70333,6.50661 0.84167,13.04717 0.90971,19.58482 0.0544,6.06662 0.2639,12.12 -0.42414,18.15572 -0.25639,4.78369 -1.79815,9.2204 -3.49167,13.63785 -1.86331,4.45787 -4.19824,8.67264 -6.05551,13.14071 -1.85857,6.47827 -5.57916,12.0171 -8.96004,17.7541 -2.96779,5.1016 -6.17448,10.0562 -9.00276,15.23852 -2.40038,4.96224 -5.85035,9.20609 -9.67139,13.12595 -3.42124,2.89853 -6.00424,6.35273 -8.22597,10.19846 -1.68448,3.3623 -4.40514,5.99693 -6.94316,8.70949 -2.13321,2.47906 -3.79966,5.29856 -5.97188,7.74562 -1.27108,2.037 -2.88366,3.75891 -4.69999,5.31719 -2.06803,2.34401 -3.85224,4.92006 -5.80159,7.3596 -2.15324,2.30754 -3.60489,5.16958 -5.85027,7.37844 -1.88861,2.17249 -3.70283,4.42173 -5.50833,6.66893 -1.4042,1.42281 -0.66105,0.7886 -2.21713,1.917 0,0 -27.87721,11.20317 -27.87721,11.20317 l 0,0 c 1.43648,-1.28593 0.64955,-0.76248 2.35193,-1.58358 2.19932,-1.83993 3.90058,-4.32007 5.52078,-6.65845 3.64378,-3.9873 -1.62109,1.61062 2.17177,-1.90843 1.59002,-1.47524 1.90252,-3.95233 3.87327,-5.12887 1.77907,-2.59581 3.87904,-4.93533 5.6368,-7.55961 1.32379,-1.96518 3.43928,-3.06964 4.82281,-4.96266 1.45803,-2.76487 4.50786,-5.13886 5.96804,-8.06203 2.16105,-2.92618 5.11168,-5.1547 7.19776,-8.15451 2.03635,-4.15652 4.3674,-8.07441 7.99581,-11.07564 3.83644,-3.69109 7.60502,-7.50017 10.04789,-12.29913 2.69765,-5.33191 5.9505,-10.31979 9.08111,-15.40299 3.21847,-5.68903 7.36767,-10.92924 9.01133,-17.35872 1.843,-4.39954 3.56362,-8.81489 5.96878,-12.94983 1.49742,-4.32029 3.76641,-8.38812 3.91838,-13.08476 0.7655,-5.93682 0.84434,-11.85947 0.68407,-17.84814 -0.073,-6.4531 -0.17232,-12.91376 -0.75718,-19.34507 -0.59832,-5.52772 -1.75495,-10.9301 -2.50088,-16.43255 -0.93834,-5.30575 -1.98231,-10.60878 -3.34734,-15.81955 -1.40475,-4.71748 -2.5406,-9.511 -3.89867,-14.24076 -1.75571,-5.03931 -3.78291,-9.97621 -5.90832,-14.87012 -2.58191,-6.68277 -6.02713,-12.88376 -9.21952,-19.27245 -3.10873,-9.43127 -6.05607,-18.91225 -9.43581,-28.25105 -4.0515,-12.08528 -8.85153,-23.94351 -11.70294,-36.39935 -3.61944,-16.39794 -6.44919,-32.99667 -7.2275,-49.79833 -0.40162,-12.54866 -0.36164,-25.23017 1.96526,-37.61311 2.3366,-9.58059 5.02934,-19.78723 12.37528,-26.81433 9.49711,-5.58094 18.89003,-11.34309 28.49133,-16.74282 4.97115,-2.79576 11.07847,-1.40503 16.11625,0.26565 7.31059,3.74828 9.8169,8.93577 11.97196,16.69195 2.39352,9.68179 3.56554,19.62753 3.39031,29.61088 -0.0232,9.86625 0.13017,19.73322 -0.0704,29.59871 -0.22437,11.87871 -0.0258,23.80146 -1.18085,35.63602 -1.49126,6.13141 -4.40691,11.80205 -7.92094,17.0243 -3.43647,5.70365 -6.3536,11.57648 -8.8672,17.74907 -1.29023,2.44874 -2.08997,4.17128 -3.71655,6.43061 -2.89379,4.01949 -6.9065,6.99413 -10.34049,10.50464 -5.26058,5.90611 -10.61248,11.94177 -14.35469,18.94822 -3.02824,6.23967 -4.31752,13.13692 -4.122,20.07177 0.034,8.49947 -0.0512,17.08668 1.55517,25.46698 1.69742,5.82803 5.02128,10.82406 10.06361,14.33647 6.6221,3.2856 14.005,2.23827 21.17143,1.85726 7.74911,-0.67485 15.49741,-1.82458 22.49364,-5.4551 10.76847,-5.52137 6.63553,-3.48276 -18.77811,11.23432 -0.94744,0.54867 1.88174,-1.12272 2.78368,-1.74334 2.08422,-1.43414 3.28712,-2.50338 5.17532,-4.16121 0.79922,-0.70172 1.5851,-1.41848 2.37765,-2.12773 5.35695,-5.22328 6.05,-9.29886 5.66936,-16.7478 -0.29744,-8.7927 -0.61027,-17.76531 -3.53841,-26.15033 -2.67476,-5.67397 -6.50917,-10.6809 -11.88446,-14.06133 -2.08678,-0.85042 -2.54685,-1.34289 -4.83868,-1.11542 -0.83423,0.0828 -3.1481,1.06289 -2.43804,0.61725 40.73242,-25.56407 27.58232,-16.2853 18.64493,-10.88401 0,0 -27.71117,11.47834 -27.71117,11.47834 z"
       inkscape:connector-curvature="0" />
    <path
       style="fill:#ff9955"
       id="path3607"
       d="m 564.71085,446.27425 c 9.16617,-4.74856 22.45408,-12.67259 -19.22634,11.22173 -5.21608,2.99025 4.55542,-2.88331 5.46663,-3.48735 9.1134,-5.17134 18.21049,-10.37152 27.3402,-15.51401 1.11462,-0.62784 2.23209,-1.25063 3.35002,-1.87254 0.59557,-0.33131 2.42162,-1.24953 1.83198,-0.90779 -26.88352,15.58132 -31.58818,18.66361 -22.44232,12.74849 2.52932,-1.22708 4.11294,-2.81596 5.54315,-5.16587 1.2558,-1.89483 1.43844,-1.61157 1.21161,0.24486 0,0 24.52415,-17.6173 24.52415,-17.6173 l 0,0 c 2.12007,1.52563 3.64038,3.04904 1.89541,5.54247 -1.9991,1.91491 -2.28769,5.091 -5.23515,6.15933 -0.53109,0.32031 -1.05762,0.64832 -1.59328,0.96094 -9.07702,5.2975 -18.15579,10.59204 -27.24458,15.86932 -1.20264,0.6983 -2.34211,1.28702 -3.58871,1.90218 -0.56221,0.27744 -2.23736,1.12888 -1.69691,0.81115 7.98834,-4.69629 16.03072,-9.30005 24.04608,-13.95007 -1.948,1.06752 -3.62515,2.46136 -5.53685,3.57645 -10.60184,6.184 -21.08789,12.70648 -32.08025,18.22393 0,0 23.43516,-18.74592 23.43516,-18.74592 z"
       inkscape:connector-curvature="0" />
    <ellipse
       ry="29.294424"
       rx="51.51778"
       cy="629.10828"
       cx="544.47223"
       id="ellipse3609"
       style="fill:#ff9955" />
    <path
       inkscape:connector-curvature="0"
       id="path3611"
       d="m 557.6042,634.15905 c 2.69374,0 5.4398,0.52829 8.08122,0 0.93389,-0.18677 1.16847,-1.59438 2.02031,-2.0203 0.60234,-0.30117 1.34687,0 2.0203,0 0.67344,0 1.34687,0 2.02031,0 3.36717,0 6.73435,0 10.10152,0 1.34687,0 2.69374,0 4.04062,0 0.67343,0 2.0203,-0.67344 2.0203,0 0,0.67343 -1.34687,0 -2.0203,0"
       style="fill:none;fill-rule:evenodd;stroke:#000000;stroke-width:1px;stroke-linecap:butt;stroke-linejoin:miter;stroke-opacity:1" />
    <path
       style="fill:none;fill-rule:evenodd;stroke:#000000;stroke-width:1px;stroke-linecap:butt;stroke-linejoin:miter;stroke-opacity:1"
       d="m 557.6042,620.01691 c 2.69374,0 5.4398,0.52829 8.08122,0 0.93389,-0.18677 1.16847,-1.59438 2.02031,-2.0203 0.60234,-0.30117 1.34687,0 2.0203,0 0.67344,0 1.34687,0 2.02031,0 3.36717,0 6.73435,0 10.10152,0 1.34687,0 2.69374,0 4.04062,0 0.67343,0 2.0203,-0.67344 2.0203,0 0,0.67343 -1.34687,0 -2.0203,0"
       id="path3613"
       inkscape:connector-curvature="0" />
    <rect
       style="fill:#d4aa00"
       id="rect3953"
       width="38.385796"
       height="438.40619"
       x="111.11678"
       y="325.05237" />
    <ellipse
       style="fill:#aa8800"
       id="path3955"
       cx="128.28937"
       cy="360.40771"
       rx="9.0913725"
       ry="13.131983" />
    <ellipse
       style="fill:#aa8800"
       id="path3957"
       cx="130.30968"
       cy="718.00171"
       rx="11.111678"
       ry="15.152288"
       inkscape:transform-center-x="-16.16244"
       inkscape:transform-center-y="4.0406102" />
    <ellipse
       style="fill:#aa8800"
       id="path3959"
       cx="128.28937"
       cy="651.33167"
       rx="9.0913725"
       ry="15.152288"
       inkscape:transform-center-x="-8.0812203"
       inkscape:transform-center-y="-2.0203051" />
    <ellipse
       inkscape:transform-center-y="-2.0203051"
       inkscape:transform-center-x="-8.0812203"
       ry="15.152288"
       rx="9.0913725"
       cy="451.32144"
       cx="128.28937"
       id="ellipse3961"
       style="fill:#aa8800" />
    <ellipse
       style="fill:#aa8800"
       id="ellipse3963"
       cx="130.30968"
       cy="612.94586"
       rx="9.0913725"
       ry="15.152288"
       inkscape:transform-center-x="-8.0812203"
       inkscape:transform-center-y="-2.0203051" />
    <ellipse
       inkscape:transform-center-y="-2.0203051"
       inkscape:transform-center-x="-8.0812203"
       ry="15.152288"
       rx="9.0913725"
       cy="532.13367"
       cx="130.30968"
       id="ellipse3965"
       style="fill:#aa8800" />
    <ellipse
       style="fill:#aa8800"
       id="ellipse3967"
       cx="130.30968"
       cy="572.53973"
       rx="9.0913725"
       ry="15.152288"
       inkscape:transform-center-x="-8.0812203"
       inkscape:transform-center-y="-2.0203051" />
    <ellipse
       inkscape:transform-center-y="-2.0203051"
       inkscape:transform-center-x="-8.0812203"
       ry="15.152288"
       rx="9.0913725"
       cy="491.72751"
       cx="130.30969"
       id="ellipse3969"
       style="fill:#aa8800" />
    <rect
       style="fill:#aa8800"
       id="rect3971"
       width="38.385796"
       height="6.060915"
       x="113.13708"
       y="682.64636" />
    <rect
       style="fill:#aa8800"
       id="rect3973"
       width="34.345188"
       height="6.060915"
       x="111.11678"
       y="381.62091" />
    <ellipse
       style="fill:#aa8800"
       id="path3975"
       cx="130.30968"
       cy="327.07269"
       rx="19.192898"
       ry="4.0406103" />
    <ellipse
       style="fill:#aa8800"
       id="path3977"
       cx="128.28937"
       cy="764.46875"
       rx="17.172594"
       ry="3.0304575" />
  </g>
</svg>
