<?xml version="1.0" ?><!DOCTYPE svg  PUBLIC '-//W3C//DTD SVG 1.1//EN'  'http://www.w3.org/Graphics/SVG/1.1/DTD/svg11.dtd' [
	<!ENTITY stroke_color "#666666">
	<!ENTITY fill_color "#ffffff">
]><svg height="55" width="55" xmlns="http://www.w3.org/2000/svg"><g fill="&fill_color;" stroke="&stroke_color;"><circle fill="&fill_color;" transform="matrix(1.4370235 0 0 1.4370235 -14.959677 -12.342744)"/><path d="m18.826717 13.103924h20.506096v26.516504h-20.506096z" fill="&fill_color;"/><path d="m17.324116 13.103923h3.4463043v26.496593h-3.4463043z" fill="&fill_color;"/><path d="m25.211952 16.260001c.338334.000136.676669.000133 1.015003.000104.264207-.000034.528414-.00008.792621-.000044.477815.000073.95563.000146 1.433445.000196.641484.000065 1.282967-.000011 1.924451-.00006.355545-.000039.711089-.000097 1.066633-.000146.261677-.00001.523354.000021.785031.000014.291216.000043.582431.000013.873647-.000015.211763-.000031.423527-.000015.63529-.000018.208366-.000012.416731-.000006.625097.000011.166196.000006.332392.000007.498588.000015 0 0-.07115.05169-.07115.05169l0 0c-.166209.000008-.332418.000009-.498628.000015-.208375.000017-.416751.000023-.625127.000011-.211747-.000003-.423493.000014-.63524-.000018-.291203-.000027-.582405-.000058-.873608-.000014-.261689-.000007-.523379.000024-.785068.000013-.355411-.000048-.710822-.000107-1.066232-.000145-.641429-.00005-1.282857-.000126-1.924285-.000061-.477994.00005-.955989.000123-1.433983.000196-.264167.000036-.528335-.00001-.792502-.000044-.33843-.000029-.676859-.000031-1.015289.000104 0 0 .0713-.05181.0713-.05181z" fill="&fill_color;"/><path d="m24.77001 18.46971c.338334.000136.676669.000133 1.015003.000104.264207-.000034.528414-.00008.792621-.000044.477815.000073.95563.000146 1.433445.000196.641484.000065 1.282967-.000011 1.924451-.00006.355545-.000039.711089-.000097 1.066633-.000146.261677-.00001.523354.000021.785031.000014.291216.000043.582431.000013.873647-.000015.211763-.000031.423527-.000015.63529-.000018.208366-.000012.416731-.000006.625097.000011.166196.000006.332392.000007.498588.000015 0 0-.07115.05169-.07115.05169l0 0c-.166209.000008-.332418.000009-.498628.000015-.208375.000017-.416751.000023-.625127.000011-.211747-.000003-.423493.000014-.63524-.000018-.291203-.000027-.582405-.000058-.873608-.000014-.261689-.000007-.523379.000024-.785068.000013-.355411-.000048-.710822-.000107-1.066232-.000145-.641429-.00005-1.282857-.000126-1.924285-.000061-.477994.00005-.955989.000123-1.433983.000196-.264167.000036-.528335-.00001-.792502-.000044-.33843-.000029-.676859-.000031-1.015289.000104 0 0 .0713-.05181.0713-.05181z" fill="&fill_color;"/><path d="m17.4375 30.6875h2.875v8.3125h-2.875z" fill="&stroke_color;"/><path d="m17.5625 13.375h2.875v8.3125h-2.875z" fill="&stroke_color;"/><path d="m17.5 21.375h2.875v8.3125h-2.875z" fill="&stroke_color;"/></g></svg>