<?xml version="1.0" encoding="UTF-8" standalone="no"?>
<!-- Created with Inkscape (http://www.inkscape.org/) -->

<svg
   xmlns:dc="http://purl.org/dc/elements/1.1/"
   xmlns:cc="http://creativecommons.org/ns#"
   xmlns:rdf="http://www.w3.org/1999/02/22-rdf-syntax-ns#"
   xmlns:svg="http://www.w3.org/2000/svg"
   xmlns="http://www.w3.org/2000/svg"
   xmlns:sodipodi="http://sodipodi.sourceforge.net/DTD/sodipodi-0.dtd"
   xmlns:inkscape="http://www.inkscape.org/namespaces/inkscape"
   width="210mm"
   height="297mm"
   id="svg2"
   version="1.1"
   inkscape:version="0.48.4 r9939"
   sodipodi:docname="Nuevo documento 1">
  <defs
     id="defs4" />
  <sodipodi:namedview
     id="base"
     pagecolor="#ffffff"
     bordercolor="#666666"
     borderopacity="1.0"
     inkscape:pageopacity="0.0"
     inkscape:pageshadow="2"
     inkscape:zoom="0.35"
     inkscape:cx="350"
     inkscape:cy="520"
     inkscape:document-units="px"
     inkscape:current-layer="layer1"
     showgrid="false"
     inkscape:window-width="1366"
     inkscape:window-height="744"
     inkscape:window-x="0"
     inkscape:window-y="24"
     inkscape:window-maximized="1" />
  <metadata
     id="metadata7">
    <rdf:RDF>
      <cc:Work
         rdf:about="">
        <dc:format>image/svg+xml</dc:format>
        <dc:type
           rdf:resource="http://purl.org/dc/dcmitype/StillImage" />
        <dc:title></dc:title>
      </cc:Work>
    </rdf:RDF>
  </metadata>
  <g
     inkscape:label="Capa 1"
     inkscape:groupmode="layer"
     id="layer1">
    <path
       style="fill:#000000"
       d="m 283.10438,697.39658 c -1.0492,-1.04914 0.75232,-4.73898 4.00331,-8.19947 6.16416,-6.56145 12.40166,-27.80649 9.52877,-32.45494 -0.91185,-1.47542 -0.29591,-9.33293 1.36876,-17.4612 2.99693,-14.63347 3.91812,-26.75274 7.23814,-95.22585 l 1.71078,-35.28389 -14.53993,-16.27832 c -9.21597,-10.31786 -20.12361,-18.91982 -29.78913,-23.49235 -8.38707,-3.96772 -15.24922,-8.90744 -15.24922,-10.97711 0,-3.49611 -23.78267,-21.23135 -28.47091,-21.23135 -1.15427,0 -1.98035,6.45381 -1.8358,14.3418 0.16061,8.76688 -1.12361,15.19865 -3.30393,16.54616 -1.96173,1.21242 -3.4583,3.01505 -3.32569,4.00582 0.7678,5.73714 -0.10981,7.56321 -2.82754,5.88355 -1.68772,-1.04307 -2.45768,-4.23271 -1.71101,-7.08803 0.74668,-2.85534 -0.0954,-5.80772 -1.87112,-6.56087 -2.05965,-0.87356 -1.23951,-2.97054 2.26497,-5.79137 4.31652,-3.47438 4.75736,-5.15831 2.05736,-7.85831 -1.89,-1.89 -6.15608,-3.47301 -9.48018,-3.5178 -3.32412,-0.0449 -6.64199,-1.85918 -7.37304,-4.03194 -1.04911,-3.1181 1.12904,-3.62077 10.33759,-2.38564 16.37296,2.19607 15.27524,-3.45878 -3.40993,-17.56621 -9.17977,-6.9308 -18.08104,-16.90299 -22.75785,-25.49585 -4.22464,-7.76206 -8.41453,-14.11283 -9.31086,-14.11283 -3.55139,0 -9.13426,10.27242 -9.21905,16.96294 -0.0513,4.04986 -2.60867,8.65655 -5.97139,10.75662 -3.54711,2.21522 -5.22408,5.38676 -4.22496,7.99045 3.58937,9.35368 -14.16001,26.38964 -27.49475,26.38964 -5.01423,0 -1.11316,-5.73953 4.9324,-7.25686 3.767,-0.94547 9.08053,-4.18475 11.80786,-7.19841 4.65535,-5.14412 4.66693,-5.77134 0.18912,-10.24919 -4.47783,-4.47783 -4.22422,-5.05183 4.14458,-9.37949 l 8.9143,-4.60977 -8.92268,-5.27074 c -11.39599,-6.7318 -9.91161,-11.02743 3.89298,-11.26586 17.01481,-0.29394 18.32596,-6.36183 4.57459,-21.1709 -10.03189,-10.80353 -14.69636,-19.57096 -10.41219,-19.57096 8.92768,0 38.23941,19.63311 38.23941,25.61291 0,2.80705 1.31072,5.91382 2.9127,6.90387 1.60197,0.99011 5.53157,7.3716 8.73242,14.18111 5.45938,11.61433 19.51719,23.46266 41.49436,34.97263 3.61064,1.89099 8.87571,5.56488 11.7002,8.16421 13.26206,12.20498 20.88518,17.58263 27.15487,19.15624 3.74749,0.94056 11.57397,4.14744 17.39214,7.12645 l 10.57854,5.41633 0.84952,-8.07734 c 0.46721,-4.44249 -1.75567,-14.68664 -4.93975,-22.76473 -3.1841,-8.07812 -5.78927,-17.11777 -5.78927,-20.08814 0,-2.97037 -1.58778,-6.41645 -3.52838,-7.65796 -5.75809,-3.68372 -14.75827,-18.26042 -20.14925,-32.63364 -2.77255,-7.39206 -7.34627,-14.67384 -10.16385,-16.18176 -5.20051,-2.78322 -20.80558,-30.99182 -18.44862,-33.34874 2.40563,-2.40567 33.94482,28.67651 33.4591,32.97423 -0.59507,5.26475 9.80714,26.11744 14.95867,29.98681 4.30496,3.23351 15.16318,33.27008 15.16318,41.9453 0,10.85761 4.88204,0.6019 12.42695,-26.10528 6.82834,-24.17065 7.10819,-27.03537 3.1709,-32.46119 -20.19306,-27.82729 -31.47837,-50.20578 -28.08629,-55.69431 2.08062,-3.36652 7.8223,2.66966 13.88537,14.59747 2.72347,5.3578 8.86946,15.8543 13.6578,23.32553 l 8.70606,13.58404 4.73922,-14.53762 c 4.97418,-15.25834 9.61054,-22.03556 12.85511,-18.791 2.03974,2.03975 0.83747,6.14395 -12.85006,43.86618 -8.83322,24.34405 -15.74986,61.05851 -15.23101,80.8482 0.16287,6.20997 0.31179,18.27705 0.33104,26.81576 0.0198,8.5387 0.25913,16.79512 0.53304,18.34762 2.57686,14.60411 2.7217,70.37464 0.23825,91.73812 -1.71452,14.74868 -4.50689,38.88286 -6.20528,53.63152 -2.41721,20.99066 -4.59103,28.80853 -10.00725,35.98956 -6.97331,9.24544 -9.74447,10.76579 -13.24411,7.26615 z m 200.67354,0.0379 c 1.94061,-0.78306 5.11616,-0.78306 7.05677,0 1.94062,0.783 0.35284,1.42371 -3.52838,1.42371 -3.88123,0 -5.46901,-0.64071 -3.52839,-1.42371 z m -53.23767,-5.78857 c -2.30926,-2.77429 -7.26673,-12.03042 -11.01658,-20.5691 -3.74987,-8.53875 -10.74104,-21.87607 -15.53595,-29.63852 -4.79491,-7.76245 -11.37493,-21.09977 -14.6223,-29.63846 -10.38291,-27.30111 -23.43569,-87.4618 -23.43569,-108.01577 0,-12.92068 -7.97975,-29.29071 -8.57675,-17.59477 -0.25038,4.90672 -0.53931,5.01257 -2.20748,0.80904 -5.03478,-12.68685 -15.67609,11.96773 -12.97775,30.06783 0.99636,6.6835 0.72992,7.36217 -1.17611,2.99566 -1.86302,-4.26797 -2.96915,-0.94908 -4.5335,13.60222 l -2.06919,19.24762 10.83063,9.40318 c 11.61837,10.08708 11.2544,15.81829 -0.65978,10.38983 -8.97331,-4.08855 -12.50261,-2.16882 -12.50261,6.80067 0,3.78963 -1.27022,6.89021 -2.82271,6.89021 -3.57241,0 -3.6057,-6.04121 -0.0844,-15.30337 2.44682,-6.43562 3.57412,-6.90541 10.58517,-4.4112 l 7.84672,2.7915 -8.04538,-6.68935 c -9.21872,-7.66487 -9.21271,-6.40603 -0.36648,-76.59384 5.24068,-41.58057 11.6243,-60.07915 9.09972,-26.36926 l -1.40752,18.79408 8.82794,-0.44646 8.82798,-0.44649 0.79899,-19.75899 c 0.43948,-10.86744 3.16385,-28.01541 6.05418,-38.10659 8.6473,-30.19062 9.05075,-35.47731 3.11713,-40.84715 -5.00605,-4.53039 -5.47786,-4.43473 -8.88073,1.8007 -1.97661,3.6219 -3.66546,9.06772 -3.75305,12.10183 -0.0875,3.03414 -4.4753,8.43257 -9.75046,11.99652 -8.19038,5.53353 -8.70573,6.47996 -3.52839,6.47996 3.33456,0 6.06285,1.27023 6.06285,2.82272 0,3.69458 -12.97632,3.62997 -19.94455,-0.0994 -8.26032,-4.42079 -6.69679,-6.77111 7.24235,-10.88685 7.73253,-2.28315 12.7022,-5.4049 12.7022,-7.97901 0,-3.10092 -1.88182,-3.75622 -7.05678,-2.4574 -5.2075,1.30703 -7.05678,0.6475 -7.05678,-2.51671 0,-2.67355 2.61482,-4.28784 6.94547,-4.28784 3.82004,0 8.58336,-1.96615 10.58517,-4.36925 2.00184,-2.4031 5.08049,-5.89621 6.84149,-7.76244 2.42169,-2.56649 -0.15722,-8.25502 -10.58516,-23.34789 -7.58285,-10.97501 -13.78697,-20.75116 -13.78697,-21.72472 0,-0.97355 -4.48097,-9.41572 -9.95768,-18.76033 -7.32415,-12.4967 -9.54658,-19.06891 -8.40321,-24.84993 1.40805,-7.11952 1.29108,-7.2616 -1.24222,-1.50865 -3.46643,7.87205 -8.624,8.29411 -8.624,0.70567 0,-3.7636 -1.88181,-5.64542 -5.64543,-5.64542 -3.10497,0 -5.64542,-1.27022 -5.64542,-2.82271 0,-1.55249 1.93257,-2.82271 4.29459,-2.82271 2.36202,0 5.62795,-2.92645 7.25764,-6.50324 1.62969,-3.57677 5.41312,-8.0333 8.40762,-9.9034 4.80972,-3.00373 5.44455,-2.61025 5.44455,3.37452 0,5.03586 1.99162,7.27455 7.75966,8.72223 7.5669,1.89918 7.61224,2.0295 1.82531,5.24576 -6.10953,3.39556 -5.98739,8.47982 0.38442,16.00039 1.97303,2.32874 5.19447,9.66782 7.15876,16.30907 1.96431,6.64122 4.94757,11.61642 6.62954,11.05596 1.68194,-0.56047 7.72314,-10.43996 13.42487,-21.95448 10.17807,-20.55433 42.76498,-59.07133 46.67155,-55.16475 2.87129,2.87129 -5.66106,18.60164 -20.91812,38.56481 -15.5399,20.33329 -34.70887,49.62419 -34.70887,53.03648 0,5.12224 25.64548,37.18883 29.74202,37.18883 1.64356,0 4.53611,-11.74953 6.42785,-26.11008 4.92027,-37.35003 8.70946,-52.21285 13.8104,-54.17026 2.4526,-0.94114 4.93791,-1.23253 5.52292,-0.6475 0.58501,0.58501 -2.13402,12.99955 -6.04233,27.58785 -3.90826,14.58834 -7.10916,30.28691 -7.11308,34.88575 l -0.008,8.3615 8.19278,-9.77285 c 11.01193,-13.13572 14.49476,-8.65938 3.82511,4.9162 -10.07397,12.81934 -17.66195,27.10353 -17.66195,33.25066 0,2.45746 -3.24713,10.87599 -7.21584,18.70785 -3.96871,7.83188 -7.80897,20.8094 -8.53393,28.83894 -1.13315,12.5504 -0.84696,13.69604 2.03944,8.16365 1.84667,-3.53957 10.60915,-10.30064 19.47218,-15.02459 17.67808,-9.42232 50.00814,-42.78301 62.9304,-64.93655 4.17262,-7.1534 13.98007,-20.49071 21.7943,-29.63846 23.5118,-27.52406 24.63224,-29.00591 23.09463,-30.54352 -1.72087,-1.72087 2.94507,-3.59102 14.85216,-5.95287 14.53948,-2.88402 16.29484,-2.81328 17.53867,0.70672 1.19505,3.38198 -6.07973,6.27131 -18.04322,7.16621 -3.38251,0.25292 -7.45966,2.41946 -9.06036,4.81428 -1.60071,2.39481 -10.58274,15.77512 -19.9601,29.73404 -9.37733,13.95893 -17.04971,26.60063 -17.04971,28.09272 0,1.49209 -3.75954,6.59177 -8.35455,11.3326 -4.595,4.74085 -7.453,9.92527 -6.35109,11.52095 4.66666,6.75791 28.80542,24.22182 31.32621,22.66388 5.50889,-3.40466 5.78365,3.62758 0.39448,10.09605 -5.31396,6.37814 -5.99632,6.30212 -6.78273,-0.75558 -0.19391,-1.74164 -4.37347,-6.26727 -9.28759,-10.0569 l -8.93475,-6.89027 -3.76745,7.73144 c -5.71525,11.72865 -11.16983,12.10037 -8.99008,0.61267 0.98106,-5.17036 2.87849,-11.54645 4.21651,-14.16908 6.22261,-12.1969 -4.79463,-6.03693 -26.10178,14.59407 -12.82781,12.42077 -25.63115,23.3157 -28.45186,24.21095 -2.82067,0.89525 -5.12852,2.69905 -5.12852,4.00842 0,1.30937 -5.88961,5.23182 -13.08801,8.71648 l -13.08801,6.33579 1.80476,25.67152 c 0.99263,14.11935 3.67113,35.83328 5.95223,48.25321 10.78715,58.73284 15.22552,72.0586 37.38412,112.24145 6.64661,12.05305 12.08473,23.65739 12.08473,25.78737 0,2.13004 1.7496,7.24514 3.88803,11.36697 3.1622,6.09515 4.21611,6.63924 5.64542,2.91447 0.96655,-2.51883 1.7574,-8.82302 1.7574,-14.0094 0,-8.16406 1.23131,-9.81755 9.17381,-12.31956 5.04559,-1.58943 14.8898,-3.67263 21.87601,-4.62931 10.71232,-1.46696 13.23244,-0.86944 16.08706,3.81418 3.19202,5.23728 2.14688,5.76986 -18.34763,9.35015 l -21.73248,3.79653 -1.41135,12.67697 c -1.56398,14.04781 -7.36322,17.78798 -14.42538,9.30355 z m 34.36587,2.18448 c -3.34362,-2.11581 -3.41185,-3.3364 -0.38988,-6.97764 2.01446,-2.42725 2.92531,-6.33476 2.02411,-8.68328 -0.9012,-2.34846 -0.48316,-4.26997 0.92898,-4.26997 4.73807,0 6.01278,5.47589 2.71091,11.64549 -2.92145,5.45879 -2.65457,5.95484 2.48099,4.61191 4.11291,-1.07556 5.32604,-0.38818 4.25239,2.40966 -1.72443,4.49385 -6.16444,4.96113 -12.0075,1.26383 z m 67.72858,-59.30549 c -5.34295,-1.36083 -19.63292,-3.35218 -31.7555,-4.42525 -12.12256,-1.07313 -22.17449,-2.77162 -22.33761,-3.77435 -0.16316,-1.00278 -0.77128,-13.39163 -1.35143,-27.53078 l -1.05485,-25.70746 17.58202,-1.47001 c 27.20116,-2.27419 86.20557,-2.56376 105.79171,-0.51916 l 17.64198,1.84166 -0.38619,21.54722 -0.38625,21.54712 -2.03354,-17.93203 c -1.16835,-10.30174 -3.70645,-18.99128 -5.96493,-20.4214 -4.52778,-2.86713 -12.69755,-3.1516 -74.38351,-2.58981 -24.77629,0.2255 -46.16315,1.09948 -47.52633,1.94201 -1.36317,0.84247 -1.85164,3.92889 -1.0855,6.85865 0.76617,2.92976 0.15609,5.32688 -1.35566,5.32688 -1.55813,0 -1.88386,2.72477 -0.752,6.29089 1.09815,3.45999 2.13643,11.3336 2.30725,17.49692 l 0.31059,11.20604 23.99304,3.8171 c 25.08176,3.99021 75.5464,5.09237 93.59021,2.04385 6.4038,-1.08188 11.00964,-3.6244 11.76952,-6.49694 1.10252,-4.16775 1.2867,-4.13388 1.57589,0.29019 0.19729,3.01843 -2.7579,6.21962 -7.43506,8.05388 -10.09556,3.9592 -64.22344,5.79614 -76.75385,2.60478 z m 48.31976,-18.96278 c 1.37314,-7.08023 7.18295,-7.68353 10.70036,-1.11109 2.77391,5.18308 2.3108,5.81696 -4.24996,5.81696 -5.35614,0 -7.11428,-1.28266 -6.4504,-4.70587 z m -79.5346,-16.93923 c 0,-1.81363 -0.64807,-4.98915 -1.44015,-7.05675 -0.93155,-2.43171 0.93918,-3.89539 5.29741,-4.14468 5.29377,-0.30281 6.43914,0.75572 5.345,4.93975 -0.76591,2.92883 0.0254,5.32513 1.75937,5.32513 1.73357,0 3.15193,0.95271 3.15193,2.11705 0,1.16436 -3.17556,2.11707 -7.05679,2.11707 -3.88122,0 -7.05677,-1.48393 -7.05677,-3.29757 z m 57.86558,2.06498 c 4.65746,-1.28346 13.36734,-2.48386 19.3553,-2.66753 8.11148,-0.24899 10.4989,-1.3458 9.36419,-4.30284 -1.65549,-4.31408 8.28385,-15.01158 11.21977,-12.0756 0.98893,0.98887 -0.28907,2.59894 -2.84003,3.5778 -5.88376,2.25786 -6.04259,6.82125 -0.23738,6.82125 2.42036,0 3.72899,1.08674 2.90814,2.41495 -0.82091,1.3282 1.96215,1.88608 6.18452,1.23965 5.65713,-0.86608 6.56299,-0.46945 3.44296,1.50736 -2.32876,1.47548 -16.30113,3.38822 -31.04981,4.25058 -16.18996,0.94661 -23.46024,0.64325 -18.34766,-0.76562 z m 0.47045,-4.88332 c -1.035,-1.03498 -1.78152,-5.16321 -1.65896,-9.17381 0.12251,-4.0106 0.86352,-5.70423 1.6466,-3.76359 0.783,1.94058 3.85829,3.5284 6.83391,3.5284 6.51845,0 7.22583,7.16741 0.94525,9.57745 -5.52851,2.12154 -5.4757,2.12265 -7.7668,-0.16851 z m -32.93163,-3.7636 c 0,-1.55247 1.98029,-2.8227 4.40066,-2.8227 2.42036,0 3.61561,1.27023 2.65611,2.8227 -0.95948,1.55246 -2.93979,2.8227 -4.40065,2.8227 -1.46087,0 -2.65612,-1.27024 -2.65612,-2.8227 z m 5.11616,-7.57361 c 2.03763,-0.81545 4.47222,-0.71516 5.41021,0.2227 0.93795,0.93791 -0.72922,1.6051 -3.70481,1.4825 -3.28832,-0.13547 -3.95716,-0.80426 -1.7054,-1.70533 z m -49.57386,-19.89317 c -4.16996,-1.45457 -4.81766,-17.69659 -0.70568,-17.69659 1.55249,0 3.45783,0 4.23407,0 0.77625,0 1.28433,0.95266 1.12908,2.11703 -0.15525,1.16436 -1.52499,1.76631 -3.04387,1.33763 -1.5189,-0.42866 -2.29588,1.47667 -1.72662,4.23406 0.56925,2.75742 3.20922,4.83706 5.86657,4.62143 2.65739,-0.21565 4.83161,0.60115 4.83161,1.81503 0,2.98363 -6.23719,5.08805 -10.58516,3.57141 z m 83.87639,-7.93674 c -2.50678,-3.02046 -4.51429,-3.45268 -6.5556,-1.41135 -5.10486,5.10485 -8.55153,3.18309 -3.76903,-2.10151 2.79354,-3.08683 3.9831,-7.74145 3.06596,-11.99652 -1.32681,-6.15554 -1.12341,-6.3627 1.77391,-1.80679 3.10486,4.88217 3.54877,4.89591 8.66233,0.26816 6.6109,-5.98277 7.16381,-2.17337 0.71826,4.94884 -4.35453,4.81175 -4.32489,5.54504 0.43751,10.80742 2.80996,3.10499 3.79747,5.64542 2.19442,5.64542 -1.60298,0 -4.54051,-1.95916 -6.52776,-4.35369 z M 354.395,555.37835 c -2.72237,-1.59205 -4.60965,-6.81491 -4.81394,-13.32204 -0.27972,-8.91277 0.23316,-9.95359 3.06659,-6.22154 1.87144,2.46499 4.99036,3.94691 6.93098,3.29317 4.10368,-1.38248 4.83299,6.61046 0.82894,9.0851 -1.48469,0.91758 -1.98388,3.53298 -1.10935,5.81201 1.83361,4.77824 1.23564,4.94327 -4.90322,1.3533 z m 159.72706,-4.16176 c 6.20996,-2.14768 13.51373,-4.00248 16.23059,-4.1218 2.71686,-0.11941 4.93974,-2.00274 4.93974,-4.1854 0,-3.22077 1.32549,-3.35373 7.03476,-0.70568 7.19865,3.33882 9.30242,7.21891 4.25609,7.8497 -1.55249,0.19392 -6.31582,0.58667 -10.58517,0.87247 -4.26935,0.2858 -13.47845,1.34672 -20.46465,2.35762 l -12.7022,1.83798 11.29084,-3.90489 z M 355.29375,521.47343 c 0,-5.43372 0.58092,-7.6566 1.29092,-4.93975 0.70996,2.71686 0.70996,7.16263 0,9.87949 -0.71,2.71686 -1.29092,0.49398 -1.29092,-4.93974 z m 124.94937,-0.0113 c -0.963,-1.55819 -4.8368,-2.05857 -8.60842,-1.11196 -8.59189,2.15642 -12.58139,-5.70695 -6.1556,-12.13276 4.5655,-4.56549 10.53636,-2.92868 10.53636,2.88839 0,1.87752 3.49311,5.57944 7.76246,8.22643 5.46499,3.38832 6.34974,4.83499 2.9893,4.88785 -2.62524,0.0412 -5.56108,-1.19975 -6.5241,-2.75795 z m -7.75644,-10.10475 c -2.68991,-2.68992 -8.0828,1.66711 -6.07815,4.91068 1.19153,1.92791 2.77038,1.87922 4.79759,-0.14791 1.6619,-1.66191 2.23816,-3.8051 1.28056,-4.76268 z m 57.16029,4.47062 c 0,-1.55249 -7.30377,-3.03625 -16.23059,-3.29721 -12.97815,-0.37943 -13.96801,-0.69111 -4.93975,-1.55536 6.20997,-0.59447 12.81441,-3.07635 14.67652,-5.51525 3.04161,-3.98375 3.82538,-3.99473 7.71204,-0.10811 2.37952,2.37949 5.93685,4.97819 7.90517,5.77484 2.73402,1.10659 2.57934,2.15534 -0.65526,4.44289 -5.35208,3.78507 -8.46813,3.88005 -8.46813,0.258 z m 20.06603,-3.52839 c -5.34867,-14.29754 -6.22636,-19.0533 -3.51631,-19.0533 1.54914,0 3.22253,2.858 3.71861,6.3511 0.71725,5.05033 2.7526,6.371 9.93772,6.44823 10.58377,0.11375 13.4652,2.24352 11.16055,8.24926 -2.72695,7.10637 -18.44653,5.63388 -21.30057,-1.99529 z m 16.62919,0.70568 c 3.20454,-2.07088 1.96282,-2.74678 -5.10629,-2.7795 -5.51713,-0.0254 -8.62635,1.11221 -7.59589,2.7795 2.19158,3.54605 7.21505,3.54605 12.70218,0 z m -214.48281,-6.3511 c 0.0226,-1.94061 1.08858,-5.17629 2.3662,-7.19038 1.8627,-2.93644 3.02087,-2.82111 5.84521,0.58202 1.93723,2.33421 2.7028,5.56989 1.70128,7.1904 -2.54817,4.12305 -9.96499,3.68756 -9.91269,-0.58204 z m 48.57097,-23.44742 c -8.05035,-5.63867 -8.29136,-18.99244 -0.48371,-26.80008 4.03648,-4.03648 5.2125,-7.66943 3.8834,-11.99652 -1.68556,-5.48775 -0.89392,-5.2258 6.83399,2.26141 10.74825,10.41346 10.91953,12.08781 1.35244,13.2204 -4.14964,0.49123 -8.12509,2.65775 -8.83432,4.81446 -0.75454,2.29436 -0.0198,3.13689 1.76953,2.03066 4.63647,-2.8655 16.80252,1.03768 18.70742,6.00185 2.02254,5.2706 -5.96409,14.86194 -12.37541,14.86194 -2.51893,0 -7.40295,-1.97737 -10.85334,-4.39412 z m 16.30817,-5.48537 c 2.97162,-3.58056 2.37142,-4.23406 -3.88845,-4.23406 -4.69809,0 -7.40239,1.54681 -7.40239,4.23406 0,2.32874 1.7498,4.23407 3.88846,4.23407 2.13862,0 5.4697,-1.90533 7.40238,-4.23407 z M 236.08501,415.92376 c 0,-2.16264 -2.18728,-4.77143 -4.86065,-5.79728 -4.14018,-1.58873 -4.24829,-2.24363 -0.72925,-4.4185 3.29024,-2.03352 3.4178,-3.26687 0.62656,-6.05813 -4.71892,-4.71893 -4.4187,-8.02114 0.72928,-8.02114 2.32874,0 4.23406,-1.27022 4.23406,-2.82271 0,-1.55249 1.7292,-2.82271 3.84265,-2.82271 2.62035,0 3.39445,2.34444 2.43368,7.37047 -1.26818,6.63402 -0.73549,7.18349 5.33118,5.49926 6.60126,-1.83264 6.62382,-1.77804 1.0947,2.65019 -5.59775,4.4832 -5.58584,4.56732 1.41136,9.96288 7.6074,5.86606 5.86798,7.39543 -3.00829,2.64501 -4.29593,-2.29912 -5.45986,-1.99825 -5.45986,1.41136 0,2.38335 -1.27022,4.33336 -2.82271,4.33336 -1.55249,0 -2.82271,-1.76944 -2.82271,-3.93206 z M 492.34058,392.3344 c -7.32731,-8.40019 -10.41152,-16.33134 -7.91909,-20.3642 1.3647,-2.20812 1.0278,-5.97334 -0.79578,-8.89332 -1.73936,-2.78516 -2.15403,-6.07238 -0.9215,-7.30492 3.01537,-3.01536 10.56279,7.63239 8.2039,11.57388 -1.02453,1.71191 0.44853,1.23468 3.27344,-1.06049 4.67382,-3.79737 5.82913,-3.34311 12.83239,5.04565 8.96055,10.7333 8.53788,21.69595 -0.93446,24.23729 -8.63603,2.31694 -8.96448,2.23962 -13.7389,-3.23389 z m 15.72744,-4.89278 c 1.53897,-4.01051 -4.90333,-10.77177 -12.99926,-13.64289 -6.06112,-2.1495 -6.26176,1.44028 -0.68341,12.22761 4.2897,8.29536 10.78473,8.96719 13.68267,1.41528 z m -310.78275,0.65871 c 0.65375,-1.94062 -0.82819,-5.10027 -3.29316,-7.02149 -3.99782,-3.11585 -3.71973,-4.0998 2.57495,-9.11104 10.38484,-8.26744 13.78706,-7.20525 13.20721,4.12337 -0.2935,5.73418 -1.98284,9.87211 -4.03339,9.87948 -1.94062,0.005 -3.5284,1.28286 -3.5284,2.83535 0,1.55249 -1.37607,2.82271 -3.05793,2.82271 -1.68188,0 -2.52304,-1.58777 -1.86928,-3.52838 z M 437.2244,368.51937 c -5.99207,-5.99208 -6.3398,-6.02219 -11.85927,-1.02712 -5.16629,4.67546 -5.84823,4.72369 -7.45839,0.52766 -3.77603,-9.8402 6.47233,-19.64597 14.88412,-14.24134 5.28855,3.39789 16.24278,20.91388 13.07923,20.91388 -1.35993,0 -5.2505,-2.77789 -8.64569,-6.17308 z m -9.19503,-8.10707 c 0,-1.46087 -1.27022,-2.65612 -2.82271,-2.65612 -1.55249,0 -2.82271,1.98031 -2.82271,4.40067 0,2.42036 1.27022,3.61561 2.82271,2.65611 1.55249,-0.95949 2.82271,-2.93979 2.82271,-4.40066 z m -197.58978,3.81173 c -2.32873,-0.85503 -10.99417,-4.70091 -19.2565,-8.54644 l -15.02247,-6.99179 -6.32983,5.94655 c -8.49341,7.97919 -14.17446,7.78732 -11.97913,-0.40455 0.93613,-3.49311 1.71938,-7.93887 1.74057,-9.8795 0.0226,-1.94061 1.33298,-3.52838 2.91504,-3.52838 1.71384,0 2.11346,3.13753 0.98869,7.76245 -1.83637,7.55104 -1.73569,7.6279 3.69688,2.82272 7.78159,-6.88296 18.07433,-6.16325 30.276,2.11703 5.71932,3.88123 12.88277,7.05677 15.91882,7.05677 3.03602,0 5.52006,1.27022 5.52006,2.82271 0,3.05491 -1.8883,3.23831 -8.46813,0.82243 z m 84.68134,-16.34733 c 0,-2.32874 -1.34519,-4.23407 -2.98931,-4.23407 -1.64412,0 -2.16666,-1.33105 -1.16121,-2.95789 1.00543,-1.62681 0.89816,-5.11995 -0.23852,-7.76246 -1.13654,-2.6425 -2.405,-9.68732 -2.81881,-15.65512 -0.71468,-10.30682 -0.54326,-10.552 3.42079,-4.89252 3.93576,5.61906 11.37236,5.64084 7.90042,0.0226 -0.89318,-1.44523 -0.35374,-2.6277 1.19875,-2.6277 3.00735,0 7.01171,5.2115 7.59106,9.87949 0.19279,1.55249 0.54383,4.48546 0.78031,6.5177 0.23655,2.03224 1.70015,2.90993 3.25264,1.95044 1.55249,-0.9595 2.82271,-0.39936 2.82271,1.24476 0,1.64412 -1.27022,2.98931 -2.82271,2.98931 -1.55249,0 -2.82271,1.86546 -2.82271,4.14546 0,2.52519 -1.65492,3.51043 -4.23406,2.52073 -3.09635,-1.18819 -4.23407,0.35256 -4.23407,5.73401 0,4.04731 -1.27022,7.35877 -2.82271,7.35877 -1.55249,0 -2.82272,-1.90533 -2.82272,-4.23407 z m 8.46813,-21.17034 c 0,-1.55249 -1.27022,-2.82271 -2.82271,-2.82271 -1.5525,0 -2.82271,1.27022 -2.82271,2.82271 0,1.5525 1.27021,2.82271 2.82271,2.82271 1.55249,0 2.82271,-1.27021 2.82271,-2.82271 z m 127.60653,10.43574 c 0.68346,-3.57531 -0.49245,-8.12139 -2.61312,-10.10241 -3.80621,-3.55554 -2.67922,-13.147 2.15612,-18.35007 4.10829,-4.42076 11.16331,0.69007 11.16331,8.08695 0,3.95103 1.47069,9.53862 3.26819,12.41689 4.71698,7.55309 1.02166,14.44917 -7.74272,14.44917 -6.28011,0 -7.27588,-1.03873 -6.23178,-6.50053 z m 10.70631,-2.31325 c 0,-5.00532 -0.69664,-5.41288 -4.23406,-2.47707 -2.32874,1.93269 -4.23407,4.62866 -4.23407,5.99107 0,1.36238 1.90533,2.47707 4.23407,2.47707 2.43368,0 4.23406,-2.54747 4.23406,-5.99107 z m -3.33207,-16.10604 c 1.03879,-7.05964 -3.69139,-8.32073 -6.24541,-1.66507 -2.68243,6.99027 -2.02747,10.2225 1.81503,8.95709 1.94061,-0.63912 3.93429,-3.92052 4.43038,-7.29202 z m -242.24379,5.32089 c 0,-1.46446 2.80625,-4.62823 6.23613,-7.03061 6.95109,-4.86873 12.49338,-1.87402 9.75218,5.26946 -1.80473,4.70303 -15.98831,6.2654 -15.98831,1.76115 z m 12.7022,-2.98276 c 0.95949,-1.55249 0.39935,-2.82271 -1.24477,-2.82271 -1.64411,0 -2.98929,1.27022 -2.98929,2.82271 0,1.55249 0.56014,2.82271 1.24475,2.82271 0.68462,0 2.02981,-1.27022 2.98931,-2.82271 z m -21.31974,-6.89775 c 7.28773,-7.75745 25.11476,-17.06387 27.71188,-14.46676 2.47216,2.47216 -1.83804,6.03578 -17.12668,14.16016 -16.88671,8.97365 -18.77894,9.02844 -10.5852,0.3066 z m -2.67331,-16.90507 c 0,-4.40227 10.53888,-8.93989 13.61617,-5.86261 1.93627,1.9363 -7.18157,9.90645 -11.33296,9.90645 -1.25577,0 -2.28321,-1.81974 -2.28321,-4.04384 z m 302.13089,-8.51036 c 5.24581,-5.18592 26.41566,-10.00654 31.13501,-7.08981 3.50423,2.1657 -21.44139,11.17588 -30.94166,11.17588 -3.79795,0 -3.82157,-0.49926 -0.19335,-4.08607 z m -63.84225,-24.50935 c 2.38835,-19.6092 4.09251,-21.36045 11.61317,-11.93417 l 6.43731,8.06842 3.5396,-7.76246 c 5.56666,-12.20789 11.10155,-9.82814 11.10155,4.77315 0,14.43384 -4.14345,19.23739 -6.9496,8.05674 -1.48859,-5.93096 -2.46369,-6.70001 -4.44907,-3.50885 -2.04649,3.28939 -3.61203,3.42429 -8.02317,0.69128 -5.97553,-3.7022 -8.80528,-0.269 -8.80528,10.6832 0,2.97799 -1.40138,5.41456 -3.11417,5.41456 -2.09497,0 -2.53689,-4.73965 -1.35034,-14.48187 z m 40.21886,6.95462 c -3.45696,-3.45694 -1.9345,-14.31947 2.52583,-18.02121 3.72165,-3.08871 5.4966,-2.48355 11.40504,3.88846 4.80302,5.17982 5.72853,7.54644 2.95118,7.54644 -2.22548,0 -4.77744,1.90533 -5.67108,4.23406 -1.67548,4.36629 -7.8925,5.67072 -11.21097,2.35225 z m 9.40903,-9.57562 c 0,-5.81557 -4.14086,-7.37416 -7.05677,-2.65611 -0.9595,1.55249 -0.0818,2.923 1.95044,3.04556 2.86394,0.17275 2.89746,0.54439 0.14903,1.65244 -1.95029,0.78627 -2.81517,2.61206 -1.92198,4.05726 2.46863,3.99436 6.87928,0.0838 6.87928,-6.09915 z m 21.56404,1.03077 c -0.99277,-0.9928 -1.80505,-4.02795 -1.80505,-6.74481 0,-2.71686 -1.58779,-5.68071 -3.5284,-6.58635 -2.82271,-1.31724 -2.82271,-1.97589 0,-3.29314 1.94061,-0.90564 3.5284,-4.08119 3.5284,-7.05678 0,-2.97561 1.27022,-5.4102 2.82271,-5.4102 1.55249,0 2.82271,2.6154 2.82271,5.81202 0,3.1966 1.27022,5.02696 2.82271,4.06746 1.55249,-0.95949 2.82271,-0.47429 2.82271,1.07819 0,1.55249 -1.32188,3.63967 -2.93754,4.6382 -1.61564,0.99854 -2.19909,4.14213 -1.29653,6.98581 1.67172,5.26712 -1.97454,9.78674 -5.25172,6.5096 z m 48.61748,-3.38841 c 2.94921,-1.86852 3.02657,-2.71155 0.33114,-3.61002 -4.13283,-1.3776 -1.16355,-13.62472 3.30327,-13.62472 1.57725,0 2.33286,1.58778 1.67904,3.52839 -0.6537,1.94061 0.70471,4.92345 3.01874,6.62857 5.44836,4.01454 1.93605,9.61424 -5.99548,9.55881 -4.5676,-0.0319 -5.17855,-0.68059 -2.33671,-2.48103 z m -410.58068,-7.72646 c 1.47283,-6.8365 0.58395,-8.63146 -5.70998,-11.53072 -5.02449,-2.31448 -9.11601,-2.54451 -12.55193,-0.70569 -6.89,3.68743 -8.29137,3.44882 -8.29137,-1.41185 0,-5.49156 17.54225,-22.849 25.08603,-24.82174 7.50234,-1.96193 7.63049,1.174 0.31837,7.79139 -7.55651,6.83856 -7.11529,12.15352 1.32831,16.00068 6.00292,2.73512 7.70211,2.27795 12.20586,-3.28391 2.87764,-3.55375 6.73346,-5.9609 8.5685,-5.34921 2.13417,0.71137 0.0255,6.12661 -5.85475,15.02816 -11.01438,16.67652 -17.6971,20.34246 -15.09904,8.28289 z m 381.76583,4.60527 c -3.60585,-11.08585 -4.52442,-19.75897 -2.0927,-19.75897 1.47746,0 3.47202,2.47562 4.43232,5.50138 1.11791,3.52217 3.31989,4.89746 6.12055,3.82274 4.60361,-1.76657 9.33386,3.39701 9.40689,10.26868 0.0305,2.87124 -1.151,2.45607 -4.01633,-1.41135 -4.01135,-5.41419 -4.1095,-5.41224 -8.26653,0.16626 -3.44492,4.62278 -4.45647,4.87843 -5.5842,1.41135 z M 253.72696,240.1556 c -1.94061,-0.78304 -3.52838,-4.10111 -3.52838,-7.37342 0,-5.82791 0.0818,-5.83762 4.00327,-0.4749 2.2018,3.01112 4.92298,4.55509 6.04704,3.43103 2.76414,-2.76414 2.78791,-15.96658 0.0458,-25.46878 -1.36334,-4.72439 -1.15362,-7.76246 0.53583,-7.76246 5.97478,0 8.44544,30.60229 2.91702,36.13071 -3.61019,3.61019 -4.50087,3.74509 -10.02062,1.51782 z m 44.4577,-4.1485 c 0,-1.75737 2.70151,-7.56634 6.00334,-12.90882 4.45261,-7.20447 5.18174,-10.53521 2.82272,-12.89424 -4.01729,-4.01728 -4.13556,-10.51967 -0.19139,-10.51967 1.64412,0 2.12014,1.4063 1.05787,3.1251 -1.29974,2.10301 0.0305,2.50239 4.06747,1.22116 7.71656,-2.44915 7.62126,-1.75372 -2.50987,18.31593 -8.33809,16.51765 -11.25019,20.05369 -11.25019,13.66054 z m -84.11679,-17.1283 c -1.86299,-1.86299 -3.38726,-6.23673 -3.38726,-9.71945 0,-7.21922 11.08488,-16.45547 15.02287,-12.51747 3.5602,3.5602 -0.63318,9.39785 -5.42889,7.55758 -2.74326,-1.05268 -3.94855,0.66991 -3.94855,5.64319 0,6.13158 0.90787,6.87025 6.32897,5.14967 5.62606,-1.78565 5.90116,-1.49327 2.47707,2.63249 -4.59049,5.53124 -6.56337,5.75483 -11.06421,1.25399 z m 18.3011,-3.33744 c -3.36126,-8.75929 -2.12677,-11.78665 5.04851,-12.38049 6.08791,-0.50386 12.7811,5.70846 12.7811,11.86284 0,4.33387 -6.12972,0.8128 -8.27639,-4.75418 -2.46576,-6.39448 -3.27768,-5.61976 -6.50686,6.20838 -0.86963,3.18529 -1.54425,2.97791 -3.04636,-0.93655 z m 45.0927,-5.12494 c -2.90098,-11.09344 7.90063,-17.96838 14.92782,-9.50112 2.49717,3.00889 2.56065,5.55512 0.24643,9.87948 -4.13378,7.72404 -13.11387,7.50011 -15.17414,-0.37836 z m 10.60794,-1.25658 c 0.97889,-2.55094 1.19929,-5.21857 0.4898,-5.92807 -2.24332,-2.24331 -7.31102,2.2613 -7.31102,6.49868 0,5.5368 4.62609,5.14984 6.82122,-0.57061 z m 69.06638,5.34376 c -1.255,-8.1601 -0.70609,-11.16786 2.83327,-15.52492 4.91674,-6.05262 9.78914,-6.29589 14.41688,-0.71982 2.82229,3.40069 2.60277,5.59273 -1.1308,11.29085 -4.25778,6.4982 -15.35721,9.90933 -16.11935,4.95389 z m 14.43916,-10.93081 c 0,-4.55371 -7.30227,-5.23574 -9.96304,-0.93053 -1.00543,1.62684 -1.06535,4.94544 -0.13324,7.37467 1.36984,3.56977 2.50048,3.74822 5.89555,0.93055 2.31042,-1.91743 4.20073,-5.23604 4.20073,-7.37469 z m 10.68447,6.4331 c -0.75002,-3.92362 -0.30477,-8.80376 0.98947,-10.84472 1.29424,-2.04098 2.37264,-7.1184 2.3964,-11.28311 0.0288,-5.05824 1.90914,-8.16446 5.66338,-9.35602 6.4856,-2.05843 12.17787,0.54807 9.75573,4.46714 -0.90883,1.47055 -2.97689,1.85514 -4.59568,0.85469 -4.27776,-2.64381 -7.85812,4.4834 -7.95751,15.8405 -0.1146,13.09325 -4.37675,20.13004 -6.25179,10.32152 z M 261.99877,190.51055 c 0.57968,-4.08153 3.17158,-6.67342 7.25311,-7.25309 6.97999,-0.99131 8.5972,4.58357 2.96384,10.21694 -5.63338,5.63337 -11.20825,4.01615 -10.21695,-2.96385 z"
       id="path2996"
       inkscape:connector-curvature="0" />
  </g>
</svg>
