<?xml version="1.0" ?><!DOCTYPE svg  PUBLIC '-//W3C//DTD SVG 1.1//EN'  'http://www.w3.org/Graphics/SVG/1.1/DTD/svg11.dtd' [
	<!ENTITY stroke_color "#00A0FF">
	<!ENTITY fill_color "#F8E800">
]><svg height="55" id="svg4502" version="1.0" width="55" xmlns="http://www.w3.org/2000/svg" xmlns:cc="http://creativecommons.org/ns#" xmlns:dc="http://purl.org/dc/elements/1.1/" xmlns:rdf="http://www.w3.org/1999/02/22-rdf-syntax-ns#" xmlns:svg="http://www.w3.org/2000/svg">
  <defs id="defs4504"/>
  <metadata id="metadata4507">
    <rdf:RDF>
      <cc:Work rdf:about="">
        <dc:format>image/svg+xml</dc:format>
        <dc:type rdf:resource="http://purl.org/dc/dcmitype/StillImage"/>
        <dc:title/>
      </cc:Work>
    </rdf:RDF>
  </metadata>
  <g id="layer4" style="display:inline">
    <circle d="M 45.204325 27.725882 A 15.657364 15.657364 0 1 1  13.889597,27.725882 A 15.657364 15.657364 0 1 1  45.204325 27.725882 z" id="path2165" style="opacity:1;fill:&fill_color;;fill-opacity:1;stroke:&stroke_color;;stroke-width:2.43559003;stroke-linecap:round;stroke-linejoin:round;stroke-miterlimit:4;stroke-dasharray:none;stroke-opacity:1" transform="matrix(1.4370235,0,0,1.4370235,-14.959677,-12.342744)"/>
    <rect height="26.516504" id="rect4198" style="opacity:1;fill:#ff0000;fill-opacity:1;stroke:#800080;stroke-opacity:1" width="20.506096" x="18.826717" y="13.103924"/>
    <rect height="26.496593" id="rect4216" style="opacity:1;fill:#ff0000;fill-opacity:1;stroke:#800080;stroke-opacity:1" width="3.4463043" x="17.324116" y="13.103923"/>
    <path d="m 25.211952,16.260001 c 0.338334,1.36e-4 0.676669,1.33e-4 1.015003,1.04e-4 0.264207,-3.4e-5 0.528414,-8e-5 0.792621,-4.4e-5 0.477815,7.3e-5 0.95563,1.46e-4 1.433445,1.96e-4 0.641484,6.5e-5 1.282967,-1.1e-5 1.924451,-6e-5 0.355545,-3.9e-5 0.711089,-9.7e-5 1.066633,-1.46e-4 0.261677,-10e-6 0.523354,2.1e-5 0.785031,1.4e-5 0.291216,4.3e-5 0.582431,1.3e-5 0.873647,-1.5e-5 0.211763,-3.1e-5 0.423527,-1.5e-5 0.63529,-1.8e-5 0.208366,-1.2e-5 0.416731,-6e-6 0.625097,1.1e-5 0.166196,6e-6 0.332392,7e-6 0.498588,1.5e-5 0,0 -0.07115,0.05169 -0.07115,0.05169 l 0,0 c -0.166209,8e-6 -0.332418,9e-6 -0.498628,1.5e-5 -0.208375,1.7e-5 -0.416751,2.3e-5 -0.625127,1.1e-5 -0.211747,-3e-6 -0.423493,1.4e-5 -0.63524,-1.8e-5 -0.291203,-2.7e-5 -0.582405,-5.8e-5 -0.873608,-1.4e-5 -0.261689,-7e-6 -0.523379,2.4e-5 -0.785068,1.3e-5 -0.355411,-4.8e-5 -0.710822,-1.07e-4 -1.066232,-1.45e-4 -0.641429,-5e-5 -1.282857,-1.26e-4 -1.924285,-6.1e-5 -0.477994,5e-5 -0.955989,1.23e-4 -1.433983,1.96e-4 -0.264167,3.6e-5 -0.528335,-10e-6 -0.792502,-4.4e-5 -0.33843,-2.9e-5 -0.676859,-3.1e-5 -1.015289,1.04e-4 0,0 0.0713,-0.05181 0.0713,-0.05181 z" id="path4228" style="opacity:1;fill:#800080;fill-opacity:1;stroke:#800080;stroke-opacity:1"/>
    <path d="m 24.77001,18.46971 c 0.338334,1.36e-4 0.676669,1.33e-4 1.015003,1.04e-4 0.264207,-3.4e-5 0.528414,-8e-5 0.792621,-4.4e-5 0.477815,7.3e-5 0.95563,1.46e-4 1.433445,1.96e-4 0.641484,6.5e-5 1.282967,-1.1e-5 1.924451,-6e-5 0.355545,-3.9e-5 0.711089,-9.7e-5 1.066633,-1.46e-4 0.261677,-10e-6 0.523354,2.1e-5 0.785031,1.4e-5 0.291216,4.3e-5 0.582431,1.3e-5 0.873647,-1.5e-5 0.211763,-3.1e-5 0.423527,-1.5e-5 0.63529,-1.8e-5 0.208366,-1.2e-5 0.416731,-6e-6 0.625097,1.1e-5 0.166196,6e-6 0.332392,7e-6 0.498588,1.5e-5 0,0 -0.07115,0.05169 -0.07115,0.05169 l 0,0 c -0.166209,8e-6 -0.332418,9e-6 -0.498628,1.5e-5 -0.208375,1.7e-5 -0.416751,2.3e-5 -0.625127,1.1e-5 -0.211747,-3e-6 -0.423493,1.4e-5 -0.63524,-1.8e-5 -0.291203,-2.7e-5 -0.582405,-5.8e-5 -0.873608,-1.4e-5 -0.261689,-7e-6 -0.523379,2.4e-5 -0.785068,1.3e-5 -0.355411,-4.8e-5 -0.710822,-1.07e-4 -1.066232,-1.45e-4 -0.641429,-5e-5 -1.282857,-1.26e-4 -1.924285,-6.1e-5 -0.477994,5e-5 -0.955989,1.23e-4 -1.433983,1.96e-4 -0.264167,3.6e-5 -0.528335,-10e-6 -0.792502,-4.4e-5 -0.33843,-2.9e-5 -0.676859,-3.1e-5 -1.015289,1.04e-4 0,0 0.0713,-0.05181 0.0713,-0.05181 z" id="path4230" style="opacity:1;fill:#800080;fill-opacity:1;stroke:#800080;stroke-opacity:1"/>
    <rect height="8.3125" id="rect4234" style="opacity:1;fill:#800080;fill-opacity:1;stroke:#800080;stroke-opacity:1" width="2.875" x="17.4375" y="30.6875"/>
    <rect height="8.3125" id="rect4238" style="opacity:1;fill:#800080;fill-opacity:1;stroke:#800080;stroke-opacity:1" width="2.875" x="17.5625" y="13.375"/>
    <rect height="8.3125" id="rect4240" style="opacity:1;fill:#800080;fill-opacity:1;stroke:#800080;stroke-opacity:1" width="2.875" x="17.5" y="21.375"/>
  </g>
</svg>