<?xml version="1.0" encoding="UTF-8" standalone="no"?>
<!-- Created with Inkscape (http://www.inkscape.org/) -->

<svg
   xmlns:dc="http://purl.org/dc/elements/1.1/"
   xmlns:cc="http://creativecommons.org/ns#"
   xmlns:rdf="http://www.w3.org/1999/02/22-rdf-syntax-ns#"
   xmlns:svg="http://www.w3.org/2000/svg"
   xmlns="http://www.w3.org/2000/svg"
   xmlns:sodipodi="http://sodipodi.sourceforge.net/DTD/sodipodi-0.dtd"
   xmlns:inkscape="http://www.inkscape.org/namespaces/inkscape"
   id="svg2"
   version="1.1"
   inkscape:version="0.48.4 r9939"
   width="229"
   height="220"
   sodipodi:docname="icon.pdf">
  <metadata
     id="metadata8">
    <rdf:RDF>
      <cc:Work
         rdf:about="">
        <dc:format>image/svg+xml</dc:format>
        <dc:type
           rdf:resource="http://purl.org/dc/dcmitype/StillImage" />
        <dc:title></dc:title>
      </cc:Work>
    </rdf:RDF>
  </metadata>
  <defs
     id="defs6" />
  <sodipodi:namedview
     pagecolor="#ffffff"
     bordercolor="#666666"
     borderopacity="1"
     objecttolerance="10"
     gridtolerance="10"
     guidetolerance="10"
     inkscape:pageopacity="0"
     inkscape:pageshadow="2"
     inkscape:window-width="1366"
     inkscape:window-height="715"
     id="namedview4"
     showgrid="false"
     inkscape:zoom="1.9635036"
     inkscape:cx="180.94424"
     inkscape:cy="127.98656"
     inkscape:window-x="0"
     inkscape:window-y="0"
     inkscape:window-maximized="1"
     inkscape:current-layer="svg2" />
  <g
     id="g3055"
     transform="translate(-151.94916,110)" />
  <path
     style="fill:#333333"
     d="m 125.75148,184.59181 -9.23316,-4.70078 7.47641,-12.49842 c 4.11203,-6.87413 7.47505,-12.94842 7.47337,-13.49842 -0.002,-0.55 -4.61114,-3.89591 -10.24326,-7.43536 -5.63211,-3.53945 -11.22178,-7.17989 -12.42149,-8.08987 l -2.18128,-1.65452 5.68128,-9.65981 c 3.86093,-6.56468 6.13057,-9.49104 7.08347,-9.13311 0.7712,0.28968 6.42888,3.66454 12.57262,7.49967 6.14374,3.83515 11.62735,6.97299 12.1858,6.97299 0.55845,0 4.29649,-5.56971 8.30675,-12.37713 l 5.89796,-10.01182 0.8522,-0.95531 0.38977,-0.32198 0.46388,-0.22886 0.42099,0.013 0.46487,0.1662 1.06193,0.74847 6.57422,4.34036 c 3.29378,2.17459 6.13371,4.35896 7.66413,5.72054 0.27142,0.24147 0.50164,0.45706 0.68591,0.64213 0.33338,0.33482 0.28201,0.92122 0.28628,1.02873 0.005,0.13166 0.0279,0.2578 -0.35672,1.00377 -0.11342,0.22001 -0.24189,0.46336 -0.38427,0.72806 -1.21575,2.26019 -3.44592,6.07707 -5.9885,10.21121 -3.85001,6.25997 -6.99615,11.69923 -6.99144,12.08723 0.005,0.38801 3.26721,2.70591 7.25,5.15089 3.98279,2.44498 9.60537,5.94723 12.49463,7.78277 l 5.25318,3.33734 -6.66772,9.71724 c -2.5211,3.67414 -4.60632,6.27783 -5.79089,8.00572 -0.10697,0.15604 -0.40058,0.53384 -0.48974,0.66392 -0.35971,0.52483 -0.687,0.7536 -0.70995,0.78774 -0.0211,0.0313 -0.45766,0.007 -0.99867,-0.25731 -0.6135,-0.29945 -0.9815,-0.53912 -1.219,-0.67862 -2.03026,-1.19249 -5.04111,-2.96269 -9.46981,-5.80637 -6.42237,-4.12382 -12.07586,-7.49785 -12.56332,-7.49785 -0.48745,0 -3.91587,5.175 -7.61869,11.5 -3.70283,6.325 -7.0128,11.47714 -7.3555,11.4492 -0.34269,-0.0279 -4.778,-2.16615 -9.85624,-4.75158 z"
     id="path3005"
     inkscape:connector-curvature="0"
     sodipodi:nodetypes="ccscsscssssscccccccssscssscsscssscssssscsc" />
  <path
     style="fill:#333333"
     d="m 41.934271,165.5201 c -0.6744,-2.11431 -3.63222,-20.96993 -3.3236,-21.18744 0.16095,-0.11344 2.76764,-0.71257 5.79264,-1.3314 3.025,-0.61883 17.79143,-3.66628 32.81428,-6.77211 15.02285,-3.10583 27.411709,-5.48839 27.530779,-5.29458 0.40689,0.66227 4.64508,22.19581 4.39969,22.3541 -0.13461,0.0868 -14.644749,2.96062 -32.244749,6.3862 -17.6,3.42557 -32.57953,6.41958 -33.28785,6.65334 -0.70832,0.23377 -1.46486,-0.12988 -1.68119,-0.80811 z"
     inkscape:connector-curvature="0" />
  <path
     style="fill:#333333"
     d="m 65.566386,105.98381 c -0.90845,-6.261105 -1.8165,-11.548595 -2.01789,-11.749975 -0.20138,-0.20139 -5.82375,0.46608 -12.49414,1.48326 l -12.12799,1.84942 -0.59167,-4.59944 c -0.32542,-2.52969 -0.829389,-6.26919 -1.11993,-8.30999 -0.131007,-0.92022 -0.269518,-1.62608 -0.258123,-2.190477 0.0416,-2.060805 2.081777,-2.23559 13.783203,-4.072875 5.16497,-0.810971 9.6223,-1.705933 9.90517,-1.988801 0.28287,-0.282868 -0.23052,-4.999142 -1.14087,-10.480609 -0.91034,-5.481467 -1.502808,-9.844819 -1.502808,-10.627436 0,-1.008867 2.186808,-2.548635 7.886078,-3.435226 4.42114,-0.687764 8.050848,0.138616 8.252238,0.346642 0.2014,0.208026 1.247172,4.082546 2.137722,10.099802 0.89056,6.017256 1.84991,11.171174 2.13188,11.453151 0.28198,0.281978 5.33377,-0.184426 11.2262,-1.036453 5.89244,-0.852026 10.841564,-1.452908 10.998044,-1.335293 0.15649,0.117615 0.86133,3.838736 1.56631,8.269157 l 1.28179,8.055308 -3.06631,0.53083 c -1.686471,0.29196 -6.778814,1.07939 -11.316314,1.74985 -4.5375,0.67046 -8.24829,1.70366 -8.24619,2.296 0.002,0.59234 0.66923,5.12698 1.48254,10.076985 2.49921,15.21093 2.92218,14.29826 -6.80178,14.67653 l -8.31543,0.32347 z"
     inkscape:connector-curvature="0"
     sodipodi:nodetypes="scscsssssssscscscscsscsscs" />
  <path
     sodipodi:type="arc"
     style="fill:#333333"
     sodipodi:cx="157.10141"
     sodipodi:cy="18.82489"
     sodipodi:rx="15.639054"
     sodipodi:ry="15.639054"
     d="m 172.74046,18.82489 a 15.639054,15.639054 0 1 1 -31.2781,0 15.639054,15.639054 0 1 1 31.2781,0 z"
     transform="matrix(1.1031972,0,0,1.1031972,-20.71654,14.597196)" />
  <path
     transform="matrix(1.1617552,0,0,1.1617552,-45.268518,80.86467)"
     sodipodi:type="arc"
     style="fill:#333333"
     sodipodi:cx="157.10141"
     sodipodi:cy="18.82489"
     sodipodi:rx="15.639054"
     sodipodi:ry="15.639054"
     d="m 172.74046,18.82489 a 15.639054,15.639054 0 1 1 -31.2781,0 15.639054,15.639054 0 1 1 31.2781,0 z" />
  <path
     style="fill:#333333"
     d="m 114.075,84.065155 c -0.6744,-2.11431 -3.63222,-20.96993 -3.3236,-21.18744 0.16095,-0.11344 2.76764,-0.71257 5.79264,-1.3314 3.025,-0.61883 17.79143,-3.66628 32.81428,-6.77211 15.02285,-3.10583 27.41171,-5.48839 27.53078,-5.29458 0.40689,0.66227 4.64508,22.19581 4.39969,22.3541 -0.13461,0.0868 -14.64475,2.96062 -32.24475,6.3862 -17.6,3.42557 -32.57953,6.41958 -33.28785,6.65334 -0.70832,0.23377 -1.46486,-0.12988 -1.68119,-0.80811 z"
     inkscape:connector-curvature="0" />
  <path
     style="fill:#808080"
     d="m 126.9419,182.47703 -7.57485,-3.8565 8.77071,-14.83387 c 3.34459,-5.6567 6.1325,-10.62283 6.13112,-11.07405 -0.002,-0.45122 -3.78296,-3.1962 -8.40353,-6.09994 -4.62056,-2.90376 -13.64772,-8.24987 -14.63196,-8.99641 l -1.78952,-1.35736 4.6609,-7.92487 c 3.1675,-5.38565 5.0295,-7.78642 5.81126,-7.49278 0.63268,0.23766 9.71565,5.36588 14.75594,8.51221 5.04031,3.14635 9.53904,5.72062 9.9972,5.72062 0.45814,0 3.52482,-4.56937 6.81482,-10.15416 l 4.83867,-8.21365 2.78104,-4.53118 0.31977,-0.26415 0.38057,-0.18776 0.34537,0.0106 0.38138,0.13635 0.87121,0.61404 5.39346,3.56082 c 2.7022,1.78402 5.03208,3.57607 6.28762,4.69311 0.22268,0.1981 0.41155,0.37497 0.56272,0.5268 0.27351,0.27468 0.23136,0.75576 0.23487,0.84397 0.004,0.10801 0.0229,0.21149 -0.29266,0.82349 -0.0931,0.18049 -2.28035,4.12757 -2.39715,4.34474 -0.99741,1.85425 -2.82703,4.9856 -4.91295,8.37723 -3.15854,5.13566 -5.73961,9.598 -5.73575,9.91632 0.004,0.31832 2.68041,2.21992 5.94787,4.22577 3.26747,2.00586 11.76645,7.65496 14.13679,9.16083 l 4.30969,2.73795 -5.47017,7.97199 c -2.0683,3.01426 -4.19539,6.39946 -5.16721,7.81701 -0.0877,0.12802 -3.7985,-3.58707 -3.87164,-3.48035 -0.29511,0.43057 3.87781,3.53293 3.85898,3.56094 -0.0173,0.0256 -4.81689,-2.90868 -5.26073,-3.12578 -0.50331,-0.24567 -0.80521,-0.44229 -1.00006,-0.55674 -1.66561,-0.97831 -4.13571,-2.43057 -7.76899,-4.76352 -5.26889,-3.38317 -9.90699,-6.15121 -10.3069,-6.15121 -0.39991,0 -3.21257,4.24556 -6.25035,9.43455 -3.03779,5.18901 -8.39037,13.99602 -8.67152,13.9731 -0.15192,-0.0124 -2.50067,-0.0163 -4.62774,-1.57641 -1.02263,-0.75003 -2.82678,-1.52517 -3.47818,-2.15226 -0.50112,-0.48243 0.0199,-1.10384 0.0199,-0.16951 z"
     id="path3005-4"
     inkscape:connector-curvature="0"
     sodipodi:nodetypes="ccscsscssssscccccccssscssscsscssscssssscsssc" />
  <path
     transform="matrix(1.0147951,0,0,1.0147951,-22.229906,83.305089)"
     sodipodi:type="arc"
     style="fill:#808080"
     sodipodi:cx="157.10141"
     sodipodi:cy="18.82489"
     sodipodi:rx="15.639054"
     sodipodi:ry="15.639054"
     d="m 172.74046,18.82489 a 15.639054,15.639054 0 1 1 -31.2781,0 15.639054,15.639054 0 1 1 31.2781,0 z" />
  <path
     style="fill:#808080"
     d="m 43.262649,163.1229 c -0.586001,-1.60017 -3.529713,-18.11222 -3.261547,-18.27684 0.139854,-0.0858 30.424685,-6.61026 33.053173,-7.0786 2.628489,-0.46835 5.751709,-1.15319 6.470782,-1.29594 23.576983,-4.68037 23.818633,-4.71418 23.922093,-4.56749 0.35355,0.50122 4.69,19.8806 4.47678,20.00039 3.15201,-0.6815 -16.296853,3.12546 -31.473939,6.32766 -15.386421,3.24636 -31.484643,5.88591 -32.100118,6.06281 -0.615475,0.17693 -0.89925,-0.6587 -1.087224,-1.17199 z"
     inkscape:connector-curvature="0"
     sodipodi:nodetypes="scssccscs" />
  <path
     style="fill:#808080"
     d="m 66.711722,102.21905 c -0.798191,-5.241989 -1.463319,-9.686719 -1.625553,-9.855629 -0.162226,-0.16892 -4.691443,0.39094 -10.064915,1.24413 l -14.488957,1.96764 -0.476632,-3.85791 c -0.111679,-0.90395 -0.249463,-1.99206 -0.388937,-3.07572 -0.187918,-1.46004 -0.378904,-2.912 -0.513246,-3.89454 -0.105537,-0.77186 -0.217116,-1.36392 -0.207937,-1.83732 0.03352,-1.72856 6.396023,-2.291553 15.82235,-3.832625 4.160748,-0.680225 7.751444,-1.430899 7.979315,-1.668164 0.227872,-0.237266 -0.1857,-4.193175 -0.919052,-8.790914 -0.733343,-4.597741 -1.210618,-8.25763 -1.210618,-8.914072 0,-0.525505 -1.144168,-3.248273 -0.17547,-4.783491 0.591189,-0.936933 2.579026,-0.908958 4.319054,-1.190799 2.33756,-0.378626 5.526656,-1.320511 7.356668,-0.236207 0.958221,0.567758 1.140856,2.496967 1.500303,3.619856 0.162243,0.174488 1.004686,3.424355 1.722088,8.471504 0.717409,5.047149 1.490234,9.370148 1.71738,9.606659 0.227155,0.236519 4.296729,-0.154688 9.043499,-0.869353 4.746776,-0.714665 8.733645,-1.218662 8.859701,-1.120013 0.06083,0.04761 3.376209,-0.785718 4.405246,0.188751 1.103431,1.044927 0.931871,3.955815 1.311911,5.863555 l 1.26147,6.332543 -4.684277,1.30778 -2.470134,0.44524 c -1.358571,0.24489 -5.460813,0.90537 -9.116091,1.46773 -3.655277,0.56237 -6.64458,1.42901 -6.642889,1.92585 0.0016,0.49684 0.539117,4.3004 1.19429,8.45236 1.194133,7.567439 2.876767,12.667039 1.736162,14.839659 -0.782439,1.49039 -3.334314,1.08905 -6.521505,1.21814 l -6.698667,0.27132 z"
     inkscape:connector-curvature="0"
     sodipodi:nodetypes="scscssssssssssscscscssccsscssscs" />
  <path
     style="fill:#808080"
     d="m 115.09442,82.130417 c -0.26439,-0.828921 -0.94106,-4.680446 -1.56855,-8.612934 -0.73507,-4.606773 -1.40266,-9.324655 -1.26092,-9.424552 0.13702,-0.09658 2.35617,-0.606632 4.93144,-1.13346 2.57527,-0.526828 18.33864,-3.953975 31.12802,-6.598059 12.7894,-2.644083 26.25108,-5.643986 26.35244,-5.47899 0.17278,0.281218 1.15701,4.982893 2.07431,9.642099 0.92178,4.68197 1.77598,9.321055 1.67127,9.388597 -0.11459,0.0739 -15.38218,3.492022 -30.36558,6.408318 -14.98338,2.916288 -30.92817,6.297941 -31.53118,6.496948 -0.60301,0.199015 -1.24708,-0.11057 -1.43125,-0.687967 z"
     inkscape:connector-curvature="0"
     sodipodi:nodetypes="sscsscscscs" />
  <path
     sodipodi:type="arc"
     style="fill:#808080"
     sodipodi:cx="157.10141"
     sodipodi:cy="18.82489"
     sodipodi:rx="15.639054"
     sodipodi:ry="15.639054"
     d="m 172.74046,18.82489 a 15.639054,15.639054 0 1 1 -31.2781,0 15.639054,15.639054 0 1 1 31.2781,0 z"
     transform="matrix(0.97894933,0,0,0.97894933,-1.2443083,16.474925)"
     inkscape:transform-center-x="-1.2316256"
     inkscape:transform-center-y="-13.424712" />
  <path
     style="fill:#4d4d4d"
     d="m 69.320676,221.66529 c -13.41767,-0.21391 -17.83429,-0.43739 -17.99179,-0.91035 -0.1148,-0.34476 -2.45056,-1.31863 -5.19056,-2.16417 -9.76239,-3.01256 -18.7203,-8.03114 -24.89311,-13.94612 -5.89107,-5.64501 -12.3712601,-16.99825 -14.8651001,-26.04354 -0.61782,-2.24089 -1.5007,-4.49941 -1.96194,-5.01894 -0.75326,-0.84844 -0.86454,-4.14024 -1.09327,-32.34015 -0.14006,-17.26755 -0.14006,-45.385858 0,-62.485119 0.23558,-28.761673 0.3229,-31.193715 1.1662,-32.480522 0.50136,-0.765026 1.46946,-3.316154 2.15134,-5.669173 2.59581,-8.957617 8.2781001,-18.919427 14.1413701,-24.791739 5.7589,-5.767783 15.83996,-11.5509573 24.81247,-14.2341063 2.10083,-0.62823602 4.73643,-1.62103902 5.85687,-2.20622802 2.03343,-1.06202498 2.15042,-1.06397998 63.661724,-1.06397998 58.96542,0 61.70145,0.04063 63.40706,0.94171098 0.98039,0.517941 3.94658,1.628425 6.59153,2.46774202 9.29778,2.950444 18.62751,8.3814293 24.39003,14.1978213 5.86199,5.916802 11.46643,15.759076 14.05195,24.677424 0.67173,2.317047 1.64285,4.856102 2.15804,5.642345 0.89655,1.368257 0.9367,4.107976 0.9367,63.914274 0,56.9718 -0.0731,62.5681 -0.82826,63.42952 -0.45554,0.51963 -1.56575,3.34193 -2.46714,6.27179 -2.75484,8.95436 -7.59818,17.57275 -13.30224,23.67041 -5.71113,6.10521 -16.26372,12.17806 -26.52383,15.26402 -2.42833,0.73038 -4.50855,1.60817 -4.6227,1.95064 -0.38471,1.15411 -62.41261,1.6785 -109.585344,0.92644 l 0,0 z m 99.291054,-11.74954 c 10.17151,-0.39031 12.84397,-0.65491 15.78811,-1.56316 13.65551,-4.21264 25.93885,-16.75276 29.30616,-29.9188 1.51353,-5.91785 1.97231,-21.74417 1.98084,-68.33268 0.008,-43.355208 -0.50543,-62.996152 -1.77827,-68.03514 -1.26783,-5.019157 -4.96501,-11.880712 -8.77802,-16.291049 C 196.33456,15.601012 188.03457,11.301139 174.95688,10.143239 165.68434,9.3222457 65.107046,9.3485287 55.272866,10.174519 c -7.01023,0.588798 -11.46214,1.727523 -16.30717,4.171104 -8.18831,4.129762 -17.11768,13.594798 -20.5752,21.80948 -2.42795,5.768557 -2.83394,8.418067 -3.40986,22.252709 -0.67879,16.305801 -0.27423,107.783638 0.50719,114.683138 0.99176,8.75677 5.39833,17.34052 12.42639,24.20593 7.32221,7.15274 14.54774,10.93782 23.2843,12.19744 8.18535,1.18015 89.989374,1.47378 117.413214,0.42144 z"
     id="path3445"
     inkscape:connector-curvature="0" />
</svg>
