<?xml version="1.0" encoding="UTF-8"?>
<!DOCTYPE svg PUBLIC "-//W3C//DTD SVG 1.1//EN" "http://www.w3.org/Graphics/SVG/1.1/DTD/svg11.dtd">
<!-- Creator: CorelDRAW -->
<svg xmlns="http://www.w3.org/2000/svg" xml:space="preserve" width="300px" height="300px" style="shape-rendering:geometricPrecision; text-rendering:geometricPrecision; image-rendering:optimizeQuality; fill-rule:evenodd; clip-rule:evenodd"
viewBox="0 0 35.7529 29.4765"
 xmlns:xlink="http://www.w3.org/1999/xlink">
 <defs>
  <style type="text/css">
   <![CDATA[
    .str0 {stroke:#1F1A17;stroke-width:0.1261}
    .str1 {stroke:#1F1A17;stroke-width:0.291917}
    .fil3 {fill:none}
    .fil2 {fill:#0093DD}
    .fil20 {fill:#1F1A17}
    .fil21 {fill:#573A2F}
    .fil0 {fill:#B57D5F}
    .fil4 {fill:#C0A062}
    .fil1 {fill:#E77817}
    .fil5 {fill:#EAB7C2}
    .fil13 {fill:#110F0E}
    .fil7 {fill:#362A27}
    .fil9 {fill:#3B424D}
    .fil12 {fill:#4C5566}
    .fil18 {fill:#736A67}
    .fil15 {fill:#96433A}
    .fil8 {fill:#9F9E79}
    .fil14 {fill:#C74637}
    .fil17 {fill:#D41115}
    .fil16 {fill:#D4492B}
    .fil6 {fill:#D4BD96}
    .fil10 {fill:#E74227}
    .fil11 {fill:#E7C818}
    .fil19 {fill:#E9E9E9}
   ]]>
  </style>
 </defs>
 <g id="Layer_x0020_1">
  <metadata id="CorelCorpID_0Corel-Layer"/>
  <path class="fil0" d="M13.7817 5.64489c-0.983649,-0.23499 -5.46038,-0.683126 -2.39094,-4.94456 3.57897,-2.30704 6.09154,1.6254 4.0976,3.95793 1.34209,-0.275534 2.09754,-0.124445 3.06646,0.533196 -1.67157,-6.02071 4.76335,-4.70824 5.29092,-2.92927 0.957833,4.56708 -2.18938,4.53895 -4.47772,4.2889 -0.146621,2.04441 -1.59975,3.39561 -3.23972,4.77344 -0.817666,0.668894 -2.32706,0.526411 -2.61253,-0.187992 -0.236149,-0.496458 -0.392367,-0.992751 -0.389058,-1.48921l-3.18875 -1.14367c-0.745845,-0.334613 -1.7333,-0.565797 -0.932514,-1.56318 0.111703,-0.699178 2.79092,-0.227709 1.49252,1.25471l2.48378 0.409412c0.0266432,-1.14649 0.24012,-2.15976 0.799959,-2.95972z"/>
  <path class="fil1" d="M13.7284 12.1778l3.62646 -0.319884 4.66439 -1.97276c0.756106,-0.439862 1.41904,-0.999536 2.26832,-1.31975 0.358774,0.46303 0.637783,0.859369 0.637452,1.54845l-5.24558 3.10799c-1.81124,0.667405 -0.895279,2.8778 -0.564638,4.79562 0.157543,0.735751 -0.230191,2.00337 -2.44026,2.4065 -1.44188,-0.0905209 -3.32726,0.203051 -4.22602,-0.966604 0.3131,-1.658 1.29129,-3.44923 0.939133,-4.97418 -0.172105,-0.556364 -1.86106,-0.689084 -3.01317,-0.92457 -1.47134,-0.300854 -1.53505,-0.977691 -2.22744,-1.45462 -0.636459,-0.438207 -0.747169,-1.39902 0.675017,-1.65949 0.427616,0.0857218 0.424968,0.278182 0.518964,0.443503 0.826603,1.45346 3.88594,1.28798 4.38737,1.2898z"/>
  <path class="fil2" d="M15.903 20.4019c2.38945,0.0779439 2.80284,-1.09006 3.23293,-1.91004 0.988448,2.7004 0.160521,5.31425 0.124776,7.77519 0.124445,0.126597 0.256503,0.253525 0.564142,0.310286 0.629674,0.116337 1.57096,0.150758 1.71642,0.772985 -0.334282,0.286291 -0.44251,0.413053 -1.84103,0.0608989 -0.649698,-0.406103 -1.44238,0.196432 -2.01248,-0.608492 0.0201893,-1.37138 0.0501423,-3.2988 0.230026,-4.63013 -0.217945,-0.303005 -0.768352,-1.04504 -1.39852,-0.443503 -0.578043,-0.0443503 -0.82412,2.69527 0.220924,5.25815 -0.378797,0.400642 -0.498278,0.587144 -1.2476,0.782087 -0.807737,0.210167 -1.47647,0.83405 -1.81952,1.29013 -0.377143,0.501092 -0.83405,0.535513 -1.01129,0.18402 -0.636625,-1.262 2.23754,-1.60472 1.87976,-2.826l-1.77467 -3.51211c-0.185675,-0.718209 2.85612,-1.89167 3.13613,-2.50347z"/>
  <path class="fil3 str0" d="M15.5699 8.91754c1.07185,-0.456079 6.05927,-1.23734 6.56897,-0.936154"/>
  <path class="fil3 str0" d="M15.7136 9.30892c4.37082,-0.921757 6.2322,0.372178 6.7419,0.673197"/>
  <path class="fil3 str0" d="M9.70427 9.56261c1.21831,-0.668894 2.873,-0.237141 3.42258,0.156881"/>
  <path class="fil3 str0" d="M8.80965 9.26887c0.593929,-0.616435 1.72585,-0.505891 2.12137,-0.374826"/>
  <path class="fil4 str1" d="M13.9566 9.81812c0.31492,-0.265936 0.646223,-0.265274 1.00102,0.0539484 0.0642086,0.35596 0.0987952,0.471635 -0.142814,0.694379 -0.246409,0.236645 -0.638942,0.189151 -0.85821,-0.0230026 -0.106408,-0.268418 -0.0931686,-0.48355 0,-0.725325z"/>
  <path class="fil3 str0" d="M13.824 6.65469c0.170616,0.515158 0.752299,0.373667 1.00665,0.177897"/>
  <path class="fil3 str0" d="M16.6318 7.10498c0.170616,0.515158 1.19117,0.440027 1.31264,-0.035083"/>
  <path class="fil5" d="M15.1458 4.68557c-0.114847,-0.674521 0.0958164,-1.07417 0.0125769,-1.44684 -0.19395,-0.869629 -0.58731,-1.17462 -1.15526,-1.63186 -1.70451,-1.37221 -4.94125,1.88836 0.0395512,3.85516l1.10313 -0.77646z"/>
  <path class="fil5" d="M19.6793 6.29128c0.654828,-0.198749 1.07781,-0.0400476 1.43708,-0.169458 0.838352,-0.301846 1.09155,-0.73029 1.47365,-1.35136 1.14682,-1.86354 -2.49487,-4.66439 -3.81958,0.52426l0.908849 0.996557z"/>
  <path class="fil6" d="M35.4165 4.74382c-0.479744,-0.153571 -7.52415,2.00453 -8.4608,2.39971l0.210995 0.467994c0.830243,-0.504236 8.2134,-2.39458 8.24981,-2.86771z"/>
  <path class="fil7" d="M9.66306 20.8074l0.0239955 0.395677 0.0959819 1.04091c0.232839,0.163997 0.77646,0.816177 1.02634,0.692393 0.532699,0.356788 1.64642,0.471635 1.9208,0.491328l0.624875 0.0304494c0.459555,-0.0552723 0.870787,-0.153902 1.18041,-0.356622l0.0445157 -0.492321c0.0761236,-0.0541139 0.386244,-0.424472 0.403455,-0.128914 0.0104256,0.175581 -0.149268,0.473786 -0.120805,0.537995 0.455252,-0.33362 1.08013,-1.09469 0.98249,-1.96531l0.102601 -1.15559c-0.00810881,0.0920102 -0.0246574,0.436718 0.0243264,-0.903388l-0.00413715 -0.765869c0,-0.14116 -0.0302839,-0.158536 -0.040875,-0.286622l-0.0701661 0.577381 -0.0526246 -0.00413715c-0.0145628,-0.175581 -0.256172,-0.706625 -0.327497,-0.491328 -0.395181,-0.264612 -0.629343,-0.571754 -1.1872,-0.737075 -0.532699,-0.157708 -0.8784,-0.286456 -1.59694,-0.286456 -0.678824,0 -1.45495,0.162176 -1.88273,0.409909 -0.242437,0.140332 -0.426788,0.320712 -0.625537,0.520784 -0.25882,0.260971 -0.263454,0.55173 -0.39849,0.706956l0.082743 -0.491162 -0.154729 0.331138 -0.0599059 -0.370854c-0.140994,-1.00218 1.64129,-1.76193 2.62924,-1.76193l0.655159 0c0.611636,0 1.35368,0.0873766 1.59661,0.450453l0.204706 0 -0.636128 -0.418018 0.308631 -0.0324353c0.197425,0 0.414046,-0.0546104 0.52939,-0.041206 0.144469,0.0168796 0.204044,0.105911 0.412226,0.123122l0 -0.040875c-0.199411,-0.173429 -0.400311,-0.122791 -0.695869,-0.122791l-0.245747 0 -0.614119 -0.0819156 -0.409412 0c-0.303998,0.192957 -0.945918,0.0185344 -1.37668,0.0971403 -0.429602,0.0784404 -0.783411,0.171278 -1.12663,0.306315 -0.605679,0.238465 -1.3042,0.730786 -1.3042,1.56169 0,0.22473 0.0837359,0.323194 0.122791,0.491328l-0.0819156 0c0,1.46008 -0.0208512,0.36258 0.0410405,2.16985z"/>
  <path class="fil8" d="M9.90864 18.6375l0 0.122791c0,0.261799 0.864002,0.710266 1.10512,0.819156 0.389223,0.175746 1.02949,0.327166 1.59711,0.327166l0.327497 0c0.846792,0 1.41093,-0.197425 1.71957,-0.286622 1.40862,-0.40693 0.950221,-0.529886 0.976533,-0.741708l0.0878731 -0.117992c-0.0847288,-1.01906 -1.68862,-1.67852 -2.86589,-1.67852l-0.409412 0c-1.02932,0 -2.53839,0.64854 -2.53839,1.55573z"/>
  <path class="fil9" d="M15.927 17.9415l0 -0.122791 -0.0541139 0.089197 -0.0690077 -0.130734 -0.138512 0.0665254 -0.475276 -0.802938c-0.241113,0.0201893 -0.0853908,0.0819156 -0.245747,0.0819156l-0.193619 -0.00877076 -0.215794 -0.318726c-0.242933,-0.363076 -0.984973,-0.450453 -1.59661,-0.450453l-0.655159 0c-0.987952,0 -2.77024,0.759746 -2.62924,1.76193l0.0599059 0.370854 0.154729 -0.331138 -0.082743 0.491162c0.135037,-0.155226 0.13967,-0.445985 0.39849,-0.706956 0.198749,-0.200073 0.3831,-0.380452 0.625537,-0.520784 0.427781,-0.247733 1.20391,-0.409909 1.88273,-0.409909 0.71854,0 1.06424,0.128748 1.59694,0.286456 0.557853,0.165321 0.792016,0.472463 1.1872,0.737075 0.0713245,-0.215297 0.312934,0.315747 0.327497,0.491328l0.0526246 0.00413715 0.0701661 -0.577381z"/>
  <path class="fil9" d="M9.89954 19.2093c0.15142,-0.0668564 0.336599,0.00777784 0.336599,0.165155l0 0.040875c0,0.17889 -0.0817501,0.148772 -0.0817501,0.327662 0,0.216952 0.875587,0.582842 1.13027,0.671046 0.41537,0.143973 1.06937,0.229529 1.61266,0.229529 0.703316,0 1.1728,-0.200073 1.71957,-0.327497l0 -0.614119c-0.341232,0.00761236 -0.895114,0.286622 -1.35103,0.286622l-0.573244 0c-0.526907,0 -1.18703,-0.145959 -1.57973,-0.303501 -0.67088,-0.26908 -0.678824,-0.395512 -1.1771,-0.722015l-0.0362414 0.246243z"/>
  <path class="fil10" d="M10.8503 22.1584c0.235983,0.205037 2.2056,0.739557 2.66118,0.450453l-0.122791 0 -1.14632 -1.92427 -0.286622 -0.0410405 -1.10545 1.51486z"/>
  <path class="fil11" d="M12.2423 20.6846l1.14632 1.92427 0.122791 0 0 -0.0819156 0.982656 -1.76044 0.204706 -0.368537 0 -0.040875c-0.998377,0.232508 -1.12812,0.327497 -2.45647,0.327497z"/>
  <path class="fil12" d="M9.93926 21.7444l0.0921757 0.00463361 0.0127424 0.59757 0.521115 0.390051 0.179718 -0.0569272 0.0706625 0.140829 0.15655 -0.12759 0.134209 0.0403786 -0.0514662 0.284967c0.235652,0.0195273 0.505063,0.163004 0.801945,0.221586 0.305984,0.0605679 0.567783,0.105911 0.91762,0.105911l0.532203 0c0.332296,0 0.985635,-0.19246 1.16155,-0.333454l0.154233 -0.54991 -0.783411 0.228205 0 0.286622 -0.0410405 0 0 -0.204706 -0.0819156 0 0 0.204706 -0.0817501 0 0 -0.204706 -0.0819156 0 0 0.163831 -0.0819156 0 -0.0183689 -0.169954 -0.0274707 0.0939961 -0.135368 -0.0987952 -0.0829085 0.140001 -0.024161 -0.0973058 -0.210664 0.0471635 0.0486529 -0.119812c-0.40511,0.00893624 -0.101277,0.143145 -0.286622,0.204706l0 -0.122791 -0.122791 0 0 0.163666 -0.0762891 -0.000661944 -0.0466671 -0.163004 -0.00728138 0.183689 -0.228867 -0.0877076 -0.214139 0.149599 0 -0.327497 -0.0819156 0 0 0.204706 -0.040875 0 0 -0.204706 -0.0410405 0 0 0.245581 -0.0817501 0 0.00479909 -0.278347 -0.220758 0.140663 0.174919 0.0557688 0 0.0819156c-0.0963129,-0.00794333 -0.204706,-0.0369034 -0.204706,-0.122791 0,-0.0984642 0.0663599,-0.120308 0.122791,-0.204706 -0.537664,-0.125273 -1.52628,-0.586482 -1.65536,-1.07235l-0.0744687 0.166975z"/>
  <path class="fil11" d="M10.3591 20.3161c0.200238,0.146786 0.0961474,0.207188 0.0843979,0.412722 -0.00877076,0.152578 0.0944925,0.335109 0.13636,0.471966 0.0716554,0.235487 0.265771,0.7475 0.270404,0.957668l1.10545 -1.51486c-0.842489,-0.196266 -1.09353,-0.276693 -1.74737,-0.679817l0.150758 0.188654 0 0.163666z"/>
  <path class="fil13" d="M15.3538 16.3858l0 0.040875 0.122956 0 0 0.0819156 -0.580856 0.314754 -0.156219 -0.0281326 -0.204706 0 0.215794 0.318726 0.193619 0.00877076c0.160356,0 0.00463361,-0.0617263 0.245747,-0.0819156l0.475276 0.802938 0.138512 -0.0665254 0.0690077 0.130734 0.0541139 -0.089197c0.100946,-0.0878731 0.204706,-0.135037 0.204706,-0.327497 0,-0.230688 -0.262626,-0.605017 -0.450287,-0.655159l-0.0239955 -0.0332627 0.228702 -0.130403c-0.0148937,-0.177897 -0.149268,-0.327662 -0.286622,-0.327662 -0.154233,0 -0.0774475,0.0269742 -0.245747,0.0410405z"/>
  <polygon class="fil10" points="13.5114,22.5269 14.4352,22.2397 14.4941,20.7665 "/>
  <path class="fil11" d="M15.0263 20.3571l0.491328 1.06441c0.0620573,-0.0713245 0.163831,-0.279506 0.163831,-0.409412l0 -1.26911c-0.230853,0.0191964 -0.557853,0.430264 -0.655159,0.614119z"/>
  <path class="fil14" d="M10.8503 22.1584c-0.00463361,-0.210167 -0.198749,-0.722181 -0.270404,-0.957668 -0.0655325,-0.214966 -0.0839014,-0.784404 -0.220758,-0.884688 -0.0274707,0.0517971 -0.0819156,0.135368 -0.0819156,0.204706 0,0.491493 -0.245747,0.495796 -0.245747,0.941781 0,0.211988 0.593267,0.64341 0.818825,0.695869z"/>
  <polygon class="fil15" points="14.4941,20.7665 14.4352,22.2397 13.5114,22.5269 13.5114,22.6089 14.7503,22.2754 14.7286,22.24 14.7786,20.4425 14.6988,20.398 "/>
  <polygon class="fil16" points="15.5176,21.4215 15.0263,20.3571 14.9838,22.0765 15.0174,22.1031 "/>
  <path class="fil17" d="M14.7397 16.7952l0.156219 0.0281326 0.580856 -0.314754 0 -0.0819156 -0.122956 0c-0.208181,-0.0172105 -0.267756,-0.106242 -0.412226,-0.123122 -0.115344,-0.0134044 -0.331965,0.041206 -0.52939,0.041206l-0.308631 0.0324353 0.636128 0.418018z"/>
  <path class="fil18" d="M14.6988 20.3571c0.193288,0.040875 0.409412,-0.0867147 0.409412,-0.286622l0 -0.450453c0,-0.0668564 -0.0244919,-0.122791 -0.0819156,-0.122791 -0.163831,0 -0.203382,0.0843979 -0.368372,0.122791l0 0.614284c0,0.156384 -0.0125769,0.0148937 0.040875,0.122791z"/>
  <path class="fil18" d="M14.7397 23.0592l0.122956 -0.040875c-0.0284636,-0.0642086 0.13123,-0.362414 0.120805,-0.537995 -0.0172105,-0.295558 -0.327331,0.0747997 -0.403455,0.128914l-0.0445157 0.492321 0.20421 -0.0423644z"/>
  <path class="fil19" d="M15.3538 17.0408c0,0.0574236 0.0559343,0.0819156 0.122956,0.0819156 0.176077,0 0.221917,0.0478255 0.368372,0.0819156 -0.0165486,-0.200238 -0.146952,-0.25369 -0.286622,-0.327497 -0.0556033,0.0294565 -0.204706,0.0895279 -0.204706,0.163666z"/>
  <path class="fil19" d="M15.8263 17.6415c0.0691732,-0.0109221 0.100781,0.00397166 0.100781,-0.109386l0 -0.040875c0,-0.0954854 -0.109221,-0.204706 -0.204706,-0.204706l-0.116006 -0.00430264 0.219931 0.35927z"/>
  <path class="fil0" d="M24.4477 8.28473c0.52095,-0.443999 0.998874,-0.875917 1.29741,-1.11422 2.19931,-1.75548 2.72539,2.00917 -0.459224,2.83478l-0.838187 -1.72056z"/>
  <path class="fil6" d="M8.92532 8.73932l0.0718209 -0.456576 -8.68305 -1.40117 -0.0168796 0.104256c0.237638,0.450122 3.50648,0.862513 4.23909,0.99606 1.09949,0.200569 3.39693,0.753127 4.38902,0.757429z"/>
  <ellipse class="fil20" transform="matrix(0.0430209 0.0581226 -0.0581226 0.0430209 0.29727 6.98579)" rx="4.65347" ry="3.78086"/>
  <ellipse class="fil20" cx="35.4164" cy="4.74377" rx="0.336502" ry="0.273402"/>
  <polygon class="fil21" points="18.5892,14.8889 18.6504,15.703 15.9606,19.3094 15.927,17.9415 "/>
  <polygon class="fil21" points="12.1323,16.2338 12.97,16.2752 13.5507,12.1798 12.5222,12.1639 "/>
  <path class="fil20 str1" d="M11.9032 18.3208c0.486198,-0.133051 0.99755,-0.132554 1.54547,0.0269742 0.0991261,0.177897 0.152578,0.235818 -0.220593,0.34719 -0.380287,0.118323 -0.986297,0.094658 -1.32488,-0.011584 -0.164162,-0.134044 -0.143642,-0.24161 0,-0.36258z"/>
  <path class="fil0" d="M8.50615 10.072c-0.114847,-0.674686 0.0887005,-1.07268 0.0125769,-1.44684 -0.561494,-2.75733 -3.02955,-0.45277 -1.11571,2.22314l1.10313 -0.776295z"/>
 </g>
</svg>
