<?xml version="1.0" encoding="UTF-8" standalone="no"?>
<svg
   xmlns:dc="http://purl.org/dc/elements/1.1/"
   xmlns:cc="http://creativecommons.org/ns#"
   xmlns:rdf="http://www.w3.org/1999/02/22-rdf-syntax-ns#"
   xmlns:svg="http://www.w3.org/2000/svg"
   xmlns="http://www.w3.org/2000/svg"
   version="1.1"
   id="svg4164"
   viewBox="0 0 744.09448819 1052.3622047"
   height="297mm"
   width="210mm">
  <title
     id="title4489">Mariachi Mouse</title>
  <defs
     id="defs4166" />
  <metadata
     id="metadata4169">
    <rdf:RDF>
      <cc:Work
         rdf:about="">
        <dc:format>image/svg+xml</dc:format>
        <dc:type
           rdf:resource="http://purl.org/dc/dcmitype/StillImage" />
        <dc:title>Mariachi Mouse</dc:title>
        <cc:license
           rdf:resource="http://creativecommons.org/licenses/by-sa/3.0/" />
        <dc:date>January 11, 2017</dc:date>
        <dc:creator>
          <cc:Agent>
            <dc:title>Noliah Kyna Caracas</dc:title>
          </cc:Agent>
        </dc:creator>
        <dc:publisher>
          <cc:Agent>
            <dc:title>Noliah Kyna Caracas</dc:title>
          </cc:Agent>
        </dc:publisher>
        <dc:description>A mariachi mouse playing the maracas.</dc:description>
        <dc:contributor>
          <cc:Agent>
            <dc:title>The Creator.</dc:title>
          </cc:Agent>
        </dc:contributor>
      </cc:Work>
      <cc:License
         rdf:about="http://creativecommons.org/licenses/by-sa/3.0/">
        <cc:permits
           rdf:resource="http://creativecommons.org/ns#Reproduction" />
        <cc:permits
           rdf:resource="http://creativecommons.org/ns#Distribution" />
        <cc:requires
           rdf:resource="http://creativecommons.org/ns#Notice" />
        <cc:requires
           rdf:resource="http://creativecommons.org/ns#Attribution" />
        <cc:permits
           rdf:resource="http://creativecommons.org/ns#DerivativeWorks" />
        <cc:requires
           rdf:resource="http://creativecommons.org/ns#ShareAlike" />
      </cc:License>
    </rdf:RDF>
  </metadata>
  <g
     id="layer6">
    <rect
       transform="matrix(0.78804575,0.61561667,-0.64004263,0.7683394,0,0)"
       ry="11.400517"
       y="200.88976"
       x="277.27765"
       height="95.004318"
       width="22.956444"
       id="rect4356"
       style="opacity:1;fill:#803300;fill-opacity:1;stroke:#803300;stroke-width:1.33458555;stroke-opacity:1" />
    <path
       transform="matrix(0.79921126,0.60105022,-0.58687839,0.80967509,0,0)"
       d="m 255.35539,218.37463 a 38.613678,48.855507 0 0 1 -15.48624,-65.47502 38.613678,48.855507 0 0 1 51.40358,-20.99958 38.613678,48.855507 0 0 1 17.70071,64.57036 38.613678,48.855507 0 0 1 -50.64103,23.78127"
       id="path4358"
       style="opacity:1;fill:#d45500;fill-opacity:1;stroke:#d45500;stroke-width:1.13902426;stroke-opacity:1" />
    <rect
       transform="matrix(0.86907394,0.49468221,-0.50381137,0.8638137,0,0)"
       ry="12.104676"
       y="190.80635"
       x="216.60771"
       height="32.232216"
       width="76.686653"
       id="rect4370"
       style="opacity:1;fill:#00ff00;fill-opacity:1;stroke:#00ff00;stroke-width:1.06501448;stroke-opacity:1" />
    <rect
       style="opacity:1;fill:#803300;fill-opacity:1;stroke:#803300;stroke-width:1.33458555;stroke-opacity:1"
       id="rect4473"
       width="22.956444"
       height="95.004318"
       x="844.33881"
       y="-226.89471"
       ry="11.400517"
       transform="matrix(0.54044671,0.84137825,-0.85792328,0.51377782,0,0)" />
    <path
       style="opacity:1;fill:#d45500;fill-opacity:1;stroke:#d45500;stroke-width:1.13902426;stroke-opacity:1"
       id="path4475"
       d="M 847.32741,89.936047 A 38.613678,48.855507 0 0 1 831.84116,24.461027 38.613678,48.855507 0 0 1 883.24474,3.4614467 38.613678,48.855507 0 0 1 900.94546,68.031802 38.613678,48.855507 0 0 1 850.30443,91.813081"
       transform="matrix(0.59502176,0.80370959,0.81406653,-0.58077163,0,0)" />
    <rect
       style="opacity:1;fill:#00ff00;fill-opacity:1;stroke:#00ff00;stroke-width:1.06501448;stroke-opacity:1"
       id="rect4477"
       width="76.686653"
       height="32.232216"
       x="830.67297"
       y="2.2072573"
       ry="12.104676"
       transform="matrix(0.65412957,0.75638252,-0.76323248,0.64612397,0,0)" />
    <path
       d="m 403.94512,639.0445 c -4.59598,-2.08492 -9.13403,-4.56827 -13.05437,-7.77273 -4.05728,-3.83779 -5.55452,-8.87737 -6.58728,-14.19359 -1.19716,-7.21446 -0.99017,-13.54026 0.87053,-20.60818 4.03352,-11.33939 11.32268,-21.00468 18.91241,-30.18434 4.66471,-5.119 9.84401,-9.92582 15.87321,-13.42105 28.16593,-16.32827 43.61066,-30.37577 70.18231,-37.41899 7.5441,-1.58067 15.27294,-1.48351 22.93797,-1.43607 7.29658,-0.15563 14.52624,0.26824 21.6736,1.76599 7.02761,1.77753 14.06813,3.20504 21.28489,4.00617 3.84513,0.12186 7.7833,0.8133 11.6388,0.51856 1.77764,-0.13589 3.51611,-0.59272 5.27697,-0.87177 3.04591,-0.57581 5.62582,-2.12062 8.28269,-3.61124 1.11909,-0.62787 4.48188,-2.50138 3.3688,-1.86291 -53.55978,30.72225 -67.60141,39.84987 -47.16239,26.70546 8.6649,-5.99887 16.23759,-13.36965 23.91448,-20.54388 6.39127,-5.20968 11.69586,-11.44393 16.49829,-18.10304 3.43252,-5.03538 4.83305,-10.97328 6.14846,-16.83083 1.24427,-6.14751 1.35128,-12.44399 1.46271,-18.69257 0.2694,-6.1965 -1.57561,-11.83948 -3.93787,-17.45876 -3.48559,-7.41775 -6.95884,-14.84259 -10.01909,-22.44801 -2.03052,-5.72778 -4.31517,-11.36697 -5.25432,-17.39452 -0.75556,-5.94931 1.68434,-10.8677 4.74344,-15.76315 2.77748,-5.03703 6.7314,-9.19448 10.37583,-13.58671 3.85386,-3.92666 7.32639,-8.16589 11.59122,-11.66394 28.06661,-18.48322 41.65042,-33.7275 68.95545,-33.937 4.11398,0.022 8.22757,0.0848 12.3415,0.11572 4.03456,0.0263 8.06922,0.0288 12.10385,0.031 4.03908,10e-4 8.07815,4e-4 12.11722,6e-5 1.75081,0.0423 5.8104,0.41751 7.22212,1.62524 0.59444,0.50854 0.96022,1.23525 1.44033,1.85288 0,0 -54.99648,33.86622 -54.99648,33.86622 l 0,0 c 0.10161,0.2552 0.51244,0.58576 0.30481,0.76559 -0.10741,0.093 -5.70741,-0.60485 -6.14384,-0.20386 -4.04094,-2e-4 -8.08188,-1e-4 -12.12281,-0.008 -4.04154,-0.01 -8.08304,-0.0265 -12.12446,-0.0595 -4.02422,-0.0253 -8.05848,-0.0981 -12.0725,0.24391 -2.75059,0.33755 -5.40883,0.80377 -7.94372,1.98783 -0.68251,0.31881 -2.64531,1.44205 -1.99393,1.06368 17.64561,-10.24986 35.31856,-20.45258 52.97784,-30.67887 -5.02713,2.33813 -8.7618,5.91505 -12.15292,10.27484 -2.07528,1.77689 -3.45234,3.72826 -5.26412,5.74087 -1.94719,2.16301 -4.34487,3.91922 -5.68966,6.59058 -2.39771,3.81254 -6.06691,7.36245 -6.45668,12.02752 -0.20914,5.50614 2.87195,10.54772 4.23142,15.76215 2.94055,7.58803 6.41517,14.94577 9.94815,22.2732 2.78579,6.36871 5.12889,12.77527 5.23774,19.82849 -0.0724,6.57809 -0.10665,13.18119 -0.92551,19.71812 -1.10359,6.4601 -2.54175,13.01463 -5.21953,19.00816 -4.07019,7.38574 -9.54292,14.20929 -15.88424,19.75758 -7.9797,6.97581 -15.28267,14.71424 -23.60439,21.3099 -21.9045,16.33949 -4.9559,3.92974 -62.88562,37.01981 -3.996,2.28255 -8.57912,3.31345 -13.11304,3.72669 -5.94336,0.40265 -11.90328,-0.15086 -17.79693,-0.94968 -7.19382,-1.11944 -14.22863,-2.91089 -21.39014,-4.18947 -6.99446,-0.84799 -14.00864,-0.99698 -21.05143,-0.85618 -7.32583,0.13058 -14.69859,0.51845 -21.69706,2.91265 -20.79833,7.66918 -46.38199,25.89389 40.43338,-25.07736 1.92456,-1.12995 -3.96432,2.06022 -5.8618,3.23507 -1.9649,1.21659 -3.89034,2.50752 -5.71129,3.93055 -1.76227,1.37717 -3.34533,2.96943 -5.018,4.45414 -7.71047,8.40295 -14.93732,17.45292 -19.72779,27.88222 -0.53323,1.14891 -1.17526,2.25333 -1.59968,3.44672 -1.61939,4.5535 -0.87551,9.51391 -0.60201,14.20356 0.51251,3.74294 0.93851,7.49746 4.16036,9.93362 3.94239,2.63438 8.10265,4.88684 12.45449,6.7766 0,0 -53.90037,35.46453 -53.90037,35.46453 z"
       id="path4503"
       style="opacity:1;fill:#ff8080;fill-opacity:1;stroke:#ff8080;stroke-opacity:1" />
  </g>
  <g
     id="layer5">
    <path
       d="M 58.681103,397.20129 A 30.817066,30.102591 0 0 1 46.321736,356.8585 30.817066,30.102591 0 0 1 87.346252,343.91949 30.817066,30.102591 0 0 1 101.47296,383.70487 30.817066,30.102591 0 0 1 61.057024,398.35784"
       id="path4341"
       style="opacity:1;fill:#ff8080;fill-opacity:1;stroke:#ff8080;stroke-width:0.7970596;stroke-opacity:1" />
    <path
       style="opacity:1;fill:#ff8080;fill-opacity:1;stroke:#ff8080;stroke-width:0.7970596;stroke-opacity:1"
       id="path4461"
       d="m 599.39537,641.48703 a 30.817066,30.102591 0 0 1 -12.35936,-40.34279 30.817066,30.102591 0 0 1 41.02451,-12.93901 30.817066,30.102591 0 0 1 14.12671,39.78538 30.817066,30.102591 0 0 1 -40.41593,14.65297" />
  </g>
  <g
     id="layer3">
    <rect
       y="700.82916"
       x="299.00516"
       height="276.7818"
       width="88.893425"
       id="rect4280"
       style="opacity:1;fill:#000000;fill-opacity:1;stroke:#000000;stroke-opacity:1" />
    <rect
       style="opacity:1;fill:#000000;fill-opacity:1;stroke:#000000;stroke-width:0.99653685;stroke-opacity:1"
       id="rect4284"
       width="82.835976"
       height="294.96802"
       x="418.20142"
       y="680.62439" />
    <rect
       transform="matrix(0.91945972,-0.3931842,0.32276672,0.94647855,0,0)"
       y="472.82922"
       x="26.884361"
       height="76.460526"
       width="185.60446"
       id="rect4332"
       style="opacity:1;fill:#000000;fill-opacity:1;stroke:#000000;stroke-width:0.79748285;stroke-opacity:1" />
    <path
       d="m 162.10406,509.87168 a 39.216198,38.754547 0 0 1 -15.72789,-51.93795 39.216198,38.754547 0 0 1 52.20566,-16.65788 39.216198,38.754547 0 0 1 17.97692,51.22032 39.216198,38.754547 0 0 1 -51.43122,18.86446"
       id="path4334"
       style="opacity:1;fill:#000000;fill-opacity:1;stroke:#000000;stroke-width:0.96603012;stroke-opacity:1" />
    <rect
       style="opacity:1;fill:#000000;fill-opacity:1;stroke:#000000;stroke-width:0.67075664;stroke-opacity:1"
       id="rect4336"
       width="151.29726"
       height="66.356255"
       x="-536.6532"
       y="-248.37718"
       transform="matrix(-0.69604264,-0.71800045,0.87837004,-0.47798125,0,0)" />
    <path
       transform="matrix(0.7811445,0.62435028,-0.62435028,0.7811445,0,0)"
       d="m 290.10278,280.22983 a 11.071428,6.9642859 0 0 1 -4.44026,-9.33337 11.071428,6.9642859 0 0 1 14.73858,-2.99346 11.071428,6.9642859 0 0 1 5.0752,9.20441 11.071428,6.9642859 0 0 1 -14.51994,3.38999"
       id="path4345"
       style="opacity:1;fill:#ffff00;fill-opacity:1;stroke:#ffff00;stroke-opacity:1" />
    <path
       style="opacity:1;fill:#ffff00;fill-opacity:1;stroke:#ffff00;stroke-opacity:1"
       id="path4347"
       d="m 295.35143,267.34781 a 11.071428,6.9642859 0 0 1 -4.44026,-9.33337 11.071428,6.9642859 0 0 1 14.73859,-2.99346 11.071428,6.9642859 0 0 1 5.0752,9.20441 11.071428,6.9642859 0 0 1 -14.51995,3.38999"
       transform="matrix(0.7811445,0.62435028,-0.62435028,0.7811445,0,0)" />
    <path
       transform="matrix(0.7811445,0.62435028,-0.62435028,0.7811445,0,0)"
       d="m 300.87908,254.24282 a 11.071428,6.9642859 0 0 1 -4.44026,-9.33338 11.071428,6.9642859 0 0 1 14.73859,-2.99346 11.071428,6.9642859 0 0 1 5.0752,9.20442 11.071428,6.9642859 0 0 1 -14.51995,3.38999"
       id="path4349"
       style="opacity:1;fill:#ffff00;fill-opacity:1;stroke:#ffff00;stroke-opacity:1" />
    <path
       style="opacity:1;fill:#ffff00;fill-opacity:1;stroke:#ffff00;stroke-opacity:1"
       id="path4351"
       d="m 306.18374,240.85883 a 11.071428,6.9642859 0 0 1 -4.44026,-9.33337 11.071428,6.9642859 0 0 1 14.73858,-2.99346 11.071428,6.9642859 0 0 1 5.07521,9.20441 11.071428,6.9642859 0 0 1 -14.51995,3.38999"
       transform="matrix(0.7811445,0.62435028,-0.62435028,0.7811445,0,0)" />
    <path
       transform="matrix(0.7811445,0.62435028,-0.62435028,0.7811445,0,0)"
       d="m 310.37249,228.36678 a 11.071428,6.9642859 0 0 1 -4.44026,-9.33337 11.071428,6.9642859 0 0 1 14.73859,-2.99346 11.071428,6.9642859 0 0 1 5.0752,9.20441 11.071428,6.9642859 0 0 1 -14.51995,3.38999"
       id="path4353"
       style="opacity:1;fill:#ffff00;fill-opacity:1;stroke:#ffff00;stroke-opacity:1" />
    <rect
       style="opacity:1;fill:#000000;fill-opacity:1;stroke:#000000;stroke-width:0.79748285;stroke-opacity:1"
       id="rect4372"
       width="185.60446"
       height="76.460526"
       x="-755.41602"
       y="134.26346"
       transform="matrix(-0.91945972,-0.3931842,-0.32276672,0.94647855,0,0)" />
    <path
       id="path4374"
       d="M 644.45898 422.92578 A 39.216198 38.754547 0 0 0 609.23242 443.64844 A 39.216198 38.754547 0 0 0 624.96094 495.58594 L 627.98438 497.07422 A 39.216198 38.754547 0 0 0 679.41602 478.21094 A 39.216198 38.754547 0 0 0 661.43945 426.99023 A 39.216198 38.754547 0 0 0 644.45898 422.92578 z "
       style="opacity:1;fill:#000000;fill-opacity:1;stroke:#000000;stroke-width:0.96603012;stroke-opacity:1" />
    <rect
       transform="matrix(0.24484798,-0.96956148,-0.99971512,0.02386785,0,0)"
       y="-803.92798"
       x="-645.09412"
       height="64.776222"
       width="153.90337"
       id="rect4376"
       style="opacity:1;fill:#000000;fill-opacity:1;stroke:#000000;stroke-width:0.66840607;stroke-opacity:1" />
    <path
       transform="matrix(-0.7811445,0.62435028,0.62435028,0.7811445,0,0)"
       d="m -92.992728,842.00635 a 11.071428,6.9642859 0 0 1 -4.440261,-9.33337 11.071428,6.9642859 0 0 1 14.738586,-2.99346 11.071428,6.9642859 0 0 1 5.075201,9.20441 11.071428,6.9642859 0 0 1 -14.519945,3.38999"
       id="path4463"
       style="opacity:1;fill:#ffff00;fill-opacity:1;stroke:#ffff00;stroke-opacity:1" />
    <path
       style="opacity:1;fill:#ffff00;fill-opacity:1;stroke:#ffff00;stroke-opacity:1"
       id="path4465"
       d="m -103.59398,850.47968 a 11.071428,6.9642859 0 0 1 -4.44026,-9.33337 11.071428,6.9642859 0 0 1 14.738587,-2.99346 11.071428,6.9642859 0 0 1 5.075202,9.20441 11.071428,6.9642859 0 0 1 -14.519949,3.38999"
       transform="matrix(-0.7811445,0.62435028,0.62435028,0.7811445,0,0)" />
    <path
       transform="matrix(-0.7811445,0.62435028,0.62435028,0.7811445,0,0)"
       d="m -113.1913,859.06501 a 11.071428,6.9642859 0 0 1 -4.44026,-9.33338 11.071428,6.9642859 0 0 1 14.73859,-2.99346 11.071428,6.9642859 0 0 1 5.075198,9.20442 11.071428,6.9642859 0 0 1 -14.519948,3.38999"
       id="path4467"
       style="opacity:1;fill:#ffff00;fill-opacity:1;stroke:#ffff00;stroke-opacity:1" />
    <path
       style="opacity:1;fill:#ffff00;fill-opacity:1;stroke:#ffff00;stroke-opacity:1"
       id="path4469"
       d="m -123.34658,868.09632 a 11.071428,6.9642859 0 0 1 -4.44026,-9.33338 11.071428,6.9642859 0 0 1 14.73859,-2.99346 11.071428,6.9642859 0 0 1 5.0752,9.20442 11.071428,6.9642859 0 0 1 -14.51995,3.38999"
       transform="matrix(-0.7811445,0.62435028,0.62435028,0.7811445,0,0)" />
    <path
       transform="matrix(-0.7811445,0.62435028,0.62435028,0.7811445,0,0)"
       d="m -132.83191,875.67774 a 11.071428,6.9642859 0 0 1 -4.44026,-9.33337 11.071428,6.9642859 0 0 1 14.73859,-2.99347 11.071428,6.9642859 0 0 1 5.0752,9.20442 11.071428,6.9642859 0 0 1 -14.51995,3.38999"
       id="path4471"
       style="opacity:1;fill:#ffff00;fill-opacity:1;stroke:#ffff00;stroke-opacity:1" />
  </g>
  <g
     id="layer2">
    <path
       d="M 336.75587,756.13837 A 127.06671,220.6479 0 0 1 285.79501,460.43115 127.06671,220.6479 0 0 1 454.94967,365.58999 127.06671,220.6479 0 0 1 513.19773,657.21143 127.06671,220.6479 0 0 1 346.5524,764.61569"
       id="path4802"
       style="opacity:1;fill:#000000;fill-opacity:1;stroke:#000000;stroke-width:1.12995911;stroke-opacity:1" />
    <path
       d="m 369.64567,702.15307 a 68.597061,192.66634 0 0 1 -27.51126,-258.20696 68.597061,192.66634 0 0 1 91.31827,-82.81384 68.597061,192.66634 0 0 1 31.44526,254.63933 68.597061,192.66634 0 0 1 -89.9636,93.78373"
       id="path4833"
       style="opacity:1;fill:#ffffff;fill-opacity:1;stroke:#ffffff;stroke-width:0.95156825;stroke-opacity:1" />
    <rect
       ry="38.761547"
       y="397.88635"
       x="294.09561"
       height="77.523094"
       width="90.380226"
       id="rect4837"
       style="display:inline;opacity:1;fill:#ffff00;fill-opacity:1;stroke:#000000;stroke-width:0.61976939;stroke-opacity:1" />
    <rect
       style="display:inline;opacity:1;fill:#ffff00;fill-opacity:1;stroke:#000000;stroke-width:0.61976939;stroke-opacity:1"
       id="rect4839"
       width="90.380226"
       height="77.523094"
       x="409.80991"
       y="396.45779"
       ry="38.761547" />
    <rect
       y="977.60022"
       x="298.99445"
       height="21.234573"
       width="88.914795"
       id="rect4302"
       style="opacity:1;fill:#808080;fill-opacity:1;stroke:#808080;stroke-width:0.97862941;stroke-opacity:1" />
    <rect
       style="opacity:1;fill:#808080;fill-opacity:1;stroke:#808080;stroke-width:0.99418855;stroke-opacity:1"
       id="rect4304"
       width="83.848473"
       height="23.239321"
       x="417.69513"
       y="975.58765" />
    <rect
       y="998.07648"
       x="299.28571"
       height="40.714287"
       width="87.85714"
       id="rect4306"
       style="opacity:1;fill:#000000;fill-opacity:1;stroke:#000000;stroke-opacity:1" />
    <path
       d="m 261.88135,1029.7278 a 28.571428,26.785713 0 0 1 -11.45874,-35.89757 28.571428,26.785713 0 0 1 38.03506,-11.51331 28.571428,26.785713 0 0 1 13.0973,35.40158 28.571428,26.785713 0 0 1 -37.47083,13.0384"
       id="path4308"
       style="opacity:1;fill:#000000;fill-opacity:1;stroke:#000000;stroke-opacity:1" />
    <rect
       y="998.07648"
       x="247.85713"
       height="40.714287"
       width="57.142864"
       id="rect4312"
       style="opacity:1;fill:#000000;fill-opacity:1;stroke:#000000;stroke-opacity:1" />
    <rect
       style="opacity:1;fill:#000000;fill-opacity:1;stroke:#000000;stroke-width:0.97573698;stroke-opacity:1"
       id="rect4314"
       width="83.595688"
       height="40.738548"
       x="417.13071"
       y="1000.2073" />
    <rect
       style="opacity:1;fill:#000000;fill-opacity:1;stroke:#000000;stroke-width:0.80253619;stroke-opacity:1"
       id="rect4325"
       width="36.626041"
       height="40.911751"
       x="394.18695"
       y="1000.8348" />
    <path
       style="opacity:1;fill:#000000;fill-opacity:1;stroke:#000000;stroke-width:0.94958246;stroke-opacity:1"
       id="path4327"
       d="m 406.11014,1031.8928 a 25.73867,26.811085 0 0 1 -10.32265,-35.93155 25.73867,26.811085 0 0 1 34.26402,-11.52422 25.73867,26.811085 0 0 1 11.79874,35.43517 25.73867,26.811085 0 0 1 -33.75572,13.0507" />
  </g>
  <g
     id="layer4" />
  <g
     style="display:inline"
     id="layer1">
    <path
       d="M 326.45901,390.21695 A 137.14285,142.85715 0 0 1 271.45706,198.76311 137.14285,142.85715 0 0 1 454.02535,137.35877 137.14285,142.85715 0 0 1 516.89237,326.16731 137.14285,142.85715 0 0 1 337.0324,395.70554"
       id="path4732"
       style="opacity:1;fill:#808080;fill-opacity:1;stroke:#808080;stroke-opacity:1" />
    <path
       d="M 464.61717,232.37664 A 108.48951,102.05936 0 0 1 421.10681,95.599046 108.48951,102.05936 0 0 1 565.53099,51.730836 108.48951,102.05936 0 0 1 615.26316,186.61858 108.48951,102.05936 0 0 1 472.98145,236.29777"
       id="path4734"
       style="opacity:1;fill:#808080;fill-opacity:1;stroke:#808080;stroke-width:1.15741944;stroke-opacity:1" />
    <path
       d="M 479.26826,219.35901 A 87.080063,80.651054 0 0 1 444.34429,111.27233 87.080063,80.651054 0 0 1 560.26763,76.606058 87.080063,80.651054 0 0 1 600.1856,183.19931 87.080063,80.651054 0 0 1 485.98193,222.45763"
       id="path4740"
       style="opacity:1;fill:#de8787;fill-opacity:1;stroke:#808080;stroke-width:1.1228478;stroke-opacity:1" />
    <path
       d="m 308.57143,172.36221 -1.69873,100.98077 -1.69873,100.98076 -86.60254,-51.96153 -86.60255,-51.96152 88.30128,-49.01924 z"
       id="path4758"
       style="opacity:1;fill:#808080;fill-opacity:1;stroke:#808080;stroke-opacity:1" />
    <path
       d="m 132.48242,293.34389 a 21.428572,26.428572 0 0 1 -8.59405,-35.41896 21.428572,26.428572 0 0 1 28.52629,-11.3598 21.428572,26.428572 0 0 1 9.82298,34.92958 21.428572,26.428572 0 0 1 -28.10313,12.86457"
       id="path4760"
       style="opacity:1;fill:#000000;fill-opacity:1;stroke:#000000;stroke-opacity:1" />
    <path
       d="m 233.46296,255.01206 c 15.6358,-5.88802 32.29378,-7.97438 48.7512,-10.17046 11.98799,-1.36341 24.02057,-2.21824 36.02048,-3.46699 2.04025,-0.21259 4.08525,-0.36972 6.1159,-0.66245 0,0 -1.14171,0.85424 -1.14171,0.85424 l 0,0 c -2.03105,0.28127 -4.0746,0.44311 -6.11385,0.65439 -11.99615,1.24417 -24.02548,2.09137 -36.0084,3.46313 -16.45633,2.19623 -33.11385,4.29333 -48.73957,10.20751 0,0 1.11595,-0.87937 1.11595,-0.87937 z"
       id="path4782"
       style="opacity:1;fill:#000000;fill-opacity:1;stroke:#000000;stroke-opacity:1" />
    <path
       d="m 252.63944,261.21762 c 11.05155,3.79811 21.56478,8.86818 31.90174,14.27447 8.801,4.55161 17.58158,9.11743 26.558,13.31188 3.43242,1.69019 7.14577,2.69444 10.66961,4.1419 0.28361,0.16507 0.56721,0.33013 0.85082,0.4952 0,0 -1.19604,0.77679 -1.19604,0.77679 l 0,0 c -0.27977,-0.15987 -0.55954,-0.31974 -0.83931,-0.47962 -3.53208,-1.43227 -7.23472,-2.46369 -10.66994,-4.15019 -8.97518,-4.19754 -17.75094,-8.77386 -26.5536,-13.32232 -10.33438,-5.40177 -20.84644,-10.46647 -31.899,-14.24903 0,0 1.17772,-0.79908 1.17772,-0.79908 z"
       id="path4784"
       style="opacity:1;fill:#000000;fill-opacity:1;stroke:#000000;stroke-opacity:1" />
    <path
       d="m 255.92345,280.50866 c 5.31672,6.66934 9.52095,14.12404 13.93788,21.3947 2.91698,4.62136 5.13979,9.62271 7.80404,14.38226 2.62411,4.72451 5.57818,9.24951 8.53574,13.76754 1.54266,1.55285 2.94412,5.00478 5.09882,5.72936 0.18643,-0.0671 0.37287,-0.13425 0.5593,-0.20138 0,0 -1.13104,0.8702 -1.13104,0.8702 l 0,0 c -0.20382,0.0429 -0.40765,0.0857 -0.61147,0.1286 -2.21691,-0.88422 -3.54509,-4.1487 -5.14405,-5.80836 -2.95784,-4.52172 -5.91225,-9.05034 -8.54044,-13.77616 -2.66483,-4.75741 -4.88243,-9.75953 -7.79707,-14.3805 -4.41257,-7.26802 -8.61499,-14.71923 -13.9366,-21.37935 0,0 1.22489,-0.72691 1.22489,-0.72691 z"
       id="path4786"
       style="opacity:1;fill:#000000;fill-opacity:1;stroke:#000000;stroke-opacity:1" />
    <path
       d="m 374.32473,226.46894 a 25,24.285715 0 0 1 -10.0264,-32.54715 25,24.285715 0 0 1 33.28068,-10.43874 25,24.285715 0 0 1 11.46014,32.09745 25,24.285715 0 0 1 -32.78698,11.8215"
       id="path4796"
       style="opacity:1;fill:#000000;fill-opacity:1;stroke:#000000;stroke-opacity:1" />
    <path
       d="m 385.52694,208.4335 a 10.714286,8.5714283 0 0 1 -4.29703,-11.48723 10.714286,8.5714283 0 0 1 14.26315,-3.68426 10.714286,8.5714283 0 0 1 4.91149,11.32851 10.714286,8.5714283 0 0 1 -14.05156,4.17229"
       id="path4798"
       style="opacity:1;fill:#ffffff;fill-opacity:1;stroke:#ffffff;stroke-opacity:1" />
    <path
       d="m 377.70931,474.34987 a 43.090641,43.087585 0 0 1 -17.28176,-57.74498 43.090641,43.087585 0 0 1 57.36344,-18.52035 43.090641,43.087585 0 0 1 19.75298,56.94712 43.090641,43.087585 0 0 1 -56.51247,20.97364"
       id="path4835"
       style="opacity:1;fill:#ffff00;fill-opacity:1;stroke:#000000;stroke-width:0.5479542;stroke-opacity:1" />
  </g>
</svg>
