<svg xmlns="http://www.w3.org/2000/svg" xmlns:xlink="http://www.w3.org/1999/xlink" version="1.2" width="210.00mm" height="297.00mm" viewBox="0 0 119.5016 169.0094">
<!-- Page: 1/1 -->
<text transform="translate(21.1461, 2.8453)" font-family="TeX Gyre Schola" font-size="2.2001" text-anchor="start" fill="currentColor">
<tspan>
 </tspan>
</text>
<rect transform="translate(21.1461, 10.6213)" x="39.3371" y="-0.1000" width="1.6500" height="0.2000" ry="0.1000" fill="currentColor"/>
<line transform="translate(21.1461, 9.6213)" stroke-linejoin="round" stroke-linecap="round" stroke-width="0.1000" stroke="currentColor" x1="0.0500" y1="-0.0000" x2="73.1723" y2="-0.0000"/>
<line transform="translate(21.1461, 8.6213)" stroke-linejoin="round" stroke-linecap="round" stroke-width="0.1000" stroke="currentColor" x1="0.0500" y1="-0.0000" x2="73.1723" y2="-0.0000"/>
<line transform="translate(21.1461, 7.6213)" stroke-linejoin="round" stroke-linecap="round" stroke-width="0.1000" stroke="currentColor" x1="0.0500" y1="-0.0000" x2="73.1723" y2="-0.0000"/>
<line transform="translate(21.1461, 6.6213)" stroke-linejoin="round" stroke-linecap="round" stroke-width="0.1000" stroke="currentColor" x1="0.0500" y1="-0.0000" x2="73.1723" y2="-0.0000"/>
<line transform="translate(21.1461, 5.6213)" stroke-linejoin="round" stroke-linecap="round" stroke-width="0.1000" stroke="currentColor" x1="0.0500" y1="-0.0000" x2="73.1723" y2="-0.0000"/>
<line transform="translate(21.1461, 18.6213)" stroke-linejoin="round" stroke-linecap="round" stroke-width="0.1000" stroke="currentColor" x1="0.0500" y1="-0.0000" x2="73.1723" y2="-0.0000"/>
<line transform="translate(21.1461, 17.6213)" stroke-linejoin="round" stroke-linecap="round" stroke-width="0.1000" stroke="currentColor" x1="0.0500" y1="-0.0000" x2="73.1723" y2="-0.0000"/>
<line transform="translate(21.1461, 16.6213)" stroke-linejoin="round" stroke-linecap="round" stroke-width="0.1000" stroke="currentColor" x1="0.0500" y1="-0.0000" x2="73.1723" y2="-0.0000"/>
<line transform="translate(21.1461, 15.6213)" stroke-linejoin="round" stroke-linecap="round" stroke-width="0.1000" stroke="currentColor" x1="0.0500" y1="-0.0000" x2="73.1723" y2="-0.0000"/>
<line transform="translate(21.1461, 14.6213)" stroke-linejoin="round" stroke-linecap="round" stroke-width="0.1000" stroke="currentColor" x1="0.0500" y1="-0.0000" x2="73.1723" y2="-0.0000"/>
<circle transform="translate(66.9043, 9.6213)" stroke-linejoin="round" stroke-linecap="round" fill="currentColor" stroke="currentColor" stroke-width="0" r="0.5500"/>
<g color="rgb(100.0%, 100.0%, 100.0%)">
<text transform="translate(66.6141, 9.9456)" font-family="TeX Gyre Heros" font-weight="bold" font-size="0.8730" text-anchor="start" fill="currentColor">
<tspan>
E</tspan>
</text>
</g>
<circle transform="translate(69.7023, 9.1213)" stroke-linejoin="round" stroke-linecap="round" fill="currentColor" stroke="currentColor" stroke-width="0" r="0.5500"/>
<g color="rgb(100.0%, 100.0%, 100.0%)">
<text transform="translate(69.4292, 9.4456)" font-family="TeX Gyre Heros" font-weight="bold" font-size="0.8730" text-anchor="start" fill="currentColor">
<tspan>
F</tspan>
</text>
</g>
<circle transform="translate(72.5004, 8.6213)" stroke-linejoin="round" stroke-linecap="round" fill="currentColor" stroke="currentColor" stroke-width="0" r="0.5500"/>
<g color="rgb(100.0%, 100.0%, 100.0%)">
<text transform="translate(72.1589, 8.9456)" font-family="TeX Gyre Heros" font-weight="bold" font-size="0.8730" text-anchor="start" fill="currentColor">
<tspan>
G</tspan>
</text>
</g>
<circle transform="translate(55.6121, 14.6213)" stroke-linejoin="round" stroke-linecap="round" fill="currentColor" stroke="currentColor" stroke-width="0" r="0.5500"/>
<g color="rgb(100.0%, 100.0%, 100.0%)">
<text transform="translate(55.3048, 14.9456)" font-family="TeX Gyre Heros" font-weight="bold" font-size="0.8730" text-anchor="start" fill="currentColor">
<tspan>
A</tspan>
</text>
</g>
<circle transform="translate(58.4101, 14.1213)" stroke-linejoin="round" stroke-linecap="round" fill="currentColor" stroke="currentColor" stroke-width="0" r="0.5500"/>
<g color="rgb(100.0%, 100.0%, 100.0%)">
<text transform="translate(58.1029, 14.4456)" font-family="TeX Gyre Heros" font-weight="bold" font-size="0.8730" text-anchor="start" fill="currentColor">
<tspan>
B</tspan>
</text>
</g>
<circle transform="translate(61.3082, 10.6213)" stroke-linejoin="round" stroke-linecap="round" fill="currentColor" stroke="currentColor" stroke-width="0" r="0.5500"/>
<g color="rgb(100.0%, 100.0%, 100.0%)">
<text transform="translate(61.0009, 10.9456)" font-family="TeX Gyre Heros" font-weight="bold" font-size="0.8730" text-anchor="start" fill="currentColor">
<tspan>
C</tspan>
</text>
</g>
<circle transform="translate(64.1062, 10.1213)" stroke-linejoin="round" stroke-linecap="round" fill="currentColor" stroke="currentColor" stroke-width="0" r="0.5500"/>
<g color="rgb(100.0%, 100.0%, 100.0%)">
<text transform="translate(63.7989, 10.4456)" font-family="TeX Gyre Heros" font-weight="bold" font-size="0.8730" text-anchor="start" fill="currentColor">
<tspan>
D</tspan>
</text>
</g>
<circle transform="translate(86.5242, 6.1213)" stroke-linejoin="round" stroke-linecap="round" fill="currentColor" stroke="currentColor" stroke-width="0" r="0.5500"/>
<g color="rgb(100.0%, 100.0%, 100.0%)">
<text transform="translate(86.2340, 6.4456)" font-family="TeX Gyre Heros" font-weight="bold" font-size="0.8730" text-anchor="start" fill="currentColor">
<tspan>
E</tspan>
</text>
</g>
<circle transform="translate(89.3223, 5.6213)" stroke-linejoin="round" stroke-linecap="round" fill="currentColor" stroke="currentColor" stroke-width="0" r="0.5500"/>
<g color="rgb(100.0%, 100.0%, 100.0%)">
<text transform="translate(89.0491, 5.9456)" font-family="TeX Gyre Heros" font-weight="bold" font-size="0.8730" text-anchor="start" fill="currentColor">
<tspan>
F</tspan>
</text>
</g>
<circle transform="translate(92.1203, 5.1213)" stroke-linejoin="round" stroke-linecap="round" fill="currentColor" stroke="currentColor" stroke-width="0" r="0.5500"/>
<g color="rgb(100.0%, 100.0%, 100.0%)">
<text transform="translate(91.7789, 5.4456)" font-family="TeX Gyre Heros" font-weight="bold" font-size="0.8730" text-anchor="start" fill="currentColor">
<tspan>
G</tspan>
</text>
</g>
<circle transform="translate(75.2984, 8.1213)" stroke-linejoin="round" stroke-linecap="round" fill="currentColor" stroke="currentColor" stroke-width="0" r="0.5500"/>
<g color="rgb(100.0%, 100.0%, 100.0%)">
<text transform="translate(74.9911, 8.4456)" font-family="TeX Gyre Heros" font-weight="bold" font-size="0.8730" text-anchor="start" fill="currentColor">
<tspan>
A</tspan>
</text>
</g>
<circle transform="translate(78.1301, 7.6213)" stroke-linejoin="round" stroke-linecap="round" fill="currentColor" stroke="currentColor" stroke-width="0" r="0.5500"/>
<g color="rgb(100.0%, 100.0%, 100.0%)">
<text transform="translate(77.8228, 7.9456)" font-family="TeX Gyre Heros" font-weight="bold" font-size="0.8730" text-anchor="start" fill="currentColor">
<tspan>
B</tspan>
</text>
</g>
<circle transform="translate(80.9281, 7.1213)" stroke-linejoin="round" stroke-linecap="round" fill="currentColor" stroke="currentColor" stroke-width="0" r="0.5500"/>
<g color="rgb(100.0%, 100.0%, 100.0%)">
<text transform="translate(80.6208, 7.4456)" font-family="TeX Gyre Heros" font-weight="bold" font-size="0.8730" text-anchor="start" fill="currentColor">
<tspan>
C</tspan>
</text>
</g>
<circle transform="translate(83.7262, 6.6213)" stroke-linejoin="round" stroke-linecap="round" fill="currentColor" stroke="currentColor" stroke-width="0" r="0.5500"/>
<g color="rgb(100.0%, 100.0%, 100.0%)">
<text transform="translate(83.4189, 6.9456)" font-family="TeX Gyre Heros" font-weight="bold" font-size="0.8730" text-anchor="start" fill="currentColor">
<tspan>
D</tspan>
</text>
</g>
<circle transform="translate(33.1941, 18.6213)" stroke-linejoin="round" stroke-linecap="round" fill="currentColor" stroke="currentColor" stroke-width="0" r="0.5500"/>
<g color="rgb(100.0%, 100.0%, 100.0%)">
<text transform="translate(32.8527, 18.9456)" font-family="TeX Gyre Heros" font-weight="bold" font-size="0.8730" text-anchor="start" fill="currentColor">
<tspan>
G</tspan>
</text>
</g>
<circle transform="translate(35.9922, 18.1213)" stroke-linejoin="round" stroke-linecap="round" fill="currentColor" stroke="currentColor" stroke-width="0" r="0.5500"/>
<g color="rgb(100.0%, 100.0%, 100.0%)">
<text transform="translate(35.6849, 18.4456)" font-family="TeX Gyre Heros" font-weight="bold" font-size="0.8730" text-anchor="start" fill="currentColor">
<tspan>
A</tspan>
</text>
</g>
<circle transform="translate(38.7902, 17.6213)" stroke-linejoin="round" stroke-linecap="round" fill="currentColor" stroke="currentColor" stroke-width="0" r="0.5500"/>
<g color="rgb(100.0%, 100.0%, 100.0%)">
<text transform="translate(38.4829, 17.9456)" font-family="TeX Gyre Heros" font-weight="bold" font-size="0.8730" text-anchor="start" fill="currentColor">
<tspan>
B</tspan>
</text>
</g>
<path transform="translate(19.8361, 5.3463) scale(0.0040, -0.0040)" d="M450 333c9 0 16 -8 16 -16c0 -3 -1 -6 -3 -9c-99 -144 -215 -364 -388 -364h-75v87c0 14 11 25 25 25h50c159 0 271 136 362 270c3 4 8 7 13 7z" fill="currentColor"/>
<path transform="translate(19.8361, 18.8963) scale(0.0040, -0.0040)" d="M466 -317c0 -8 -7 -16 -16 -16c-5 0 -10 3 -13 7c-91 134 -203 270 -362 270h-50c-14 0 -25 11 -25 25v87h75c173 0 289 -220 388 -364c2 -3 3 -6 3 -9z" fill="currentColor"/>
<rect transform="translate(19.8361, 12.1213)" x="0.0000" y="-6.5950" width="0.4500" height="13.1900" ry="0.0000" fill="currentColor"/>
<rect transform="translate(21.0861, 12.1213)" x="0.0000" y="-6.5500" width="0.1600" height="13.1000" ry="0.0500" fill="currentColor"/>
<path transform="translate(21.9461, 8.6213) scale(0.0040, -0.0040)" d="M376 262c4 0 9 1 13 1c155 0 256 -128 256 -261c0 -76 -33 -154 -107 -210c-22 -17 -47 -28 -73 -36c3 -35 5 -70 5 -105c0 -19 -1 -39 -2 -58c-7 -120 -90 -228 -208 -228c-108 0 -195 88 -195 197c0 58 53 103 112 103c54 0 95 -47 95 -103c0 -52 -43 -95 -95 -95
c-11 0 -21 2 -31 6c26 -39 68 -65 117 -65c96 0 157 92 163 191c1 18 2 37 2 55c0 31 -1 61 -4 92c-29 -5 -58 -8 -89 -8c-188 0 -333 172 -333 374c0 177 131 306 248 441c-19 62 -37 125 -45 190c-6 52 -7 104 -7 156c0 115 55 224 149 292c3 2 7 3 10 3c4 0 7 0 10 -3
c71 -84 133 -245 133 -358c0 -143 -86 -255 -180 -364c21 -68 39 -138 56 -207zM461 -203c68 24 113 95 113 164c0 90 -66 179 -173 190c24 -116 46 -231 60 -354zM74 28c0 -135 129 -247 264 -247c28 0 55 2 82 6c-14 127 -37 245 -63 364c-79 -8 -124 -61 -124 -119
c0 -44 25 -91 81 -123c5 -5 7 -10 7 -15c0 -11 -10 -22 -22 -22c-3 0 -6 1 -9 2c-80 43 -117 115 -117 185c0 88 58 174 160 197c-14 58 -29 117 -46 175c-107 -121 -213 -243 -213 -403zM408 1045c-99 -48 -162 -149 -162 -259c0 -74 18 -133 36 -194
c80 97 146 198 146 324c0 55 -4 79 -20 129z" fill="currentColor"/>
<path transform="translate(26.1461, 7.6213) scale(0.0040, -0.0040)" d="M359 27c-49 0 -75 42 -75 75c0 38 27 77 72 77c4 0 9 0 14 -1c-28 37 -72 59 -120 59c-106 0 -113 -73 -113 -186v-51v-51c0 -113 7 -187 113 -187c80 0 139 70 158 151c2 7 7 10 12 10c6 0 13 -4 13 -12c0 -94 -105 -174 -183 -174c-68 0 -137 21 -184 70
c-49 51 -66 122 -66 193s17 142 66 193c47 49 116 69 184 69c87 0 160 -64 175 -150c1 -5 1 -9 1 -13c0 -40 -30 -72 -67 -72z" fill="currentColor"/>
<circle transform="translate(30.3961, 19.1213)" stroke-linejoin="round" stroke-linecap="round" fill="currentColor" stroke="currentColor" stroke-width="0" r="0.5500"/>
<g color="rgb(100.0%, 100.0%, 100.0%)">
<text transform="translate(30.1229, 19.4456)" font-family="TeX Gyre Heros" font-weight="bold" font-size="0.8730" text-anchor="start" fill="currentColor">
<tspan>
F</tspan>
</text>
</g>
<path transform="translate(21.9461, 15.6213) scale(0.0040, -0.0040)" d="M557 -125c0 28 23 51 51 51s51 -23 51 -51s-23 -51 -51 -51s-51 23 -51 51zM557 125c0 28 23 51 51 51s51 -23 51 -51s-23 -51 -51 -51s-51 23 -51 51zM232 263c172 0 293 -88 293 -251c0 -263 -263 -414 -516 -521c-3 -3 -6 -4 -9 -4c-7 0 -13 6 -13 13c0 3 1 6 4 9
c202 118 412 265 412 493c0 120 -63 235 -171 235c-74 0 -129 -54 -154 -126c11 5 22 8 34 8c55 0 100 -45 100 -100c0 -58 -44 -106 -100 -106c-60 0 -112 47 -112 106c0 133 102 244 232 244z" fill="currentColor"/>
<path transform="translate(26.1461, 16.6213) scale(0.0040, -0.0040)" d="M359 27c-49 0 -75 42 -75 75c0 38 27 77 72 77c4 0 9 0 14 -1c-28 37 -72 59 -120 59c-106 0 -113 -73 -113 -186v-51v-51c0 -113 7 -187 113 -187c80 0 139 70 158 151c2 7 7 10 12 10c6 0 13 -4 13 -12c0 -94 -105 -174 -183 -174c-68 0 -137 21 -184 70
c-49 51 -66 122 -66 193s17 142 66 193c47 49 116 69 184 69c87 0 160 -64 175 -150c1 -5 1 -9 1 -13c0 -40 -30 -72 -67 -72z" fill="currentColor"/>
<circle transform="translate(47.2180, 16.1213)" stroke-linejoin="round" stroke-linecap="round" fill="currentColor" stroke="currentColor" stroke-width="0" r="0.5500"/>
<g color="rgb(100.0%, 100.0%, 100.0%)">
<text transform="translate(46.9278, 16.4456)" font-family="TeX Gyre Heros" font-weight="bold" font-size="0.8730" text-anchor="start" fill="currentColor">
<tspan>
E</tspan>
</text>
</g>
<circle transform="translate(50.0160, 15.6213)" stroke-linejoin="round" stroke-linecap="round" fill="currentColor" stroke="currentColor" stroke-width="0" r="0.5500"/>
<g color="rgb(100.0%, 100.0%, 100.0%)">
<text transform="translate(49.7429, 15.9456)" font-family="TeX Gyre Heros" font-weight="bold" font-size="0.8730" text-anchor="start" fill="currentColor">
<tspan>
F</tspan>
</text>
</g>
<circle transform="translate(52.8141, 15.1213)" stroke-linejoin="round" stroke-linecap="round" fill="currentColor" stroke="currentColor" stroke-width="0" r="0.5500"/>
<g color="rgb(100.0%, 100.0%, 100.0%)">
<text transform="translate(52.4726, 15.4456)" font-family="TeX Gyre Heros" font-weight="bold" font-size="0.8730" text-anchor="start" fill="currentColor">
<tspan>
G</tspan>
</text>
</g>
<circle transform="translate(41.5883, 17.1213)" stroke-linejoin="round" stroke-linecap="round" fill="currentColor" stroke="currentColor" stroke-width="0" r="0.5500"/>
<g color="rgb(100.0%, 100.0%, 100.0%)">
<text transform="translate(41.2810, 17.4456)" font-family="TeX Gyre Heros" font-weight="bold" font-size="0.8730" text-anchor="start" fill="currentColor">
<tspan>
C</tspan>
</text>
</g>
<circle transform="translate(44.4199, 16.6213)" stroke-linejoin="round" stroke-linecap="round" fill="currentColor" stroke="currentColor" stroke-width="0" r="0.5500"/>
<g color="rgb(100.0%, 100.0%, 100.0%)">
<text transform="translate(44.1126, 16.9456)" font-family="TeX Gyre Heros" font-weight="bold" font-size="0.8730" text-anchor="start" fill="currentColor">
<tspan>
D</tspan>
</text>
</g>
<a transform="translate(31.4631, 165.1512)" xlink:href="http://lilypond.org/">
<rect x="0.0000" y="-0.4439" width="56.5755" height="2.0486" fill="none" stroke="none" stroke-width="0.0"/>
</a>
<text transform="translate(31.4631, 165.1512)" font-family="TeX Gyre Schola" font-size="2.2001" text-anchor="start" fill="currentColor">
<tspan>
Music engraving by LilyPond 2.18.2—www.lilypond.org</tspan>
</text>
</svg>
