<?xml version="1.0" encoding="UTF-8" standalone="no"?>
<!-- Created with Inkscape (http://www.inkscape.org/) -->

<svg
   xmlns:dc="http://purl.org/dc/elements/1.1/"
   xmlns:cc="http://creativecommons.org/ns#"
   xmlns:rdf="http://www.w3.org/1999/02/22-rdf-syntax-ns#"
   xmlns:svg="http://www.w3.org/2000/svg"
   xmlns="http://www.w3.org/2000/svg"
   xmlns:sodipodi="http://sodipodi.sourceforge.net/DTD/sodipodi-0.dtd"
   xmlns:inkscape="http://www.inkscape.org/namespaces/inkscape"
   id="svg2"
   version="1.1"
   inkscape:version="0.48.4 r9939"
   width="320"
   height="350"
   sodipodi:docname="5644055543283712_1480776793_dibujoo0oo.svg">
  <metadata
     id="metadata8">
    <rdf:RDF>
      <cc:Work
         rdf:about="">
        <dc:format>image/svg+xml</dc:format>
        <dc:type
           rdf:resource="http://purl.org/dc/dcmitype/StillImage" />
        <dc:title></dc:title>
      </cc:Work>
    </rdf:RDF>
  </metadata>
  <defs
     id="defs6" />
  <sodipodi:namedview
     pagecolor="#ffffff"
     bordercolor="#666666"
     borderopacity="1"
     objecttolerance="10"
     gridtolerance="10"
     guidetolerance="10"
     inkscape:pageopacity="0"
     inkscape:pageshadow="2"
     inkscape:window-width="1366"
     inkscape:window-height="715"
     id="namedview4"
     showgrid="false"
     inkscape:zoom="0.65655621"
     inkscape:cx="296.19297"
     inkscape:cy="245.76901"
     inkscape:window-x="0"
     inkscape:window-y="0"
     inkscape:window-maximized="1"
     inkscape:current-layer="svg2" />
  <path
     style="fill:#000000"
     d="m 107.75944,343.4522 c -1.31532,-0.55285 -0.90684,-2.19598 1.34766,-5.421 4.95642,-7.09011 6.70517,-13.14548 6.60934,-22.88604 -0.0362,-3.67594 0.39414,-9.10018 0.96979,-12.22474 1.78454,-9.68622 2.07742,-14.0706 5.18651,-77.64365 l 0.35549,-7.26877 -7.1551,-8.10676 c -7.91985,-8.97323 -12.96524,-13.41852 -19.377572,-17.07281 -7.569102,-4.31351 -10.330692,-6.34096 -11.301927,-8.29739 -1.842906,-3.71229 -17.094123,-14.96137 -18.416579,-13.58382 -0.256003,0.26667 -0.650063,4.27387 -0.875693,8.90489 -0.418978,8.59934 -0.809206,10.15492 -3.085794,12.30107 -0.939117,0.88529 -1.200468,1.72793 -0.946393,3.05125 0.405339,2.11116 -0.65982,3.14454 -2.024865,1.96445 -0.600418,-0.51907 -0.923752,-2.04966 -0.923752,-4.37281 0,-2.5675 -0.268012,-3.68134 -0.951544,-3.95457 -1.472306,-0.58852 -1.149161,-1.62442 1.332567,-4.27185 3.497525,-3.73105 2.14696,-5.96279 -4.37119,-7.22319 -3.316157,-0.64123 -5.927067,-2.73045 -5.117494,-4.09495 0.256048,-0.43157 2.49028,-0.52397 6.181637,-0.25566 3.33036,0.24207 6.174244,0.15407 6.709202,-0.20763 1.745678,-1.18027 -0.10774,-4.14081 -5.380612,-8.59471 -8.581697,-7.24877 -14.210956,-13.73678 -18.559449,-21.39071 -2.189351,-3.85355 -4.276944,-7.19722 -4.639101,-7.43037 -1.742614,-1.12187 -5.43262,5.02307 -6.071607,10.11099 -0.520685,4.14598 -1.568918,6.18116 -4.302146,8.35276 -2.121056,1.68523 -2.257812,2.02164 -2.260038,5.55972 -0.0025,4.32826 -1.060185,6.5358 -5.038065,10.51738 -3.265496,3.26853 -7.5844093,5.55385 -11.3262614,5.99319 -2.5309612,0.29716 -2.8221908,0.20137 -2.4510315,-0.80616 0.2316692,-0.62887 0.4212105,-1.27526 0.4212105,-1.43643 0,-0.16118 2.0696082,-1.308 4.5991297,-2.5485 4.9975287,-2.45084 6.6270477,-3.71214 8.3645867,-6.47446 1.122828,-1.78506 1.115743,-1.8189 -0.875624,-4.18145 -1.104184,-1.31 -1.920647,-2.87335 -1.814359,-3.47411 0.106287,-0.60075 2.324882,-2.25544 4.93021,-3.67709 4.076212,-2.22426 4.579801,-2.68513 3.610279,-3.30398 -6.421934,-4.0992 -8.759979,-5.82646 -9.086466,-6.71273 -0.73609,-1.99816 1.307199,-2.99265 7.36485,-3.58457 6.483878,-0.63355 8.281904,-1.63924 8.281904,-4.63228 0,-1.90201 -1.694155,-4.55684 -6.955674,-10.89988 -6.29749,-7.59196 -7.92935,-12.14153 -4.001015,-11.15467 4.940716,1.24117 16.833647,8.99357 20.783355,13.54761 1.243864,1.43418 2.226226,3.26739 2.226226,4.15441 0,0.87317 0.927755,2.74684 2.061679,4.16373 1.133923,1.41688 3.322786,5.02152 4.864135,8.01031 4.484494,8.69574 12.861832,16.1793 27.012591,24.13061 1.744497,0.98024 6.026446,4.32152 9.515441,7.42509 8.182119,7.27823 10.926873,9.14023 16.079307,10.90795 2.321162,0.79635 6.966162,2.87565 10.322222,4.62065 l 6.10192,3.17275 0.39743,-3.52249 c 0.51772,-4.58851 -0.20249,-8.30752 -3.69822,-19.09698 -1.58214,-4.88317 -2.87767,-9.72895 -2.87898,-10.7684 -0.003,-2.0172 -2.11041,-6.1851 -3.12807,-6.1851 -1.22734,0 -6.514539,-8.68466 -9.925869,-16.30408 -4.806408,-10.73539 -5.1179,-11.28205 -8.830685,-15.49713 -5.083821,-5.7716 -12.706876,-20.35838 -11.159805,-21.35436 0.97093,-0.625078 5.982624,3.6416 12.816247,10.91101 6.775609,7.20771 7.188421,7.86372 9.11878,14.49108 1.347304,4.62561 4.745362,11.12914 8.269392,15.82674 3.93377,5.2438 9.82038,21.72231 9.82038,27.49039 0,3.62348 1.18719,3.29467 2.93416,-0.81264 2.46745,-5.80123 7.83747,-25.72261 8.2716,-30.68548 l 0.38231,-4.37052 -6.52599,-10.16701 c -10.01238,-15.59857 -15.34086,-28.228942 -12.40437,-29.402736 1.51014,-0.603645 3.82043,1.868879 6.85966,7.341366 11.42196,20.5666 15.56051,27.29257 16.00396,26.00969 0.17099,-0.49467 1.16569,-3.65244 2.21044,-7.01727 3.29116,-10.59989 6.25432,-15.66908 8.36497,-14.31027 1.25912,0.81061 0.0628,5.74214 -5.05484,20.83705 -11.04435,32.57641 -13.19947,46.96158 -11.96691,79.87793 0.41507,11.08487 0.73737,31.15658 0.71621,44.60379 l -0.0385,24.44949 -2.66759,23.06245 c -1.46718,12.68434 -3.08874,25.16637 -3.60346,27.73785 -1.19635,5.97685 -3.41724,10.67988 -6.86393,14.53527 -2.60305,2.91173 -3.54515,3.37381 -5.34023,2.61929 z m 126.71396,-0.22316 c 0,-0.36344 0.99912,-0.6608 2.22027,-0.6608 1.22115,0 2.22027,0.29736 2.22027,0.6608 0,0.36344 -0.99912,0.66079 -2.22027,0.66079 -1.22115,0 -2.22027,-0.29735 -2.22027,-0.66079 z m -32.94441,-3.36143 c -1.16276,-1.21121 -4.67066,-7.63386 -8.23015,-15.06869 -3.412,-7.12676 -8.0658,-16.37736 -10.34176,-20.55691 -2.27596,-4.17954 -5.13825,-9.97882 -6.36063,-12.88729 -7.08826,-16.8654 -15.38504,-53.51538 -16.9422,-74.84006 -0.74036,-10.13896 -3.44246,-18.12046 -5.17177,-15.27644 -0.30455,0.50086 -0.57635,1.80273 -0.60401,2.89305 l -0.0503,1.98239 -1.02607,-2.14759 c -1.23603,-2.58707 -2.79032,-2.74474 -4.51696,-0.45821 -2.51655,3.3326 -3.57409,8.06131 -3.57409,15.98129 0,7.00862 -0.0584,7.34776 -1.03389,6.00243 l -1.03389,-1.4259 -0.44607,1.46404 c -0.24535,0.80523 -0.9705,5.98414 -1.61145,11.5087 l -1.16536,10.04465 2.01097,1.89868 c 5.09105,4.80677 9.45538,9.38183 10.04562,10.53069 1.21544,2.3657 -0.33632,2.76877 -4.5289,1.17638 -2.11793,-0.80442 -4.77227,-1.36988 -5.89854,-1.25659 -2.17549,0.21883 -2.35681,0.61677 -3.33061,7.30955 -0.27502,1.89022 -0.65466,2.47799 -1.60052,2.47799 -1.03911,0 -1.23996,-0.4626 -1.23996,-2.85587 0,-3.48245 1.57367,-8.5231 3.11429,-9.97544 1.04896,-0.98886 1.44553,-0.97047 5.19571,0.24096 l 4.06007,1.31152 -4.12336,-3.86481 -4.12336,-3.86482 0.0476,-9.16328 c 0.0335,-6.45844 0.74096,-14.76841 2.39663,-28.1519 3.37869,-27.31143 5.52466,-39.0545 6.87912,-37.6436 0.46648,0.48592 0.43462,4.00252 -0.10598,11.69585 -0.42516,6.05055 -0.67475,11.08051 -0.55463,11.17767 0.12011,0.0972 2.64482,0.001 5.61047,-0.21305 l 5.39208,-0.3897 0.14631,-4.95598 c 0.40768,-13.809 1.93398,-23.91546 6.1178,-40.5093 1.42441,-5.64949 2.29979,-10.64221 2.29979,-13.11682 0,-3.6627 -0.17959,-4.18245 -2.15683,-6.24209 -1.18626,-1.23569 -2.56101,-2.24671 -3.055,-2.24671 -1.47818,0 -3.92746,5.34706 -5.198,11.34782 -0.5055,2.38751 -3.03771,5.39995 -7.28919,8.67158 l -3.53397,2.71949 2.66186,0.6901 c 3.81996,0.99035 4.67247,2.09737 2.33959,3.0381 -3.74617,1.51065 -13.00215,-0.9922 -14.03467,-3.79501 -0.52501,-1.42516 1.03665,-2.50911 6.09454,-4.23019 7.52769,-2.56151 10.52274,-4.90013 8.89386,-6.94459 -0.5216,-0.65469 -1.6998,-0.7825 -4.45148,-0.48291 -3.70977,0.4039 -3.74213,0.39253 -3.74213,-1.31545 0,-2.0183 1.14803,-2.76915 5.01998,-3.28325 3.24513,-0.43086 5.04922,-1.68799 8.48867,-5.91503 2.37399,-2.91761 2.44772,-3.14731 1.73362,-5.4012 -0.41022,-1.2947 -4.15027,-7.75869 -8.31125,-14.36444 -4.16097,-6.60574 -7.56541,-12.28661 -7.56541,-12.624152 0,-0.337542 -2.09494,-4.525858 -4.65543,-9.307372 C 132.28016,77.697347 131.4318,75.2656 131.92037,70.482659 l 0.38788,-3.797171 -1.54179,3.056999 c -2.42368,4.805567 -4.47875,5.014267 -5.16792,0.524818 -0.45545,-2.966899 -0.81902,-3.320769 -4.35889,-4.242614 -3.8195,-0.994664 -3.45965,-2.328675 1.13951,-4.224373 0.97564,-0.40214 2.26022,-1.697679 2.85464,-2.878975 1.42028,-2.822574 6.66415,-8.425383 7.88561,-8.425383 0.66808,0 1.05832,0.911656 1.28433,3.000401 0.41492,3.834511 1.71999,5.293762 5.60205,6.263862 1.71565,0.42873 3.11584,0.972869 3.11152,1.209198 -0.004,0.236329 -1.01687,1.110649 -2.25011,1.94293 -3.88344,2.620846 -3.90243,5.085269 -0.0842,10.926357 0.90877,1.390198 2.52513,4.958502 3.59192,7.929565 2.55263,7.109158 3.84594,9.697103 4.84607,9.697103 1.08049,0 3.72395,-4.100173 7.88152,-12.224744 5.98146,-11.688746 13.91713,-22.978883 22.68542,-32.274702 5.47179,-5.800982 6.90694,-6.855918 7.90811,-5.813016 1.62588,1.693628 -3.8676,11.818646 -14.72828,27.145633 -6.93501,9.786932 -16.96653,25.306649 -19.30983,29.874137 -0.75687,1.475262 -1.05643,2.952586 -0.80788,3.984156 0.55426,2.30034 4.66395,8.47645 10.03425,15.07962 5.29272,6.50779 7.99585,9.01815 8.8041,8.17622 0.98214,-1.02307 2.43573,-8.12346 4.10885,-20.07057 2.99296,-21.371632 4.64378,-28.399797 7.32739,-31.195226 2.05197,-2.13748 4.40587,-2.47294 4.40587,-0.627889 0,0.669202 -1.30228,6.690715 -2.89395,13.38114 -4.00955,16.853635 -5.35276,23.927695 -5.35276,28.190405 l 0,3.65577 5.49752,-5.8761 c 4.83756,-5.1707 5.52825,-5.69749 5.75352,-4.38825 0.15538,0.90305 -0.46946,2.59127 -1.58972,4.29518 -1.01515,1.54403 -3.42539,5.1862 -5.3561,8.0937 -4.61622,6.95171 -6.64465,11.25329 -7.84152,16.62914 -0.54076,2.42891 -2.2249,7.26364 -3.74253,10.74386 -4.43339,10.16661 -6.67715,18.77598 -6.67715,25.62036 l 0,2.98693 2.89431,-3.35332 c 1.6877,-1.95535 5.72069,-5.18138 9.67403,-7.73836 8.69993,-5.62704 13.37473,-9.63393 22.04151,-18.89234 8.2919,-8.85795 13.57053,-15.64536 19.18969,-24.67467 5.10966,-8.2106 9.77207,-14.61024 18.46387,-25.34357 8.83926,-10.915415 10.20375,-12.844487 10.20375,-14.425761 0,-1.747286 1.63694,-2.445557 9.73706,-4.153525 8.04286,-1.695896 10.16397,-1.607078 10.44328,0.437302 0.2619,1.917045 -2.17185,3.208989 -7.86722,4.176257 -7.42429,1.260893 -7.20342,1.062396 -15.71463,14.122851 -9.07931,13.932176 -15.73395,24.918526 -17.06677,28.176056 -0.51684,1.26322 -2.40619,4.02754 -4.19855,6.14295 -1.79235,2.11539 -3.70251,4.73994 -4.24481,5.83232 -0.88828,1.78933 -0.88922,2.13999 -0.009,3.5387 1.15315,1.83326 10.05592,9.16369 14.82305,12.20511 2.36863,1.51118 3.79434,2.0184 4.87743,1.73524 1.87695,-0.49072 2.4612,0.36753 1.93833,2.84735 -0.44626,2.11651 -4.59711,7.51985 -5.3864,7.01172 -0.28003,-0.18029 -0.68678,-1.31406 -0.90387,-2.51949 -0.23748,-1.3186 -1.34014,-3.12064 -2.76796,-4.52355 -2.97111,-2.91927 -8.08118,-7.17609 -8.6145,-7.17609 -0.22071,0 -1.23614,1.70981 -2.25651,3.79958 -2.10616,4.31357 -4.27205,6.97178 -5.35607,6.57354 -1.24126,-0.456 -0.63023,-7.05489 1.12088,-12.10506 1.68088,-4.84767 2.00966,-6.85842 1.12143,-6.85842 -1.30209,0 -6.75411,4.31626 -13.00352,10.29465 -12.84232,12.28538 -18.47577,17.37182 -20.93571,18.90288 -1.35161,0.84124 -3.50235,2.58782 -4.77942,3.88129 -1.27707,1.29347 -5.38938,3.9697 -9.13847,5.94718 -7.95089,4.19373 -7.25078,1.89099 -5.87955,19.33852 1.41882,18.05302 2.58371,26.71016 6.10637,45.38061 5.14293,27.25815 7.99923,35.61821 20.54485,60.13253 4.02515,7.86521 7.3499,15.33134 8.53352,19.16311 1.95855,6.34045 3.97165,10.57275 5.02892,10.57275 0.98717,0 1.45199,-2.08447 1.98552,-8.90404 0.45651,-5.83525 0.69513,-6.75205 2.08041,-7.99327 2.71646,-2.43397 20.87051,-6.34532 24.74704,-5.33183 1.5365,0.40171 4.24178,3.73178 4.24872,5.22998 0.004,0.94242 -3.33697,1.8506 -14.86947,4.04154 l -11.45422,2.17607 -0.78826,6.15525 c -1.37441,10.73233 -4.05915,13.68237 -8.36754,9.19444 z m 21.50844,0.92174 c -2.45575,-1.75059 -2.53509,-2.25416 -0.83209,-5.28119 1.29911,-2.30916 1.51718,-3.33418 1.16772,-5.48882 -0.38863,-2.39615 -0.30179,-2.64943 0.90837,-2.64943 2.27945,0 3.04606,2.86294 1.74288,6.50892 -1.61078,4.50661 -1.6395,4.41531 1.31251,4.17221 2.07891,-0.1712 2.69604,0.007 2.69604,0.77879 0,2.84429 -4.13102,4.00144 -6.99543,1.95952 z m 40.55806,-39.81017 c -3.69567,-0.68675 -11.83137,-1.87485 -18.07934,-2.64022 -13.63144,-1.66984 -14.15216,-1.79878 -14.50691,-3.59226 -0.28293,-1.4304 -1.62579,-33.67134 -1.41083,-33.87269 0.82977,-0.77724 20.6498,-1.75363 41.38995,-2.03897 24.0478,-0.33086 36.34086,0.0955 45.47645,1.57741 l 2.37886,0.38587 0,11.03896 c 0,6.07143 -0.20871,11.25634 -0.46378,11.52202 -0.25502,0.26568 -0.80875,-2.37905 -1.23054,-5.87717 -0.42172,-3.49813 -1.23872,-7.84022 -1.81548,-9.64909 -1.88184,-5.9018 0.60873,-5.56341 -40.23611,-5.4668 -20.79036,0.0492 -36.66659,0.35016 -37.76973,0.71606 -1.7928,0.59465 -1.90309,0.83031 -1.90309,4.06665 0,2.23165 -0.31139,3.63681 -0.88866,4.01014 -0.68494,0.44295 -0.77992,1.38479 -0.41431,4.10847 0.26089,1.94357 0.80379,7.08709 1.20645,11.43005 l 0.7321,7.89628 9.15218,1.49323 c 12.51806,2.04242 20.88248,2.79169 36.52075,3.27147 14.20966,0.43594 27.46258,-0.3626 31.71814,-1.91116 1.54619,-0.56264 3.09499,-1.77729 3.96476,-3.10928 1.35684,-2.07802 1.42732,-2.10681 1.42732,-0.58324 0,5.98373 -6.84522,7.71414 -32.3525,8.17845 -13.9169,0.25333 -17.11479,0.12006 -22.89568,-0.95418 z m 33.20407,-9.72994 c -1.9768,-0.83088 0.0641,-6.17034 2.35844,-6.17034 1.44837,0 4.46096,3.60418 4.46096,5.33708 0,1.08294 -0.44564,1.26317 -3.01322,1.21872 -1.65727,-0.0287 -3.37005,-0.20215 -3.80618,-0.38546 z m -50.17754,-12.61311 c -0.93403,-0.82228 -1.36672,-2.09484 -1.49759,-4.40442 -0.1794,-3.16608 -0.1319,-3.26246 1.8829,-3.8199 3.14248,-0.86944 4.68418,0.27164 4.4584,3.29988 -0.14849,1.9916 0.0793,2.55736 1.2456,3.09414 2.81735,1.29663 1.08991,2.95508 -3.10154,2.97767 -0.92082,0.005 -2.26532,-0.51135 -2.98777,-1.14737 z m 35.55808,0.52007 c 0.59453,-0.39435 4.16282,-1.02844 7.92954,-1.4091 9.48448,-0.95849 9.92695,-1.12868 10.37341,-3.98981 0.52532,-3.36632 4.11144,-7.70219 6.46632,-7.81808 1.34161,-0.066 0.19189,2.00289 -1.78998,3.22095 -2.73163,1.67886 -2.74895,3.58624 -0.0355,3.91035 1.18721,0.1418 1.92827,0.68242 2.15087,1.56906 0.30424,1.21192 0.69292,1.31474 3.73399,0.98779 3.90095,-0.41939 4.53487,0.49581 1.01549,1.46604 -6.21035,1.71206 -32.00329,3.49484 -29.84417,2.0628 z m 0.47292,-3.69891 c -1.05044,-1.31851 -1.65366,-8.21991 -0.71842,-8.21991 0.37155,0 0.85202,0.29753 1.06776,0.66116 0.21575,0.36364 1.65125,0.99139 3.19009,1.39501 1.53877,0.40362 3.11548,1.13258 3.50371,1.61992 1.0448,1.31136 0.12706,3.47241 -1.94978,4.59112 -2.34771,1.26466 -4.06074,1.24875 -5.09336,-0.0473 z m -20.70782,-1.3771 c -0.24511,-0.66535 0.0556,-1.43403 0.77551,-1.98239 2.40885,-1.83479 4.39084,-0.40667 2.4831,1.78919 -1.36063,1.56614 -2.72309,1.64692 -3.25861,0.1932 z m 2.66043,-5.52121 c 0.21563,-0.36344 1.08887,-0.6608 1.94053,-0.6608 0.85165,0 1.54846,0.29736 1.54846,0.6608 0,0.36343 -0.87323,0.66079 -1.94052,0.66079 -1.13215,0 -1.77721,-0.27527 -1.54847,-0.66079 z m -32.38487,-15.50751 c -1.11471,-2.77904 -1.2033,-7.7209 -0.15794,-8.80982 1.08676,-1.13206 4.31367,-1.01814 4.31367,0.15228 0,0.51988 -0.63938,1.04026 -1.42084,1.15639 -3.10043,0.46077 -1.34628,5.819 1.91123,5.83805 0.95143,0.005 2.15807,0.30897 2.68142,0.67422 1.45353,1.01445 -1.46562,3.28045 -4.226,3.28045 -1.89067,0 -2.30522,-0.3063 -3.10154,-2.29157 z m 54.93205,-2.71736 c -2.60349,-2.4501 -4.14461,-2.60597 -5.75697,-0.58226 -0.88157,1.10652 -2.51702,1.29536 -2.51702,0.29064 0,-0.37123 0.741,-1.84136 1.64667,-3.26695 1.38495,-2.18002 1.61179,-3.18438 1.42732,-6.31922 l -0.21936,-3.72724 1.63209,2.03821 c 0.89762,1.12102 1.8557,2.03821 2.12898,2.03821 0.27329,0 1.57817,-0.89207 2.89974,-1.98239 4.36384,-3.60025 4.67322,-1.79312 0.5413,3.16178 -2.26227,2.71286 -2.24222,3.8479 0.11882,6.72522 3.4711,4.23016 2.10627,5.39577 -1.90157,1.624 z m -133.69647,-0.75876 c -2.8331,-1.46954 -3.98755,-4.38923 -3.98755,-10.08485 l 0,-4.74966 1.95176,1.71074 c 1.11926,0.98105 2.73758,1.71073 3.79409,1.71073 2.60267,0 3.20973,2.6414 1.24368,5.41145 -1.13099,1.5935 -1.33993,2.52496 -1.02563,4.57243 0.2171,1.4142 0.31998,2.55225 0.22863,2.52901 -0.0913,-0.0233 -1.08359,-0.51818 -2.20498,-1.09985 z m 96.24176,-1.66333 c 0,-0.46063 8.63323,-3.24767 12.68726,-4.0958 3.03133,-0.63417 3.60803,-1.00952 4.39643,-2.86151 0.49909,-1.17238 1.07001,-2.12662 1.26873,-2.12053 0.1987,0.006 1.93136,0.83449 3.85031,1.8409 2.44857,1.28419 3.48899,2.21685 3.48899,3.12772 0,1.18128 -0.82645,1.39368 -9.19828,2.36426 -5.05905,0.58651 -10.83968,1.28983 -12.84585,1.56293 -2.00617,0.27311 -3.64759,0.35502 -3.64759,0.18203 z m -96.63459,-18.7806 c -0.66065,-0.68818 -0.49591,-4.72085 0.21146,-5.17624 0.38747,-0.24945 0.63436,0.76406 0.63436,2.60418 0,3.06372 -0.0954,3.35377 -0.84582,2.57206 z m 79.22949,-2.28804 c -1.46249,-1.19834 -2.23083,-1.34409 -5.18129,-0.98287 -3.12284,0.38232 -3.61837,0.26347 -5.02923,-1.20618 -1.88859,-1.96728 -1.93109,-2.7089 -0.31364,-5.4722 2.17344,-3.71317 6.25577,-3.83595 7.38112,-0.22198 0.6829,2.19306 2.0584,3.74076 6.61397,7.44198 l 2.19846,1.78617 -1.97613,0.031 c -1.0944,0.0172 -2.74229,-0.59674 -3.69326,-1.37595 z m -5.41433,-4.5745 c 1.02281,-1.99078 0.71569,-2.70898 -1.06378,-2.48757 -2.16856,0.26981 -3.30432,2.0337 -2.20108,3.4184 0.94083,1.18088 2.39257,0.76698 3.26486,-0.93083 z m 53.53442,1.99973 c -2.77617,-0.88605 -3.85712,-2.39825 -5.65903,-7.91672 -1.65626,-5.0726 -1.97077,-7.5988 -1.02208,-8.20957 0.83628,-0.53835 1.76219,0.92957 2.56885,4.07247 0.8543,3.3283 2.08071,4.14122 6.24777,4.14122 3.6696,0 6.87047,1.028 7.36286,2.3647 0.44634,1.21152 -0.45788,3.71402 -1.74348,4.82543 -1.30863,1.13133 -5.30676,1.50381 -7.75489,0.72247 z m 5.90648,-2.99526 c 0.8144,-0.55584 1.31206,-1.29491 1.10589,-1.64238 -0.50648,-0.8537 -5.50056,-0.80167 -7.71239,0.0804 l -1.7858,0.71213 1.56218,1.32475 c 1.73258,1.46922 4.23691,1.29511 6.83012,-0.47486 z m -23.29985,1.61918 c -0.79287,-1.11966 -2.22091,-1.4874 -8.5639,-2.20535 -4.18679,-0.47389 -6.55184,-0.89888 -5.25566,-0.94441 3.35226,-0.11774 8.15097,-1.9239 10.0481,-3.78193 2.00229,-1.96103 3.22118,-2.00324 4.78328,-0.16563 0.66465,0.78186 2.42849,2.23625 3.91965,3.23195 l 2.71123,1.81037 -1.96695,1.72403 c -2.34305,2.0537 -4.37204,2.17202 -5.67575,0.33097 z m -111.641,-4.87594 c -1.4608,-1.8335 0.98052,-7.93231 2.87251,-7.17603 1.08126,0.4322 2.82991,3.5867 2.82991,5.10504 0,2.57876 -4.10894,4.07103 -5.70242,2.07099 z m 35.51337,-14.22064 c -9.77315,-2.79982 -12.24313,-12.35892 -5.34585,-20.68907 2.12121,-2.5619 2.26932,-3.01833 2.02269,-6.23349 -0.14636,-1.90805 -0.0768,-3.46918 0.15464,-3.46918 0.92587,0 9.61037,9.94822 9.36202,10.72431 -0.14655,0.45796 -1.74677,1.17509 -3.55604,1.59361 -6.40334,1.48121 -9.19382,5.14033 -3.37235,4.42213 2.2999,-0.28374 3.79389,-0.0435 5.97219,0.96017 4.85172,2.23559 5.39589,5.29024 1.71944,9.65197 -2.19932,2.60927 -4.67815,3.69233 -6.95674,3.03955 z m 3.59181,-4.98469 c 2.59819,-2.06431 2.70079,-3.31488 0.31279,-3.81238 -2.31639,-0.48259 -4.63541,0.0981 -5.645,1.41348 -1.03028,1.34236 -1.0002,1.79185 0.20391,3.04613 1.40088,1.45926 2.68026,1.2978 5.1283,-0.64723 z M 77.968475,158.72348 c -0.353156,-0.4664 -0.828326,-1.66034 -1.055941,-2.65318 -0.258141,-1.12601 -1.186049,-2.21423 -2.466333,-2.89242 -2.861084,-1.51559 -2.848251,-1.46118 -0.75897,-3.21677 1.410727,-1.18542 1.720385,-1.81304 1.243934,-2.52126 -0.348899,-0.51862 -1.165312,-1.72575 -1.814246,-2.68252 -1.386901,-2.0448 -0.989694,-3.73218 0.878555,-3.73218 0.728413,0 2.168334,-0.9625 3.199814,-2.13889 1.54036,-1.75675 2.072324,-2.0085 2.977464,-1.40911 0.842187,0.5577 1.102041,1.64634 1.102041,4.61688 0,4.22209 -0.08547,4.15386 4.123358,3.29181 l 2.220269,-0.45476 -2.378885,2.17701 c -1.308393,1.19737 -2.37888,2.50443 -2.378861,2.9046 1.3e-5,0.40016 1.458521,2.12705 3.241124,3.83753 1.782604,1.71049 3.090914,3.26642 2.907355,3.45763 -0.183559,0.19121 -1.67834,-0.27191 -3.321739,-1.02915 -3.9373,-1.81423 -4.358681,-1.75383 -5.074389,0.72736 -0.676915,2.34669 -1.676525,2.99586 -2.64455,1.71742 z M 240.1456,141.56233 c -1.33536,-1.52175 -3.19149,-4.22817 -4.12472,-6.01428 -1.49997,-2.87079 -1.64783,-3.69814 -1.27476,-7.1331 0.31752,-2.92347 0.14348,-4.70257 -0.70283,-7.18474 -0.82284,-2.41328 -0.93619,-3.49563 -0.42217,-4.03107 1.53727,-1.60133 5.29282,2.83457 5.29282,6.25165 0,2.07438 0.1876,2.09887 2.4907,0.32516 2.36317,-1.81997 3.77977,-1.29745 6.76268,2.4945 3.325,4.22681 4.7026,7.30568 4.7026,10.51013 0,3.65143 -1.73194,5.85879 -5.33936,6.805 -4.25103,1.11502 -4.75132,0.97796 -7.38496,-2.02325 z m 8.0843,-1.31316 c 2.07635,-2.03192 1.87198,-4.48745 -0.59347,-7.13045 -3.50917,-3.76189 -9.35787,-5.75138 -9.35635,-3.18265 0.001,1.81211 3.74091,8.9577 5.39956,10.31677 2.18237,1.78819 2.71966,1.78775 4.55026,-0.004 z m -195.025657,0.32067 c -0.436124,-0.17359 -0.792953,-1.218 -0.792953,-2.32091 0,-1.29576 -0.688721,-2.82238 -1.946491,-4.3146 l -1.946492,-2.30931 1.470719,-1.6477 c 2.251487,-2.52243 6.619271,-5.47209 8.102938,-5.47209 1.832998,0 2.770367,2.84968 2.265567,6.88746 -0.464021,3.7116 -1.30053,5.67036 -2.417884,5.66173 -0.423849,-0.003 -1.484295,0.85736 -2.356543,1.91254 -0.872249,1.05518 -1.942736,1.77647 -2.378861,1.60288 z M 206.77699,127.25819 c -1.6886,-1.39338 -3.46197,-3.02885 -3.94081,-3.63439 -1.30931,-1.65571 -2.75094,-1.34476 -5.61825,1.21183 -1.42664,1.27203 -2.8707,2.31278 -3.20904,2.31278 -1.08137,0 -2.19935,-3.85174 -1.78529,-6.15081 0.2187,-1.21443 1.18945,-2.99826 2.1572,-3.96405 2.40027,-2.39544 5.01734,-2.8179 7.49364,-1.2097 3.25412,2.11334 10.24142,13.96775 8.23296,13.96775 -0.14312,0 -1.6418,-1.14003 -3.33041,-2.53341 z m -8.43574,-5.44779 c 0.84378,-1.64231 0.3805,-3.25235 -0.93584,-3.25235 -1.2102,0 -2.37541,2.22861 -1.87518,3.58652 0.53867,1.46223 1.97586,1.29138 2.81102,-0.33417 z m -123.727266,1.14311 c -1.221149,-0.4581 -6.873448,-3.01978 -12.560668,-5.69263 l -10.340396,-4.85973 -2.664038,2.65039 c -3.505882,3.48792 -5.498314,4.82811 -7.177859,4.82811 -1.95555,0 -2.087079,-0.969 -0.941312,-6.93465 0.766386,-3.99032 1.286171,-5.33584 2.124728,-5.50003 1.272824,-0.24923 1.455685,1.82813 0.527441,5.99191 -0.603393,2.70663 0.319732,3.40927 1.8899,1.43849 1.494635,-1.87597 5.557855,-3.58608 8.52052,-3.58608 3.399949,0 5.889595,0.99713 12.374968,4.95632 2.616746,1.59747 6.442347,3.36145 8.50133,3.91996 4.301449,1.16677 4.474154,1.28253 3.967019,2.65916 -0.447435,1.2146 -1.26105,1.23941 -4.221633,0.12878 z m 53.421276,-9.14493 c -0.42305,-0.44068 -0.76917,-1.47469 -0.76917,-2.29781 0,-0.82312 -0.56391,-1.81095 -1.25314,-2.19519 -0.94194,-0.52512 -1.22569,-1.31039 -1.14257,-3.16203 0.0608,-1.35489 -0.37439,-4.75542 -0.96713,-7.556747 -0.59273,-2.801323 -1.07001,-6.815665 -1.06063,-8.920759 l 0.0171,-3.827442 1.72744,2.080935 c 3.3149,3.993276 6.28139,4.439155 5.52034,0.829743 -0.49631,-2.353845 0.91463,-2.632549 2.89323,-0.571503 1.5779,1.643653 2.20425,3.311597 2.78171,7.407581 0.41278,2.927899 0.56776,3.138785 2.30673,3.138785 2.35252,0 2.52755,1.752397 0.26454,2.648637 -1.05552,0.41804 -1.72985,1.31158 -1.98238,2.62684 -0.33582,1.74906 -0.64747,1.99329 -2.54359,1.99329 -2.32688,0 -2.34873,0.0339 -3.16305,4.90676 -0.56867,3.40285 -1.33477,4.24747 -2.62939,2.89891 z m 4.51734,-15.356524 c 0.44516,-1.208413 -1.17143,-2.625968 -2.4238,-2.125368 -0.98801,0.394932 -1.28488,1.848381 -0.53671,2.627719 0.75095,0.782245 2.60306,0.46797 2.96051,-0.502351 z M 214.96674,108.647 c -1.25164,-0.54291 -1.42731,-1.09875 -1.42731,-4.51607 0,-2.78056 -0.33576,-4.348432 -1.17199,-5.472871 -1.671,-2.246895 -2.1363,-4.871528 -1.38136,-7.791973 2.15762,-8.346685 8.3303,-7.677153 9.50396,1.030877 0.3014,2.236282 1.14452,5.470685 1.87359,7.187568 1.71013,4.027119 1.68093,6.343639 -0.10172,8.071279 -1.68222,1.63032 -5.27932,2.36559 -7.29517,1.49119 z m 4.39059,-2.41611 c 1.25232,-1.18056 1.63272,-5.51436 0.48402,-5.51436 -1.38725,0 -3.14683,1.42091 -4.07508,3.29075 -0.87606,1.7647 -0.86303,1.98765 0.15202,2.6035 1.5456,0.93775 2.10712,0.87572 3.43904,-0.37989 z m -1.79005,-11.650351 c 1.2911,-2.753 0.9987,-5.758351 -0.56027,-5.758351 -1.36787,0 -3.46244,3.922141 -3.46521,6.488729 -0.002,1.897393 0.19033,2.165042 1.42494,1.982392 0.9182,-0.135841 1.8458,-1.103472 2.60054,-2.71277 z M 65.86373,97.402756 c -1.832389,-0.793128 -1.196668,-2.282802 2.22969,-5.224789 3.082394,-2.646644 6.305604,-2.826024 6.89407,-0.383672 0.218729,0.907783 0.23951,2.079891 0.04618,2.60469 -0.881542,2.392983 -6.402706,4.201539 -9.169942,3.003771 z m 6.08593,-2.104757 c 0.41868,-0.436126 0.761236,-1.350008 0.761236,-2.030841 0,-2.014816 -2.186903,-1.100438 -2.420995,1.012255 -0.213749,1.929025 0.415197,2.31501 1.659759,1.018586 z M 56.217466,93.54236 c 0,-1.69131 7.554586,-8.158015 12.781532,-10.940955 5.77848,-3.076591 7.16042,-3.506981 7.799877,-2.429208 1.032457,1.740169 -1.303273,3.719282 -10.488947,8.887488 -6.531758,3.675016 -10.092462,5.256541 -10.092462,4.482675 z m 1.61427,-13.878237 c -0.558366,-1.832562 0.219375,-3.325732 2.322262,-4.458496 1.890671,-1.018441 5.28731,-1.444985 5.956423,-0.747996 1.13523,1.182542 -4.436093,6.434993 -6.825652,6.434993 -0.593294,0 -1.247157,-0.552829 -1.453033,-1.228501 z M 247.79502,75.145765 c 0,-0.899583 2.50606,-3.166262 4.88486,-4.418228 2.82481,-1.486714 9.43777,-3.029424 13.03588,-3.041087 5.62334,-0.01824 3.10272,2.34583 -5.60579,5.257546 -6.38458,2.134705 -12.31495,3.194987 -12.31495,2.201769 z m -39.12894,-9.857459 c -0.54992,-1.4928 0.26749,-12.535636 1.21667,-16.436649 0.50555,-2.077735 1.18651,-3.37292 1.84206,-3.503569 0.63232,-0.126023 2.48318,1.494448 4.72157,4.133844 l 3.68157,4.341119 2.25641,-4.425011 c 2.65445,-5.205592 3.96406,-6.327233 5.50881,-4.718114 1.37033,1.427434 1.92135,9.711066 0.90611,13.621799 -0.871,3.355112 -2.45914,3.570185 -3.35388,0.454197 -0.31308,-1.090315 -0.84789,-2.691939 -1.18846,-3.559164 l -0.61923,-1.576773 -1.44244,1.411574 c -1.74175,1.70447 -2.83717,1.759653 -5.79218,0.291787 -2.01297,-0.99992 -2.35707,-1.012705 -3.21461,-0.119436 -0.52818,0.550192 -1.10891,2.169191 -1.2905,3.597775 -0.75765,5.960342 -0.97498,6.782777 -1.88881,7.148065 -0.55055,0.220066 -1.12203,-0.06139 -1.34309,-0.661444 z m 25.80732,-4.219594 c -3.59681,-3.74669 0.43663,-14.26236 4.80969,-12.53944 1.37087,0.540106 6.60884,6.355366 6.60884,7.337229 0,0.307393 -0.99912,0.993751 -2.22027,1.525241 -1.22115,0.53149 -2.22027,1.278877 -2.22027,1.66086 0,1.291753 -2.52754,3.337706 -4.12336,3.337706 -0.87225,0 -2.15683,-0.59472 -2.85463,-1.321596 z m 4.72175,-2.79022 c 1.2362,-1.838467 1.26767,-4.493748 0.0731,-6.169441 -0.73036,-1.024552 -1.14528,-1.136127 -2.06168,-0.55441 -0.631,0.400555 -1.23851,1.366971 -1.35,2.14759 -0.1546,1.082471 0.12554,1.419308 1.18041,1.419308 l 1.38313,0 -1.44479,1.218669 c -0.92435,0.779684 -1.2996,1.612791 -1.04173,2.31279 0.56592,1.536211 2.0948,1.360657 3.26154,-0.374506 z m 14.72463,-3.043786 c -0.57743,-0.664634 -1.04986,-2.017515 -1.04986,-3.006402 0,-2.304693 -1.5384,-5.409955 -2.96213,-5.979056 -0.97265,-0.388795 -0.89729,-0.617481 0.62522,-1.897267 1.20102,-1.009542 1.87788,-2.365835 2.21019,-4.428774 0.377,-2.340307 0.74318,-2.973586 1.71942,-2.973586 0.92823,0 1.33212,0.587717 1.6048,2.335233 0.49285,3.158365 1.01536,3.880631 2.5124,3.472835 1.75047,-0.476835 1.63312,1.018947 -0.29334,3.738925 -1.29815,1.832862 -1.49774,2.688602 -1.18371,5.075146 0.2455,1.865721 0.0987,3.220751 -0.41934,3.870966 -1.03189,1.295162 -1.4875,1.260868 -2.76365,-0.20802 z m 30.45541,-0.55514 c -0.23332,-0.243086 0.07,-1.010862 0.67407,-1.706171 1.0408,-1.198038 1.04086,-1.297662 0,-1.903652 -2.15632,-1.257088 -0.62567,-9.164145 1.77406,-9.164145 0.92446,0 1.17008,0.669135 0.98764,2.690408 -0.0514,0.571129 0.77196,2.17315 1.83001,3.560047 1.99171,2.610671 2.23987,3.442257 1.42541,4.776555 -0.94704,1.551489 -5.69125,2.789882 -6.69246,1.746958 z M 24.21018,52.525598 c -0.225529,-0.380119 -0.216089,-2.476964 0.021,-4.659658 0.500455,-4.607806 0.01351,-5.538981 -3.855187,-7.372145 -3.294658,-1.561159 -5.208182,-1.53411 -8.807753,0.1245 -3.2617725,1.502961 -4.1966836,1.287909 -4.1966836,-0.965339 0,-2.93422 6.9557306,-11.189063 12.6528596,-15.016021 2.683621,-1.802679 7.012386,-2.61568 7.012386,-1.317021 0,0.317586 -1.570048,2.410336 -3.488995,4.650557 -3.837089,4.479498 -4.290158,6.336662 -2.061679,8.45099 4.120795,3.909716 6.672506,3.802324 11.002083,-0.463036 5.669972,-5.585883 7.195989,-3.58119 2.956498,3.883893 -4.40884,7.763276 -10.244641,14.351653 -11.234507,12.68328 z m 242.29247,-0.873244 c -0.92038,-2.682216 -2.2142,-9.015038 -2.2142,-10.837786 0,-3.842066 1.53146,-3.323265 3.73152,1.264095 0.78862,1.644356 1.46679,2.163912 2.92931,2.244202 1.0467,0.05746 2.40684,0.131801 3.02255,0.165199 1.48872,0.08075 3.63953,3.857569 3.60946,6.338294 l -0.0241,1.982391 -2.10253,-2.477989 c -1.15638,-1.362894 -2.5004,-2.469803 -2.98677,-2.459797 -0.48636,0.01 -1.59796,1.042574 -2.47021,2.294598 -1.63652,2.349029 -3.00016,2.92912 -3.49509,1.486793 z M 88.005147,40.114743 c -0.90011,-0.759236 -1.549977,-2.219712 -1.778937,-3.997872 -0.417062,-3.238999 0.47194,-3.71392 2.101783,-1.122808 1.636935,2.60238 3.446556,3.376162 4.473697,1.912924 1.11233,-1.584587 1.090622,-9.170375 -0.04396,-15.367675 -0.779701,-4.258811 -0.77195,-4.883006 0.06477,-5.217466 2.080525,-0.83164 3.566603,4.638261 3.629417,13.359008 0.03978,5.525715 -0.165277,6.986759 -1.252149,8.920759 -1.040571,1.851601 -1.74609,2.35233 -3.538082,2.511078 -1.446582,0.128149 -2.739985,-0.22485 -3.656525,-0.997948 z m 28.702543,-1.192605 c -0.27243,-0.739545 0.74361,-3.488391 2.84713,-7.702671 1.7989,-3.604016 3.27073,-7.11739 3.27073,-7.807497 0,-0.690106 -0.5923,-2.30044 -1.31621,-3.578518 -1.50987,-2.665665 -1.41456,-5.236076 0.20608,-5.55783 0.83042,-0.164871 1.11013,0.21926 1.11013,1.524572 0,1.352224 0.24987,1.66765 1.11014,1.401425 4.06744,-1.258734 4.59913,-1.238991 4.59913,0.170778 0,1.62967 -9.15789,20.758287 -10.48905,21.909087 -0.73026,0.631315 -0.9998,0.558929 -1.33808,-0.359346 z M 64.019669,27.202865 c -4.087888,-4.67515 -3.558001,-10.150639 1.360512,-14.058498 2.399737,-1.906641 4.584406,-1.963844 5.676779,-0.148638 1.040735,1.729404 -0.279926,3.430333 -2.850579,3.671368 -1.18596,0.1112 -2.513123,0.688412 -2.949248,1.282692 -1.037335,1.413516 -1.011383,4.228928 0.05297,5.745156 0.750312,1.068877 1.113548,1.113044 3.214317,0.390838 3.241695,-1.114438 3.542617,-0.425775 1.005464,2.300984 -2.498164,2.684858 -3.71819,2.865551 -5.510201,0.816098 z m 10.656374,-3.237392 c -0.383034,-1.144549 -0.696422,-3.041304 -0.696422,-4.215013 0,-4.743609 7.492503,-4.544826 10.604896,0.281358 1.5952,2.473574 1.921777,5.353855 0.607028,5.353855 -1.080834,0 -3.160465,-2.374613 -4.503925,-5.142782 -0.579021,-1.193058 -1.307352,-2.005298 -1.618507,-1.804978 -0.311161,0.200319 -1.020632,1.994194 -1.576613,3.986387 -0.555981,1.992193 -1.260434,3.62217 -1.565455,3.62217 -0.305021,0 -0.867973,-0.936448 -1.251002,-2.080997 z m 80.026237,0.671152 c -0.44322,-0.46777 -0.79295,-2.459569 -0.79295,-4.516093 0,-4.341454 1.94111,-7.920245 5.01535,-9.246697 1.66609,-0.718877 2.20517,-0.660598 4.00223,0.432675 3.10696,1.890172 3.64976,4.240014 1.8127,7.84722 -2.21223,4.343861 -8.07968,7.548956 -10.03733,5.482895 z m 5.47437,-2.970117 c 1.96563,-1.434152 3.31782,-4.822419 2.53364,-6.348718 -0.75808,-1.475522 -3.5725,-1.515259 -5.10343,-0.07206 -1.27898,1.205697 -1.52398,4.232166 -0.5034,6.218597 0.79938,1.55591 1.18317,1.581158 3.07319,0.202176 z m -55.49071,1.667398 c -0.84794,-0.976005 -1.20845,-2.373009 -1.20845,-4.682793 0,-2.816313 0.26695,-3.53101 1.84799,-4.94764 4.61569,-4.1356905 10.99712,2.381333 7.57464,7.735586 -0.57439,0.898603 -1.48534,2.005523 -2.02433,2.459821 -1.54717,1.304062 -4.82607,1.004783 -6.18985,-0.564974 z m 5.15864,-2.621073 c 2.10137,-4.232928 -0.10726,-6.445575 -2.83205,-2.837211 -1.46439,1.93924 -1.67408,3.567468 -0.60311,4.683066 1.01006,1.052146 2.35536,0.329258 3.43516,-1.845855 z m 60.32365,1.203656 c -0.66617,-2.58939 -0.43243,-6.200118 0.56184,-8.678894 0.52892,-1.318638 1.14275,-4.2021011 1.36405,-6.4076968 0.22131,-2.2055963 0.87031,-4.6121209 1.44222,-5.3478326 1.42876,-1.83796153 6.38837,-2.42709233 7.82595,-0.92960993 1.66252,1.73180713 0.6636,3.23442213 -1.86595,2.80682633 -3.77031,-0.6373315 -4.82507,1.4418643 -5.64276,11.12324 -0.47973,5.679873 -1.37869,8.92076 -2.47449,8.92076 -0.45559,0 -1.00049,-0.669057 -1.21086,-1.486793 z M 94.435619,11.407525 c -1.839291,-1.9159351 -0.364784,-6.6433919 2.451038,-7.8583465 2.137339,-0.9222057 4.709273,-0.403891 5.247643,1.0575428 1.20868,3.2810118 -5.439652,9.1539647 -7.698681,6.8008037 z"
     id="path2982"
     inkscape:connector-curvature="0" />
</svg>
