<?xml version="1.0" encoding="UTF-8" standalone="no"?>
<!-- Created with Inkscape (http://www.inkscape.org/) -->

<svg
   xmlns:dc="http://purl.org/dc/elements/1.1/"
   xmlns:cc="http://creativecommons.org/ns#"
   xmlns:rdf="http://www.w3.org/1999/02/22-rdf-syntax-ns#"
   xmlns:svg="http://www.w3.org/2000/svg"
   xmlns="http://www.w3.org/2000/svg"
   xmlns:sodipodi="http://sodipodi.sourceforge.net/DTD/sodipodi-0.dtd"
   xmlns:inkscape="http://www.inkscape.org/namespaces/inkscape"
   width="55"
   height="55"
   id="svg4502"
   sodipodi:version="0.32"
   inkscape:version="0.91 r13725"
   version="1.0"
   sodipodi:docname="Maths Logo.svg"
   inkscape:output_extension="org.inkscape.output.svg.inkscape">
  <defs
     id="defs4504" />
  <sodipodi:namedview
     id="base"
     pagecolor="#ffffff"
     bordercolor="#666666"
     borderopacity="1.0"
     gridtolerance="10000"
     guidetolerance="10"
     objecttolerance="10"
     inkscape:pageopacity="0.0"
     inkscape:pageshadow="2"
     inkscape:zoom="11.2"
     inkscape:cx="43.636502"
     inkscape:cy="26.799276"
     inkscape:document-units="px"
     inkscape:current-layer="layer4"
     width="55px"
     height="55px"
     inkscape:window-width="1366"
     inkscape:window-height="705"
     inkscape:window-x="-8"
     inkscape:window-y="-8"
     showgrid="false"
     inkscape:snap-page="true"
     inkscape:window-maximized="1">
    <inkscape:grid
       id="GridFromPre046Settings"
       type="xygrid"
       originx="0px"
       originy="0px"
       spacingx="15px"
       spacingy="15px"
       color="#3f3fff"
       empcolor="#3f3fff"
       opacity="0.15"
       empopacity="0.38"
       empspacing="5" />
  </sodipodi:namedview>
  <metadata
     id="metadata4507">
    <rdf:RDF>
      <cc:Work
         rdf:about="">
        <dc:format>image/svg+xml</dc:format>
        <dc:type
           rdf:resource="http://purl.org/dc/dcmitype/StillImage" />
        <dc:title></dc:title>
      </cc:Work>
    </rdf:RDF>
  </metadata>
  <g
     inkscape:label="_guide"
     inkscape:groupmode="layer"
     id="layer1"
     style="display:inline"
     sodipodi:insensitive="true">
    <g
       id="_x5F_guide">
      <rect
         x="0"
         width="55"
         height="55"
         id="rect2336"
         y="0"
         style="fill:#282828;fill-opacity:1" />
      <rect
         x="5"
         y="5"
         width="45"
         height="45"
         id="rect2338"
         style="fill:none;stroke:#000000;stroke-opacity:1" />
      <flowRoot
         xml:space="preserve"
         id="flowRoot4579"><flowRegion
           id="flowRegion4581"><rect
             id="rect4583"
             width="47.72971"
             height="44.194176"
             x="62.124382"
             y="-15.710678" /></flowRegion><flowPara
           id="flowPara4585">r2r2r23r23r23r23r23r</flowPara></flowRoot>    </g>
  </g>
  <g
     inkscape:groupmode="layer"
     id="layer2"
     inkscape:label="_swatches"
     style="display:inline">
    <g
       id="_x5F_swatches">
      <rect
         x="55"
         width="55"
         height="55"
         id="rect2318"
         y="0"
         style="fill:#000000;fill-opacity:1" />
      <rect
         x="84.695"
         y="16.556999"
         width="8.783"
         height="8.7799997"
         id="rect2320"
         style="fill:#666666;stroke:#ffffff;stroke-width:3.5" />
      <rect
         x="84.695"
         y="29.729"
         width="8.783"
         height="8.7819996"
         id="rect2322"
         style="fill:#ffffff;stroke:#ffffff;stroke-width:3.5" />
      <rect
         x="97.867996"
         y="16.556"
         width="8.7819996"
         height="8.7810001"
         id="rect2324"
         style="fill:#666666" />
      <rect
         x="71.521004"
         y="16.556999"
         width="8.783"
         height="8.7799997"
         id="rect2326"
         style="fill:#666666;stroke:#666666;stroke-width:3.5" />
      <rect
         x="84.695"
         y="3.3840001"
         width="8.783"
         height="8.7799997"
         id="rect2328"
         style="fill:none;stroke:#ffffff;stroke-width:3.5" />
      <rect
         x="58.349998"
         y="29.729"
         width="8.783"
         height="8.7819996"
         id="rect2330"
         style="fill:#ffffff" />
      <rect
         x="71.521004"
         y="42.900002"
         width="8.783"
         height="8.7810001"
         id="rect2332"
         style="fill:none;stroke:#666666;stroke-width:3.5" />
      <rect
         x="71.521004"
         y="29.729"
         width="8.783"
         height="8.7819996"
         id="rect2334"
         style="fill:#ffffff;stroke:#666666;stroke-width:3.5" />
    </g>
  </g>
  <g
     inkscape:groupmode="layer"
     id="layer4"
     inkscape:label="icon"
     style="display:inline">
    <circle
       style="opacity:1;fill:#ffffff;fill-opacity:1;stroke:#666666;stroke-width:2.43559003;stroke-linecap:round;stroke-linejoin:round;stroke-miterlimit:4;stroke-dasharray:none;stroke-opacity:1"
       id="path2165"
       transform="matrix(1.4370235,0,0,1.4370235,-14.959677,-12.342744)"
       d="M 45.204325 27.725882 A 15.657364 15.657364 0 1 1  13.889597,27.725882 A 15.657364 15.657364 0 1 1  45.204325 27.725882 z"
       sodipodi:type="arc"
       sodipodi:ry="15.657364"
       sodipodi:rx="15.657364"
       sodipodi:cy="27.725882"
       sodipodi:cx="29.546961" />
    <rect
       style="fill:#ff00ff"
       id="rect3472"
       width="6.6291261"
       height="16.225574"
       x="17.022032"
       y="14.267393"
       ry="0" />
    <rect
       style="fill:#00ffff"
       id="rect3480"
       width="13.867932"
       height="5.5558391"
       x="23.514055"
       y="14.304378" />
    <rect
       style="fill:#ffff00"
       id="rect3486"
       width="6.0609155"
       height="11.743023"
       x="31.447342"
       y="18.950182" />
    <rect
       style="fill:#00ff00"
       id="rect3488"
       width="10.480332"
       height="4.6719556"
       x="21.245699"
       y="25.905813" />
    <path
       style="fill:#ffffff"
       id="path3506"
       d="m 18.468096,25.924356 c 0.438083,-0.399886 0.872155,-0.930413 1.02405,-1.51645 0.02527,-0.09752 0.02826,-0.199484 0.04239,-0.299227 -0.0057,-0.08481 -0.003,-0.170612 -0.01713,-0.254429 -0.02423,-0.143583 -0.11753,-0.435646 -0.306773,-0.447219 -0.02107,-0.0013 -0.04076,0.01099 -0.06114,0.01648 0.252716,-0.136055 0.505432,-0.27211 0.758148,-0.408164 -0.03096,0.02251 -0.09454,0.06841 -0.07844,0.118404 0.01178,0.03661 0.04444,0.02058 0.07089,0.01821 0.273807,-0.121663 0.789651,-0.331964 -0.415252,0.260091 -0.0714,0.03508 0.131183,-0.09039 0.192521,-0.141052 0.18459,-0.152457 0.231651,-0.216028 0.392218,-0.391431 0.173796,-0.230839 0.373045,-0.477459 0.384231,-0.780113 0.006,-0.160989 -0.0254,-0.231588 -0.06614,-0.387757 -0.05897,-0.185856 -0.166828,-0.346881 -0.266964,-0.511659 -0.03622,-0.0596 -0.08792,-0.136006 -0.102948,-0.207251 -0.0082,-0.03895 -0.0048,-0.07946 -0.0072,-0.119183 0.02086,-0.20852 0.126525,-0.397466 0.136411,-0.60849 0.0089,-0.18937 -0.02179,-0.244295 -0.07062,-0.431492 -0.197668,-0.474318 -0.447641,-0.924057 -0.611985,-1.412324 -0.03919,-0.161255 -0.01428,-0.308597 0.02494,-0.46501 0,0 0.832598,-0.393901 0.832598,-0.393901 l 0,0 c -0.05021,0.139803 -0.08597,0.270612 -0.06005,0.421814 0.141866,0.498214 0.392303,0.949084 0.60421,1.419131 0.05841,0.191139 0.09647,0.26215 0.09773,0.459341 0.0013,0.204606 -0.08207,0.394465 -0.127924,0.589939 -0.0021,0.03045 -0.0098,0.06102 -0.0063,0.09134 0.0072,0.06238 0.05571,0.147667 0.08282,0.198088 0.09495,0.176549 0.204859,0.345792 0.27017,0.536946 0.06106,0.205466 0.119826,0.412773 0.06721,0.62961 -0.05669,0.233631 -0.227609,0.430762 -0.35707,0.624606 -0.151097,0.173085 -0.360019,0.429916 -0.557119,0.551107 -0.30835,0.189597 -0.623768,0.367721 -0.941614,0.540929 -0.04474,0.02438 -0.09423,0.0407 -0.144174,0.05077 -0.03937,0.0079 -0.08031,0.0017 -0.12046,0.0026 -0.02786,-0.01469 -0.05962,-0.02363 -0.08359,-0.04406 -0.06404,-0.0546 -0.07061,-0.138107 -0.04415,-0.211607 0.0089,-0.02474 0.01195,-0.05735 0.03445,-0.07095 0.282699,-0.170898 0.579663,-0.317002 0.869494,-0.475503 0.02682,0.0064 0.05527,0.008 0.08044,0.01924 0.292766,0.130823 0.334867,0.550183 0.343529,0.821591 -0.01439,0.106604 -0.01726,0.215407 -0.04318,0.31981 -0.143485,0.578082 -0.564559,1.117079 -0.963376,1.545073 0,0 -0.854859,0.342192 -0.854859,0.342192 z"
       inkscape:connector-curvature="0" />
    <path
       style="fill:#ffffff"
       id="path3508"
       d="m 27.190797,16.574832 c 0.01216,0.10885 0.07619,0.243981 0.203837,0.254521 0.09552,0.0079 0.189435,-0.06864 0.2612,-0.109706 -0.184308,0.09977 -0.360356,0.216594 -0.552924,0.299302 -0.08717,0.03744 0.155982,-0.108046 0.233842,-0.162258 0.07196,-0.0501 0.14337,-0.101004 0.215619,-0.150692 0.379032,-0.260665 0.640718,-0.415568 1.125777,-0.670187 0.0446,-0.02341 0.09911,-0.01802 0.14866,-0.02703 0.184478,0.04417 0.268815,0.190298 0.354799,0.344388 0.01985,0.03558 0.03477,0.07428 0.05896,0.107057 0.02415,0.03273 0.05654,0.0585 0.0848,0.08775 0.213673,0.145152 0.460372,0.07617 0.695795,0.02808 0.105814,-0.02162 0.409371,-0.09174 0.516896,-0.116353 0.220195,-0.04516 0.447397,-0.05331 0.656336,0.0449 0.181933,0.08552 0.323853,0.251659 0.467362,0.386881 0.06734,0.05739 0.183717,0.169402 0.274137,0.199301 0.251944,0.08331 0.689149,-0.07502 0.930456,-0.141453 0.364858,-0.07522 0.765964,-0.247673 1.138961,-0.114461 0.03926,0.01402 0.07459,0.03725 0.111885,0.05587 0.116588,0.07547 0.205103,0.186188 0.315119,0.269533 0.03207,0.0243 0.145544,0.09056 0.178671,0.110293 0.163465,0.08688 0.34278,0.123673 0.525316,0.139685 0.146188,0.01886 0.272948,-0.04851 0.404013,-0.100688 0.01947,-0.0097 0.03893,-0.01939 0.0584,-0.02908 0,0 -0.732098,0.580763 -0.732098,0.580763 l 0,0 c -0.01962,0.0079 -0.03925,0.01582 -0.05887,0.02373 -0.140282,0.05459 -0.280061,0.09149 -0.431863,0.06433 -0.190053,-0.02769 -0.374636,-0.07966 -0.542303,-0.17623 -0.0643,-0.03961 -0.129053,-0.07711 -0.188782,-0.12371 -0.102099,-0.07966 -0.187839,-0.180466 -0.298964,-0.248814 -0.03192,-0.01422 -0.06236,-0.03242 -0.09577,-0.04266 -0.357021,-0.109496 -0.741221,0.06364 -1.08724,0.131748 -0.306592,0.08267 -0.680414,0.229032 -0.996281,0.09589 -0.08881,-0.03744 -0.209744,-0.155964 -0.27828,-0.216965 -0.133561,-0.126286 -0.268864,-0.279528 -0.443476,-0.350735 -0.200147,-0.08162 -0.414874,-0.05676 -0.620092,-0.01525 -0.28387,0.06309 -0.717073,0.191845 -1.001601,0.155606 -0.137218,-0.01748 -0.175212,-0.05946 -0.284399,-0.131238 -0.03278,-0.03542 -0.0695,-0.06757 -0.09835,-0.106259 -0.10318,-0.138353 -0.134686,-0.348909 -0.344026,-0.353568 -0.333339,0.108517 -0.255449,0.0931 0.484438,-0.316731 0.06802,-0.03768 -0.130727,0.08424 -0.195193,0.127715 -0.473127,0.319062 -0.90788,0.674367 -1.442127,0.907126 -0.06397,0.02295 -0.124833,0.05789 -0.191903,0.06885 -0.202088,0.03302 -0.351466,-0.172276 -0.389148,-0.342227 0,0 0.828405,-0.437009 0.828405,-0.437009 z"
       inkscape:connector-curvature="0" />
    <path
       style="fill:#ffffff"
       id="path3510"
       d="m 34.72109,20.808947 c 1.288023,-0.754106 0.617014,-0.397967 0.398065,-0.111858 -0.143584,0.187627 -0.218923,0.377882 -0.287818,0.600123 -0.01758,0.154395 -0.04099,0.205203 0.0079,0.354573 0.04165,0.127375 0.116122,0.217179 0.193167,0.324045 0.22258,0.308734 0.03041,0.03386 0.243135,0.341784 0.297628,0.47082 0.213694,0.733604 0.03968,1.229812 -0.08787,0.300361 -0.258198,0.605353 -0.244766,0.927512 0.0022,0.05251 0.01326,0.10428 0.01989,0.15642 0.06471,0.297689 0.178557,0.581268 0.253148,0.87642 0.05743,0.227239 0.05229,0.232836 0.08414,0.458154 0.02374,0.394087 -0.18246,0.730298 -0.337758,1.076538 -0.09938,0.207834 -0.137382,0.422266 -0.130597,0.650106 0.01086,0.198271 0.02186,0.39649 0.02709,0.595003 0.01521,0.171679 -0.01921,0.337484 -0.0617,0.502306 -0.03798,0.135525 -0.04834,0.275513 -0.05513,0.415364 -0.01623,0.144937 0.02222,0.279423 0.06574,0.415118 0.03947,0.05161 0.04045,0.139721 0.08939,0.183169 0,0 -0.81198,0.47948 -0.81198,0.47948 l 0,0 c -0.03966,-0.06718 -0.05948,-0.144556 -0.09721,-0.21301 -0.04465,-0.145267 -0.09076,-0.290091 -0.07705,-0.444828 0.0028,-0.145352 0.0077,-0.291476 0.04459,-0.433008 0.0413,-0.158316 0.09346,-0.314677 0.07783,-0.481271 -0.005,-0.198214 -0.01301,-0.396296 -0.02701,-0.594106 -0.0098,-0.247941 0.01461,-0.464778 0.122701,-0.693407 0.15285,-0.334744 0.368239,-0.657406 0.370783,-1.036891 -0.02352,-0.210836 -0.01972,-0.237028 -0.07218,-0.449121 -0.07375,-0.298184 -0.19547,-0.581504 -0.273461,-0.878415 -0.01002,-0.05688 -0.02554,-0.113061 -0.03007,-0.170639 -0.02617,-0.332877 0.157592,-0.650157 0.247204,-0.959646 0.09383,-0.25707 0.219057,-0.535277 0.153132,-0.815666 -0.02965,-0.126087 -0.09596,-0.224834 -0.158337,-0.335814 -0.03821,-0.05612 -0.07522,-0.113075 -0.114645,-0.16835 -0.157754,-0.221184 -0.366903,-0.432901 -0.382629,-0.720866 -0.0037,-0.06782 0.01149,-0.135357 0.01724,-0.203035 0.01974,-0.07112 0.03401,-0.143997 0.05921,-0.213373 0.260752,-0.717747 0.683958,-0.852825 1.377605,-1.245952 0,0 -0.729247,0.583329 -0.729247,0.583329 z"
       inkscape:connector-curvature="0" />
    <path
       style="fill:#ffffff"
       id="path3512"
       d="m 22.620858,27.356906 c 0.01,0.157355 -0.04643,0.3668 0.02919,0.511844 0.01271,0.02439 0.03367,0.04349 0.05051,0.06523 0.02451,0.0085 0.0476,0.02449 0.07353,0.02551 0.136181,0.0053 0.349414,-0.154984 0.456158,-0.214776 0.307036,-0.171986 0.205718,-0.118225 0.538379,-0.25764 0.265292,-0.09099 0.497772,-0.11587 0.746749,0.03928 0.195151,0.121606 0.34444,0.338158 0.49436,0.50783 0.122349,0.126092 0.24614,0.269972 0.423999,0.317199 0.191562,0.05087 0.387009,-0.02302 0.568239,-0.07487 0.418698,-0.146359 0.834411,-0.318124 1.278042,-0.368538 0.258011,-0.0071 0.513227,0.04698 0.770134,0.06942 0.192839,0.02083 0.388015,0.0082 0.580462,0.03296 0.05435,0.007 0.195514,0.03484 0.251906,0.04565 0.169536,0.04169 0.335506,0.11729 0.512474,0.110648 0.202006,-0.02496 0.402786,-0.05919 0.605903,-0.07943 0.175187,-0.02228 0.352628,-0.01587 0.523339,0.03011 0.147682,0.0286 0.292281,0.06835 0.43897,0.101212 0.09386,0.03059 0.180767,0.07342 0.256531,0.136722 0,0 -0.793275,0.499994 -0.793275,0.499994 l 0,0 c -0.07034,-0.04925 -0.147184,-0.08505 -0.230828,-0.105907 -0.145474,-0.03641 -0.29147,-0.06938 -0.43816,-0.100596 -0.165752,-0.02974 -0.332159,-0.03354 -0.499349,-0.0099 -0.206746,0.02306 -0.411365,0.07001 -0.619608,0.07239 -0.176299,-0.02026 -0.341221,-0.08533 -0.513188,-0.126498 -0.272702,-0.05091 -0.547687,-0.05732 -0.824119,-0.07353 -0.251719,-0.02364 -0.503838,-0.07497 -0.757098,-0.05414 -0.435272,0.06269 -0.842759,0.230251 -1.258089,0.367971 -0.163166,0.03856 -0.275952,0.07878 -0.444983,0.06795 -0.259616,-0.01663 -0.442942,-0.210947 -0.604544,-0.392041 -0.138718,-0.159924 -0.281491,-0.366129 -0.471039,-0.471265 -0.226966,-0.125892 -0.462777,-0.07926 -0.69248,0.0078 -0.415915,0.187955 -0.147205,0.05737 -0.543114,0.272278 -0.149613,0.08121 -0.348269,0.224212 -0.53201,0.159027 -0.03591,-0.01274 -0.06403,-0.04133 -0.09605,-0.06199 -0.02116,-0.03009 -0.04673,-0.05752 -0.06347,-0.09027 -0.08393,-0.16416 -0.03218,-0.358676 -0.05208,-0.534386 0,0 0.834616,-0.425259 0.834616,-0.425259 z"
       inkscape:connector-curvature="0" />
    <path
       style="fill:#000000"
       id="path3514"
       d="m 25.57078,21.211444 c 0.07574,0.357933 0.158308,0.719796 0.326171,1.046961 0.02684,0.01313 0.05087,0.04307 0.08053,0.03939 0.03564,-0.0044 0.121009,-0.07708 0.08918,-0.06045 -0.224696,0.11739 -0.4378,0.257502 -0.668314,0.363012 -0.05553,0.02541 0.09362,-0.07853 0.138132,-0.120339 0.01996,-0.01875 0.219107,-0.222734 0.244032,-0.248216 0.302477,-0.298357 0.605928,-0.429351 1.065353,-0.592162 0.03857,-0.01367 0.223739,0.275726 0.2475,0.311365 0.03739,0.04705 0.06336,0.120072 0.14112,0.09898 0.03161,-0.0086 0.111357,-0.0689 0.08254,-0.05333 -1.058669,0.572026 -0.788147,0.460134 -0.465971,0.221453 0.326263,-0.211496 0.429918,-0.282696 0.971792,-0.512755 0.03559,-0.01511 0.24088,0.142021 0.274866,0.16276 0.03062,0.01868 0.06415,0.0321 0.09622,0.04816 0.03647,0.0059 0.07247,0.01828 0.109401,0.01762 0.200493,-0.0036 0.490625,-0.152578 0.688122,-0.21714 0.191488,-0.05025 0.235792,-0.0061 0.390406,0.0738 0.09482,0.04355 0.200973,0.03249 0.29936,0.0598 0.100812,0.01743 0.171323,0.09445 0.25955,0.138049 0.09874,0.03551 0.20525,0.03647 0.30894,0.03949 0.120739,-0.0053 0.246034,0.01748 0.364005,-0.01226 0.05819,-0.0013 0.03211,-0.0014 0.07826,-3.91e-4 0,0 -0.761145,0.554527 -0.761145,0.554527 l 0,0 c -0.03847,0.0022 -0.01619,3.99e-4 -0.06674,0.0064 -0.124443,0.0047 -0.249136,0.0023 -0.373562,-0.0021 -0.115144,-0.0073 -0.232249,-0.01733 -0.335589,-0.07357 -0.07767,-0.04746 -0.149258,-0.104261 -0.243047,-0.115793 -0.107827,-0.01561 -0.217776,-0.02561 -0.314695,-0.0805 -0.119423,-0.06477 -0.199584,-0.06711 -0.333517,-0.02193 -0.225828,0.07733 -0.473765,0.208956 -0.719813,0.17735 -0.04266,-0.0055 -0.08251,-0.02435 -0.123765,-0.03653 -0.03444,-0.01898 -0.06889,-0.03795 -0.103329,-0.05693 -0.02847,-0.01868 -0.05571,-0.03938 -0.08541,-0.05605 -0.02676,-0.01502 -0.05413,-0.02986 -0.0835,-0.03874 -0.02254,-0.0068 -0.08974,0.0054 -0.07021,-0.0078 0.397955,-0.268283 1.019144,-0.584544 0.631145,-0.385414 -0.413621,0.298634 -0.445465,0.336459 -1.125719,0.683671 -0.124132,0.06336 -0.228581,-0.05802 -0.284766,-0.144595 -0.02932,-0.04327 -0.10247,-0.15714 -0.143284,-0.19545 -0.01815,-0.01704 -0.08448,-0.02323 -0.06436,-0.03789 0.229439,-0.167233 0.484675,-0.295851 0.72645,-0.444693 0.02956,-0.0182 -0.06189,0.03208 -0.08978,0.05274 -0.03636,0.02695 -0.06807,0.05964 -0.102109,0.08947 -0.176718,0.176089 -0.06488,0.06258 -0.245942,0.251865 -0.0422,0.04412 -0.07538,0.09932 -0.1269,0.132082 -0.299124,0.190242 -0.603103,0.374571 -0.919888,0.533675 -0.04044,0.02031 -0.09336,0.01244 -0.135708,-0.0035 -0.04024,-0.01515 -0.06507,-0.05621 -0.0976,-0.08431 -0.155302,-0.339966 -0.238098,-0.704955 -0.350318,-1.060383 0,0 0.821907,-0.439429 0.821907,-0.439429 z"
       inkscape:connector-curvature="0" />
    <path
       style="fill:#000000"
       id="path3516"
       d="m 26.820382,24.063725 c 0.200235,-0.04549 0.347767,-0.08432 0.51324,0.06083 0.08656,0.07776 0.08424,0.238744 0.193208,0.288669 -0.01552,0.006 0.158491,-0.106624 0.11665,-0.08348 -0.235454,0.130232 -0.933138,0.536263 -0.70159,0.399205 0.293726,-0.173862 0.58822,-0.346696 0.888145,-0.509631 0.0279,-0.01516 0.06071,-0.02138 0.09242,-0.02306 0.02759,-0.0015 0.05448,0.0092 0.08172,0.01384 0.109606,0.0089 0.120317,0.180723 0.175267,0.219212 0.01347,0.0094 0.05373,-0.03724 0.08144,-0.06361 0.123396,-0.06264 0.320354,-0.244293 0.469375,-0.197873 0.02204,0.0069 0.03988,0.02326 0.05982,0.03489 0.07514,0.09009 0.104947,0.169409 0.233281,0.169956 0.145478,-0.0053 0.290637,-0.01649 0.436046,-0.02329 0.01848,-0.0013 0.03696,-0.0026 0.05544,-0.0038 0,0 -0.754792,0.554278 -0.754792,0.554278 l 0,0 c -0.01761,5.62e-4 -0.03523,0.0011 -0.05285,0.0017 -0.149821,0.0076 -0.300894,0.02412 -0.450492,0.0073 -0.109699,-0.03512 -0.17312,-0.09912 -0.245313,-0.184667 -0.167428,-0.01468 -0.328059,0.169242 -0.483963,0.213017 -0.03612,8.19e-4 -0.07331,0.01126 -0.10835,0.0025 -0.09543,-0.02399 -0.06249,-0.185999 -0.171528,-0.183103 -0.01972,0.0033 -0.04009,0.0038 -0.05916,0.0098 -0.02739,0.0086 -0.103833,0.04857 -0.07924,0.03377 0.229974,-0.138446 0.929783,-0.536982 0.696003,-0.405064 -0.298021,0.168168 -0.589073,0.348606 -0.88874,0.513822 -0.0282,0.01555 -0.06051,0.02595 -0.09269,0.02727 -0.03014,0.0012 -0.05886,-0.01325 -0.08829,-0.01987 -0.0925,-0.08257 -0.121343,-0.196661 -0.193203,-0.294562 -0.140078,-0.09707 -0.313562,-0.02534 -0.463748,0.01327 0,0 0.741875,-0.571207 0.741875,-0.571207 z"
       inkscape:connector-curvature="0" />
    <text
       xml:space="preserve"
       style="font-style:normal;font-weight:normal;font-size:4.47090721px;line-height:0%;font-family:sans-serif;letter-spacing:0px;word-spacing:0px;fill:#ff00ff;fill-opacity:1;stroke:none;stroke-width:1px;stroke-linecap:butt;stroke-linejoin:miter;stroke-opacity:1"
       x="7.8919783"
       y="23.763334"
       id="text3518"
       sodipodi:linespacing="0%"
       transform="scale(0.98497384,1.0152554)"><tspan
         sodipodi:role="line"
         id="tspan3520"
         x="7.8919783"
         y="23.763334">add </tspan></text>
    <text
       xml:space="preserve"
       style="font-style:normal;font-weight:normal;font-size:5px;line-height:0%;font-family:sans-serif;letter-spacing:0px;word-spacing:0px;fill:#000000;fill-opacity:1;stroke:none;stroke-width:1px;stroke-linecap:butt;stroke-linejoin:miter;stroke-opacity:1"
       x="22.097088"
       y="37.890541"
       id="text3522"
       sodipodi:linespacing="0%"><tspan
         sodipodi:role="line"
         id="tspan3524"
         x="22.097088"
         y="37.890541" /></text>
    <text
       xml:space="preserve"
       style="font-style:normal;font-weight:normal;font-size:3.96017718px;line-height:0%;font-family:sans-serif;letter-spacing:0px;word-spacing:0px;fill:#00ffff;fill-opacity:1;stroke:none;stroke-width:1px;stroke-linecap:butt;stroke-linejoin:miter;stroke-opacity:1"
       x="27.269392"
       y="9.8511553"
       id="text3526"
       sodipodi:linespacing="0%"
       transform="scale(0.79203542,1.2625698)"><tspan
         sodipodi:role="line"
         id="tspan3528"
         x="27.269392"
         y="9.8511553">subtract</tspan></text>
    <text
       xml:space="preserve"
       style="font-style:normal;font-weight:normal;font-size:2.980865px;line-height:0%;font-family:sans-serif;letter-spacing:0px;word-spacing:0px;fill:#000000;fill-opacity:1;stroke:none;stroke-width:1px;stroke-linecap:butt;stroke-linejoin:miter;stroke-opacity:1"
       x="41.59766"
       y="22.536943"
       id="text3532"
       sodipodi:linespacing="0%"
       transform="scale(0.89582022,1.1162954)"><tspan
         sodipodi:role="line"
         id="tspan3534"
         x="41.59766"
         y="22.536943"
         style="fill:#ffff00">multiply</tspan></text>
    <text
       xml:space="preserve"
       style="font-style:normal;font-weight:normal;font-size:3.73912668px;line-height:0%;font-family:sans-serif;letter-spacing:0px;word-spacing:0px;fill:#000000;fill-opacity:1;stroke:none;stroke-width:1px;stroke-linecap:butt;stroke-linejoin:miter;stroke-opacity:1"
       x="19.828407"
       y="34.028606"
       id="text3536"
       sodipodi:linespacing="0%"
       transform="scale(0.97176177,1.0290588)"><tspan
         sodipodi:role="line"
         id="tspan3538"
         x="19.828407"
         y="34.028606"
         style="fill:#00ff00">divide</tspan></text>
    <text
       xml:space="preserve"
       style="font-style:normal;font-variant:normal;font-weight:normal;font-stretch:normal;font-size:3.27956223px;line-height:0%;font-family:'Berlin Sans FB';-inkscape-font-specification:'Berlin Sans FB';letter-spacing:0px;word-spacing:0px;fill:#000000;fill-opacity:1;stroke:none;stroke-width:1px;stroke-linecap:butt;stroke-linejoin:miter;stroke-opacity:1"
       x="17.545708"
       y="36.275932"
       id="text3540"
       sodipodi:linespacing="0%"
       transform="scale(0.88328361,1.1321392)"><tspan
         sodipodi:role="line"
         id="tspan3542"
         x="17.545708"
         y="36.275932">I enjoy of the maths</tspan></text>
  </g>
</svg>
