<?xml version="1.0" encoding="utf-8"?>
<!-- Generator: Adobe Illustrator 18.1.1, SVG Export Plug-In . SVG Version: 6.00 Build 0)  -->
<!DOCTYPE svg PUBLIC "-//W3C//DTD SVG 1.1//EN" "http://www.w3.org/Graphics/SVG/1.1/DTD/svg11.dtd">
<svg version="1.1" id="Layer_1" xmlns="http://www.w3.org/2000/svg" xmlns:xlink="http://www.w3.org/1999/xlink" x="0px" y="0px"
	 viewBox="0 0 55 55" style="enable-background:new 0 0 55 55;" xml:space="preserve">
<rect x="1.2" y="0.5" style="fill:#FFFFFF;stroke:#666666;stroke-miterlimit:10;" width="18" height="18"/>
<rect x="19.2" y="0.5" style="fill:#FFFFFF;stroke:#666666;stroke-miterlimit:10;" width="17" height="18"/>
<rect x="36.2" y="0.5" style="fill:#FFFFFF;stroke:#666666;stroke-miterlimit:10;" width="18" height="18"/>
<rect x="1.2" y="18.5" style="fill:#FFFFFF;stroke:#666666;stroke-miterlimit:10;" width="18" height="17"/>
<rect x="19.2" y="18.5" style="fill:#FFFFFF;stroke:#666666;stroke-miterlimit:10;" width="17" height="17"/>
<rect x="36.2" y="18.5" style="fill:#FFFFFF;stroke:#666666;stroke-miterlimit:10;" width="18" height="17"/>
<rect x="1.2" y="35.5" style="fill:#FFFFFF;stroke:#666666;stroke-miterlimit:10;" width="18" height="18"/>
<rect x="19.2" y="35.5" style="fill:#FFFFFF;stroke:#666666;stroke-miterlimit:10;" width="17" height="18"/>
<rect x="36.2" y="35.5" style="fill:#FFFFFF;stroke:#666666;stroke-miterlimit:10;" width="18" height="18"/>
<path style="fill:#666666;" d="M31.2,29.9L31.2,29.9c-0.3,0.3-0.9,0.3-1.2,0l-5.5-5.5c-0.3-0.3-0.3-0.9,0-1.2l0,0
	c0.3-0.3,0.9-0.3,1.2,0l5.5,5.5C31.6,29,31.6,29.5,31.2,29.9z"/>
<path style="fill:#666666;" d="M24.5,29.9L24.5,29.9c-0.3-0.3-0.3-0.9,0-1.2l5.5-5.5c0.3-0.3,0.9-0.3,1.2,0l0,0
	c0.3,0.3,0.3,0.9,0,1.2l-5.5,5.5C25.4,30.2,24.9,30.2,24.5,29.9z"/>
<circle style="fill:#666666;" cx="28" cy="9.8" r="2.5"/>
</svg>
