<?xml version="1.0" encoding="UTF-8" standalone="no"?>
<!-- Created with Inkscape (http://www.inkscape.org/) -->

<svg
   xmlns:dc="http://purl.org/dc/elements/1.1/"
   xmlns:cc="http://creativecommons.org/ns#"
   xmlns:rdf="http://www.w3.org/1999/02/22-rdf-syntax-ns#"
   xmlns:svg="http://www.w3.org/2000/svg"
   xmlns="http://www.w3.org/2000/svg"
   xmlns:sodipodi="http://sodipodi.sourceforge.net/DTD/sodipodi-0.dtd"
   xmlns:inkscape="http://www.inkscape.org/namespaces/inkscape"
   id="svg2"
   version="1.1"
   inkscape:version="0.48.4 r9939"
   width="765"
   height="990"
   xml:space="preserve"
   sodipodi:docname="Note Finder.ai"><metadata
     id="metadata8"><rdf:RDF><cc:Work
         rdf:about=""><dc:format>image/svg+xml</dc:format><dc:type
           rdf:resource="http://purl.org/dc/dcmitype/StillImage" /><dc:title></dc:title></cc:Work></rdf:RDF></metadata><defs
     id="defs6"><clipPath
       clipPathUnits="userSpaceOnUse"
       id="clipPath16"><path
         d="M 0,792 612,792 612,0 0,0 0,792 z"
         id="path18" /></clipPath><clipPath
       clipPathUnits="userSpaceOnUse"
       id="clipPath100"><path
         d="M 0,792 612,792 612,0 0,0 0,792 z"
         id="path102" /></clipPath></defs><sodipodi:namedview
     pagecolor="#ffffff"
     bordercolor="#666666"
     borderopacity="1"
     objecttolerance="10"
     gridtolerance="10"
     guidetolerance="10"
     inkscape:pageopacity="0"
     inkscape:pageshadow="2"
     inkscape:window-width="640"
     inkscape:window-height="480"
     id="namedview4"
     showgrid="false"
     inkscape:zoom="0.95353535"
     inkscape:cx="593.12946"
     inkscape:cy="719.86274"
     inkscape:window-x="0"
     inkscape:window-y="1"
     inkscape:window-maximized="0"
     inkscape:current-layer="g10" /><g
     id="g10"
     inkscape:groupmode="layer"
     inkscape:label="Note Finder"
     transform="matrix(1.25,0,0,-1.25,0,990)"><g
       id="g12"><g
         id="g14"
         clip-path="url(#clipPath16)"><g
           id="g20"
           transform="translate(489.2031,587.6094)"><path
             d="m 0,0 c 0,-79.606 -64.534,-144.141 -144.141,-144.141 -79.606,0 -144.14,64.535 -144.14,144.141 0,79.606 64.534,144.141 144.14,144.141 C -64.534,144.141 0,79.606 0,0"
             style="fill:#ffffff;fill-opacity:1;fill-rule:nonzero;stroke:none"
             id="path22" /></g><g
           id="g24"
           transform="translate(489.2031,587.6094)"><path
             d="m 0,0 c 0,-79.606 -64.534,-144.141 -144.141,-144.141 -79.606,0 -144.14,64.535 -144.14,144.141 0,79.606 64.534,144.141 144.14,144.141 C -64.534,144.141 0,79.606 0,0 z"
             style="fill:none;stroke:#373535;stroke-opacity:1;stroke-width:1;stroke-linecap:butt;stroke-linejoin:miter;stroke-miterlimit:4;stroke-dasharray:none"
             id="path26" /></g><g
           id="g28"
           transform="translate(345.0625,443.4688)"><path
             d="M 0,0 0,288.281"
             style="fill:none;stroke:#373535;stroke-opacity:1;stroke-width:1;stroke-linecap:butt;stroke-linejoin:miter;stroke-miterlimit:4;stroke-dasharray:none"
             id="path30" /></g><g
           id="g32"
           transform="translate(200.9219,587.6094)"><path
             d="M 0,0 288.281,0"
             style="fill:none;stroke:#373535;stroke-opacity:1;stroke-width:1;stroke-linecap:butt;stroke-linejoin:miter;stroke-miterlimit:4;stroke-dasharray:none"
             id="path34" /></g><g
           id="g36"
           transform="translate(345.0625,587.6094)"><path
             d="M 0,0 -124.829,72.069"
             style="fill:none;stroke:#373535;stroke-opacity:1;stroke-width:1;stroke-linecap:butt;stroke-linejoin:miter;stroke-miterlimit:4;stroke-dasharray:none"
             id="path38" /></g><g
           id="g40"
           transform="translate(345.0625,587.6094)"><path
             d="M 0,0 -72.07,-124.831"
             style="fill:none;stroke:#373535;stroke-opacity:1;stroke-width:1;stroke-linecap:butt;stroke-linejoin:miter;stroke-miterlimit:4;stroke-dasharray:none"
             id="path42" /></g><g
           id="g44"
           transform="translate(345.0625,587.6094)"><path
             d="M 0,0 -124.83,-72.07"
             style="fill:none;stroke:#373535;stroke-opacity:1;stroke-width:1;stroke-linecap:butt;stroke-linejoin:miter;stroke-miterlimit:4;stroke-dasharray:none"
             id="path46" /></g><g
           id="g48"
           transform="translate(345.0625,587.6094)"><path
             d="M 0,0 72.07,-124.83"
             style="fill:none;stroke:#373535;stroke-opacity:1;stroke-width:1;stroke-linecap:butt;stroke-linejoin:miter;stroke-miterlimit:4;stroke-dasharray:none"
             id="path50" /></g><g
           id="g52"
           transform="translate(345.0625,587.6094)"><path
             d="M 0,0 124.828,-72.07"
             style="fill:none;stroke:#373535;stroke-opacity:1;stroke-width:1;stroke-linecap:butt;stroke-linejoin:miter;stroke-miterlimit:4;stroke-dasharray:none"
             id="path54" /></g><g
           id="g56"
           transform="translate(345.0615,587.6099)"><path
             d="M 0,0 124.829,72.07"
             style="fill:none;stroke:#373535;stroke-opacity:1;stroke-width:1;stroke-linecap:butt;stroke-linejoin:miter;stroke-miterlimit:4;stroke-dasharray:none"
             id="path58" /></g><g
           id="g60"
           transform="translate(345.0625,587.6094)"><path
             d="M 0,0 72.07,124.829"
             style="fill:none;stroke:#373535;stroke-opacity:1;stroke-width:1;stroke-linecap:butt;stroke-linejoin:miter;stroke-miterlimit:4;stroke-dasharray:none"
             id="path62" /></g><g
           id="g64"
           transform="translate(345.0625,587.6094)"><path
             d="M 0,0 -72.071,124.829"
             style="fill:none;stroke:#373535;stroke-opacity:1;stroke-width:1;stroke-linecap:butt;stroke-linejoin:miter;stroke-miterlimit:4;stroke-dasharray:none"
             id="path66" /></g></g></g><text
       transform="matrix(0.99998966,0,0,-1,337.459,745.9375)"
       id="text68"><tspan
         style="fill:#373535;fill-opacity:1;fill-rule:nonzero;stroke:none;font-family:Comic Sans MS;font-variant:normal;font-weight:normal;font-stretch:normal;font-size:19.3419;writing-mode:lr;-inkscape-font-specification:ComicSansMS"
         x="0"
         y="0"
         id="tspan70">0</tspan></text>
<text
       transform="matrix(1,0,0,-1,248.3623,725.9854)"
       id="text72"><tspan
         style="fill:#373535;fill-opacity:1;fill-rule:nonzero;stroke:none;font-family:Comic Sans MS;font-variant:normal;font-weight:normal;font-stretch:normal;font-size:19.3419;writing-mode:lr;-inkscape-font-specification:ComicSansMS"
         x="0 8.703855"
         y="0"
         sodipodi:role="line"
         id="tspan74">11</tspan><tspan
         style="fill:#373535;fill-opacity:1;fill-rule:nonzero;stroke:none;font-family:Comic Sans MS;font-variant:normal;font-weight:normal;font-stretch:normal;font-size:19.3419;writing-mode:lr;-inkscape-font-specification:ComicSansMS"
         x="-57.0005793 -48.2967243"
         y="60.907643"
         sodipodi:role="line"
         id="tspan76">10</tspan><tspan
         style="fill:#373535;fill-opacity:1;fill-rule:nonzero;stroke:none;font-family:Comic Sans MS;font-variant:normal;font-weight:normal;font-stretch:normal;font-size:19.3419;writing-mode:lr;-inkscape-font-specification:ComicSansMS"
         x="178.9899426"
         y="2.2630023"
         id="tspan78">1</tspan><tspan
         style="fill:#373535;fill-opacity:1;fill-rule:nonzero;stroke:none;font-family:Comic Sans MS;font-variant:normal;font-weight:normal;font-stretch:normal;font-size:19.3419;writing-mode:lr;-inkscape-font-specification:ComicSansMS"
         x="236.3193342"
         y="66.304033"
         id="tspan80">2</tspan><tspan
         style="fill:#373535;fill-opacity:1;fill-rule:nonzero;stroke:none;font-family:Comic Sans MS;font-variant:normal;font-weight:normal;font-stretch:normal;font-size:19.3419;writing-mode:lr;-inkscape-font-specification:ComicSansMS"
         x="253.7077023"
         y="140.55759"
         id="tspan82">3</tspan><tspan
         style="fill:#373535;fill-opacity:1;fill-rule:nonzero;stroke:none;font-family:Comic Sans MS;font-variant:normal;font-weight:normal;font-stretch:normal;font-size:19.3419;writing-mode:lr;-inkscape-font-specification:ComicSansMS"
         x="230.4200547"
         y="224.86893"
         id="tspan84">4</tspan><tspan
         style="fill:#373535;fill-opacity:1;fill-rule:nonzero;stroke:none;font-family:Comic Sans MS;font-variant:normal;font-weight:normal;font-stretch:normal;font-size:19.3419;writing-mode:lr;-inkscape-font-specification:ComicSansMS"
         x="174.6380151"
         y="286.82104"
         id="tspan86">5</tspan><tspan
         style="fill:#373535;fill-opacity:1;fill-rule:nonzero;stroke:none;font-family:Comic Sans MS;font-variant:normal;font-weight:normal;font-stretch:normal;font-size:19.3419;writing-mode:lr;-inkscape-font-specification:ComicSansMS"
         x="89.1081333"
         y="307.76831"
         id="tspan88">6</tspan><tspan
         style="fill:#373535;fill-opacity:1;fill-rule:nonzero;stroke:none;font-family:Comic Sans MS;font-variant:normal;font-weight:normal;font-stretch:normal;font-size:19.3419;writing-mode:lr;-inkscape-font-specification:ComicSansMS"
         x="13.5199881"
         y="290.94086"
         id="tspan90">7</tspan><tspan
         style="fill:#373535;fill-opacity:1;fill-rule:nonzero;stroke:none;font-family:Comic Sans MS;font-variant:normal;font-weight:normal;font-stretch:normal;font-size:19.3419;writing-mode:lr;-inkscape-font-specification:ComicSansMS"
         x="-47.4263388"
         y="230.9036"
         id="tspan92">8</tspan><tspan
         style="fill:#373535;fill-opacity:1;fill-rule:nonzero;stroke:none;font-family:Comic Sans MS;font-variant:normal;font-weight:normal;font-stretch:normal;font-size:19.3419;writing-mode:lr;-inkscape-font-specification:ComicSansMS"
         x="-72.6868602"
         y="145.95398"
         id="tspan94">9</tspan></text>
<g
       id="g96"><g
         id="g98"
         clip-path="url(#clipPath100)"><g
           id="g104"
           transform="translate(493.5859,256.3975)"><path
             d="m 0,0 c 0,-79.606 -64.534,-144.141 -144.141,-144.141 -79.606,0 -144.14,64.535 -144.14,144.141 0,79.606 64.534,144.141 144.14,144.141 C -64.534,144.141 0,79.606 0,0"
             style="fill:#ffffff;fill-opacity:1;fill-rule:nonzero;stroke:none"
             id="path106" /></g><g
           id="g108"
           transform="translate(493.5859,256.3975)"><path
             d="m 0,0 c 0,-79.606 -64.534,-144.141 -144.141,-144.141 -79.606,0 -144.14,64.535 -144.14,144.141 0,79.606 64.534,144.141 144.14,144.141 C -64.534,144.141 0,79.606 0,0 z"
             style="fill:none;stroke:#373535;stroke-opacity:1;stroke-width:1;stroke-linecap:butt;stroke-linejoin:miter;stroke-miterlimit:4;stroke-dasharray:none"
             id="path110" /></g><g
           id="g112"
           transform="translate(461.2305,256.3975)"><path
             d="m 0,0 c 0,-61.511 -49.864,-111.376 -111.375,-111.376 -61.512,0 -111.376,49.865 -111.376,111.376 0,61.511 49.864,111.376 111.376,111.376 C -49.864,111.376 0,61.511 0,0"
             style="fill:#ffffff;fill-opacity:1;fill-rule:nonzero;stroke:none"
             id="path114" /></g><g
           id="g116"
           transform="translate(461.2305,256.3975)"><path
             d="m 0,0 c 0,-61.511 -49.864,-111.376 -111.375,-111.376 -61.512,0 -111.376,49.865 -111.376,111.376 0,61.511 49.864,111.376 111.376,111.376 C -49.864,111.376 0,61.511 0,0 z"
             style="fill:none;stroke:#373535;stroke-opacity:1;stroke-width:1;stroke-linecap:butt;stroke-linejoin:miter;stroke-miterlimit:4;stroke-dasharray:none"
             id="path118" /></g><g
           id="g120"
           transform="translate(349.8555,222.4512)"><path
             d="M 0,0 0,67.893"
             style="fill:none;stroke:#373535;stroke-opacity:1;stroke-width:1;stroke-linecap:butt;stroke-linejoin:miter;stroke-miterlimit:4;stroke-dasharray:none"
             id="path122" /></g><g
           id="g124"
           transform="translate(318.6113,256.3975)"><path
             d="M 0,0 62.486,0"
             style="fill:none;stroke:#373535;stroke-opacity:1;stroke-width:1;stroke-linecap:butt;stroke-linejoin:miter;stroke-miterlimit:4;stroke-dasharray:none"
             id="path126" /></g></g></g><text
       transform="matrix(0.99999331,0,0,-1,343.9795,378.7363)"
       id="text128"><tspan
         style="fill:#373535;fill-opacity:1;fill-rule:nonzero;stroke:none;font-family:Comic Sans MS;font-variant:normal;font-weight:normal;font-stretch:normal;font-size:14.9453;writing-mode:lr;-inkscape-font-specification:ComicSansMS"
         x="0"
         y="0"
         id="tspan130">A</tspan></text>
<text
       transform="matrix(0.86602739,0.49999657,0.49999657,-0.86602739,273.7126,353.6424)"
       id="text132"><tspan
         style="fill:#373535;fill-opacity:1;fill-rule:nonzero;stroke:none;font-family:Comic Sans MS;font-variant:normal;font-weight:normal;font-stretch:normal;font-size:9.0000618;writing-mode:lr;-inkscape-font-specification:ComicSansMS"
         x="0 6.12004203 13.70709413 18.31512577 24.89417095"
         y="0"
         sodipodi:role="line"
         id="tspan134">G#/Ab</tspan></text>
<text
       transform="matrix(0.49999989,0.86602547,0.86602547,-0.49999989,242.5218,306.9151)"
       id="text136"><tspan
         style="fill:#373535;fill-opacity:1;fill-rule:nonzero;stroke:none;font-family:Comic Sans MS;font-variant:normal;font-weight:normal;font-stretch:normal;font-size:14.9454034;writing-mode:lr;-inkscape-font-specification:ComicSansMS"
         x="0"
         y="0"
         id="tspan138">G</tspan></text>
<text
       transform="matrix(0.86602739,-0.49999657,-0.49999657,-0.86602739,397.0361,367.7362)"
       id="text140"><tspan
         style="fill:#373535;fill-opacity:1;fill-rule:nonzero;stroke:none;font-family:Comic Sans MS;font-variant:normal;font-weight:normal;font-stretch:normal;font-size:9.0000618;writing-mode:lr;-inkscape-font-specification:ComicSansMS"
         x="0 6.57904518 14.16609728 18.77412892 24.44416786"
         y="0"
         sodipodi:role="line"
         id="tspan142">A#/Bb</tspan></text>
<text
       transform="matrix(0.49999989,-0.86602547,-0.86602547,-0.49999989,457.2871,313.3229)"
       id="text144"><tspan
         style="fill:#373535;fill-opacity:1;fill-rule:nonzero;stroke:none;font-family:Comic Sans MS;font-variant:normal;font-weight:normal;font-stretch:normal;font-size:14.9454034;writing-mode:lr;-inkscape-font-specification:ComicSansMS"
         x="0"
         y="0"
         id="tspan146">B</tspan></text>
<text
       transform="matrix(0,-1,-1,0,469.8906,256.3975)"
       id="text148"><tspan
         style="fill:#373535;fill-opacity:1;fill-rule:nonzero;stroke:none;font-family:Comic Sans MS;font-variant:normal;font-weight:normal;font-stretch:normal;font-size:14.9453;writing-mode:lr;-inkscape-font-specification:ComicSansMS"
         x="0"
         y="0"
         id="tspan150">C</tspan></text>
<text
       transform="matrix(-0.49999657,-0.86602739,-0.86602739,0.49999657,461.2304,209.9141)"
       id="text152"><tspan
         style="fill:#373535;fill-opacity:1;fill-rule:nonzero;stroke:none;font-family:Comic Sans MS;font-variant:normal;font-weight:normal;font-stretch:normal;font-size:9.0000618;writing-mode:lr;-inkscape-font-specification:ComicSansMS"
         x="0 5.42703727 13.01408937 17.62212101 24.12016564"
         y="0"
         sodipodi:role="line"
         id="tspan154">C#/Db</tspan></text>
<text
       transform="matrix(-0.86602547,-0.49999989,-0.49999989,0.86602547,411.1141,151.8405)"
       id="text156"><tspan
         style="fill:#373535;fill-opacity:1;fill-rule:nonzero;stroke:none;font-family:Comic Sans MS;font-variant:normal;font-weight:normal;font-stretch:normal;font-size:14.9454034;writing-mode:lr;-inkscape-font-specification:ComicSansMS"
         x="0"
         y="0"
         id="tspan158">D</tspan></text>
<text
       transform="matrix(-1,0,0,1,361.6782,137.2461)"
       id="text160"><tspan
         style="fill:#373535;fill-opacity:1;fill-rule:nonzero;stroke:none;font-family:Comic Sans MS;font-variant:normal;font-weight:normal;font-stretch:normal;font-size:9;writing-mode:lr;-inkscape-font-specification:ComicSansMS"
         x="0 6.498 14.085 18.693 24.318"
         y="0"
         sodipodi:role="line"
         id="tspan162">D#/Eb</tspan></text>
<text
       transform="matrix(-0.86602547,0.49999989,0.49999989,0.86602547,295.4117,145.533)"
       id="text164"><tspan
         style="fill:#373535;fill-opacity:1;fill-rule:nonzero;stroke:none;font-family:Comic Sans MS;font-variant:normal;font-weight:normal;font-stretch:normal;font-size:14.9454034;writing-mode:lr;-inkscape-font-specification:ComicSansMS"
         x="0"
         y="0"
         id="tspan166">E</tspan></text>
<text
       transform="matrix(-0.49999989,0.86602547,0.86602547,0.49999989,248.4002,189.1647)"
       id="text168"><tspan
         style="fill:#373535;fill-opacity:1;fill-rule:nonzero;stroke:none;font-family:Comic Sans MS;font-variant:normal;font-weight:normal;font-stretch:normal;font-size:14.9454034;writing-mode:lr;-inkscape-font-specification:ComicSansMS"
         x="0"
         y="0"
         id="tspan170">F</tspan></text>
<text
       transform="matrix(0,1,1,0,228.9521,239.9531)"
       id="text172"><tspan
         style="fill:#373535;fill-opacity:1;fill-rule:nonzero;stroke:none;font-family:Comic Sans MS;font-variant:normal;font-weight:normal;font-stretch:normal;font-size:9;writing-mode:lr;-inkscape-font-specification:ComicSansMS"
         x="0 5.463 13.05 17.658 23.778"
         y="0"
         sodipodi:role="line"
         id="tspan174">F#/Gb</tspan></text>
<text
       transform="matrix(1,0,0,-1,48.5938,755.1875)"
       id="text176"><tspan
         style="fill:#373535;fill-opacity:1;fill-rule:nonzero;stroke:none;font-family:Comic Sans MS;font-variant:normal;font-weight:bold;font-stretch:normal;font-size:14;writing-mode:lr;-inkscape-font-specification:ComicSansMS-Bold"
         x="0 11.382 18.746 25.34 33.166 39.242 47.74 51.66 58.982 67.2 71.12 78.442 85.876 91.952 100.618 107.982 118.86 126.35 134.134 140.952"
         y="0"
         sodipodi:role="line"
         id="tspan178">Note Finding Compass</tspan></text>
<text
       transform="matrix(1,0,0,-1,57.5938,723.9873)"
       id="text180"><tspan
         style="fill:#373535;fill-opacity:1;fill-rule:nonzero;stroke:none;font-family:Times New Roman;font-variant:normal;font-weight:normal;font-stretch:normal;font-size:12;writing-mode:lr;-inkscape-font-specification:TimesNewRomanPSMT"
         x="0 8.664 13.332 18.66 21.66 24.996 30.996 34.332 39 42 47.328 53.328 62.664 68.664 73.992 78.66 83.328 86.328 89.664 95.664 98.664 102.66 105.996 111.996 117.996"
         y="0"
         sodipodi:role="line"
         id="tspan182">Use this compass to find </tspan><tspan
         style="fill:#373535;fill-opacity:1;fill-rule:nonzero;stroke:none;font-family:Times New Roman;font-variant:normal;font-weight:normal;font-stretch:normal;font-size:12;writing-mode:lr;-inkscape-font-specification:TimesNewRomanPSMT"
         x="-9 -3.672 2.328 7.656 11.652 17.652 20.652 26.652 32.652 35.988 41.316 44.316 50.316 56.316 59.316 62.652 68.652 73.98 76.98 82.98 88.98 92.316 95.652 100.98 104.976"
         y="14.4"
         sodipodi:role="line"
         id="tspan184">every note on the guitar!</tspan><tspan
         style="fill:#373535;fill-opacity:1;fill-rule:nonzero;stroke:none;font-family:Times New Roman;font-variant:normal;font-weight:normal;font-stretch:normal;font-size:12;writing-mode:lr;-inkscape-font-specification:TimesNewRomanPSMT"
         x="-9 1.368 7.368 11.364 17.364 22.032 25.032 29.028 35.028 39.024 42.024 47.352 50.688 54.024 59.352 63.348 69.348 74.676 78.012"
         y="28.8"
         sodipodi:role="line"
         id="tspan186">Works for alternate</tspan><tspan
         style="fill:#373535;fill-opacity:1;fill-rule:nonzero;stroke:none;font-family:Times New Roman;font-variant:normal;font-weight:normal;font-stretch:normal;font-size:12;writing-mode:lr;-inkscape-font-specification:TimesNewRomanPSMT"
         x="-9 -5.664 0.336 6.336 9.672 15.672 21.672 26.34 29.34 34.668 39.336 42.336 51 56.328 59.664 63"
         y="43.2"
         sodipodi:role="line"
         id="tspan188">tunings as well.</tspan></text>
<text
       transform="matrix(1,0,0,-1,48.5938,637.5873)"
       id="text190"><tspan
         style="fill:#373535;fill-opacity:1;fill-rule:nonzero;stroke:none;font-family:Times New Roman;font-variant:normal;font-weight:bold;font-stretch:normal;font-size:12;writing-mode:lr;-inkscape-font-specification:TimesNewRomanPS-BoldMT"
         x="0 9.336 15.336 24 27 30.996 36.996 39.996 49.992 55.992 62.664 67.992 70.992 74.988 81.66"
         y="0"
         sodipodi:role="line"
         id="tspan192">How to make the</tspan><tspan
         style="fill:#373535;fill-opacity:1;fill-rule:nonzero;stroke:none;font-family:Times New Roman;font-variant:normal;font-weight:bold;font-stretch:normal;font-size:12;writing-mode:lr;-inkscape-font-specification:TimesNewRomanPS-BoldMT"
         x="0 5.328 11.328 21.324 27.996 33.996 38.664 43.332"
         y="14.4"
         sodipodi:role="line"
         id="tspan194">compass:</tspan></text>
<text
       transform="matrix(1,0,0,-1,48.5938,608.7873)"
       id="text196"><tspan
         style="fill:#373535;fill-opacity:1;fill-rule:nonzero;stroke:none;font-family:Times New Roman;font-variant:normal;font-weight:normal;font-stretch:normal;font-size:12;writing-mode:lr;-inkscape-font-specification:TimesNewRomanPSMT"
         x="0 6 9 12 18.672 24.672 30.672 34.008 40.008 45.336 51.336 57.336 63.336 66.336 69.672 75.672 79.008"
         y="0"
         sodipodi:role="line"
         id="tspan198">1. Photocopy this</tspan><tspan
         style="fill:#373535;fill-opacity:1;fill-rule:nonzero;stroke:none;font-family:Times New Roman;font-variant:normal;font-weight:normal;font-stretch:normal;font-size:12;writing-mode:lr;-inkscape-font-specification:TimesNewRomanPSMT"
         x="0 6 11.328 17.328"
         y="14.4"
         sodipodi:role="line"
         id="tspan200">page</tspan><tspan
         style="fill:#373535;fill-opacity:1;fill-rule:nonzero;stroke:none;font-family:Times New Roman;font-variant:normal;font-weight:normal;font-stretch:normal;font-size:12;writing-mode:lr;-inkscape-font-specification:TimesNewRomanPSMT"
         x="0 6 9 12 20.004 26.004 29.34 32.34 38.34 44.34 47.676 50.676 56.004 62.004 68.004 74.004 77.004 83.004"
         y="28.8"
         sodipodi:role="line"
         id="tspan202">2. Cut out copy of</tspan><tspan
         style="fill:#373535;fill-opacity:1;fill-rule:nonzero;stroke:none;font-family:Times New Roman;font-variant:normal;font-weight:normal;font-stretch:normal;font-size:12;writing-mode:lr;-inkscape-font-specification:TimesNewRomanPSMT"
         x="0 3.336 9.336 18 23.328 27.324 30.324 35.652 38.988 42.984 48.312 51.648 56.976 59.976 68.64 71.976 75.312"
         y="43.2"
         sodipodi:role="line"
         id="tspan204">lower circle with</tspan><tspan
         style="fill:#373535;fill-opacity:1;fill-rule:nonzero;stroke:none;font-family:Times New Roman;font-variant:normal;font-weight:normal;font-stretch:normal;font-size:12;writing-mode:lr;-inkscape-font-specification:TimesNewRomanPSMT"
         x="0 6 12 15.336 20.664 23.664 29.664 34.992 44.328 49.656"
         y="57.6"
         sodipodi:role="line"
         id="tspan206">note names</tspan><tspan
         style="fill:#373535;fill-opacity:1;fill-rule:nonzero;stroke:none;font-family:Times New Roman;font-variant:normal;font-weight:normal;font-stretch:normal;font-size:12;writing-mode:lr;-inkscape-font-specification:TimesNewRomanPSMT"
         x="0 6 9 12 18.672 22.008 27.336 32.664 37.992 40.992 46.32 52.32 58.32 64.32 67.32 73.32 77.316 80.316 83.652 89.652 98.316 103.644"
         y="72"
         sodipodi:role="line"
         id="tspan208">3. Place copy of lower</tspan><tspan
         style="fill:#373535;fill-opacity:1;fill-rule:nonzero;stroke:none;font-family:Times New Roman;font-variant:normal;font-weight:normal;font-stretch:normal;font-size:12;writing-mode:lr;-inkscape-font-specification:TimesNewRomanPSMT"
         x="0 5.328 8.664 12.66 17.988 21.324 26.652 29.652 34.32 40.32 43.32 46.656 52.656 57.984 61.32 64.32 67.656 70.992 75.66 78.66 83.988 89.316 95.316 98.652 103.98"
         y="86.4"
         sodipodi:role="line"
         id="tspan210">circle so that its center</tspan><tspan
         style="fill:#373535;fill-opacity:1;fill-rule:nonzero;stroke:none;font-family:Times New Roman;font-variant:normal;font-weight:normal;font-stretch:normal;font-size:12;writing-mode:lr;-inkscape-font-specification:TimesNewRomanPSMT"
         x="0 3.336 8.004 11.004 16.332 19.668 23.004 29.004 35.004 40.332 46.332 49.332 57.996 61.332 64.668 70.668 73.668 77.004 83.004"
         y="100.8"
         sodipodi:role="line"
         id="tspan212">is aligned with the</tspan><tspan
         style="fill:#373535;fill-opacity:1;fill-rule:nonzero;stroke:none;font-family:Times New Roman;font-variant:normal;font-weight:normal;font-stretch:normal;font-size:12;writing-mode:lr;-inkscape-font-specification:TimesNewRomanPSMT"
         x="0 5.328 10.656 16.656 19.992 25.32 29.316 32.316 38.316 42.312 45.312 48.648 54.648 59.976 62.976 66.312 72.312 78.312 81.312 86.64 89.976 93.972 99.3 102.636"
         y="115.2"
         sodipodi:role="line"
         id="tspan214">center of the top circle</tspan><tspan
         style="fill:#373535;fill-opacity:1;fill-rule:nonzero;stroke:none;font-family:Times New Roman;font-variant:normal;font-weight:normal;font-stretch:normal;font-size:12;writing-mode:lr;-inkscape-font-specification:TimesNewRomanPSMT"
         x="0 3.996 9.996 15.996 18.996 22.332 28.332 31.668 36.336 39.336 45.336 50.664 56.664 61.992 64.992 70.992 74.988 77.988 83.316 89.316 95.316 98.652 103.98"
         y="129.6"
         sodipodi:role="line"
         id="tspan216">(on this page or copied</tspan><tspan
         style="fill:#373535;fill-opacity:1;fill-rule:nonzero;stroke:none;font-family:Times New Roman;font-variant:normal;font-weight:normal;font-stretch:normal;font-size:12;writing-mode:lr;-inkscape-font-specification:TimesNewRomanPSMT"
         x="0 6 11.328 17.328 22.656"
         y="144"
         sodipodi:role="line"
         id="tspan218">page)</tspan><tspan
         style="fill:#373535;fill-opacity:1;fill-rule:nonzero;stroke:none;font-family:Times New Roman;font-variant:normal;font-weight:normal;font-stretch:normal;font-size:12;writing-mode:lr;-inkscape-font-specification:TimesNewRomanPSMT"
         x="0 6 9 12 18.672 22.008 27.336 32.664 37.992 40.992 46.32 49.32 55.32 59.316 64.644 70.644 73.644 76.98 82.98 86.976 92.976 98.976 104.976"
         y="158.4"
         sodipodi:role="line"
         id="tspan220">4. Place a brad through</tspan><tspan
         style="fill:#373535;fill-opacity:1;fill-rule:nonzero;stroke:none;font-family:Times New Roman;font-variant:normal;font-weight:normal;font-stretch:normal;font-size:12;writing-mode:lr;-inkscape-font-specification:TimesNewRomanPSMT"
         x="0 3.336 9.336 14.664 17.664 22.992 28.32 34.32 37.656 42.984 46.98 49.98 55.98 59.976 62.976 68.976 74.976 78.312 84.312 87.312 92.64 95.976 99.972 105.3 108.636 113.964 118.632"
         y="172.8"
         sodipodi:role="line"
         id="tspan222">the center of both circles.</tspan></text>
<text
       transform="matrix(1,0,0,-1,48.5938,392.7873)"
       id="text224"><tspan
         style="fill:#373535;fill-opacity:1;fill-rule:nonzero;stroke:none;font-family:Times New Roman;font-variant:normal;font-weight:bold;font-stretch:normal;font-size:12;writing-mode:lr;-inkscape-font-specification:TimesNewRomanPS-BoldMT"
         x="0 9.336 15.336 24 27 30.996 36.996 39.996 46.668 51.336 56.664 59.664 63.66 70.332 75.66 78.66 83.988 89.988 99.984 106.656 112.656 117.324 121.992"
         y="0"
         sodipodi:role="line"
         id="tspan226">How to use the compass:</tspan></text>
<text
       transform="matrix(1,0,0,-1,48.5938,378.3873)"
       id="text228"><tspan
         style="fill:#373535;fill-opacity:1;fill-rule:nonzero;stroke:none;font-family:Times New Roman;font-variant:normal;font-weight:normal;font-stretch:normal;font-size:12;writing-mode:lr;-inkscape-font-specification:TimesNewRomanPSMT"
         x="0 6 9 12 18.672 24.672 28.008 34.008 37.008 40.344 46.344 51.672 54.672 60 65.328 71.328 74.664 79.992 83.988 86.988 92.988 98.316 102.312 105.648 108.648 114.648 118.644 121.644 124.98 130.98"
         y="0"
         sodipodi:role="line"
         id="tspan230">1. Spin the center part of the</tspan><tspan
         style="fill:#373535;fill-opacity:1;fill-rule:nonzero;stroke:none;font-family:Times New Roman;font-variant:normal;font-weight:normal;font-stretch:normal;font-size:12;writing-mode:lr;-inkscape-font-specification:TimesNewRomanPSMT"
         x="0 5.328 11.328 20.664 26.664 31.992 36.66 41.328 44.328 48.996 54.996 57.996 61.332 67.332 72.66 75.996 78.996 82.332 88.332 93.66 96.66 101.328 104.664 108.66 111.996 117.996 123.996 126.996 130.332 136.332 141.66"
         y="14.4"
         sodipodi:role="line"
         id="tspan232">compass so that the string that</tspan><tspan
         style="fill:#373535;fill-opacity:1;fill-rule:nonzero;stroke:none;font-family:Times New Roman;font-variant:normal;font-weight:normal;font-stretch:normal;font-size:12;writing-mode:lr;-inkscape-font-specification:TimesNewRomanPSMT"
         x="0 6 12 18 21 26.328 30.324 35.652 38.652 41.988 45.984 51.984 55.32 61.32 67.32 70.32 73.656 79.656 82.656 86.652 89.988 95.988 101.988 104.988 108.324 114.324 119.652"
         y="28.8"
         sodipodi:role="line"
         id="tspan234">you are trying to find the </tspan><tspan
         style="fill:#373535;fill-opacity:1;fill-rule:nonzero;stroke:none;font-family:Times New Roman;font-variant:normal;font-weight:normal;font-stretch:normal;font-size:12;writing-mode:lr;-inkscape-font-specification:TimesNewRomanPSMT"
         x="0 6 12 15.336 20.664 23.664 29.664 33.66 36.66 40.656 44.652 49.98 53.316 56.316 60.312 66.312 70.308 73.308 76.644 81.312 84.312 89.64 92.976 95.976 101.304 107.304"
         y="43.2"
         sodipodi:role="line"
         id="tspan236">note or fret for is at “0”</tspan><tspan
         style="fill:#373535;fill-opacity:1;fill-rule:nonzero;stroke:none;font-family:Times New Roman;font-variant:normal;font-weight:normal;font-stretch:normal;font-size:12;writing-mode:lr;-inkscape-font-specification:TimesNewRomanPSMT"
         x="0 6 9 11.784 18.276 24.276 27.276 31.272 34.608 40.608 46.608 49.608 54.936 57.936 63.936 69.936 73.272 78.6 81.6 84.936 90.264 93.6 96.936 102.264 106.26 109.26 115.26 120.588 129.924"
         y="57.6"
         sodipodi:role="line"
         id="tspan238">2. To find a note letter name</tspan><tspan
         style="fill:#373535;fill-opacity:1;fill-rule:nonzero;stroke:none;font-family:Times New Roman;font-variant:normal;font-weight:normal;font-stretch:normal;font-size:12;writing-mode:lr;-inkscape-font-specification:TimesNewRomanPSMT"
         x="0 3.996 9.996 13.992 16.992 22.32 25.32 29.316 33.312 38.64 41.976 44.976 47.976 51.972 55.308 61.308 67.308 70.308 73.644 79.644 84.972 87.972 91.968 95.964 101.292 104.628 107.628 113.628 119.628 128.964 134.964 140.292"
         y="72"
         sodipodi:role="line"
         id="tspan240">for a fret, find the fret number</tspan><tspan
         style="fill:#373535;fill-opacity:1;fill-rule:nonzero;stroke:none;font-family:Times New Roman;font-variant:normal;font-weight:normal;font-stretch:normal;font-size:12;writing-mode:lr;-inkscape-font-specification:TimesNewRomanPSMT"
         x="0 6 12 15 18.336 24.336 29.664 32.664 38.664 44.664 48 52.668 56.004 62.004 67.332 70.332 75.66 78.996 82.992 88.32 91.656 96.984 99.984 105.312 111.312"
         y="86.4"
         sodipodi:role="line"
         id="tspan242">on the outside circle and</tspan><tspan
         style="fill:#373535;fill-opacity:1;fill-rule:nonzero;stroke:none;font-family:Times New Roman;font-variant:normal;font-weight:normal;font-stretch:normal;font-size:12;writing-mode:lr;-inkscape-font-specification:TimesNewRomanPSMT"
         x="0 3.336 9.336 15.336 21.336 24.336 29.664 33 36 39.336 45.336 50.664 53.664 58.992 64.992 68.988 72.984 78.312 82.98 88.98 94.98 100.98 106.98 110.316 116.316"
         y="100.8"
         sodipodi:role="line"
         id="tspan244">look at the corresponding</tspan><tspan
         style="fill:#373535;fill-opacity:1;fill-rule:nonzero;stroke:none;font-family:Times New Roman;font-variant:normal;font-weight:normal;font-stretch:normal;font-size:12;writing-mode:lr;-inkscape-font-specification:TimesNewRomanPSMT"
         x="0 3.336 8.664 12 15.336 20.664 24.66 27.66 33.66 38.988 48.324 53.652 56.652 62.652 68.652 71.652 74.988 80.988"
         y="115.2"
         sodipodi:role="line"
         id="tspan246">letter name on the</tspan><tspan
         style="fill:#373535;fill-opacity:1;fill-rule:nonzero;stroke:none;font-family:Times New Roman;font-variant:normal;font-weight:normal;font-stretch:normal;font-size:12;writing-mode:lr;-inkscape-font-specification:TimesNewRomanPSMT"
         x="0 3.336 9.336 15.336 20.664 24.66 27.66 32.988 36.324 40.32 45.648 48.984 54.312"
         y="129.6"
         sodipodi:role="line"
         id="tspan248">inner circle.</tspan><tspan
         style="fill:#373535;fill-opacity:1;fill-rule:nonzero;stroke:none;font-family:Times New Roman;font-variant:normal;font-weight:normal;font-stretch:normal;font-size:12;writing-mode:lr;-inkscape-font-specification:TimesNewRomanPSMT"
         x="0 6 9 11.784 18.276 24.276 27.276 31.272 34.608 40.608 46.608 49.608 52.944 58.944 64.272 67.272 71.268 75.264 80.592 83.928 86.928 92.928 96.924 99.924 105.252"
         y="144"
         sodipodi:role="line"
         id="tspan250">3. To find the fret of a </tspan><tspan
         style="fill:#373535;fill-opacity:1;fill-rule:nonzero;stroke:none;font-family:Times New Roman;font-variant:normal;font-weight:normal;font-stretch:normal;font-size:12;writing-mode:lr;-inkscape-font-specification:TimesNewRomanPSMT"
         x="0 6 12 15.336 20.664 23.664 27 32.328 35.664 39 44.328 48.324 51.324 57.324 62.652 71.988 77.316"
         y="158.4"
         sodipodi:role="line"
         id="tspan252">note letter name,</tspan><tspan
         style="fill:#373535;fill-opacity:1;fill-rule:nonzero;stroke:none;font-family:Times New Roman;font-variant:normal;font-weight:normal;font-stretch:normal;font-size:12;writing-mode:lr;-inkscape-font-specification:TimesNewRomanPSMT"
         x="0 3.996 7.332 13.332 19.332 22.332 25.668 31.668 36.996 39.996 43.332 48.66 51.996 55.332 60.66 64.656 67.656 73.656 78.984 88.32"
         y="172.8"
         sodipodi:role="line"
         id="tspan254">find the letter name</tspan><tspan
         style="fill:#373535;fill-opacity:1;fill-rule:nonzero;stroke:none;font-family:Times New Roman;font-variant:normal;font-weight:normal;font-stretch:normal;font-size:12;writing-mode:lr;-inkscape-font-specification:TimesNewRomanPSMT"
         x="0 6 9.996 12.996 16.332 22.332 27.66 30.66 36.66 42.66 45.996 51.324 54.324 60.324 66.324 69.324 72.66 78.66"
         y="187.2"
         sodipodi:role="line"
         id="tspan256">of the note on the</tspan><tspan
         style="fill:#373535;fill-opacity:1;fill-rule:nonzero;stroke:none;font-family:Times New Roman;font-variant:normal;font-weight:normal;font-stretch:normal;font-size:12;writing-mode:lr;-inkscape-font-specification:TimesNewRomanPSMT"
         x="0 3.336 9.336 15.336 20.664 24.66 27.66 32.988 36.324 40.32 45.648 48.984 54.312 57.312 62.64 68.64 74.64 77.64 80.976 86.976 92.976 98.976 101.976 107.304 110.64"
         y="201.6"
         sodipodi:role="line"
         id="tspan258">inner circle and look at </tspan><tspan
         style="fill:#373535;fill-opacity:1;fill-rule:nonzero;stroke:none;font-family:Times New Roman;font-variant:normal;font-weight:normal;font-stretch:normal;font-size:12;writing-mode:lr;-inkscape-font-specification:TimesNewRomanPSMT"
         x="0 8.664 14.664 19.992 23.328 26.328 32.328 38.328 47.664 53.664 58.992 62.988 65.988 69.324 73.992 76.992 82.992 88.992"
         y="216"
         sodipodi:role="line"
         id="tspan260">what number is on </tspan><tspan
         style="fill:#373535;fill-opacity:1;fill-rule:nonzero;stroke:none;font-family:Times New Roman;font-variant:normal;font-weight:normal;font-stretch:normal;font-size:12;writing-mode:lr;-inkscape-font-specification:TimesNewRomanPSMT"
         x="0 3.336 9.336 14.664 17.664 23.664 29.664 33 37.668 41.004 47.004 52.332 55.332 60.66 63.996 67.992 73.32 76.656 81.984"
         y="230.4"
         sodipodi:role="line"
         id="tspan262">the outside circle.</tspan><tspan
         style="fill:#373535;fill-opacity:1;fill-rule:nonzero;stroke:none;font-family:Times New Roman;font-variant:normal;font-weight:normal;font-stretch:normal;font-size:12;writing-mode:lr;-inkscape-font-specification:TimesNewRomanPSMT"
         x="0 6 9 12 19.332 25.332 28.668 34.668 40.668"
         y="244.8"
         sodipodi:role="line"
         id="tspan264">4. Enjoy!</tspan><tspan
         style="fill:#373535;fill-opacity:1;fill-rule:nonzero;stroke:none;font-family:Times New Roman;font-variant:normal;font-weight:normal;font-stretch:normal;font-size:12;writing-mode:lr;-inkscape-font-specification:TimesNewRomanPSMT"
         x="177.852 185.856 191.856 197.856 203.856 207.852 211.188 217.188 223.188 226.524 229.524 235.524 241.524 247.524 253.524 256.524 265.188 270.516 276.516 279.852 285.852 288.852 297.516 300.852 304.188 310.188 315.516 319.512 323.508"
         y="321.924"
         sodipodi:role="line"
         id="tspan266">Copyright 2009 Devin Ulibarri</tspan></text>
<text
       transform="matrix(1,0,0,-1,429.5625,109.0625)"
       id="text268"><tspan
         style="fill:#373535;fill-opacity:1;fill-rule:nonzero;stroke:none;font-family:Myriad Pro;font-variant:normal;font-weight:normal;font-stretch:normal;font-size:8;writing-mode:lr;-inkscape-font-specification:MyriadPro-Regular"
         x="0 5.264 9.656 12.304 14 16.232 20.624 23.24 24.936 29.448 31.32 34.488 37.136 39.784 41.656 46.208 50.616 53.264 55.136 59.528 63.968"
         y="0"
         sodipodi:role="line"
         id="tspan270">Not for distribution.</tspan><tspan
         style="fill:#373535;fill-opacity:1;fill-rule:nonzero;stroke:none;font-family:Myriad Pro;font-variant:normal;font-weight:normal;font-stretch:normal;font-size:8;writing-mode:lr;-inkscape-font-specification:MyriadPro-Regular"
         x="0 4.216 8.656 13.048 15.648 20.04 23.576 27.968 32.464 36.232 37.928 40.16 44.552 47.168 48.864 53.416 57.424 60.04 63.208 67.6 72.04 75.896 77.784 79.48 83.888 87.056 91.064 92.76 97.152 101.592 103.48 106.936"
         y="9.6"
         sodipodi:role="line"
         id="tspan272">Photocopy for personal use only.</tspan><tspan
         style="fill:#373535;fill-opacity:1;fill-rule:nonzero;stroke:none;font-family:Myriad Pro;font-variant:normal;font-weight:normal;font-stretch:normal;font-size:8;writing-mode:lr;-inkscape-font-specification:MyriadPro-Regular"
         x="0 3.936 6.392 13.064 16.92 18.792 20.68 22.376 26.888 30.896 34.744 36.616 41.056 45.464 47.352 49.224 53.776 57.632 60.28 62.928 64.8 70.696 75.12 81.792 85.648 87.52 89.328 90.984 94.52 98.912"
         y="28.8"
         sodipodi:role="line"
         id="tspan274">E-mail devinulibarri@gmail.com</tspan><tspan
         style="fill:#373535;fill-opacity:1;fill-rule:nonzero;stroke:none;font-family:Myriad Pro;font-variant:normal;font-weight:normal;font-stretch:normal;font-size:8;writing-mode:lr;-inkscape-font-specification:MyriadPro-Regular"
         x="0 2.232 6.624 9.24 10.936 17.608 22 24.536 28.544 30.24 33.776 38.168 42.72 44.592 48.6 51.768 53.464 57.856 60.472 62.168 66.016 67.888 71.056 72.928"
         y="38.4"
         sodipodi:role="line"
         id="tspan276">for more copies or visit</tspan><tspan
         style="fill:#373535;fill-opacity:1;fill-rule:nonzero;stroke:none;font-family:Myriad Pro;font-variant:normal;font-weight:normal;font-stretch:normal;font-size:8;writing-mode:lr;-inkscape-font-specification:MyriadPro-Regular"
         x="0 4.408 7.056 9.704 14.256 15.912 18.656 21.4 25.808 27.696 29.568 34.12 37.976 40.624 43.272 45.144 51.816 56.224 59.392 61.264 64.768 66.424 70.976 72.864 77.256 81.728 84.896 89.448 93.84 96.464 98.12 101.656 106.048"
         y="48"
         sodipodi:role="line"
         id="tspan278">http://ulibarrimusic.blogspot.com</tspan></text>
</g></svg>