<?xml version="1.0" encoding="utf-8"?>
<!-- Generator: Adobe Illustrator 18.1.1, SVG Export Plug-In . SVG Version: 6.00 Build 0)  -->
<!DOCTYPE svg PUBLIC "-//W3C//DTD SVG 1.1//EN" "http://www.w3.org/Graphics/SVG/1.1/DTD/svg11.dtd">
<svg version="1.1" id="Layer_1" xmlns="http://www.w3.org/2000/svg" xmlns:xlink="http://www.w3.org/1999/xlink" x="0px" y="0px"
	 viewBox="0 0 55 55" enable-background="new 0 0 55 55" xml:space="preserve">
<rect x="0.5" y="0.5" fill="#FFFFFF" stroke="#666666" stroke-miterlimit="10" width="18" height="18"/>
<rect x="18.5" y="0.5" fill="#FFFFFF" stroke="#666666" stroke-miterlimit="10" width="19" height="18"/>
<rect x="37.5" y="0.5" fill="#FFFFFF" stroke="#666666" stroke-miterlimit="10" width="17" height="18"/>
<rect x="0.5" y="18.5" fill="#FFFFFF" stroke="#666666" stroke-miterlimit="10" width="18" height="18"/>
<rect x="18.5" y="18.5" fill="#FFFFFF" stroke="#666666" stroke-miterlimit="10" width="19" height="18"/>
<rect x="37.5" y="18.5" fill="#FFFFFF" stroke="#666666" stroke-miterlimit="10" width="17" height="18"/>
<rect x="0.5" y="36.5" fill="#FFFFFF" stroke="#666666" stroke-miterlimit="10" width="18" height="18"/>
<rect x="18.5" y="36.5" fill="#FFFFFF" stroke="#666666" stroke-miterlimit="10" width="19" height="18"/>
<rect x="37.5" y="36.5" fill="#FFFFFF" stroke="#666666" stroke-miterlimit="10" width="17" height="18"/>
<path fill="#666666" d="M31.4,32.1L31.4,32.1c-0.3,0.3-1.1,0.3-1.4,0l-6.4-6.5c-0.3-0.3-0.3-1.1,0-1.4l0,0c0.3-0.3,1.1-0.3,1.4,0
	l6.5,6.5C32,31.1,32,31.7,31.4,32.1z"/>
<path fill="#666666" d="M23.6,32.1L23.6,32.1c-0.3-0.3-0.3-1.1,0-1.4l6.5-6.5c0.3-0.3,1.1-0.3,1.4,0l0,0c0.3,0.3,0.3,1.1,0,1.4
	l-6.5,6.5C24.6,32.5,24.1,32.5,23.6,32.1z"/>
<circle fill="#666666" cx="28" cy="11.3" r="2.5"/>
</svg>
