<?xml version="1.0" standalone="no"?>
<!DOCTYPE svg PUBLIC "-//W3C//DTD SVG 20010904//EN"
 "http://www.w3.org/TR/2001/REC-SVG-20010904/DTD/svg10.dtd">
<svg version="1.0" xmlns="http://www.w3.org/2000/svg"
 width="1200.000000pt" height="900.000000pt" viewBox="0 0 1200.000000 900.000000"
 preserveAspectRatio="xMidYMid meet">
<metadata>
Created by potrace 1.13, written by Peter Selinger 2001-2015
</metadata>
<g transform="translate(0.000000,900.000000) scale(0.100000,-0.100000)"
fill="#000000" stroke="none">
<path d="M0 4500 l0 -4500 1038 1 c570 1 1028 4 1017 6 -30 8 -46 24 -66 68
-17 37 -19 78 -19 530 0 369 3 496 13 514 6 13 29 38 50 55 l39 31 494 5 494
5 -121 130 c-144 154 -229 254 -330 390 -520 696 -815 1472 -901 2370 -16 171
-16 655 0 820 62 626 210 1151 477 1685 373 747 962 1385 1668 1806 855 510
1865 687 2842 498 476 -92 961 -283 1369 -537 280 -175 493 -344 739 -586 331
-325 581 -656 799 -1056 408 -749 606 -1657 548 -2517 -66 -973 -406 -1861
-995 -2596 -89 -111 -167 -198 -329 -369 l-40 -43 529 0 c589 1 603 -1 647
-63 l23 -32 3 -490 c3 -549 3 -554 -64 -595 -19 -12 -34 -24 -34 -26 0 -2 475
-4 1055 -4 l1055 0 0 4225 c0 4126 0 4225 -19 4225 -10 0 -24 7 -32 16 -17 21
1 49 30 48 21 -1 21 1 21 243 l0 243 -6000 0 -6000 0 0 -4500z"/>
<path d="M5595 8925 c-841 -74 -1618 -397 -2270 -944 -129 -109 -372 -348
-482 -475 -652 -757 -1018 -1662 -1093 -2701 -55 -768 112 -1618 456 -2315
219 -444 465 -796 793 -1132 l144 -148 665 0 665 0 -6 28 c-3 15 1 56 8 92 8
37 14 124 15 200 0 115 3 141 20 172 11 21 23 74 29 125 11 98 26 173 39 200
5 10 16 33 25 51 9 19 17 46 17 61 0 15 9 36 20 46 11 10 20 24 20 32 0 23 82
99 138 128 29 15 55 31 57 36 3 4 56 25 118 45 108 35 162 48 292 75 33 6 89
23 125 36 81 30 92 50 98 183 7 149 6 182 -9 328 -6 52 -8 96 -6 99 3 2 95
-16 204 -41 109 -25 288 -63 398 -86 110 -22 223 -46 250 -53 l50 -14 -3 -144
c-4 -153 7 -208 45 -227 75 -39 427 -50 553 -18 78 20 126 50 145 91 22 45 35
197 47 533 l11 304 -25 21 c-53 45 -64 106 -24 132 23 15 28 15 67 -4 60 -29
69 -27 69 15 0 47 29 134 45 134 12 0 25 -63 25 -126 0 -65 24 -84 53 -41 18
28 125 112 133 104 3 -3 -4 -27 -15 -52 -12 -26 -21 -54 -21 -63 0 -8 -9 -29
-19 -46 -17 -28 -20 -68 -30 -371 -14 -399 -50 -719 -86 -765 -7 -8 -15 -27
-19 -42 -20 -86 -209 -165 -471 -198 -55 -7 -120 -19 -145 -26 -25 -8 -64 -14
-88 -14 -36 0 -45 -4 -61 -30 -11 -19 -20 -59 -24 -103 -3 -41 -17 -99 -31
-136 -15 -37 -26 -85 -26 -112 0 -68 30 -332 40 -344 4 -5 10 -32 14 -60 3
-27 9 -72 14 -100 l7 -50 1076 -3 1076 -2 149 152 c577 591 985 1371 1158
2213 107 520 123 1090 46 1620 -121 822 -457 1585 -979 2225 -112 136 -367
397 -506 518 -840 724 -1916 1081 -2980 987z m525 -1865 c0 -6 30 -10 68 -11
37 0 90 -4 117 -9 28 -5 69 -12 93 -16 23 -3 42 -11 42 -15 0 -5 8 -9 17 -9
61 0 402 -141 458 -190 11 -9 54 -36 95 -58 41 -23 87 -54 102 -69 29 -30 143
-155 195 -212 18 -20 60 -66 93 -102 33 -36 60 -72 60 -79 0 -8 9 -23 19 -34
24 -27 61 -93 61 -110 0 -13 55 -142 85 -199 8 -16 15 -48 15 -71 0 -23 4 -46
8 -51 15 -18 32 -90 64 -278 6 -39 6 -68 0 -85 -5 -15 -10 -72 -11 -127 -1
-108 -14 -192 -37 -242 -8 -17 -21 -62 -30 -100 -18 -72 -28 -98 -72 -178 -15
-28 -37 -83 -50 -122 -13 -40 -39 -96 -57 -124 -19 -28 -35 -54 -35 -57 0 -3
-10 -19 -23 -36 -12 -17 -34 -53 -47 -80 -14 -27 -42 -66 -62 -86 -20 -20 -60
-74 -88 -121 -29 -48 -78 -110 -115 -146 -36 -34 -65 -68 -65 -75 0 -7 -24
-29 -52 -48 -57 -38 -218 -195 -218 -212 0 -6 -21 -32 -47 -58 -27 -26 -77
-79 -112 -119 -42 -47 -71 -71 -85 -71 -20 0 -127 -73 -151 -104 -5 -7 -37
-30 -70 -53 -101 -67 -258 -108 -405 -104 -67 2 -81 7 -140 42 -146 88 -319
229 -467 378 -51 52 -93 99 -93 105 0 15 -84 90 -126 112 -32 17 -86 68 -95
91 -2 5 -21 21 -41 37 -21 15 -40 37 -44 49 -4 12 -17 30 -30 40 -13 10 -24
24 -24 30 0 7 -16 25 -35 42 -19 16 -35 35 -35 42 0 7 -30 43 -66 81 -109 109
-99 95 -154 227 -4 11 -16 43 -25 70 -10 28 -23 59 -29 70 -10 17 -33 85 -77
231 -5 17 -9 47 -9 67 0 20 -4 39 -10 42 -5 3 -10 38 -10 77 0 40 -4 85 -9
102 -35 115 -46 161 -58 241 -8 50 -14 95 -15 100 0 6 7 51 17 100 9 50 19
116 22 147 3 32 12 63 19 69 8 6 14 28 14 48 0 60 80 262 115 291 9 7 32 43
52 79 47 85 90 149 122 182 31 31 55 59 139 162 34 42 68 77 75 77 7 0 39 25
71 56 99 93 218 161 436 251 160 66 205 81 280 92 41 6 113 17 160 25 102 16
310 20 310 6z"/>
<path d="M6573 5635 c-64 -20 -303 -155 -303 -171 0 -33 36 -23 157 44 164 90
184 96 297 90 100 -6 236 -47 440 -133 109 -46 136 -50 136 -20 0 17 -53 43
-229 111 -224 88 -388 114 -498 79z"/>
<path d="M5060 5625 c-169 -28 -390 -107 -390 -140 0 -28 24 -26 97 4 171 73
363 108 537 98 172 -10 329 -53 380 -103 27 -28 56 -27 56 1 0 43 -112 100
-256 130 -108 23 -317 28 -424 10z"/>
<path d="M5024 4665 c3 -9 6 -26 6 -36 0 -43 418 -218 660 -278 364 -89 674
-51 990 121 181 98 240 138 240 163 0 13 -4 27 -10 30 -5 3 -108 -12 -227 -34
-381 -71 -420 -75 -643 -75 -219 0 -251 3 -685 73 -349 57 -339 56 -331 36z
m388 -94 c372 -61 418 -65 628 -65 206 0 294 10 595 65 88 16 162 29 165 29 3
0 -39 -25 -92 -55 -425 -239 -765 -253 -1288 -55 -135 51 -282 118 -263 119 6
1 121 -17 255 -38z"/>
<path d="M5110 2089 c-47 -10 -112 -24 -145 -29 -134 -24 -177 -53 -202 -140
-8 -30 -19 -59 -23 -65 -4 -5 -13 -84 -20 -175 -6 -91 -16 -170 -22 -177 -5
-7 -9 -29 -7 -50 1 -21 -1 -49 -4 -63 -3 -14 -9 -60 -12 -102 l-6 -78 305 0
304 0 12 48 c16 65 28 146 44 287 14 124 11 234 -15 458 l-12 107 -56 -1 c-31
-1 -94 -10 -141 -20z"/>
<path d="M5682 943 c-42 -20 -63 -61 -69 -134 -6 -56 -7 -58 -37 -61 -30 -3
-31 -5 -31 -48 0 -43 1 -45 32 -48 l33 -3 2 -172 3 -172 55 0 55 0 3 172 2
172 43 3 42 3 0 45 0 45 -42 3 -43 3 0 48 c0 58 15 74 67 69 37 -3 38 -2 41
35 3 32 0 38 -23 47 -39 15 -95 12 -133 -7z"/>
<path d="M6595 937 c-3 -7 -4 -152 -3 -322 l3 -310 55 0 55 0 5 153 c5 149 6
154 30 173 49 38 100 36 122 -4 8 -13 15 -81 18 -172 l5 -150 50 0 50 0 3 170
c2 188 -5 218 -61 259 -41 30 -134 29 -176 -1 -16 -13 -33 -23 -36 -23 -3 0
-5 51 -5 114 0 127 0 126 -71 126 -23 0 -42 -5 -44 -13z"/>
<path d="M9455 937 c-3 -7 -4 -152 -3 -322 l3 -310 55 0 55 0 5 153 c5 149 6
154 30 173 49 38 100 36 122 -4 8 -13 15 -81 18 -172 l5 -150 50 0 50 0 3 170
c2 188 -5 218 -61 259 -41 30 -134 29 -176 -1 -16 -13 -33 -23 -36 -23 -3 0
-5 51 -5 114 0 127 0 126 -71 126 -23 0 -42 -5 -44 -13z"/>
<path d="M5123 910 c-56 -13 -123 -60 -153 -107 -77 -122 -65 -346 24 -439
111 -115 352 -94 443 39 81 119 70 348 -21 443 -62 64 -183 90 -293 64z m157
-108 c23 -11 43 -33 58 -62 21 -40 23 -56 20 -145 -3 -83 -7 -106 -26 -136
-30 -49 -81 -73 -143 -67 -105 10 -143 74 -137 227 3 78 8 103 26 132 40 65
129 88 202 51z"/>
<path d="M2045 898 c-3 -7 -4 -144 -3 -303 l3 -290 55 0 55 0 0 300 0 300 -53
3 c-36 2 -54 -1 -57 -10z"/>
<path d="M2525 898 c-3 -7 -4 -144 -3 -303 l3 -290 173 -3 172 -2 0 50 0 50
-115 0 -115 0 0 85 0 84 98 3 97 3 0 40 0 40 -97 3 -98 3 0 74 0 74 113 3 112
3 0 45 0 45 -168 3 c-129 2 -169 0 -172 -10z"/>
<path d="M6064 896 c-3 -8 -4 -29 -2 -48 l3 -33 82 -3 83 -3 2 -252 3 -252 55
0 55 0 3 252 2 252 83 3 82 3 0 45 0 45 -223 3 c-185 2 -223 0 -228 -12z"/>
<path d="M7831 896 c-8 -9 -11 -97 -9 -302 l3 -289 50 0 50 0 5 250 c4 219 7
246 18 215 7 -19 45 -127 84 -240 39 -113 76 -211 81 -218 7 -8 28 -12 60 -10
l51 3 63 175 c34 96 75 209 90 250 l28 75 5 -250 5 -250 50 0 50 0 3 289 c2
205 -1 293 -9 302 -16 19 -138 19 -164 0 -13 -9 -48 -88 -95 -214 -41 -111
-78 -198 -81 -194 -3 4 -37 92 -75 197 -37 104 -76 197 -86 207 -23 23 -159
26 -177 4z"/>
<path d="M9147 854 c-4 -4 -7 -29 -7 -55 0 -47 -1 -48 -32 -51 -32 -3 -33 -5
-33 -48 0 -43 1 -45 33 -48 l32 -3 0 -130 c0 -154 11 -192 64 -214 41 -17 94
-19 130 -5 23 8 26 15 26 55 l0 45 -38 -6 c-58 -9 -66 8 -71 143 l-3 113 56 0
56 0 0 50 0 50 -54 0 -55 0 -3 53 -3 52 -45 3 c-25 2 -49 0 -53 -4z"/>
<path d="M3170 749 c-13 -5 -39 -21 -57 -34 l-32 -25 -3 27 c-3 26 -6 28 -48
28 l-45 0 0 -220 0 -220 55 0 55 0 5 153 c5 149 6 154 30 173 49 38 100 36
122 -4 8 -13 15 -81 18 -172 l5 -150 50 0 50 0 3 170 c2 187 -5 218 -60 258
-31 23 -111 32 -148 16z"/>
<path d="M3878 751 c-59 -19 -97 -52 -124 -107 -24 -49 -26 -62 -22 -142 5
-105 25 -145 90 -182 36 -21 56 -25 123 -25 107 0 161 29 200 110 24 48 27 64
24 137 -5 104 -28 153 -89 187 -47 26 -153 38 -202 22z m123 -91 c32 -18 49
-64 49 -135 0 -76 -19 -121 -56 -135 -59 -23 -116 -2 -135 48 -16 42 -12 146
6 182 23 45 89 65 136 40z"/>
<path d="M7215 745 c-49 -17 -102 -75 -116 -129 -6 -22 -9 -77 -7 -121 2 -68
7 -88 30 -122 39 -60 85 -78 193 -78 120 1 149 14 153 74 3 41 2 43 -20 37
-153 -44 -222 -26 -244 66 l-6 27 143 3 144 3 3 35 c7 67 -8 120 -43 159 -53
58 -143 76 -230 46z"/>
<path d="M8722 745 c-23 -7 -49 -19 -57 -25 -16 -13 -21 -75 -7 -84 5 -3 32 4
61 14 74 29 124 27 150 -6 12 -15 21 -39 21 -54 0 -27 -1 -27 -78 -33 -100 -6
-157 -34 -179 -84 -16 -40 -11 -91 13 -129 18 -26 81 -54 125 -54 34 0 95 23
121 47 17 15 18 14 18 -11 0 -26 2 -27 43 -24 l42 3 0 187 0 187 -29 30 c-48
50 -150 65 -244 36z m168 -289 c0 -26 -7 -41 -31 -60 -56 -47 -123 -26 -117
38 4 38 35 56 101 56 47 0 47 0 47 -34z"/>
<path d="M3523 743 c-10 -3 -13 -62 -13 -247 0 -260 -1 -266 -52 -266 -26 0
-28 -2 -28 -44 0 -48 9 -56 61 -56 48 0 96 26 116 62 16 29 18 64 21 287 3
202 1 256 -10 262 -14 9 -75 11 -95 2z"/>
<path d="M4224 737 c-5 -14 139 -413 156 -431 4 -4 -5 -40 -21 -79 -16 -39
-27 -77 -25 -84 6 -15 79 -18 106 -3 21 11 216 582 205 600 -3 5 -28 10 -55
10 l-49 0 -31 -102 c-50 -164 -62 -200 -66 -195 -2 2 -28 69 -57 148 l-52 144
-53 3 c-38 2 -54 -1 -58 -11z"/>
</g>
</svg>
