<?xml version="1.0" encoding="UTF-8" standalone="no"?>
<!-- Created with Inkscape (http://www.inkscape.org/) -->

<svg
   xmlns:dc="http://purl.org/dc/elements/1.1/"
   xmlns:cc="http://creativecommons.org/ns#"
   xmlns:rdf="http://www.w3.org/1999/02/22-rdf-syntax-ns#"
   xmlns:svg="http://www.w3.org/2000/svg"
   xmlns="http://www.w3.org/2000/svg"
   xmlns:sodipodi="http://sodipodi.sourceforge.net/DTD/sodipodi-0.dtd"
   xmlns:inkscape="http://www.inkscape.org/namespaces/inkscape"
   id="svg2"
   version="1.1"
   inkscape:version="0.48.4 r9939"
   width="501"
   height="522"
   sodipodi:docname="dibujoo0oo.svg">
  <metadata
     id="metadata8">
    <rdf:RDF>
      <cc:Work
         rdf:about="">
        <dc:format>image/svg+xml</dc:format>
        <dc:type
           rdf:resource="http://purl.org/dc/dcmitype/StillImage" />
        <dc:title />
      </cc:Work>
    </rdf:RDF>
  </metadata>
  <defs
     id="defs6" />
  <sodipodi:namedview
     pagecolor="#ffffff"
     bordercolor="#666666"
     borderopacity="1"
     objecttolerance="10"
     gridtolerance="10"
     guidetolerance="10"
     inkscape:pageopacity="0"
     inkscape:pageshadow="2"
     inkscape:window-width="1366"
     inkscape:window-height="744"
     id="namedview4"
     showgrid="false"
     inkscape:zoom="0.65655621"
     inkscape:cx="296.19297"
     inkscape:cy="245.76901"
     inkscape:window-x="0"
     inkscape:window-y="24"
     inkscape:window-maximized="1"
     inkscape:current-layer="svg2" />
  <path
     style="fill:#000000"
     d="m 168.86549,519.90702 c -2.07345,-0.83665 -1.42953,-3.32323 2.12443,-8.20374 7.81323,-10.72962 10.56994,-19.89337 10.41887,-34.63398 -0.057,-5.5629 0.62131,-13.77153 1.52876,-18.5 2.81313,-14.65839 3.27481,-21.29338 8.17594,-117.5 l 0.56039,-11 -11.2792,-12.26816 c -12.48473,-13.5794 -20.43821,-20.30657 -30.54651,-25.83669 -11.93182,-6.52775 -16.28515,-9.59593 -17.81619,-12.55665 -2.90513,-5.61789 -26.94692,-22.6414 -29.03162,-20.55671 -0.40356,0.40356 -1.02475,6.46775 -1.38043,13.47598 -0.66047,13.01358 -1.27562,15.36769 -4.8644,18.6155 -1.48041,1.33974 -1.8924,2.61492 -1.49188,4.61753 0.63897,3.19487 -1.04013,4.75871 -3.191966,2.97285 -0.94649,-0.78552 -1.45619,-3.1018 -1.45619,-6.61748 0,-3.88546 -0.42249,-5.57106 -1.5,-5.98454 -2.32092,-0.89062 -1.81152,-2.45828 2.10064,-6.4647 5.513446,-5.64628 3.384436,-9.02363 -6.89068,-10.93102 -5.22754,-0.97039 -9.34334,-4.13206 -8.06714,-6.19699 0.40363,-0.6531 3.92564,-0.79294 9.74464,-0.38689 5.24993,0.36633 9.732986,0.23315 10.576286,-0.31421 2.75186,-1.78613 -0.16984,-6.2664 -8.481916,-13.00658 -13.52806,-10.96975 -22.40194,-20.78821 -29.25684,-32.37109 -3.45126,-5.83167 -6.74211,-10.89172 -7.31301,-11.24455 -2.74703,-1.69775 -8.5639,7.60153 -9.57119,15.3012 -0.8208,6.27421 -2.47322,9.3541 -6.78184,12.64044 -3.3436,2.55029 -3.55918,3.05939 -3.56269,8.41365 -0.004,6.55007 -1.67126,9.89079 -7.94193,15.91621 -5.14768,4.94635 -11.95595,8.40477 -17.85455,9.06963 -3.9897696,0.4497 -4.4488596,0.30475 -3.8637696,-1.21998 0.3652,-0.95168 0.66399,-1.92988 0.66399,-2.17378 0,-0.24391 3.2624996,-1.97942 7.2499996,-3.85671 7.87803,-3.70891 10.44678,-5.61767 13.18581,-9.79795 1.77001,-2.70138 1.75884,-2.75259 -1.38032,-6.32789 -1.74062,-1.98246 -3.02768,-4.34831 -2.86013,-5.25745 0.16755,-0.90913 3.66491,-3.41322 7.77191,-5.56463 6.42568,-3.36603 7.21953,-4.06347 5.69119,-5 -10.12344,-6.20342 -13.8091,-8.81732 -14.32377,-10.15853 -1.16036,-3.02386 2.06065,-4.52885 11.60984,-5.42461 10.22109,-0.95878 13.05547,-2.48071 13.05547,-7.01015 0,-2.87836 -2.67064,-6.89597 -10.96482,-16.49505 -9.92727,-11.4891 -12.49971,-18.37406 -6.30714,-16.88063 7.78847,1.8783 26.53631,13.61019 32.76257,20.50192 1.96081,2.17038 3.50939,4.94462 3.50939,6.28698 0,1.32138 1.4625,4.15685 3.25,6.30106 1.7875,2.1442 5.23799,7.59919 7.66775,12.1222 7.06929,13.15948 20.2752,24.48453 42.582246,36.51744 2.75,1.48341 9.5,6.53986 15,11.23656 12.89817,11.01432 17.22496,13.83213 25.34718,16.50726 3.65905,1.20514 10.98136,4.35179 16.27179,6.99255 l 9.61898,4.80139 0.62651,-5.33066 c 0.81612,-6.94391 -0.3192,-12.57197 -5.82983,-28.89992 -2.49405,-7.38982 -4.53631,-14.72306 -4.53837,-16.29609 -0.004,-3.05267 -3.32683,-9.36006 -4.93104,-9.36006 -1.93477,0 -10.26943,-13.1427 -15.647,-24.67335 -7.57675,-16.24613 -8.06778,-17.07339 -13.92056,-23.45218 -8.01406,-8.7343 -20.03093,-30.80882 -17.59215,-32.31607 1.53056,-0.94594 9.43092,5.51092 20.20334,16.5119 10.68097,10.9076 11.33172,11.90036 14.37471,21.9297 2.12387,7.00005 7.48052,16.842 13.03575,23.95099 6.20113,7.93556 15.48069,32.87289 15.48069,41.60186 0,5.4835 1.87147,4.98591 4.62538,-1.22979 3.88965,-8.77914 12.35487,-38.92664 13.03922,-46.43707 l 0.60267,-6.61401 -10.28747,-15.38599 c -15.78337,-23.60569 -24.18311,-42.71953 -19.55407,-44.49586 2.38057,-0.91351 6.02247,2.82822 10.81346,11.10987 18.00542,31.12392 24.52936,41.3025 25.22841,39.36108 0.26955,-0.74859 1.83757,-5.52732 3.4845,-10.6194 5.18814,-16.04107 9.85922,-23.71239 13.18642,-21.65607 1.98485,1.22671 0.099,8.68971 -7.96837,31.5332 -17.41016,49.29867 -20.80745,71.06809 -18.86447,120.88119 0.65432,16.775 1.16238,47.15 1.12903,67.5 l -0.0607,37 -4.20516,34.90095 c -2.31284,19.19552 -4.86904,38.08488 -5.68043,41.97636 -1.88592,9.04491 -5.3869,16.16212 -10.8202,21.99657 -4.10342,4.40639 -5.58853,5.10567 -8.41827,3.96384 z m 199.75,-0.33772 c 0,-0.55 1.575,-1 3.5,-1 1.925,0 3.5,0.45 3.5,1 0,0.55 -1.575,1 -3.5,1 -1.925,0 -3.5,-0.45 -3.5,-1 z m -51.93308,-5.08693 c -1.83295,-1.83295 -7.36275,-11.55251 -12.97388,-22.80381 -5.37863,-10.78509 -12.7148,-24.78426 -16.30259,-31.10926 -3.5878,-6.325 -8.09986,-15.10119 -10.02681,-19.50265 -11.17383,-25.52282 -24.25274,-80.98611 -26.70743,-113.25727 -1.16709,-15.34352 -5.42664,-27.42212 -8.1527,-23.1182 -0.48009,0.75797 -0.90855,2.72812 -0.95215,4.37812 l -0.0793,3 -1.61747,-3.25 c -1.94847,-3.91507 -4.39863,-4.15368 -7.12047,-0.69342 -3.96706,5.0433 -5.63415,12.19938 -5.63415,24.18487 0,10.60632 -0.0921,11.11954 -1.6298,9.08362 l -1.62981,-2.15784 -0.70319,2.21557 c -0.38676,1.21857 -1.52988,9.05594 -2.54026,17.41639 l -1.83706,15.20081 3.17006,2.87331 c 8.02546,7.27421 14.90532,14.19775 15.83578,15.93635 1.916,3.58007 -0.53018,4.19005 -7.1393,1.78025 -3.33867,-1.21735 -7.52294,-2.07308 -9.29837,-1.90163 -3.42941,0.33116 -3.71524,0.93337 -5.25032,11.06172 -0.43354,2.86051 -1.032,3.75 -2.52304,3.75 -1.63804,0 -1.95466,-0.70006 -1.95466,-4.32186 0,-5.27008 2.48071,-12.89821 4.90932,-15.09608 1.65357,-1.49646 2.27872,-1.46863 8.19045,0.36465 l 6.40023,1.98476 -6.5,-5.84871 -6.5,-5.84872 0.075,-13.86702 c 0.0528,-9.77371 1.16804,-22.34938 3.77801,-42.60294 5.32612,-41.33104 8.709,-59.10211 10.84414,-56.96697 0.73536,0.73536 0.68513,6.05712 -0.16706,17.69961 -0.67022,9.15645 -1.06366,16.7684 -0.87431,16.91544 0.18934,0.14704 4.16926,0.002 8.84426,-0.32241 l 8.5,-0.58975 0.23064,-7.5 c 0.64265,-20.89749 3.04869,-36.19184 9.644,-61.30369 2.24542,-8.54952 3.62536,-16.10512 3.62536,-19.85 0,-5.54286 -0.2831,-6.32941 -3.4,-9.44631 -1.87,-1.87 -4.03714,-3.4 -4.81586,-3.4 -2.33017,0 -6.19118,8.09184 -8.19404,17.17293 -0.79687,3.61308 -4.7886,8.17188 -11.49057,13.12291 l -5.5709,4.11547 4.19611,1.04435 c 6.02173,1.49871 7.36561,3.174 3.6881,4.59763 -5.90541,2.28609 -20.4964,-1.50152 -22.12404,-5.74308 -0.82762,-2.15674 1.63416,-3.79711 9.60734,-6.40166 11.86654,-3.87639 16.58789,-7.41548 14.02015,-10.50941 -0.82225,-0.99076 -2.67954,-1.18418 -7.01725,-0.7308 -5.84802,0.61124 -5.89904,0.59402 -5.89904,-1.9907 0,-3.05434 1.80974,-4.19062 7.91342,-4.96862 5.11557,-0.65204 7.95952,-2.55448 13.38141,-8.95136 3.74233,-4.41529 3.85855,-4.7629 2.73286,-8.17376 -0.64667,-1.9593 -6.54243,-11.74142 -13.10173,-21.73805 -6.5593,-9.99663 -11.926,-18.59363 -11.926,-19.10444 0,-0.51081 -3.30244,-6.84909 -7.33876,-14.08507 -9.75714,-17.49183 -11.09448,-21.17185 -10.3243,-28.40999 l 0.61144,-5.74635 -2.43045,4.62623 c -3.82066,7.27238 -7.06024,7.58821 -8.14664,0.79422 -0.71796,-4.48988 -1.29108,-5.0254 -6.87129,-6.42045 -6.021,-1.50525 -5.45374,-3.52404 1.79632,-6.392846 1.53797,-0.608568 3.56297,-2.569138 4.5,-4.356822 2.23891,-4.271469 10.50527,-12.750335 12.43077,-12.750335 1.05315,0 1.66831,1.379631 2.02459,4.54058 0.65407,5.802858 2.71137,8.011177 8.83099,9.479253 2.70453,0.648807 4.91176,1.472265 4.90495,1.829908 -0.007,0.357642 -1.60297,1.680772 -3.54703,2.940282 -6.12181,3.96619 -6.15174,7.69566 -0.13267,16.53512 1.43256,2.10382 3.98058,7.50382 5.66225,12 4.02392,10.75846 6.06267,14.67486 7.63926,14.67486 1.70328,0 5.87039,-6.20489 12.42432,-18.5 9.42908,-17.68886 21.93876,-34.774495 35.76096,-48.842082 8.62564,-8.778765 10.88799,-10.375225 12.46623,-8.796977 2.56301,2.563009 -6.09684,17.885442 -23.21745,41.080139 -10.93224,14.8108 -26.74578,38.29716 -30.43973,45.20925 -1.19311,2.23255 -1.66533,4.46822 -1.27352,6.02932 0.87372,3.48116 7.35217,12.82761 15.81783,22.82035 8.34337,9.8484 12.60455,13.64738 13.87866,12.37327 1.54823,-1.54823 3.83965,-12.29342 6.47712,-30.37327 4.71806,-32.34221 7.3204,-42.9781 11.5508,-47.20849 3.23469,-3.2347 6.94535,-3.74236 6.94535,-0.9502 0,1.01272 -2.0529,10.12522 -4.56199,20.25 -6.32059,25.50501 -8.43801,36.21036 -8.43801,42.66122 l 0,5.53237 8.66621,-8.89245 c 7.62586,-7.82494 8.71466,-8.62215 9.06976,-6.64084 0.24494,1.36661 -0.74005,3.92143 -2.50601,6.5 -1.60026,2.33661 -5.39973,7.84839 -8.44327,12.24839 -7.27694,10.52018 -10.47453,17.02987 -12.36125,25.16527 -0.85246,3.67573 -3.50731,10.99225 -5.89968,16.25894 -6.98872,15.38538 -10.52576,28.41415 -10.52576,38.77191 l 0,4.52019 4.56255,-5.07465 c 2.66047,-2.95909 9.01801,-7.84112 15.25,-11.71066 13.71444,-8.51552 21.08373,-14.57925 34.7459,-28.59022 13.07123,-13.40496 21.39238,-23.67651 30.25034,-37.34078 8.0548,-12.4253 15.40455,-22.11003 29.10618,-38.35303 13.93407,-16.51856 16.08503,-19.43787 16.08503,-21.83085 0,-2.64421 2.58046,-3.70092 15.34937,-6.28563 12.67864,-2.56644 16.02233,-2.43203 16.46262,0.66178 0.41286,2.90111 -3.42367,4.85624 -12.40177,6.32003 -11.70354,1.90814 -11.35536,1.60775 -24.77231,21.37245 -14.31248,21.0839 -24.80275,37.70981 -26.90379,42.6395 -0.81475,1.91166 -3.79309,6.09498 -6.61853,9.29627 -2.82544,3.20128 -5.83659,7.17307 -6.69146,8.82619 -1.40028,2.70785 -1.40175,3.2385 -0.0148,5.3552 1.8178,2.77432 15.852,13.86764 23.36683,18.47029 3.73388,2.28691 5.98134,3.0545 7.68871,2.62598 2.9588,-0.74261 3.8798,0.5562 3.05556,4.30896 -0.70349,3.20297 -7.24682,11.37998 -8.49104,10.61101 -0.44145,-0.27283 -1.08264,-1.9886 -1.42486,-3.81281 -0.37435,-1.99547 -2.11257,-4.72253 -4.36336,-6.84559 -4.68362,-4.4178 -12.73905,-10.85975 -13.57977,-10.85975 -0.34793,0 -1.94864,2.5875 -3.55713,5.75 -3.32013,6.52783 -6.7344,10.55055 -8.44323,9.94789 -1.9567,-0.69007 -0.99348,-10.67634 1.76693,-18.31888 2.64972,-7.33609 3.16801,-10.37901 1.76781,-10.37901 -2.05259,0 -10.64707,6.5319 -20.49855,15.57914 -20.24445,18.59176 -29.12493,26.2892 -33.00274,28.60619 -2.13066,1.27307 -5.52105,3.91621 -7.53421,5.87365 -2.01315,1.95744 -8.49574,6.00744 -14.40575,9 -12.53367,6.34648 -11.43002,2.86168 -9.26843,29.26545 2.2366,27.32007 4.07292,40.42113 9.62598,68.67557 8.10725,41.25041 12.60987,53.90189 32.3866,91 6.34519,11.90261 11.58627,23.20129 13.45212,29 3.08743,9.59515 6.26084,16 7.92751,16 1.55616,0 2.28889,-3.15448 3.12994,-13.4747 0.71964,-8.83063 1.09579,-10.21804 3.27953,-12.09641 4.28219,-3.68339 32.89996,-9.60252 39.01086,-8.06878 2.42212,0.60791 6.68668,5.64738 6.69762,7.91464 0.007,1.42619 -5.26034,2.80056 -23.44,6.11616 l -18.05626,3.2931 -1.24261,9.3149 c -2.1666,16.24148 -6.39878,20.70585 -13.19047,13.91416 z m 33.90559,1.39489 c -3.8712,-2.64921 -3.99627,-3.41128 -1.3117,-7.99215 2.04791,-3.4945 2.39167,-5.04569 1.84078,-8.30637 -0.61263,-3.62614 -0.47574,-4.00944 1.43195,-4.00944 3.59329,0 4.80175,4.33255 2.74745,9.8501 -2.53921,6.81997 -2.58449,6.6818 2.06901,6.31391 3.27716,-0.25908 4.25,0.0107 4.25,1.17857 0,4.30432 -6.51208,6.05547 -11.02749,2.96538 z m 63.93512,-60.24568 c -5.8258,-1.03928 -18.6508,-2.83726 -28.5,-3.99551 -21.4884,-2.52701 -22.30926,-2.72214 -22.86848,-5.43626 -0.446,-2.16465 -2.56287,-50.95564 -2.22401,-51.26036 1.30804,-1.17621 32.55204,-2.6538 65.2465,-3.08562 37.9086,-0.50069 57.2872,0.14459 71.6884,2.38714 l 3.75,0.58395 0,16.70552 c 0,9.18804 -0.329,17.03449 -0.7311,17.43655 -0.402,0.40206 -1.2749,-3.60027 -1.9398,-8.89407 -0.6648,-5.2938 -1.9527,-11.86479 -2.8619,-14.6022 -2.9665,-8.93133 0.9596,-8.41924 -63.4276,-8.27304 -32.77362,0.0744 -57.80067,0.52991 -59.53964,1.08363 -2.82614,0.8999 -3,1.25654 -3,6.15417 0,3.3772 -0.49087,5.50367 -1.40087,6.06863 -1.07973,0.67033 -1.22945,2.09564 -0.65312,6.21745 0.41126,2.94126 1.26709,10.72507 1.90183,17.29737 l 1.15408,11.94963 14.42735,2.25975 c 19.73329,3.09083 32.91884,4.22472 57.57077,4.95078 22.3999,0.65973 43.2916,-0.54872 50,-2.89219 2.4374,-0.85147 4.8789,-2.68962 6.25,-4.70535 2.1389,-3.14472 2.25,-3.18829 2.25,-0.88264 0,9.05532 -10.7907,11.674 -51,12.37665 -21.9384,0.38337 -26.9795,0.18169 -36.09241,-1.44398 z m 52.34241,-14.72456 c -3.1162,-1.25739 0.101,-9.33772 3.7178,-9.33772 2.2832,0 7.0322,5.45429 7.0322,8.07673 0,1.63884 -0.7025,1.91159 -4.75,1.84432 -2.6125,-0.0434 -5.3125,-0.30592 -6,-0.58333 z M 387.7664,421.8193 c -1.47239,-1.24438 -2.15448,-3.17017 -2.36078,-6.66532 -0.28281,-4.7913 -0.20793,-4.93715 2.96817,-5.78074 4.95377,-1.31575 7.38408,0.41108 7.02816,4.99379 -0.23408,3.01394 0.12495,3.87011 1.96354,4.68244 4.44123,1.96221 1.71812,4.47199 -4.88922,4.50618 -1.45156,0.008 -3.57101,-0.77385 -4.70987,-1.73635 z m 56.05323,0.78703 c 0.9372,-0.59677 6.5622,-1.55636 12.5,-2.13242 14.9512,-1.4505 15.6487,-1.70806 16.3525,-6.03788 0.8281,-5.09433 6.4812,-11.65591 10.1934,-11.83129 2.1149,-0.0999 0.3025,3.03102 -2.8217,4.87435 -4.3061,2.54066 -4.3334,5.42714 -0.056,5.91762 1.8715,0.2146 3.0397,1.03272 3.3906,2.3745 0.4796,1.83402 1.0923,1.98962 5.8862,1.49485 6.1494,-0.63468 7.1487,0.75032 1.6008,2.21859 -9.7899,2.5909 -50.4495,5.28883 -47.0459,3.12168 z m 0.7455,-5.59765 c -1.6559,-1.99533 -2.6068,-12.43938 -1.1325,-12.43938 0.5857,0 1.3431,0.45025 1.6832,1.00055 0.3401,0.5503 2.603,1.50029 5.0288,2.1111 2.4257,0.6108 4.9112,1.71396 5.5232,2.45146 1.647,1.98451 0.2003,5.25489 -3.0736,6.94786 -3.7009,1.91384 -6.4013,1.88976 -8.0291,-0.0716 z m -32.6435,-2.08399 c -0.38639,-1.0069 0.0876,-2.17016 1.22251,-3 3.79727,-2.77663 6.92165,-0.61543 3.91432,2.70762 -2.14489,2.37008 -4.29264,2.49233 -5.13683,0.29238 z m 4.19386,-8.35539 c 0.33992,-0.55 1.71648,-1 3.05902,-1 1.34254,0 2.44098,0.45 2.44098,1 0,0.55 -1.37656,1 -3.05902,1 -1.7847,0 -2.80156,-0.41658 -2.44098,-1 z m -51.05103,-23.46788 c -1.7572,-4.20559 -1.89686,-11.68423 -0.24897,-13.33212 1.71316,-1.71316 6.8,-1.54077 6.8,0.23045 0,0.78675 -1.0079,1.57425 -2.23978,1.75 -4.88748,0.6973 -2.12226,8.80603 3.01283,8.83486 1.49982,0.008 3.40195,0.46757 4.22695,1.02032 2.29132,1.53519 -2.31038,4.96437 -6.66181,4.96437 -2.98042,0 -3.63391,-0.46352 -4.88922,-3.46788 z m 86.59407,-4.11224 c -4.1041,-3.7078 -6.5335,-3.94368 -9.0752,-0.88115 -1.3897,1.67452 -3.9678,1.9603 -3.9678,0.43983 0,-0.56179 1.1681,-2.78657 2.5958,-4.94396 2.1832,-3.29908 2.5408,-4.819 2.25,-9.56303 l -0.3458,-5.64051 2.5728,3.08447 c 1.415,1.69646 2.9253,3.08447 3.3561,3.08447 0.4308,0 2.4878,-1.35 4.5711,-3 6.8791,-5.44835 7.3668,-2.71357 0.8533,4.7848 -3.5662,4.10543 -3.5346,5.82311 0.1873,10.17743 5.4718,6.40161 3.3203,8.16555 -2.9976,2.45765 z m -210.75712,-1.14825 c -4.46606,-2.22389 -6.28592,-6.64234 -6.28592,-15.26165 l 0,-7.18777 3.07673,2.5889 c 1.76439,1.48464 4.31547,2.58889 5.98094,2.58889 4.10282,0 5.05978,3.99729 1.96052,8.18927 -1.78288,2.41148 -2.11224,3.82109 -1.61678,6.91957 0.34223,2.14014 0.50441,3.86238 0.36041,3.82721 -0.144,-0.0352 -1.70816,-0.78417 -3.4759,-1.66442 z m 151.71408,-2.51717 c 0,-0.69707 13.60929,-4.91477 20,-6.19826 4.77855,-0.95971 5.68764,-1.52774 6.93047,-4.3304 0.78675,-1.77419 1.68675,-3.21826 2,-3.20905 0.31324,0.009 3.04457,1.26286 6.06957,2.78588 3.8599,1.94339 5.5,3.35481 5.5,4.73325 0,1.78766 -1.3028,2.1091 -14.50004,3.5779 -7.975,0.88758 -17.0875,1.95193 -20.25,2.36522 -3.1625,0.4133 -5.75,0.53725 -5.75,0.27546 z M 240.28216,346.90263 c -1.04144,-1.04143 -0.78175,-7.14417 0.33333,-7.83333 0.61081,-0.3775 1,1.15628 1,3.94098 0,4.6364 -0.15036,5.07533 -1.33333,3.89235 z m 124.89618,-3.46255 c -2.30545,-1.81347 -3.51665,-2.03404 -8.16771,-1.4874 -4.92279,0.57858 -5.70394,0.39872 -7.928,-1.82533 -2.97714,-2.97714 -3.04414,-4.09945 -0.49442,-8.28121 3.42619,-5.61924 9.8615,-5.80504 11.63549,-0.33594 1.07652,3.31881 3.24483,5.66098 10.42617,11.26214 l 3.46562,2.70305 -3.11514,0.0469 c -1.7252,0.026 -4.32291,-0.90307 -5.82201,-2.08226 z m -8.53507,-6.92269 c 1.61235,-3.0127 1.1282,-4.09957 -1.67692,-3.76451 -3.41849,0.40831 -5.20888,3.07765 -3.46976,5.17316 1.48312,1.78704 3.77162,1.16068 5.14668,-1.40865 z m 84.39086,3.02623 c -4.3763,-1.34088 -6.0803,-3.62933 -8.9208,-11.98056 -2.6109,-7.67649 -3.1067,-11.49944 -1.6112,-12.42373 1.3183,-0.81471 2.7779,1.40673 4.0495,6.16296 1.3467,5.0368 3.28,6.26701 9.8489,6.26701 5.7847,0 10.8305,1.55569 11.6067,3.57856 0.7036,1.83341 -0.7218,5.62051 -2.7484,7.30243 -2.0629,1.71207 -8.3655,2.27575 -12.2247,1.09333 z m 9.3109,-4.5328 c 1.2838,-0.84116 2.0683,-1.95961 1.7433,-2.48545 -0.7984,-1.29192 -8.671,-1.21318 -12.1577,0.12161 l -2.8151,1.07768 2.4626,2.00479 c 2.7312,2.2234 6.679,1.95991 10.7669,-0.71863 z m -36.72954,2.45035 c -1.24987,-1.69441 -3.50101,-2.25092 -13.5,-3.33741 -6.6,-0.71715 -10.32823,-1.36029 -8.28495,-1.42919 5.28445,-0.17819 12.84907,-2.91149 15.83967,-5.72329 3.15639,-2.96768 5.07782,-3.03155 7.54029,-0.25066 1.04775,1.18322 3.82824,3.38417 6.17889,4.891 l 4.27394,2.73967 -3.10067,2.60901 c -3.69356,3.10792 -6.89202,3.28698 -8.94717,0.50087 z m -175.98922,-7.37888 c -2.30277,-2.77467 1.54569,-12.00415 4.52819,-10.85966 1.70448,0.65407 4.46103,5.42784 4.46103,7.72558 0,3.9025 -6.47727,6.16079 -8.98922,3.13408 z m 55.98275,-21.52043 c -15.40625,-4.23704 -19.29988,-18.70305 -8.42712,-31.30927 3.34385,-3.87698 3.57733,-4.56771 3.18855,-9.43329 -0.23073,-2.8875 -0.12103,-5.25 0.24377,-5.25 1.45952,0 15.14964,15.05488 14.75815,16.22937 -0.23102,0.69304 -2.75358,1.77828 -5.60569,2.41164 -10.09414,2.24155 -14.493,7.77898 -5.31613,6.69212 3.62554,-0.42939 5.98063,-0.0659 9.41447,1.45305 7.64819,3.38316 8.50601,8.00584 2.71051,14.60655 -3.46698,3.94867 -7.37457,5.58769 -10.96651,4.59983 z m 5.66208,-7.54345 c 4.09575,-3.12398 4.25749,-5.01649 0.49308,-5.76937 -3.65152,-0.73031 -7.30719,0.14844 -8.89869,2.13905 -1.62413,2.03143 -1.5767,2.71165 0.32143,4.60978 2.20833,2.20834 4.22512,1.96399 8.08418,-0.97946 z M 121.90346,240.3526 c -0.55671,-0.70581 -1.30576,-2.51262 -1.66457,-4.01511 -0.40693,-1.70403 -1.86967,-3.35085 -3.88789,-4.37718 -4.51017,-2.29357 -4.48994,-2.21123 -1.19643,-4.86801 2.22385,-1.79392 2.71199,-2.74372 1.96092,-3.81548 -0.55,-0.78484 -1.83698,-2.61163 -2.85995,-4.05953 -2.18629,-3.09444 -1.56014,-5.64799 1.38494,-5.64799 1.14826,0 3.41813,-1.45658 5.04414,-3.23683 2.4282,-2.65854 3.26678,-3.03952 4.69363,-2.13245 1.32761,0.84398 1.73724,2.49145 1.73724,6.98684 0,6.38939 -0.13473,6.28614 6.5,4.98157 l 3.5,-0.6882 -3.75004,3.29453 c -2.06253,1.812 -3.75003,3.79001 -3.75,4.39559 2e-5,0.60558 2.29919,3.21893 5.10926,5.80744 2.81007,2.58852 4.87247,4.94315 4.58311,5.23251 -0.28936,0.28936 -2.64571,-0.41149 -5.23634,-1.55744 -6.2067,-2.74552 -6.87096,-2.65412 -7.99919,1.10073 -1.06708,3.5513 -2.64285,4.53371 -4.16883,2.59901 z m 255.65361,-25.97038 c -2.10505,-2.3029 -5.03102,-6.39859 -6.50215,-9.10155 -2.36454,-4.34443 -2.59762,-5.59649 -2.00951,-10.79469 0.50053,-4.42416 0.22618,-7.11652 -1.10794,-10.87284 -1.29711,-3.65208 -1.47579,-5.29003 -0.6655,-6.10032 2.42333,-2.42333 8.34352,4.28962 8.34352,9.46077 0,3.13921 0.29573,3.17627 3.9263,0.49208 3.72527,-2.75421 5.95838,-1.96346 10.66059,3.77498 5.24149,6.39654 7.41311,11.05587 7.41311,15.90523 0,5.52581 -2.7302,8.86625 -8.41688,10.29817 -6.70126,1.6874 -7.48991,1.47998 -11.64154,-3.06183 z m 12.74397,-1.98723 c 3.27313,-3.07495 2.95095,-6.79097 -0.93555,-10.79069 -5.5318,-5.69295 -14.7516,-8.7037 -14.74921,-4.81638 0.002,2.74232 5.89712,13.55591 8.51179,15.61262 3.44026,2.70611 4.28724,2.70545 7.17297,-0.006 z m -307.435546,0.48528 c -0.6875,-0.2627 -1.25,-1.84323 -1.25,-3.51229 0,-1.96091 -1.08569,-4.27118 -3.06842,-6.52939 l -3.06842,-3.49473 2.31842,-2.49351 c 3.54921,-3.81726 10.43452,-8.28105 12.77335,-8.28105 2.88951,0 4.367166,4.31249 3.571406,10.42297 -0.731476,5.61684 -2.050136,8.58109 -3.811516,8.56802 -0.66815,-0.005 -2.33982,1.29747 -3.71482,2.8943 -1.375,1.59683 -3.0625,2.68838 -3.75,2.42568 z M 324.95529,192.73542 c -2.66189,-2.10863 -5.4574,-4.58363 -6.21224,-5.5 -2.06398,-2.50563 -4.33654,-2.03506 -8.85653,1.83388 -2.24893,1.925 -4.52533,3.5 -5.05867,3.5 -1.70466,0 -3.46703,-5.82894 -2.81432,-9.30817 0.34477,-1.83783 1.87504,-4.53734 3.40059,-5.9989 3.78375,-3.62507 7.90925,-4.2644 11.81286,-1.83067 5.12975,3.19817 16.14442,21.13774 12.97831,21.13774 -0.22561,0 -2.58811,-1.72524 -5.25,-3.83388 z m -13.29798,-8.24426 c 1.33012,-2.48535 0.59981,-4.92186 -1.47525,-4.92186 -1.90774,0 -3.74455,3.37261 -2.956,5.42756 0.84915,2.21283 3.11471,1.95428 4.43125,-0.5057 z m -195.04182,1.72989 c -1.925,-0.69325 -10.8352,-4.56991 -19.80045,-8.6148 l -16.300446,-7.35434 -4.19955,4.0109 c -5.52662,5.27835 -8.66746,7.30649 -11.31507,7.30649 -3.0827,0 -3.29004,-1.46641 -1.48387,-10.49437 1.20812,-6.03865 2.0275,-8.07485 3.34939,-8.32332 2.00646,-0.37717 2.29472,2.76654 0.83145,9.06769 -0.95118,4.09601 0.50402,5.15933 2.97921,2.17691 2.35612,-2.83895 8.76132,-5.42691 13.43162,-5.42691 5.35963,0 9.28427,1.50898 19.507716,7.50052 4.125,2.4175 10.15562,5.08697 13.40137,5.93217 6.78074,1.76571 7.05299,1.94089 6.25355,4.02418 -0.70533,1.83807 -1.9879,1.87563 -6.65492,0.19488 z m 84.2125,-13.83925 c -0.66688,-0.66688 -1.2125,-2.23167 -1.2125,-3.47732 0,-1.24565 -0.88895,-2.74056 -1.97544,-3.32204 -1.48486,-0.79467 -1.93215,-1.98304 -1.80113,-4.78518 0.0959,-2.05038 -0.59018,-7.19649 -1.52456,-11.4358 -0.93438,-4.23931 -1.68676,-10.31431 -1.67197,-13.5 l 0.0269,-5.79216 2.7231,3.14913 c 5.22557,6.04312 9.90189,6.71788 8.70219,1.25567 -0.78237,-3.56213 1.44181,-3.9839 4.56084,-0.86487 2.48738,2.48738 3.47475,5.01152 4.38505,11.21007 0.6507,4.43086 0.89501,4.75 3.63629,4.75 3.70849,0 3.9844,2.65194 0.41703,4.00825 -1.66392,0.63262 -2.72692,1.98484 -3.125,3.97525 -0.52938,2.6469 -1.02067,3.0165 -4.00968,3.0165 -3.66806,0 -3.7025,0.0513 -4.98619,7.42552 -0.89644,5.14961 -2.10411,6.4278 -4.14493,4.38698 z m 7.12107,-23.23939 c 0.70175,-1.82872 -1.84663,-3.97394 -3.82084,-3.21637 -1.55748,0.59766 -2.02546,2.7972 -0.84606,3.97659 1.18378,1.18379 4.10342,0.70819 4.6669,-0.76022 z m 129.91643,15.42826 c -1.97307,-0.8216 -2.25,-1.66277 -2.25,-6.83429 0,-4.20788 -0.52928,-6.58058 -1.84751,-8.28222 -2.63414,-3.40028 -3.36762,-7.3722 -2.17755,-11.79178 3.40124,-12.63124 13.13176,-11.61802 14.9819,1.56005 0.47513,3.38422 1.80421,8.27892 2.95351,10.87712 2.69582,6.09433 2.64979,9.59998 -0.16035,12.21446 -2.65184,2.4672 -8.32225,3.57991 -11.5,2.25666 z m 6.92126,-3.65636 c 1.97414,-1.78657 2.57379,-8.34501 0.763,-8.34501 -2.18685,0 -4.96062,2.15029 -6.4239,4.97996 -1.381,2.67056 -1.36047,3.00796 0.23965,3.93995 2.43646,1.41911 3.32162,1.32524 5.42125,-0.5749 z m -2.82182,-17.63076 c 2.03528,-4.16618 1.57434,-8.71425 -0.88319,-8.71425 -2.1563,0 -5.45814,5.93547 -5.46251,9.81955 -0.003,2.87137 0.30004,3.27641 2.24626,3 1.44743,-0.20557 2.90969,-1.66991 4.09944,-4.1053 z m -239.14321,4.27093 c -2.88855,-1.20026 -1.88641,-3.45462 3.51485,-7.9068 4.85904,-4.00523 9.94006,-4.27669 10.86771,-0.58062 0.3448,1.37377 0.37756,3.14755 0.0728,3.94174 -1.38965,3.62136 -10.09313,6.35829 -14.45536,4.54568 z m 9.59377,-3.18518 c 0.66,-0.66 1.2,-2.043 1.2,-3.07332 0,-3.04907 -3.4474,-1.66532 -3.81642,1.53187 -0.33695,2.91924 0.65451,3.50336 2.61642,1.54145 z m -24.799996,-2.65685 c 0,-2.5595 11.908936,-12.34572 20.148616,-16.55721 9.10911,-4.65588 11.28758,-5.3072 12.29561,-3.67618 1.62755,2.63344 -2.05446,5.62848 -16.53462,13.44965 -10.296566,5.56149 -15.909606,7.95485 -15.909606,6.78374 z m 2.54471,-21.00227 c -0.8802,-2.77326 0.34582,-5.03291 3.66078,-6.74715 2.980426,-1.54123 8.334836,-2.18673 9.389616,-1.13196 1.78956,1.78957 -6.99299,9.73823 -10.759856,9.73823 -0.93526,0 -1.966,-0.83661 -2.29054,-1.85912 z m 299.455286,-6.83774 c 0,-1.36136 3.95053,-4.79158 7.70042,-6.68621 4.453,-2.24988 14.87757,-4.5845 20.54958,-4.60215 8.86454,-0.0276 4.89107,3.55 -8.83689,7.95637 -10.06456,3.2305 -19.41311,4.83505 -19.41311,3.33199 z M 327.93322,98.95491 c -0.86689,-2.25909 0.42166,-18.970479 1.91794,-24.873976 0.79694,-3.144286 1.8704,-5.10432 2.90379,-5.302035 0.99678,-0.190713 3.91446,2.261585 7.44302,6.255846 l 5.80357,6.569519 3.55697,-6.696475 c 4.18444,-7.877748 6.24889,-9.575153 8.68401,-7.140036 2.16017,2.160171 3.02879,14.695991 1.42838,20.614196 -1.37304,5.077372 -3.87655,5.402847 -5.28701,0.687348 -0.49353,-1.65 -1.3366,-4.073776 -1.87347,-5.386169 l -0.97614,-2.386168 -2.27385,2.136168 c -2.74566,2.579416 -4.47247,2.662926 -9.1307,0.441569 -3.17322,-1.513203 -3.71566,-1.532551 -5.06747,-0.180746 -0.83261,0.832619 -1.74806,3.282689 -2.03433,5.4446 -1.19434,9.019929 -1.53693,10.264539 -2.97749,10.817339 -0.86788,0.33303 -1.76875,-0.0929 -2.11722,-1.00098 z m 40.68227,-6.385613 c -5.66996,-5.669956 0.6883,-21.583571 7.58192,-18.976236 2.16103,0.817356 10.41808,9.617729 10.41808,11.103606 0,0.465184 -1.575,1.503867 -3.5,2.308183 -1.925,0.804317 -3.5,1.935356 -3.5,2.51342 0,1.954841 -3.98438,5.05103 -6.5,5.05103 -1.375,0 -3.4,-0.900003 -4.5,-2.000003 z m 7.4433,-4.222506 c 1.94872,-2.782197 1.99834,-6.800498 0.11527,-9.336364 -1.15134,-1.550479 -1.80541,-1.719328 -3.25,-0.839002 -0.99471,0.60617 -1.95237,2.06867 -2.12812,3.25 -0.24371,1.638129 0.1979,2.147872 1.86078,2.147872 l 2.18034,0 -2.27754,1.844242 c -1.45714,1.179914 -2.04867,2.440675 -1.64217,3.5 0.8921,2.324785 3.30221,2.059116 5.14144,-0.566748 z m 23.21169,-4.606235 c -0.91025,-1.005807 -1.65499,-3.053154 -1.65499,-4.54966 0,-3.487748 -2.42511,-8.187015 -4.66945,-9.048249 -1.53327,-0.588373 -1.41448,-0.93445 0.98559,-2.871181 1.89327,-1.527764 2.96026,-3.580274 3.48411,-6.702169 0.59429,-3.541644 1.17153,-4.5 2.71046,-4.5 1.46325,0 2.09993,0.889407 2.52979,3.533965 0.77691,4.77963 1.6006,5.872651 3.9605,5.255524 2.75942,-0.721606 2.57443,1.541997 -0.46241,5.658205 -2.04638,2.773715 -2.36101,4.068726 -1.86599,7.68034 0.387,2.823441 0.1556,4.874041 -0.66103,5.858027 -1.62666,1.959999 -2.34488,1.908101 -4.35658,-0.314802 z m 48.00945,-0.840107 c -0.3678,-0.367867 0.1103,-1.529762 1.0626,-2.581989 1.6407,-1.81302 1.6408,-1.963783 0,-2.880842 -3.3992,-1.902382 -0.9863,-13.868321 2.7966,-13.868321 1.4573,0 1.8445,1.012618 1.5569,4.071459 -0.081,0.864303 1.2169,3.28868 2.8848,5.387505 3.1397,3.950791 3.5309,5.20925 2.247,7.228475 -1.4929,2.347905 -8.9716,4.221995 -10.5499,2.643713 z M 37.159684,79.640798 c -0.35552,-0.575243 -0.34064,-3.74845 0.0331,-7.051572 0.78891,-6.973104 0.0213,-8.382274 -6.07726,-11.156445 -5.19365,-2.362539 -8.2101,-2.321606 -13.88441,0.188409 -5.14181,2.274467 -6.61559,1.949023 -6.61559,-1.460871 0,-4.440425 10.96491,-16.932678 19.94578,-22.724105 4.23042,-2.728037 11.05422,-3.958371 11.05422,-1.99308 0,0.48061 -2.475,3.64762 -5.5,7.0378 -6.04873,6.778932 -6.76294,9.589423 -3.25,12.789086 6.49596,5.916668 10.51844,5.754149 17.34352,-0.700723 8.93806,-8.453252 11.34365,-5.419501 4.66058,5.877588 -6.95003,11.748352 -16.1495,21.718702 -17.70991,19.193913 z M 419.10592,78.319297 c -1.45087,-4.059062 -3.49043,-13.642674 -3.49043,-16.401082 0,-5.814292 2.41418,-5.029178 5.88232,1.912985 1.24317,2.488444 2.31222,3.2747 4.61772,3.396204 1.65,0.08696 3.7941,0.199459 4.7647,0.25 2.3468,0.122209 5.7373,5.837752 5.6899,9.591893 l -0.038,3 -3.3144,-3.75 c -1.8229,-2.0625 -3.9416,-3.737612 -4.7083,-3.722471 -0.7667,0.01514 -2.519,1.577753 -3.894,3.472471 -2.57979,3.554842 -4.72942,4.432708 -5.50961,2.25 z M 137.72512,60.859152 c -1.41892,-1.14897 -2.44336,-3.359143 -2.80429,-6.050075 -0.65745,-4.901655 0.74396,-5.620364 3.31322,-1.699173 2.58044,3.938244 5.4331,5.109228 7.05227,2.894875 1.75346,-2.397994 1.71924,-13.87775 -0.0693,-23.256272 -1.22911,-6.444961 -1.21689,-7.389571 0.1021,-7.895717 3.27971,-1.258541 5.62234,7.019191 5.72136,20.216507 0.0627,8.362198 -0.26054,10.573231 -1.97387,13.5 -1.64034,2.802072 -2.75251,3.559837 -5.57738,3.800074 -2.28037,0.193931 -4.31927,-0.34027 -5.76409,-1.510219 z m 45.24626,-1.804798 c -0.42946,-1.11917 1.17222,-5.279065 4.48817,-11.656636 2.83577,-5.454045 5.15594,-10.770918 5.15594,-11.815273 0,-1.044355 -0.93369,-3.481311 -2.07486,-5.415457 -2.38013,-4.034016 -2.22989,-7.92388 0.32486,-8.410799 1.30907,-0.249502 1.75,0.331812 1.75,2.307172 0,2.046354 0.39388,2.523695 1.75,2.120811 6.41186,-1.904873 7.25,-1.874995 7.25,0.258442 0,2.466219 -14.43636,31.414014 -16.53478,33.155548 -1.15117,0.955384 -1.57607,0.84584 -2.10933,-0.543808 z M 99.91477,41.319297 c -6.444086,-7.075017 -5.60878,-15.361205 2.14469,-21.275062 3.78291,-2.885367 7.22679,-2.971933 8.94879,-0.224938 1.6406,2.617149 -0.44127,5.191205 -4.49361,5.555969 -1.86953,0.168282 -3.96165,1.041791 -4.64915,1.941129 -1.63524,2.139107 -1.59433,6.399738 0.0835,8.694282 1.18278,1.617558 1.75538,1.684397 5.067,0.591465 5.11016,-1.686505 5.58453,-0.644336 1.585,3.482135 -3.93807,4.063059 -5.8613,4.336507 -8.6862,1.23502 z m 16.79855,-4.899223 c -0.60381,-1.732073 -1.09783,-4.602479 -1.09783,-6.37868 0,-7.178618 11.81107,-6.877795 16.7174,0.425786 2.51465,3.743319 3.02946,8.102117 0.95691,8.102117 -1.70381,0 -4.98211,-3.593559 -7.09992,-7.782696 -0.91276,-1.805483 -2.06089,-3.034666 -2.55139,-2.731517 -0.49051,0.303148 -1.60891,3.017862 -2.48535,6.032696 -0.87644,3.014834 -1.98693,5.481517 -2.46776,5.481517 -0.48083,0 -1.36826,-1.41715 -1.97206,-3.149223 z m 126.15217,1.01567 c -0.69869,-0.707887 -1.25,-3.722125 -1.25,-6.834312 0,-6.570026 3.05994,-11.985896 7.90612,-13.993249 2.62641,-1.087893 3.47621,-0.999698 6.30906,0.654778 4.89776,2.860443 5.75343,6.416516 2.85751,11.875387 -3.48732,6.573669 -12.73668,11.424016 -15.82269,8.297396 z m 8.62971,-4.494749 c 3.09859,-2.170336 5.23016,-7.297882 3.994,-9.607667 -1.19503,-2.232943 -5.63164,-2.293078 -8.04497,-0.109043 -2.01617,1.82461 -2.40238,6.404639 -0.79356,9.410753 1.26014,2.354595 1.86514,2.392804 4.84453,0.305957 z m -87.47472,2.523314 c -1.33668,-1.477012 -1.90499,-3.591132 -1.90499,-7.086583 0,-4.261994 0.42081,-5.343563 2.91315,-7.487383 7.2761,-6.25864 17.33569,3.603728 11.94055,11.706448 -0.90547,1.359878 -2.34148,3.035006 -3.19113,3.722506 -2.43894,1.973468 -7.60774,1.520562 -9.75758,-0.854988 z m 8.132,-3.966533 c 3.31256,-6.405792 -0.16908,-9.754243 -4.46441,-4.29362 -2.30843,2.934699 -2.63899,5.398735 -0.95072,7.086996 1.59223,1.592238 3.71295,0.498275 5.41513,-2.793376 z m 95.0933,1.821521 c -1.05014,-3.918586 -0.68167,-9.382787 0.88568,-13.133979 0.83378,-1.995526 1.80141,-6.35914 2.15027,-9.696921 0.34887,-3.337782 1.37194,-6.9796335 2.27349,-8.0930037 2.25227,-2.7814313 10.07053,-3.6729771 12.33671,-1.406801 2.62078,2.6207854 1.04609,4.8947287 -2.94146,4.2476377 -5.94345,-0.964489 -7.60617,2.182008 -8.89516,16.833067 -0.75623,8.595488 -2.17335,13.5 -3.90074,13.5 -0.7182,0 -1.57716,-1.0125 -1.90879,-2.25 z M 147.86202,17.415829 c -2.89943,-2.89943 -0.57504,-10.053604 3.86378,-11.892224 3.36927,-1.395596 7.42363,-0.611218 8.27231,1.600405 1.90534,4.965234 -8.57499,13.852915 -12.13609,10.291819 z"
     id="path2982"
     inkscape:connector-curvature="0" />
</svg>
