<?xml version="1.0" encoding="utf-8"?>
<!-- Generator: Adobe Illustrator 18.1.1, SVG Export Plug-In . SVG Version: 6.00 Build 0)  -->
<!DOCTYPE svg PUBLIC "-//W3C//DTD SVG 1.1//EN" "http://www.w3.org/Graphics/SVG/1.1/DTD/svg11.dtd">
<svg version="1.1" id="Layer_1" xmlns="http://www.w3.org/2000/svg" xmlns:xlink="http://www.w3.org/1999/xlink" x="0px" y="0px"
	 viewBox="0 0 45 45" style="enable-background:new 0 0 45 45;" xml:space="preserve">
<rect x="-0.5" y="0.5" style="fill:#FFFFFF;stroke:#333333;stroke-miterlimit:10;" width="15" height="15"/>
<rect x="14.5" y="0.5" style="fill:#FFFFFF;stroke:#333333;stroke-miterlimit:10;" width="15" height="15"/>
<rect x="29.5" y="0.5" style="fill:#FFFFFF;stroke:#333333;stroke-miterlimit:10;" width="15" height="15"/>
<rect x="-0.5" y="15.5" style="fill:#FFFFFF;stroke:#333333;stroke-miterlimit:10;" width="15" height="15"/>
<rect x="14.5" y="15.5" style="fill:#FFFFFF;stroke:#333333;stroke-miterlimit:10;" width="15" height="15"/>
<rect x="29.5" y="15.5" style="fill:#FFFFFF;stroke:#333333;stroke-miterlimit:10;" width="15" height="15"/>
<rect x="-0.5" y="30.5" style="fill:#FFFFFF;stroke:#333333;stroke-miterlimit:10;" width="15" height="15"/>
<rect x="14.5" y="30.5" style="fill:#FFFFFF;stroke:#333333;stroke-miterlimit:10;" width="15" height="15"/>
<rect x="29.5" y="30.5" style="fill:#FFFFFF;stroke:#333333;stroke-miterlimit:10;" width="15" height="15"/>
<path style="fill:#333333;" d="M25.2,26.9L25.2,26.9c-0.3,0.3-0.9,0.3-1.2,0l-5.5-5.5c-0.3-0.3-0.3-0.9,0-1.2l0,0
	c0.3-0.3,0.9-0.3,1.2,0l5.5,5.5C25.6,26,25.6,26.5,25.2,26.9z"/>
<path style="fill:#333333;" d="M18.5,26.9L18.5,26.9c-0.3-0.3-0.3-0.9,0-1.2l5.5-5.5c0.3-0.3,0.9-0.3,1.2,0l0,0
	c0.3,0.3,0.3,0.9,0,1.2l-5.5,5.5C19.4,27.2,18.9,27.2,18.5,26.9z"/>
<circle style="fill:#333333;" cx="22" cy="8.8" r="2.5"/>
</svg>
