<?xml version="1.0" encoding="UTF-8" standalone="no"?>
<svg
   xmlns:dc="http://purl.org/dc/elements/1.1/"
   xmlns:cc="http://creativecommons.org/ns#"
   xmlns:rdf="http://www.w3.org/1999/02/22-rdf-syntax-ns#"
   xmlns:svg="http://www.w3.org/2000/svg"
   xmlns="http://www.w3.org/2000/svg"
   version="1.1"
   id="svg4164"
   viewBox="0 0 744.09448819 1052.3622047"
   height="297mm"
   width="210mm">
  <title
     id="title4489">Mariachi Mouse</title>
  <defs
     id="defs4166" />
  <metadata
     id="metadata4169">
    <rdf:RDF>
      <cc:Work
         rdf:about="">
        <dc:format>image/svg+xml</dc:format>
        <dc:type
           rdf:resource="http://purl.org/dc/dcmitype/StillImage" />
        <dc:title>Mariachi Mouse</dc:title>
        <cc:license
           rdf:resource="http://creativecommons.org/licenses/by-sa/3.0/" />
        <dc:date>January 11, 2017</dc:date>
        <dc:creator>
          <cc:Agent>
            <dc:title>Noliah Kyna Caracas</dc:title>
          </cc:Agent>
        </dc:creator>
        <dc:publisher>
          <cc:Agent>
            <dc:title>Noliah Kyna Caracas</dc:title>
          </cc:Agent>
        </dc:publisher>
        <dc:description>A mariachi mouse playing the maracas.</dc:description>
        <dc:contributor>
          <cc:Agent>
            <dc:title>The Creator.</dc:title>
          </cc:Agent>
        </dc:contributor>
      </cc:Work>
      <cc:License
         rdf:about="http://creativecommons.org/licenses/by-sa/3.0/">
        <cc:permits
           rdf:resource="http://creativecommons.org/ns#Reproduction" />
        <cc:permits
           rdf:resource="http://creativecommons.org/ns#Distribution" />
        <cc:requires
           rdf:resource="http://creativecommons.org/ns#Notice" />
        <cc:requires
           rdf:resource="http://creativecommons.org/ns#Attribution" />
        <cc:permits
           rdf:resource="http://creativecommons.org/ns#DerivativeWorks" />
        <cc:requires
           rdf:resource="http://creativecommons.org/ns#ShareAlike" />
      </cc:License>
    </rdf:RDF>
  </metadata>
  <g
     id="layer6">
    <rect
       transform="matrix(0.78804575,0.61561667,-0.64004263,0.7683394,0,0)"
       ry="11.400517"
       y="200.88976"
       x="277.27765"
       height="95.004318"
       width="22.956444"
       id="rect4356"
       style="opacity:1;fill:#803300;fill-opacity:1;stroke:#803300;stroke-width:1.33458555;stroke-opacity:1" />
    <path
       transform="matrix(0.79921126,0.60105022,-0.58687839,0.80967509,0,0)"
       d="m 255.35539,218.37463 a 38.613678,48.855507 0 0 1 -15.48624,-65.47502 38.613678,48.855507 0 0 1 51.40358,-20.99958 38.613678,48.855507 0 0 1 17.70071,64.57036 38.613678,48.855507 0 0 1 -50.64103,23.78127"
       id="path4358"
       style="opacity:1;fill:#d45500;fill-opacity:1;stroke:#d45500;stroke-width:1.13902426;stroke-opacity:1" />
    <rect
       transform="matrix(0.86907394,0.49468221,-0.50381137,0.8638137,0,0)"
       ry="12.104676"
       y="190.80635"
       x="216.60771"
       height="32.232216"
       width="76.686653"
       id="rect4370"
       style="opacity:1;fill:#00ff00;fill-opacity:1;stroke:#00ff00;stroke-width:1.06501448;stroke-opacity:1" />
    <rect
       style="opacity:1;fill:#803300;fill-opacity:1;stroke:#803300;stroke-width:1.33458555;stroke-opacity:1"
       id="rect4473"
       width="22.956444"
       height="95.004318"
       x="844.33881"
       y="-226.89471"
       ry="11.400517"
       transform="matrix(0.54044671,0.84137825,-0.85792328,0.51377782,0,0)" />
    <path
       style="opacity:1;fill:#d45500;fill-opacity:1;stroke:#d45500;stroke-width:1.13902426;stroke-opacity:1"
       id="path4475"
       d="M 847.32741,89.936047 A 38.613678,48.855507 0 0 1 831.84116,24.461027 38.613678,48.855507 0 0 1 883.24474,3.4614467 38.613678,48.855507 0 0 1 900.94546,68.031802 38.613678,48.855507 0 0 1 850.30443,91.813081"
       transform="matrix(0.59502176,0.80370959,0.81406653,-0.58077163,0,0)" />
    <rect
       style="opacity:1;fill:#00ff00;fill-opacity:1;stroke:#00ff00;stroke-width:1.06501448;stroke-opacity:1"
       id="rect4477"
       width="76.686653"
       height="32.232216"
       x="830.67297"
       y="2.2072573"
       ry="12.104676"
       transform="matrix(0.65412957,0.75638252,-0.76323248,0.64612397,0,0)" />
    <path
       d="m 403.94512,639.0445 c -4.59598,-2.08492 -9.13403,-4.56827 -13.05437,-7.77273 -4.05728,-3.83779 -5.55452,-8.87737 -6.58728,-14.19359 -1.19716,-7.21446 -0.99017,-13.54026 0.87053,-20.60818 4.03352,-11.33939 11.32268,-21.00468 18.91241,-30.18434 4.66471,-5.119 9.84401,-9.92582 15.87321,-13.42105 28.16593,-16.32827 43.61066,-30.37577 70.18231,-37.41899 7.5441,-1.58067 15.27294,-1.48351 22.93797,-1.43607 7.29658,-0.15563 14.52624,0.26824 21.6736,1.76599 7.02761,1.77753 14.06813,3.20504 21.28489,4.00617 3.84513,0.12186 7.7833,0.8133 11.6388,0.51856 1.77764,-0.13589 3.51611,-0.59272 5.27697,-0.87177 3.04591,-0.57581 5.62582,-2.12062 8.28269,-3.61124 1.11909,-0.62787 4.48188,-2.50138 3.3688,-1.86291 -53.55978,30.72225 -67.60141,39.84987 -47.16239,26.70546 8.6649,-5.99887 16.23759,-13.36965 23.91448,-20.54388 6.39127,-5.20968 11.69586,-11.44393 16.49829,-18.10304 3.43252,-5.03538 4.83305,-10.97328 6.14846,-16.83083 1.24427,-6.14751 1.35128,-12.44399 1.46271,-18.69257 0.2694,-6.1965 -1.57561,-11.83948 -3.93787,-17.45876 -3.48559,-7.41775 -6.95884,-14.84259 -10.01909,-22.44801 -2.03052,-5.72778 -4.31517,-11.36697 -5.25432,-17.39452 -0.75556,-5.94931 1.68434,-10.8677 4.74344,-15.76315 2.77748,-5.03703 6.7314,-9.19448 10.37583,-13.58671 3.85386,-3.92666 7.32639,-8.16589 11.59122,-11.66394 28.06661,-18.48322 41.65042,-33.7275 68.95545,-33.937 4.11398,0.022 8.22757,0.0848 12.3415,0.11572 4.03456,0.0263 8.06922,0.0288 12.10385,0.031 4.03908,10e-4 8.07815,4e-4 12.11722,6e-5 1.75081,0.0423 5.8104,0.41751 7.22212,1.62524 0.59444,0.50854 0.96022,1.23525 1.44033,1.85288 0,0 -54.99648,33.86622 -54.99648,33.86622 l 0,0 c 0.10161,0.2552 0.51244,0.58576 0.30481,0.76559 -0.10741,0.093 -5.70741,-0.60485 -6.14384,-0.20386 -4.04094,-2e-4 -8.08188,-1e-4 -12.12281,-0.008 -4.04154,-0.01 -8.08304,-0.0265 -12.12446,-0.0595 -4.02422,-0.0253 -8.05848,-0.0981 -12.0725,0.24391 -2.75059,0.33755 -5.40883,0.80377 -7.94372,1.98783 -0.68251,0.31881 -2.64531,1.44205 -1.99393,1.06368 17.64561,-10.24986 35.31856,-20.45258 52.97784,-30.67887 -5.02713,2.33813 -8.7618,5.91505 -12.15292,10.27484 -2.07528,1.77689 -3.45234,3.72826 -5.26412,5.74087 -1.94719,2.16301 -4.34487,3.91922 -5.68966,6.59058 -2.39771,3.81254 -6.06691,7.36245 -6.45668,12.02752 -0.20914,5.50614 2.87195,10.54772 4.23142,15.76215 2.94055,7.58803 6.41517,14.94577 9.94815,22.2732 2.78579,6.36871 5.12889,12.77527 5.23774,19.82849 -0.0724,6.57809 -0.10665,13.18119 -0.92551,19.71812 -1.10359,6.4601 -2.54175,13.01463 -5.21953,19.00816 -4.07019,7.38574 -9.54292,14.20929 -15.88424,19.75758 -7.9797,6.97581 -15.28267,14.71424 -23.60439,21.3099 -21.9045,16.33949 -4.9559,3.92974 -62.88562,37.01981 -3.996,2.28255 -8.57912,3.31345 -13.11304,3.72669 -5.94336,0.40265 -11.90328,-0.15086 -17.79693,-0.94968 -7.19382,-1.11944 -14.22863,-2.91089 -21.39014,-4.18947 -6.99446,-0.84799 -14.00864,-0.99698 -21.05143,-0.85618 -7.32583,0.13058 -14.69859,0.51845 -21.69706,2.91265 -20.79833,7.66918 -46.38199,25.89389 40.43338,-25.07736 1.92456,-1.12995 -3.96432,2.06022 -5.8618,3.23507 -1.9649,1.21659 -3.89034,2.50752 -5.71129,3.93055 -1.76227,1.37717 -3.34533,2.96943 -5.018,4.45414 -7.71047,8.40295 -14.93732,17.45292 -19.72779,27.88222 -0.53323,1.14891 -1.17526,2.25333 -1.59968,3.44672 -1.61939,4.5535 -0.87551,9.51391 -0.60201,14.20356 0.51251,3.74294 0.93851,7.49746 4.16036,9.93362 3.94239,2.63438 8.10265,4.88684 12.45449,6.7766 0,0 -53.90037,35.46453 -53.90037,35.46453 z"
       id="path4503"
       style="opacity:1;fill:#ff8080;fill-opacity:1;stroke:#ff8080;stroke-opacity:1" />
  </g>
  <g
     id="layer5">
    <path
       d="M 58.681103,397.20129 A 30.817066,30.102591 0 0 1 46.321736,356.8585 30.817066,30.102591 0 0 1 87.346252,343.91949 30.817066,30.102591 0 0 1 101.47296,383.70487 30.817066,30.102591 0 0 1 61.057024,398.35784"
       id="path4341"
       style="opacity:1;fill:#ff8080;fill-opacity:1;stroke:#ff8080;stroke-width:0.7970596;stroke-opacity:1" />
    <path
       style="opacity:1;fill:#ff8080;fill-opacity:1;stroke:#ff8080;stroke-width:0.7970596;stroke-opacity:1"
       id="path4461"
       d="m 599.39537,641.48703 a 30.817066,30.102591 0 0 1 -12.35936,-40.34279 30.817066,30.102591 0 0 1 41.02451,-12.93901 30.817066,30.102591 0 0 1 14.12671,39.78538 30.817066,30.102591 0 0 1 -40.41593,14.65297" />
  </g>
  <g
     id="layer3">
    <path
       id="rect4280"
       d="m 339.63363,687.79742 70.89889,27.17817 -116.04301,251.28109 -76.41401,-32.9281 z"
       style="opacity:1;fill:#000000;fill-opacity:1;stroke:#000000;stroke-opacity:1" />
    <path
       id="rect4284"
       d="m 337.90184,658.57376 56.85109,-40.34378 178.59315,236.38954 -68.24211,42.66972 z"
       style="opacity:1;fill:#000000;fill-opacity:1;stroke:#000000;stroke-width:0.99653685;stroke-opacity:1" />
    <path
       id="rect4332"
       d="m 26.884361,472.82922 185.604459,0 8.90432,99.78115 -204.925384,-24.62916 z"
       style="opacity:1;fill:#000000;fill-opacity:1;stroke:#000000;stroke-width:0.79748285;stroke-opacity:1"
       transform="matrix(0.91945972,-0.3931842,0.32276672,0.94647855,0,0)" />
    <path
       d="m 162.10406,509.87168 a 39.216198,38.754547 0 0 1 -15.72789,-51.93795 39.216198,38.754547 0 0 1 52.20566,-16.65788 39.216198,38.754547 0 0 1 17.97692,51.22032 39.216198,38.754547 0 0 1 -51.43122,18.86446"
       id="path4334"
       style="opacity:1;fill:#000000;fill-opacity:1;stroke:#000000;stroke-width:0.96603012;stroke-opacity:1" />
    <path
       id="rect4336"
       d="m -536.6532,-248.37718 151.29726,0 2.01133,66.32369 -156.98606,-9.38712 z"
       style="opacity:1;fill:#000000;fill-opacity:1;stroke:#000000;stroke-width:0.67075664;stroke-opacity:1"
       transform="matrix(-0.69604264,-0.71800045,0.87837004,-0.47798125,0,0)" />
    <path
       transform="matrix(0.7811445,0.62435028,-0.62435028,0.7811445,0,0)"
       d="m 290.10278,280.22983 a 11.071428,6.9642859 0 0 1 -4.44026,-9.33337 11.071428,6.9642859 0 0 1 14.73858,-2.99346 11.071428,6.9642859 0 0 1 5.0752,9.20441 11.071428,6.9642859 0 0 1 -14.51994,3.38999"
       id="path4345"
       style="opacity:1;fill:#ffff00;fill-opacity:1;stroke:#ffff00;stroke-opacity:1" />
    <path
       style="opacity:1;fill:#ffff00;fill-opacity:1;stroke:#ffff00;stroke-opacity:1"
       id="path4347"
       d="m 295.35143,267.34781 a 11.071428,6.9642859 0 0 1 -4.44026,-9.33337 11.071428,6.9642859 0 0 1 14.73859,-2.99346 11.071428,6.9642859 0 0 1 5.0752,9.20441 11.071428,6.9642859 0 0 1 -14.51995,3.38999"
       transform="matrix(0.7811445,0.62435028,-0.62435028,0.7811445,0,0)" />
    <path
       transform="matrix(0.7811445,0.62435028,-0.62435028,0.7811445,0,0)"
       d="m 300.87908,254.24282 a 11.071428,6.9642859 0 0 1 -4.44026,-9.33338 11.071428,6.9642859 0 0 1 14.73859,-2.99346 11.071428,6.9642859 0 0 1 5.0752,9.20442 11.071428,6.9642859 0 0 1 -14.51995,3.38999"
       id="path4349"
       style="opacity:1;fill:#ffff00;fill-opacity:1;stroke:#ffff00;stroke-opacity:1" />
    <path
       style="opacity:1;fill:#ffff00;fill-opacity:1;stroke:#ffff00;stroke-opacity:1"
       id="path4351"
       d="m 306.18374,240.85883 a 11.071428,6.9642859 0 0 1 -4.44026,-9.33337 11.071428,6.9642859 0 0 1 14.73858,-2.99346 11.071428,6.9642859 0 0 1 5.07521,9.20441 11.071428,6.9642859 0 0 1 -14.51995,3.38999"
       transform="matrix(0.7811445,0.62435028,-0.62435028,0.7811445,0,0)" />
    <path
       transform="matrix(0.7811445,0.62435028,-0.62435028,0.7811445,0,0)"
       d="m 310.37249,228.36678 a 11.071428,6.9642859 0 0 1 -4.44026,-9.33337 11.071428,6.9642859 0 0 1 14.73859,-2.99346 11.071428,6.9642859 0 0 1 5.0752,9.20441 11.071428,6.9642859 0 0 1 -14.51995,3.38999"
       id="path4353"
       style="opacity:1;fill:#ffff00;fill-opacity:1;stroke:#ffff00;stroke-opacity:1" />
    <path
       id="rect4372"
       d="m -781.85392,192.71558 237.19665,1.34683 -5.10863,100.71696 -218.79904,-23.09508 z"
       style="opacity:1;fill:#000000;fill-opacity:1;stroke:#000000;stroke-width:0.88254136;stroke-opacity:1"
       transform="matrix(-0.9470288,-0.32114863,-0.39505076,0.91865929,0,0)" />
    <path
       id="path4374"
       d="M 644.45898 422.92578 A 39.216198 38.754547 0 0 0 609.23242 443.64844 A 39.216198 38.754547 0 0 0 624.96094 495.58594 L 627.98438 497.07422 A 39.216198 38.754547 0 0 0 679.41602 478.21094 A 39.216198 38.754547 0 0 0 661.43945 426.99023 A 39.216198 38.754547 0 0 0 644.45898 422.92578 z "
       style="opacity:1;fill:#000000;fill-opacity:1;stroke:#000000;stroke-width:0.96603012;stroke-opacity:1" />
    <path
       id="rect4376"
       d="m -645.09412,-803.92798 152.42101,-0.36306 -1.78318,52.19317 -150.63783,12.94611 z"
       style="opacity:1;fill:#000000;fill-opacity:1;stroke:#000000;stroke-width:0.66840607;stroke-opacity:1"
       transform="matrix(0.24484798,-0.96956148,-0.99971512,0.02386785,0,0)" />
    <path
       transform="matrix(-0.7811445,0.62435028,0.62435028,0.7811445,0,0)"
       d="m -92.992728,842.00635 a 11.071428,6.9642859 0 0 1 -4.440261,-9.33337 11.071428,6.9642859 0 0 1 14.738586,-2.99346 11.071428,6.9642859 0 0 1 5.075201,9.20441 11.071428,6.9642859 0 0 1 -14.519945,3.38999"
       id="path4463"
       style="opacity:1;fill:#ffff00;fill-opacity:1;stroke:#ffff00;stroke-opacity:1" />
    <path
       style="opacity:1;fill:#ffff00;fill-opacity:1;stroke:#ffff00;stroke-opacity:1"
       id="path4465"
       d="m -103.59398,850.47968 a 11.071428,6.9642859 0 0 1 -4.44026,-9.33337 11.071428,6.9642859 0 0 1 14.738587,-2.99346 11.071428,6.9642859 0 0 1 5.075202,9.20441 11.071428,6.9642859 0 0 1 -14.519949,3.38999"
       transform="matrix(-0.7811445,0.62435028,0.62435028,0.7811445,0,0)" />
    <path
       transform="matrix(-0.7811445,0.62435028,0.62435028,0.7811445,0,0)"
       d="m -113.1913,859.06501 a 11.071428,6.9642859 0 0 1 -4.44026,-9.33338 11.071428,6.9642859 0 0 1 14.73859,-2.99346 11.071428,6.9642859 0 0 1 5.075198,9.20442 11.071428,6.9642859 0 0 1 -14.519948,3.38999"
       id="path4467"
       style="opacity:1;fill:#ffff00;fill-opacity:1;stroke:#ffff00;stroke-opacity:1" />
    <path
       style="opacity:1;fill:#ffff00;fill-opacity:1;stroke:#ffff00;stroke-opacity:1"
       id="path4469"
       d="m -123.34658,868.09632 a 11.071428,6.9642859 0 0 1 -4.44026,-9.33338 11.071428,6.9642859 0 0 1 14.73859,-2.99346 11.071428,6.9642859 0 0 1 5.0752,9.20442 11.071428,6.9642859 0 0 1 -14.51995,3.38999"
       transform="matrix(-0.7811445,0.62435028,0.62435028,0.7811445,0,0)" />
    <path
       transform="matrix(-0.7811445,0.62435028,0.62435028,0.7811445,0,0)"
       d="m -132.83191,875.67774 a 11.071428,6.9642859 0 0 1 -4.44026,-9.33337 11.071428,6.9642859 0 0 1 14.73859,-2.99347 11.071428,6.9642859 0 0 1 5.0752,9.20442 11.071428,6.9642859 0 0 1 -14.51995,3.38999"
       id="path4471"
       style="opacity:1;fill:#ffff00;fill-opacity:1;stroke:#ffff00;stroke-opacity:1" />
    <path
       id="path3403"
       d="m 507.22953,898.79041 c -19.54873,-10.9109 -20.43919,-42.00953 -10.04592,-61.95865 10.39327,-19.94913 34.68739,-10.00433 54.68386,0.0472 19.99647,10.05149 25.69957,31.6649 15.88648,51.91313 -9.53182,19.66786 -14.09318,12.90658 -46.64314,15.87601"
       style="opacity:1;fill:#000000;fill-opacity:1;stroke:#000000;stroke-width:0.98746622;stroke-opacity:1" />
    <path
       id="rect3405"
       d="m 591.54612,749.96936 54.04706,36.24839 -83.56787,111.39448 -50.47563,-36.24839 z"
       style="opacity:1;fill:#000000;fill-opacity:1;stroke:#000000;stroke-opacity:1" />
  </g>
  <g
     id="layer2">
    <path
       id="path4802"
       d="M 322.47016,756.13837 C 261.99969,698.03595 296.07169,554.54181 287.81532,446.28901 279.37463,335.61968 431.9585,287.08821 454.94967,365.58999 482.45996,459.522 506.17364,568.67304 498.91202,677.21143 491.40401,789.43254 409.6781,813.46576 346.5524,764.61569"
       style="opacity:1;fill:#000000;fill-opacity:1;stroke:#000000;stroke-width:1.12995911;stroke-opacity:1" />
    <path
       id="path4833"
       d="m 321.24968,717.65154 c -24.95346,-51.46996 19.75436,-172.43177 -21.02927,-266.75721 -35.96626,-83.18366 44.27759,-136.32808 69.80258,-89.02725 25.525,47.30084 -20.04383,192.78459 6.56466,284.45033 23.35169,80.44617 -25.24622,121.86944 -51.29538,78.82552"
       style="opacity:1;fill:#ffffff;fill-opacity:1;stroke:#ffffff;stroke-width:0.84712183;stroke-opacity:1" />
    <path
       id="rect4837"
       d="m 292.84185,362.45261 8.7536,0 c 14.62019,0 26.39025,14.16892 26.39025,31.76888 0,17.59997 -11.77006,31.76888 -26.39025,31.76888 l -8.7536,0 c -14.62019,0 -18.60926,-13.58349 -18.60926,-31.18345 0,-17.59996 3.98907,-32.35431 18.60926,-32.35431 z"
       style="display:inline;opacity:1;fill:#ffff00;fill-opacity:1;stroke:#000000;stroke-width:0.46296883;stroke-opacity:1" />
    <path
       id="rect4302"
       d="m 221.64741,930.5246 72.65608,40.59567 -9.87675,18.79779 -78.71133,-41.35658 z"
       style="opacity:1;fill:#808080;fill-opacity:1;stroke:#808080;stroke-width:0.97862941;stroke-opacity:1" />
    <rect
       transform="matrix(0.82002449,0.57232844,-0.54138627,0.84077399,0,0)"
       style="opacity:1;fill:#808080;fill-opacity:1;stroke:#808080;stroke-width:0.84354717;stroke-opacity:1"
       id="rect4304"
       width="70.60157"
       height="19.869432"
       x="899.4649"
       y="258.16095" />
    <path
       id="rect4306"
       d="m 212.13615,951.01266 73.74391,36.5881 -18.17469,36.43254 -78.61775,-39.21888 z"
       style="opacity:1;fill:#000000;fill-opacity:1;stroke:#000000;stroke-opacity:1" />
    <path
       id="path4308"
       d="m 168.94732,961.03743 c -13.597,-7.0534 -21.33565,-20.1443 -14.10668,-33.04043 7.22899,-12.89617 26.77456,-20.86827 40.683,-14.37045 13.90843,6.49782 19.7271,22.22548 13.0973,35.40158 -6.62982,13.1761 -23.27678,18.96863 -37.47083,13.0384"
       style="opacity:1;fill:#000000;fill-opacity:1;stroke:#000000;stroke-opacity:1" />
    <path
       id="rect4312"
       d="m 156.05495,929.42202 56.3207,21.51057 -18.17467,36.43273 -53.68874,-25.18651 z"
       style="opacity:1;fill:#000000;fill-opacity:1;stroke:#000000;stroke-opacity:1" />
    <path
       id="rect4314"
       d="m 666.46201,778.05257 -69.80804,-45.98998 21.68067,-31.93525 70.64484,45.04438 z"
       style="opacity:1;fill:#000000;fill-opacity:1;stroke:#000000;stroke-width:0.97573698;stroke-opacity:1" />
    <path
       id="rect4325"
       d="m 704.00409,786.87059 -38.30261,-13.7775 22.36683,-29.14429 29.54027,23.35492 z"
       style="opacity:1;fill:#000000;fill-opacity:1;stroke:#000000;stroke-width:0.76713204;stroke-opacity:1" />
    <path
       id="path4327"
       d="m 706.66751,775.29001 c 3.65757,13.36168 -10.63558,28.16416 -23.70549,31.4619 -13.06995,3.29775 -27.93595,-3.6583 -32.15667,-16.87786 -4.22073,-13.21957 2.70813,-26.87905 15.59628,-30.74631 12.88809,-3.86717 27.00909,3.47602 31.78503,16.52895"
       style="opacity:1;fill:#000000;fill-opacity:1;stroke:#000000;stroke-width:0.90821946;stroke-opacity:1" />
  </g>
  <g
     id="layer4" />
  <g
     style="display:inline"
     id="layer1">
    <path
       id="path4732"
       d="M 332.78834,390.20667 C 264.49095,352.59142 238.92045,267.54156 275.23143,198.76712 311.5424,129.99267 431.30226,74.432754 501.16391,109.0852 c 69.86167,34.65244 61.03391,136.70856 27.73259,206.97584 -33.30134,70.26729 -113.74733,111.25913 -185.04362,79.63382"
       style="opacity:1;fill:#808080;fill-opacity:1;stroke:#808080;stroke-width:1.0229243;stroke-opacity:1" />
    <path
       id="path4734"
       d="M 464.61717,232.37664 C 412.98751,205.50171 393.65739,144.73624 421.10681,95.599046 448.55623,46.461849 542.01323,30.003206 594.82541,54.761294 647.6376,79.519383 640.43742,136.4148 615.26316,186.61858 590.0889,236.82236 526.87814,258.89307 472.98145,236.29777"
       style="opacity:1;fill:#808080;fill-opacity:1;stroke:#808080;stroke-width:1.15741944;stroke-opacity:1" />
    <path
       id="path4740"
       d="m 442.72945,143.69909 c 0,0 -17.56054,-3.59674 4.47198,-42.42676 22.03252,-38.830016 93.73623,-60.291935 136.12639,-40.727187 42.39017,19.56475 39.92127,72.981297 19.71492,112.654167 -20.20635,39.67287 -49.72981,56.10381 -92.99047,38.24817"
       style="opacity:1;fill:#de8787;fill-opacity:1;stroke:#de8787;stroke-width:1.1228478;stroke-opacity:1" />
    <path
       id="path4758"
       d="m 308.60346,172.2261 -1.19929,101.11669 -1.19929,101.11666 -79.68296,-86.42288 -48.30389,-61.13506 38.09261,-5.59019 z"
       style="opacity:1;fill:#808080;fill-opacity:1;stroke:#808080;stroke-width:0.84079909;stroke-opacity:1" />
    <path
       d="m 166.81585,248.22365 a 21.452879,23.92708 0 0 1 -8.6038,-32.06652 21.452879,23.92708 0 0 1 28.55866,-10.28458 21.452879,23.92708 0 0 1 9.83411,31.62346 21.452879,23.92708 0 0 1 -28.135,11.64692"
       id="path4760"
       style="opacity:1;fill:#000000;fill-opacity:1;stroke:#000000;stroke-width:0.95203781;stroke-opacity:1" />
    <path
       d="m 226.3201,237.8692 c 15.6358,-5.88802 32.29378,-7.97438 48.7512,-10.17046 11.98799,-1.36341 24.02057,-2.21824 36.02048,-3.46699 2.04025,-0.21259 4.08525,-0.36972 6.1159,-0.66245 0,0 -1.14171,0.85424 -1.14171,0.85424 l 0,0 c -2.03105,0.28127 -4.0746,0.44311 -6.11385,0.65439 -11.99615,1.24417 -24.02548,2.09137 -36.0084,3.46313 -16.45633,2.19623 -33.11385,4.29333 -48.73957,10.20751 0,0 1.11595,-0.87937 1.11595,-0.87937 z"
       id="path4782"
       style="opacity:1;fill:#000000;fill-opacity:1;stroke:#000000;stroke-opacity:1" />
    <path
       d="m 231.21087,244.07476 c 11.05155,3.79811 21.56478,8.86818 31.90174,14.27447 8.801,4.55161 17.58158,9.11743 26.558,13.31188 3.43242,1.69019 7.14577,2.69444 10.66961,4.1419 0.28361,0.16507 0.56721,0.33013 0.85082,0.4952 0,0 -1.19604,0.77679 -1.19604,0.77679 l 0,0 c -0.27977,-0.15987 -0.55954,-0.31974 -0.83931,-0.47962 -3.53208,-1.43227 -7.23472,-2.46369 -10.66994,-4.15019 -8.97518,-4.19754 -17.75094,-8.77386 -26.5536,-13.32232 -10.33438,-5.40177 -20.84644,-10.46647 -31.899,-14.24903 0,0 1.17772,-0.79908 1.17772,-0.79908 z"
       id="path4784"
       style="opacity:1;fill:#000000;fill-opacity:1;stroke:#000000;stroke-opacity:1" />
    <path
       d="m 229.76806,255.38091 c 6.74919,5.21497 12.60438,11.45716 18.62244,17.47003 3.93156,3.79588 7.27911,8.1258 10.99801,12.11596 3.67158,3.96566 7.61626,7.65911 11.56268,11.34497 1.86746,1.14181 4.04902,4.16186 6.31418,4.35369 0.16515,-0.10947 0.33029,-0.219 0.49543,-0.32851 0,0 -0.89187,1.11403 -0.89187,1.11403 l 0,0 c -0.18779,0.0901 -0.37561,0.18011 -0.5634,0.27022 -2.36352,-0.33212 -4.42936,-3.1875 -6.37689,-4.41968 -3.94756,-3.68938 -7.89344,-7.38627 -11.56929,-11.35224 -3.71895,-3.98794 -7.06163,-8.31985 -10.99082,-12.1159 -6.0132,-6.01134 -11.8658,-12.25057 -18.61755,-17.45543 0,0 1.01708,-0.99714 1.01708,-0.99714 z"
       id="path4786"
       style="opacity:1;fill:#000000;fill-opacity:1;stroke:#000000;stroke-opacity:1" />
    <path
       d="m 409.68008,222.42834 a 25,24.285715 0 0 1 -10.0264,-32.54716 25,24.285715 0 0 1 33.28068,-10.43873 25,24.285715 0 0 1 11.46013,32.09745 25,24.285715 0 0 1 -32.78697,11.8215"
       id="path4796"
       style="opacity:1;fill:#000000;fill-opacity:1;stroke:#000000;stroke-opacity:1" />
    <path
       d="m 418.86196,202.37258 a 10.714286,8.5714283 0 0 1 -4.29703,-11.48723 10.714286,8.5714283 0 0 1 14.26315,-3.68426 10.714286,8.5714283 0 0 1 4.91149,11.32851 10.714286,8.5714283 0 0 1 -14.05156,4.1723"
       id="path4798"
       style="opacity:1;fill:#ffffff;fill-opacity:1;stroke:#ffffff;stroke-opacity:1" />
    <path
       id="path3660"
       d="m 217.80799,937.89115 a 9.3036318,15.869368 22.058673 0 1 4.52908,-21.11225 9.3036318,15.869368 22.058673 0 1 14.04036,-1.67049 9.3036318,15.869368 22.058673 0 1 -3.92422,21.04031 9.3036318,15.869368 22.058673 0 1 -14.20942,2.57688"
       style="opacity:1;fill:#ffff00;fill-opacity:1;stroke:#ffff00;stroke-width:1.08021021;stroke-opacity:1" />
    <path
       transform="matrix(0.92679976,0.37555586,-0.37555586,0.92679976,0,0)"
       style="opacity:1;fill:#ffff00;fill-opacity:1;stroke:#ffff00;stroke-width:1.08021021;stroke-opacity:1"
       id="path3662"
       d="m 567.81862,788.15246 a 9.3036318,15.869368 0 0 1 -3.73128,-21.26776 9.3036318,15.869368 0 0 1 12.38525,-6.82113 9.3036318,15.869368 0 0 1 4.26483,20.9739 9.3036318,15.869368 0 0 1 -12.20152,7.72469" />
    <path
       transform="matrix(0.92679976,0.37555586,-0.37555586,0.92679976,0,0)"
       d="m 580.82808,788.86676 a 9.3036318,15.869368 0 0 1 -3.73128,-21.26776 9.3036318,15.869368 0 0 1 12.38525,-6.82114 9.3036318,15.869368 0 0 1 4.26483,20.9739 9.3036318,15.869368 0 0 1 -12.20152,7.7247"
       id="path3664"
       style="opacity:1;fill:#ffff00;fill-opacity:1;stroke:#ffff00;stroke-width:1.08021021;stroke-opacity:1" />
    <path
       transform="matrix(0.92679976,0.37555586,-0.37555586,0.92679976,0,0)"
       style="opacity:1;fill:#ffff00;fill-opacity:1;stroke:#ffff00;stroke-width:1.08021021;stroke-opacity:1"
       id="path3666"
       d="m 595.47529,790.38201 a 9.3036318,15.869368 0 0 1 -3.73127,-21.26776 9.3036318,15.869368 0 0 1 12.38524,-6.82113 9.3036318,15.869368 0 0 1 4.26484,20.9739 9.3036318,15.869368 0 0 1 -12.20152,7.7247" />
    <path
       transform="matrix(0.92679976,0.37555586,-0.37555586,0.92679976,0,0)"
       d="m 610.62758,789.87695 a 9.3036318,15.869368 0 0 1 -3.73128,-21.26776 9.3036318,15.869368 0 0 1 12.38525,-6.82114 9.3036318,15.869368 0 0 1 4.26483,20.97391 9.3036318,15.869368 0 0 1 -12.20152,7.72469"
       id="path3668"
       style="opacity:1;fill:#ffff00;fill-opacity:1;stroke:#ffff00;stroke-width:1.08021021;stroke-opacity:1" />
    <path
       transform="matrix(0.92679976,0.37555586,-0.37555586,0.92679976,0,0)"
       style="opacity:1;fill:#ffff00;fill-opacity:1;stroke:#ffff00;stroke-width:1.08021021;stroke-opacity:1"
       id="path3670"
       d="m 625.77986,789.87695 a 9.3036318,15.869368 0 0 1 -3.73128,-21.26776 9.3036318,15.869368 0 0 1 12.38525,-6.82114 9.3036318,15.869368 0 0 1 4.26483,20.97391 9.3036318,15.869368 0 0 1 -12.20151,7.72469" />
    <path
       transform="matrix(0.80928633,0.58741437,-0.62298457,0.78223412,0,0)"
       d="m 925.4396,278.03418 a 8.5983858,14.485731 0 0 1 -3.44843,-19.41344 8.5983858,14.485731 0 0 1 11.44641,-6.22641 8.5983858,14.485731 0 0 1 3.94154,19.14521 8.5983858,14.485731 0 0 1 -11.2766,7.05118"
       id="path3672"
       style="opacity:1;fill:#ffff00;fill-opacity:1;stroke:#ffff00;stroke-width:0.99215811;stroke-opacity:1" />
    <path
       transform="matrix(0.80928633,0.58741437,-0.62298457,0.78223412,0,0)"
       style="opacity:1;fill:#ffff00;fill-opacity:1;stroke:#ffff00;stroke-width:0.99215811;stroke-opacity:1"
       id="path3674"
       d="m 940.37686,278.03418 a 8.5983858,14.485731 0 0 1 -3.44843,-19.41344 8.5983858,14.485731 0 0 1 11.4464,-6.22641 8.5983858,14.485731 0 0 1 3.94155,19.14521 8.5983858,14.485731 0 0 1 -11.27661,7.05118" />
    <path
       transform="matrix(0.80928633,0.58741437,-0.62298457,0.78223412,0,0)"
       d="m 954.84732,277.11212 a 8.5983858,14.485731 0 0 1 -3.44843,-19.41344 8.5983858,14.485731 0 0 1 11.4464,-6.22641 8.5983858,14.485731 0 0 1 3.94155,19.14521 8.5983858,14.485731 0 0 1 -11.27661,7.05118"
       id="path3676"
       style="opacity:1;fill:#ffff00;fill-opacity:1;stroke:#ffff00;stroke-width:0.99215811;stroke-opacity:1" />
    <path
       transform="matrix(0.80928633,0.58741437,-0.62298457,0.78223412,0,0)"
       style="opacity:1;fill:#ffff00;fill-opacity:1;stroke:#ffff00;stroke-width:0.99215811;stroke-opacity:1"
       id="path3678"
       d="m 969.31784,278.03418 a 8.5983858,14.485731 0 0 1 -3.44843,-19.41344 8.5983858,14.485731 0 0 1 11.4464,-6.22641 8.5983858,14.485731 0 0 1 3.94155,19.14521 8.5983858,14.485731 0 0 1 -11.27661,7.05118" />
    <path
       transform="matrix(0.80928633,0.58741437,-0.62298457,0.78223412,0,0)"
       d="m 985.18863,278.03418 a 8.5983858,14.485731 0 0 1 -3.44844,-19.41344 8.5983858,14.485731 0 0 1 11.44641,-6.22641 8.5983858,14.485731 0 0 1 3.94154,19.14521 8.5983858,14.485731 0 0 1 -11.2766,7.05118"
       id="path3680"
       style="opacity:1;fill:#ffff00;fill-opacity:1;stroke:#ffff00;stroke-width:0.99215811;stroke-opacity:1" />
    <path
       transform="matrix(0.80928633,0.58741437,-0.62298457,0.78223412,0,0)"
       style="opacity:1;fill:#ffff00;fill-opacity:1;stroke:#ffff00;stroke-width:0.82325435;stroke-opacity:1"
       id="path3682"
       d="m 995.83536,278.5686 a 5.8859377,14.569612 0 0 1 -2.36059,-19.52585 5.8859377,14.569612 0 0 1 7.83553,-6.26247 5.8859377,14.569612 0 0 1 2.6981,19.25607 5.8859377,14.569612 0 0 1 -7.71924,7.09202" />
    <path
       id="rect4839"
       d="m 368.85999,383.45983 18.39252,-0.60526 c 17.82757,-0.58667 21.89432,14.72248 21.89432,32.91885 0,18.19637 -4.65078,32.16672 -22.48763,32.16672 l -10.67952,0 c -17.83684,0 -32.19649,-14.64906 -32.19649,-32.84543 0,-18.19635 7.24923,-31.04819 25.0768,-31.63488 z"
       style="display:inline;opacity:1;fill:#ffff00;fill-opacity:1;stroke:#000000;stroke-width:0.51996088;stroke-opacity:1" />
  </g>
  <g
     id="layer7">
    <path
       id="path4835"
       d="m 314.35347,437.4424 c -15.69986,-9.78002 -19.64445,-27.97486 -11.29747,-45.85631 8.347,-17.88147 20.12422,-24.53835 36.18368,-15.52867 16.05945,9.00969 23.16469,32.12332 15.50955,50.39292 -7.65514,18.26959 -27.65003,16.72337 -44.03927,8.50074"
       style="display:inline;opacity:1;fill:#ffff00;fill-opacity:1;stroke:#000000;stroke-width:0.44513479;stroke-opacity:1" />
  </g>
</svg>
